G04 (created by PCBNEW-RS274X (2011-nov-30)-testing) date Mon 09 Jul 2012 07:17:13 PM CEST*
%MOIN*%
G04 Gerber Fmt 3.4, Leading zero omitted, Abs format*
%FSLAX34Y34*%
G01*
G70*
G90*
G04 APERTURE LIST*
%ADD10C,0.006*%
%ADD11C,0.015*%
%ADD12C,0.012*%
G04 APERTURE END LIST*
G54D10*
G54D11*
X59087Y-18701D02*
X59075Y-18821D01*
X59040Y-18938D01*
X58983Y-19045D01*
X58906Y-19139D01*
X58812Y-19216D01*
X58706Y-19274D01*
X58590Y-19310D01*
X58469Y-19322D01*
X58349Y-19311D01*
X58232Y-19277D01*
X58125Y-19221D01*
X58030Y-19145D01*
X57952Y-19052D01*
X57894Y-18946D01*
X57857Y-18830D01*
X57844Y-18709D01*
X57854Y-18589D01*
X57887Y-18473D01*
X57943Y-18365D01*
X58018Y-18269D01*
X58111Y-18191D01*
X58216Y-18132D01*
X58332Y-18094D01*
X58452Y-18080D01*
X58573Y-18089D01*
X58689Y-18122D01*
X58798Y-18176D01*
X58893Y-18251D01*
X58973Y-18343D01*
X59033Y-18449D01*
X59071Y-18564D01*
X59086Y-18684D01*
X59087Y-18701D01*
X60280Y-22048D02*
X60245Y-22400D01*
X60143Y-22739D01*
X59976Y-23052D01*
X59752Y-23326D01*
X59479Y-23552D01*
X59168Y-23721D01*
X58829Y-23825D01*
X58477Y-23862D01*
X58125Y-23830D01*
X57786Y-23730D01*
X57472Y-23566D01*
X57196Y-23344D01*
X56968Y-23073D01*
X56797Y-22763D01*
X56690Y-22425D01*
X56651Y-22073D01*
X56680Y-21721D01*
X56778Y-21380D01*
X56940Y-21065D01*
X57160Y-20788D01*
X57430Y-20558D01*
X57739Y-20385D01*
X58076Y-20276D01*
X58427Y-20234D01*
X58780Y-20261D01*
X59121Y-20356D01*
X59437Y-20516D01*
X59716Y-20734D01*
X59948Y-21002D01*
X60123Y-21310D01*
X60234Y-21646D01*
X60279Y-21998D01*
X60280Y-22048D01*
X59056Y-29725D02*
X59044Y-29839D01*
X59011Y-29950D01*
X58957Y-30052D01*
X58884Y-30141D01*
X58795Y-30214D01*
X58694Y-30269D01*
X58583Y-30303D01*
X58469Y-30315D01*
X58355Y-30305D01*
X58244Y-30272D01*
X58142Y-30219D01*
X58052Y-30147D01*
X57978Y-30058D01*
X57922Y-29957D01*
X57887Y-29847D01*
X57875Y-29733D01*
X57884Y-29619D01*
X57916Y-29508D01*
X57969Y-29405D01*
X58040Y-29315D01*
X58128Y-29240D01*
X58229Y-29184D01*
X58339Y-29148D01*
X58453Y-29135D01*
X58567Y-29143D01*
X58678Y-29174D01*
X58781Y-29227D01*
X58872Y-29298D01*
X58947Y-29385D01*
X59004Y-29485D01*
X59041Y-29595D01*
X59055Y-29709D01*
X59056Y-29725D01*
X69119Y-41339D02*
X69103Y-41496D01*
X69057Y-41648D01*
X68983Y-41787D01*
X68883Y-41910D01*
X68761Y-42011D01*
X68622Y-42086D01*
X68471Y-42133D01*
X68313Y-42149D01*
X68157Y-42135D01*
X68005Y-42090D01*
X67864Y-42017D01*
X67741Y-41918D01*
X67639Y-41797D01*
X67563Y-41658D01*
X67515Y-41507D01*
X67498Y-41350D01*
X67511Y-41193D01*
X67554Y-41041D01*
X67627Y-40900D01*
X67725Y-40776D01*
X67846Y-40674D01*
X67984Y-40596D01*
X68134Y-40547D01*
X68292Y-40529D01*
X68448Y-40541D01*
X68601Y-40583D01*
X68742Y-40655D01*
X68867Y-40752D01*
X68970Y-40872D01*
X69048Y-41010D01*
X69098Y-41160D01*
X69118Y-41317D01*
X69119Y-41339D01*
X49434Y-41339D02*
X49418Y-41496D01*
X49372Y-41648D01*
X49298Y-41788D01*
X49198Y-41911D01*
X49076Y-42012D01*
X48936Y-42087D01*
X48785Y-42134D01*
X48627Y-42150D01*
X48470Y-42136D01*
X48318Y-42091D01*
X48178Y-42018D01*
X48054Y-41919D01*
X47953Y-41797D01*
X47876Y-41658D01*
X47828Y-41507D01*
X47811Y-41350D01*
X47824Y-41193D01*
X47868Y-41041D01*
X47940Y-40900D01*
X48038Y-40775D01*
X48159Y-40673D01*
X48297Y-40595D01*
X48448Y-40546D01*
X48605Y-40528D01*
X48763Y-40540D01*
X48915Y-40582D01*
X49057Y-40654D01*
X49181Y-40751D01*
X49285Y-40871D01*
X49363Y-41009D01*
X49413Y-41160D01*
X49433Y-41317D01*
X49434Y-41339D01*
X49410Y-61024D02*
X49394Y-61177D01*
X49350Y-61324D01*
X49278Y-61460D01*
X49181Y-61579D01*
X49062Y-61677D01*
X48927Y-61750D01*
X48780Y-61795D01*
X48627Y-61811D01*
X48475Y-61798D01*
X48327Y-61754D01*
X48191Y-61683D01*
X48071Y-61587D01*
X47972Y-61469D01*
X47898Y-61334D01*
X47852Y-61187D01*
X47835Y-61035D01*
X47847Y-60882D01*
X47890Y-60734D01*
X47960Y-60598D01*
X48056Y-60477D01*
X48173Y-60377D01*
X48307Y-60302D01*
X48453Y-60255D01*
X48606Y-60237D01*
X48758Y-60248D01*
X48906Y-60290D01*
X49044Y-60359D01*
X49165Y-60454D01*
X49265Y-60570D01*
X49341Y-60704D01*
X49390Y-60850D01*
X49409Y-61002D01*
X49410Y-61024D01*
X69095Y-61024D02*
X69080Y-61176D01*
X69035Y-61323D01*
X68963Y-61459D01*
X68866Y-61578D01*
X68748Y-61676D01*
X68612Y-61749D01*
X68466Y-61794D01*
X68313Y-61810D01*
X68161Y-61797D01*
X68014Y-61753D01*
X67878Y-61682D01*
X67758Y-61586D01*
X67659Y-61468D01*
X67585Y-61334D01*
X67539Y-61187D01*
X67522Y-61034D01*
X67534Y-60882D01*
X67577Y-60735D01*
X67647Y-60598D01*
X67742Y-60478D01*
X67859Y-60378D01*
X67993Y-60303D01*
X68140Y-60256D01*
X68292Y-60238D01*
X68444Y-60249D01*
X68592Y-60291D01*
X68729Y-60360D01*
X68850Y-60455D01*
X68951Y-60571D01*
X69026Y-60704D01*
X69075Y-60850D01*
X69094Y-61003D01*
X69095Y-61024D01*
G54D12*
X63898Y-23744D02*
X63898Y-23401D01*
X63898Y-23573D02*
X64698Y-23573D01*
X64584Y-23516D01*
X64508Y-23458D01*
X64470Y-23401D01*
X63898Y-24029D02*
X63898Y-24144D01*
X63936Y-24201D01*
X63974Y-24229D01*
X64089Y-24287D01*
X64241Y-24315D01*
X64546Y-24315D01*
X64622Y-24287D01*
X64660Y-24258D01*
X64698Y-24201D01*
X64698Y-24087D01*
X64660Y-24029D01*
X64622Y-24001D01*
X64546Y-23972D01*
X64355Y-23972D01*
X64279Y-24001D01*
X64241Y-24029D01*
X64203Y-24087D01*
X64203Y-24201D01*
X64241Y-24258D01*
X64279Y-24287D01*
X64355Y-24315D01*
X63974Y-24572D02*
X63936Y-24600D01*
X63898Y-24572D01*
X63936Y-24543D01*
X63974Y-24572D01*
X63898Y-24572D01*
X64698Y-25144D02*
X64698Y-24858D01*
X64317Y-24829D01*
X64355Y-24858D01*
X64393Y-24915D01*
X64393Y-25058D01*
X64355Y-25115D01*
X64317Y-25144D01*
X64241Y-25172D01*
X64051Y-25172D01*
X63974Y-25144D01*
X63936Y-25115D01*
X63898Y-25058D01*
X63898Y-24915D01*
X63936Y-24858D01*
X63974Y-24829D01*
X64698Y-25543D02*
X64698Y-25600D01*
X64660Y-25657D01*
X64622Y-25686D01*
X64546Y-25715D01*
X64393Y-25743D01*
X64203Y-25743D01*
X64051Y-25715D01*
X63974Y-25686D01*
X63936Y-25657D01*
X63898Y-25600D01*
X63898Y-25543D01*
X63936Y-25486D01*
X63974Y-25457D01*
X64051Y-25429D01*
X64203Y-25400D01*
X64393Y-25400D01*
X64546Y-25429D01*
X64622Y-25457D01*
X64660Y-25486D01*
X64698Y-25543D01*
X64698Y-26114D02*
X64698Y-26171D01*
X64660Y-26228D01*
X64622Y-26257D01*
X64546Y-26286D01*
X64393Y-26314D01*
X64203Y-26314D01*
X64051Y-26286D01*
X63974Y-26257D01*
X63936Y-26228D01*
X63898Y-26171D01*
X63898Y-26114D01*
X63936Y-26057D01*
X63974Y-26028D01*
X64051Y-26000D01*
X64203Y-25971D01*
X64393Y-25971D01*
X64546Y-26000D01*
X64622Y-26028D01*
X64660Y-26057D01*
X64698Y-26114D01*
X63898Y-27028D02*
X64432Y-27028D01*
X64355Y-27028D02*
X64393Y-27056D01*
X64432Y-27114D01*
X64432Y-27199D01*
X64393Y-27256D01*
X64317Y-27285D01*
X63898Y-27285D01*
X64317Y-27285D02*
X64393Y-27314D01*
X64432Y-27371D01*
X64432Y-27456D01*
X64393Y-27514D01*
X64317Y-27542D01*
X63898Y-27542D01*
X63898Y-27828D02*
X64432Y-27828D01*
X64355Y-27828D02*
X64393Y-27856D01*
X64432Y-27914D01*
X64432Y-27999D01*
X64393Y-28056D01*
X64317Y-28085D01*
X63898Y-28085D01*
X64317Y-28085D02*
X64393Y-28114D01*
X64432Y-28171D01*
X64432Y-28256D01*
X64393Y-28314D01*
X64317Y-28342D01*
X63898Y-28342D01*
X63582Y-22048D02*
X63582Y-29725D01*
X58465Y-22048D02*
X64862Y-22048D01*
X58465Y-29725D02*
X64862Y-29725D01*
X63582Y-29725D02*
X63352Y-29282D01*
X63582Y-29725D02*
X63812Y-29282D01*
X63582Y-22048D02*
X63352Y-22491D01*
X63582Y-22048D02*
X63812Y-22491D01*
X67575Y-21728D02*
X67613Y-21757D01*
X67651Y-21814D01*
X67651Y-21957D01*
X67613Y-22014D01*
X67575Y-22043D01*
X67499Y-22071D01*
X67423Y-22071D01*
X67308Y-22043D01*
X66851Y-21700D01*
X66851Y-22071D01*
X67308Y-22414D02*
X67346Y-22356D01*
X67385Y-22328D01*
X67461Y-22299D01*
X67499Y-22299D01*
X67575Y-22328D01*
X67613Y-22356D01*
X67651Y-22414D01*
X67651Y-22528D01*
X67613Y-22585D01*
X67575Y-22614D01*
X67499Y-22642D01*
X67461Y-22642D01*
X67385Y-22614D01*
X67346Y-22585D01*
X67308Y-22528D01*
X67308Y-22414D01*
X67270Y-22356D01*
X67232Y-22328D01*
X67156Y-22299D01*
X67004Y-22299D01*
X66927Y-22328D01*
X66889Y-22356D01*
X66851Y-22414D01*
X66851Y-22528D01*
X66889Y-22585D01*
X66927Y-22614D01*
X67004Y-22642D01*
X67156Y-22642D01*
X67232Y-22614D01*
X67270Y-22585D01*
X67308Y-22528D01*
X66927Y-22899D02*
X66889Y-22927D01*
X66851Y-22899D01*
X66889Y-22870D01*
X66927Y-22899D01*
X66851Y-22899D01*
X67651Y-23299D02*
X67651Y-23356D01*
X67613Y-23413D01*
X67575Y-23442D01*
X67499Y-23471D01*
X67346Y-23499D01*
X67156Y-23499D01*
X67004Y-23471D01*
X66927Y-23442D01*
X66889Y-23413D01*
X66851Y-23356D01*
X66851Y-23299D01*
X66889Y-23242D01*
X66927Y-23213D01*
X67004Y-23185D01*
X67156Y-23156D01*
X67346Y-23156D01*
X67499Y-23185D01*
X67575Y-23213D01*
X67613Y-23242D01*
X67651Y-23299D01*
X67651Y-23870D02*
X67651Y-23927D01*
X67613Y-23984D01*
X67575Y-24013D01*
X67499Y-24042D01*
X67346Y-24070D01*
X67156Y-24070D01*
X67004Y-24042D01*
X66927Y-24013D01*
X66889Y-23984D01*
X66851Y-23927D01*
X66851Y-23870D01*
X66889Y-23813D01*
X66927Y-23784D01*
X67004Y-23756D01*
X67156Y-23727D01*
X67346Y-23727D01*
X67499Y-23756D01*
X67575Y-23784D01*
X67613Y-23813D01*
X67651Y-23870D01*
X66851Y-24641D02*
X66851Y-24298D01*
X66851Y-24470D02*
X67651Y-24470D01*
X67537Y-24413D01*
X67461Y-24355D01*
X67423Y-24298D01*
X66851Y-25355D02*
X67385Y-25355D01*
X67308Y-25355D02*
X67346Y-25383D01*
X67385Y-25441D01*
X67385Y-25526D01*
X67346Y-25583D01*
X67270Y-25612D01*
X66851Y-25612D01*
X67270Y-25612D02*
X67346Y-25641D01*
X67385Y-25698D01*
X67385Y-25783D01*
X67346Y-25841D01*
X67270Y-25869D01*
X66851Y-25869D01*
X66851Y-26155D02*
X67385Y-26155D01*
X67308Y-26155D02*
X67346Y-26183D01*
X67385Y-26241D01*
X67385Y-26326D01*
X67346Y-26383D01*
X67270Y-26412D01*
X66851Y-26412D01*
X67270Y-26412D02*
X67346Y-26441D01*
X67385Y-26498D01*
X67385Y-26583D01*
X67346Y-26641D01*
X67270Y-26669D01*
X66851Y-26669D01*
X66535Y-18701D02*
X66535Y-29725D01*
X58465Y-18701D02*
X67815Y-18701D01*
X58465Y-29725D02*
X67815Y-29725D01*
X66535Y-29725D02*
X66305Y-29282D01*
X66535Y-29725D02*
X66765Y-29282D01*
X66535Y-18701D02*
X66305Y-19144D01*
X66535Y-18701D02*
X66765Y-19144D01*
X55952Y-54004D02*
X56352Y-54004D01*
X56095Y-54804D01*
X56894Y-54804D02*
X56551Y-54804D01*
X56723Y-54804D02*
X56723Y-54004D01*
X56666Y-54118D01*
X56608Y-54194D01*
X56551Y-54232D01*
X57151Y-54728D02*
X57179Y-54766D01*
X57151Y-54804D01*
X57122Y-54766D01*
X57151Y-54728D01*
X57151Y-54804D01*
X57465Y-54804D02*
X57580Y-54804D01*
X57637Y-54766D01*
X57665Y-54728D01*
X57723Y-54613D01*
X57751Y-54461D01*
X57751Y-54156D01*
X57723Y-54080D01*
X57694Y-54042D01*
X57637Y-54004D01*
X57523Y-54004D01*
X57465Y-54042D01*
X57437Y-54080D01*
X57408Y-54156D01*
X57408Y-54347D01*
X57437Y-54423D01*
X57465Y-54461D01*
X57523Y-54499D01*
X57637Y-54499D01*
X57694Y-54461D01*
X57723Y-54423D01*
X57751Y-54347D01*
X58036Y-54804D02*
X58151Y-54804D01*
X58208Y-54766D01*
X58236Y-54728D01*
X58294Y-54613D01*
X58322Y-54461D01*
X58322Y-54156D01*
X58294Y-54080D01*
X58265Y-54042D01*
X58208Y-54004D01*
X58094Y-54004D01*
X58036Y-54042D01*
X58008Y-54080D01*
X57979Y-54156D01*
X57979Y-54347D01*
X58008Y-54423D01*
X58036Y-54461D01*
X58094Y-54499D01*
X58208Y-54499D01*
X58265Y-54461D01*
X58294Y-54423D01*
X58322Y-54347D01*
X58607Y-54804D02*
X58722Y-54804D01*
X58779Y-54766D01*
X58807Y-54728D01*
X58865Y-54613D01*
X58893Y-54461D01*
X58893Y-54156D01*
X58865Y-54080D01*
X58836Y-54042D01*
X58779Y-54004D01*
X58665Y-54004D01*
X58607Y-54042D01*
X58579Y-54080D01*
X58550Y-54156D01*
X58550Y-54347D01*
X58579Y-54423D01*
X58607Y-54461D01*
X58665Y-54499D01*
X58779Y-54499D01*
X58836Y-54461D01*
X58865Y-54423D01*
X58893Y-54347D01*
X59607Y-54804D02*
X59607Y-54270D01*
X59607Y-54347D02*
X59635Y-54309D01*
X59693Y-54270D01*
X59778Y-54270D01*
X59835Y-54309D01*
X59864Y-54385D01*
X59864Y-54804D01*
X59864Y-54385D02*
X59893Y-54309D01*
X59950Y-54270D01*
X60035Y-54270D01*
X60093Y-54309D01*
X60121Y-54385D01*
X60121Y-54804D01*
X60407Y-54804D02*
X60407Y-54270D01*
X60407Y-54347D02*
X60435Y-54309D01*
X60493Y-54270D01*
X60578Y-54270D01*
X60635Y-54309D01*
X60664Y-54385D01*
X60664Y-54804D01*
X60664Y-54385D02*
X60693Y-54309D01*
X60750Y-54270D01*
X60835Y-54270D01*
X60893Y-54309D01*
X60921Y-54385D01*
X60921Y-54804D01*
X44292Y-55120D02*
X72638Y-55120D01*
X44292Y-58268D02*
X44292Y-53840D01*
X72638Y-58268D02*
X72638Y-53840D01*
X72638Y-55120D02*
X72195Y-55350D01*
X72638Y-55120D02*
X72195Y-54890D01*
X44292Y-55120D02*
X44735Y-55350D01*
X44292Y-55120D02*
X44735Y-54890D01*
X49541Y-49062D02*
X49541Y-49433D01*
X49236Y-49233D01*
X49236Y-49319D01*
X49198Y-49376D01*
X49160Y-49405D01*
X49084Y-49433D01*
X48894Y-49433D01*
X48817Y-49405D01*
X48779Y-49376D01*
X48741Y-49319D01*
X48741Y-49147D01*
X48779Y-49090D01*
X48817Y-49062D01*
X49275Y-49947D02*
X48741Y-49947D01*
X49579Y-49804D02*
X49008Y-49661D01*
X49008Y-50033D01*
X48817Y-50261D02*
X48779Y-50289D01*
X48741Y-50261D01*
X48779Y-50232D01*
X48817Y-50261D01*
X48741Y-50261D01*
X49541Y-50661D02*
X49541Y-50718D01*
X49503Y-50775D01*
X49465Y-50804D01*
X49389Y-50833D01*
X49236Y-50861D01*
X49046Y-50861D01*
X48894Y-50833D01*
X48817Y-50804D01*
X48779Y-50775D01*
X48741Y-50718D01*
X48741Y-50661D01*
X48779Y-50604D01*
X48817Y-50575D01*
X48894Y-50547D01*
X49046Y-50518D01*
X49236Y-50518D01*
X49389Y-50547D01*
X49465Y-50575D01*
X49503Y-50604D01*
X49541Y-50661D01*
X49541Y-51232D02*
X49541Y-51289D01*
X49503Y-51346D01*
X49465Y-51375D01*
X49389Y-51404D01*
X49236Y-51432D01*
X49046Y-51432D01*
X48894Y-51404D01*
X48817Y-51375D01*
X48779Y-51346D01*
X48741Y-51289D01*
X48741Y-51232D01*
X48779Y-51175D01*
X48817Y-51146D01*
X48894Y-51118D01*
X49046Y-51089D01*
X49236Y-51089D01*
X49389Y-51118D01*
X49465Y-51146D01*
X49503Y-51175D01*
X49541Y-51232D01*
X49541Y-51803D02*
X49541Y-51860D01*
X49503Y-51917D01*
X49465Y-51946D01*
X49389Y-51975D01*
X49236Y-52003D01*
X49046Y-52003D01*
X48894Y-51975D01*
X48817Y-51946D01*
X48779Y-51917D01*
X48741Y-51860D01*
X48741Y-51803D01*
X48779Y-51746D01*
X48817Y-51717D01*
X48894Y-51689D01*
X49046Y-51660D01*
X49236Y-51660D01*
X49389Y-51689D01*
X49465Y-51717D01*
X49503Y-51746D01*
X49541Y-51803D01*
X48741Y-52717D02*
X49275Y-52717D01*
X49198Y-52717D02*
X49236Y-52745D01*
X49275Y-52803D01*
X49275Y-52888D01*
X49236Y-52945D01*
X49160Y-52974D01*
X48741Y-52974D01*
X49160Y-52974D02*
X49236Y-53003D01*
X49275Y-53060D01*
X49275Y-53145D01*
X49236Y-53203D01*
X49160Y-53231D01*
X48741Y-53231D01*
X48741Y-53517D02*
X49275Y-53517D01*
X49198Y-53517D02*
X49236Y-53545D01*
X49275Y-53603D01*
X49275Y-53688D01*
X49236Y-53745D01*
X49160Y-53774D01*
X48741Y-53774D01*
X49160Y-53774D02*
X49236Y-53803D01*
X49275Y-53860D01*
X49275Y-53945D01*
X49236Y-54003D01*
X49160Y-54031D01*
X48741Y-54031D01*
X48425Y-44882D02*
X48425Y-58268D01*
X44292Y-44882D02*
X49705Y-44882D01*
X44292Y-58268D02*
X49705Y-58268D01*
X48425Y-58268D02*
X48195Y-57825D01*
X48425Y-58268D02*
X48655Y-57825D01*
X48425Y-44882D02*
X48195Y-45325D01*
X48425Y-44882D02*
X48655Y-45325D01*
X71785Y-49011D02*
X71785Y-48725D01*
X71404Y-48696D01*
X71442Y-48725D01*
X71480Y-48782D01*
X71480Y-48925D01*
X71442Y-48982D01*
X71404Y-49011D01*
X71328Y-49039D01*
X71138Y-49039D01*
X71061Y-49011D01*
X71023Y-48982D01*
X70985Y-48925D01*
X70985Y-48782D01*
X71023Y-48725D01*
X71061Y-48696D01*
X71785Y-49410D02*
X71785Y-49467D01*
X71747Y-49524D01*
X71709Y-49553D01*
X71633Y-49582D01*
X71480Y-49610D01*
X71290Y-49610D01*
X71138Y-49582D01*
X71061Y-49553D01*
X71023Y-49524D01*
X70985Y-49467D01*
X70985Y-49410D01*
X71023Y-49353D01*
X71061Y-49324D01*
X71138Y-49296D01*
X71290Y-49267D01*
X71480Y-49267D01*
X71633Y-49296D01*
X71709Y-49324D01*
X71747Y-49353D01*
X71785Y-49410D01*
X71061Y-49867D02*
X71023Y-49895D01*
X70985Y-49867D01*
X71023Y-49838D01*
X71061Y-49867D01*
X70985Y-49867D01*
X71785Y-50267D02*
X71785Y-50324D01*
X71747Y-50381D01*
X71709Y-50410D01*
X71633Y-50439D01*
X71480Y-50467D01*
X71290Y-50467D01*
X71138Y-50439D01*
X71061Y-50410D01*
X71023Y-50381D01*
X70985Y-50324D01*
X70985Y-50267D01*
X71023Y-50210D01*
X71061Y-50181D01*
X71138Y-50153D01*
X71290Y-50124D01*
X71480Y-50124D01*
X71633Y-50153D01*
X71709Y-50181D01*
X71747Y-50210D01*
X71785Y-50267D01*
X71785Y-50838D02*
X71785Y-50895D01*
X71747Y-50952D01*
X71709Y-50981D01*
X71633Y-51010D01*
X71480Y-51038D01*
X71290Y-51038D01*
X71138Y-51010D01*
X71061Y-50981D01*
X71023Y-50952D01*
X70985Y-50895D01*
X70985Y-50838D01*
X71023Y-50781D01*
X71061Y-50752D01*
X71138Y-50724D01*
X71290Y-50695D01*
X71480Y-50695D01*
X71633Y-50724D01*
X71709Y-50752D01*
X71747Y-50781D01*
X71785Y-50838D01*
X71785Y-51409D02*
X71785Y-51466D01*
X71747Y-51523D01*
X71709Y-51552D01*
X71633Y-51581D01*
X71480Y-51609D01*
X71290Y-51609D01*
X71138Y-51581D01*
X71061Y-51552D01*
X71023Y-51523D01*
X70985Y-51466D01*
X70985Y-51409D01*
X71023Y-51352D01*
X71061Y-51323D01*
X71138Y-51295D01*
X71290Y-51266D01*
X71480Y-51266D01*
X71633Y-51295D01*
X71709Y-51323D01*
X71747Y-51352D01*
X71785Y-51409D01*
X70985Y-52323D02*
X71519Y-52323D01*
X71442Y-52323D02*
X71480Y-52351D01*
X71519Y-52409D01*
X71519Y-52494D01*
X71480Y-52551D01*
X71404Y-52580D01*
X70985Y-52580D01*
X71404Y-52580D02*
X71480Y-52609D01*
X71519Y-52666D01*
X71519Y-52751D01*
X71480Y-52809D01*
X71404Y-52837D01*
X70985Y-52837D01*
X70985Y-53123D02*
X71519Y-53123D01*
X71442Y-53123D02*
X71480Y-53151D01*
X71519Y-53209D01*
X71519Y-53294D01*
X71480Y-53351D01*
X71404Y-53380D01*
X70985Y-53380D01*
X71404Y-53380D02*
X71480Y-53409D01*
X71519Y-53466D01*
X71519Y-53551D01*
X71480Y-53609D01*
X71404Y-53637D01*
X70985Y-53637D01*
X70669Y-41339D02*
X70669Y-61024D01*
X68308Y-41339D02*
X71949Y-41339D01*
X68308Y-61024D02*
X71949Y-61024D01*
X70669Y-61024D02*
X70439Y-60581D01*
X70669Y-61024D02*
X70899Y-60581D01*
X70669Y-41339D02*
X70439Y-41782D01*
X70669Y-41339D02*
X70899Y-41782D01*
X56295Y-36878D02*
X56009Y-36878D01*
X55980Y-37259D01*
X56009Y-37221D01*
X56066Y-37183D01*
X56209Y-37183D01*
X56266Y-37221D01*
X56295Y-37259D01*
X56323Y-37335D01*
X56323Y-37525D01*
X56295Y-37602D01*
X56266Y-37640D01*
X56209Y-37678D01*
X56066Y-37678D01*
X56009Y-37640D01*
X55980Y-37602D01*
X56694Y-36878D02*
X56751Y-36878D01*
X56808Y-36916D01*
X56837Y-36954D01*
X56866Y-37030D01*
X56894Y-37183D01*
X56894Y-37373D01*
X56866Y-37525D01*
X56837Y-37602D01*
X56808Y-37640D01*
X56751Y-37678D01*
X56694Y-37678D01*
X56637Y-37640D01*
X56608Y-37602D01*
X56580Y-37525D01*
X56551Y-37373D01*
X56551Y-37183D01*
X56580Y-37030D01*
X56608Y-36954D01*
X56637Y-36916D01*
X56694Y-36878D01*
X57151Y-37602D02*
X57179Y-37640D01*
X57151Y-37678D01*
X57122Y-37640D01*
X57151Y-37602D01*
X57151Y-37678D01*
X57551Y-36878D02*
X57608Y-36878D01*
X57665Y-36916D01*
X57694Y-36954D01*
X57723Y-37030D01*
X57751Y-37183D01*
X57751Y-37373D01*
X57723Y-37525D01*
X57694Y-37602D01*
X57665Y-37640D01*
X57608Y-37678D01*
X57551Y-37678D01*
X57494Y-37640D01*
X57465Y-37602D01*
X57437Y-37525D01*
X57408Y-37373D01*
X57408Y-37183D01*
X57437Y-37030D01*
X57465Y-36954D01*
X57494Y-36916D01*
X57551Y-36878D01*
X58122Y-36878D02*
X58179Y-36878D01*
X58236Y-36916D01*
X58265Y-36954D01*
X58294Y-37030D01*
X58322Y-37183D01*
X58322Y-37373D01*
X58294Y-37525D01*
X58265Y-37602D01*
X58236Y-37640D01*
X58179Y-37678D01*
X58122Y-37678D01*
X58065Y-37640D01*
X58036Y-37602D01*
X58008Y-37525D01*
X57979Y-37373D01*
X57979Y-37183D01*
X58008Y-37030D01*
X58036Y-36954D01*
X58065Y-36916D01*
X58122Y-36878D01*
X58550Y-36954D02*
X58579Y-36916D01*
X58636Y-36878D01*
X58779Y-36878D01*
X58836Y-36916D01*
X58865Y-36954D01*
X58893Y-37030D01*
X58893Y-37106D01*
X58865Y-37221D01*
X58522Y-37678D01*
X58893Y-37678D01*
X59607Y-37678D02*
X59607Y-37144D01*
X59607Y-37221D02*
X59635Y-37183D01*
X59693Y-37144D01*
X59778Y-37144D01*
X59835Y-37183D01*
X59864Y-37259D01*
X59864Y-37678D01*
X59864Y-37259D02*
X59893Y-37183D01*
X59950Y-37144D01*
X60035Y-37144D01*
X60093Y-37183D01*
X60121Y-37259D01*
X60121Y-37678D01*
X60407Y-37678D02*
X60407Y-37144D01*
X60407Y-37221D02*
X60435Y-37183D01*
X60493Y-37144D01*
X60578Y-37144D01*
X60635Y-37183D01*
X60664Y-37259D01*
X60664Y-37678D01*
X60664Y-37259D02*
X60693Y-37183D01*
X60750Y-37144D01*
X60835Y-37144D01*
X60893Y-37183D01*
X60921Y-37259D01*
X60921Y-37678D01*
X48622Y-37994D02*
X68308Y-37994D01*
X48622Y-41339D02*
X48622Y-36714D01*
X68308Y-41339D02*
X68308Y-36714D01*
X68308Y-37994D02*
X67865Y-38224D01*
X68308Y-37994D02*
X67865Y-37764D01*
X48622Y-37994D02*
X49065Y-38224D01*
X48622Y-37994D02*
X49065Y-37764D01*
X43963Y-71030D02*
X43849Y-71030D01*
X43792Y-71068D01*
X43763Y-71106D01*
X43706Y-71220D01*
X43677Y-71373D01*
X43677Y-71677D01*
X43706Y-71754D01*
X43734Y-71792D01*
X43792Y-71830D01*
X43906Y-71830D01*
X43963Y-71792D01*
X43992Y-71754D01*
X44020Y-71677D01*
X44020Y-71487D01*
X43992Y-71411D01*
X43963Y-71373D01*
X43906Y-71335D01*
X43792Y-71335D01*
X43734Y-71373D01*
X43706Y-71411D01*
X43677Y-71487D01*
X44248Y-71106D02*
X44277Y-71068D01*
X44334Y-71030D01*
X44477Y-71030D01*
X44534Y-71068D01*
X44563Y-71106D01*
X44591Y-71182D01*
X44591Y-71258D01*
X44563Y-71373D01*
X44220Y-71830D01*
X44591Y-71830D01*
X44848Y-71754D02*
X44876Y-71792D01*
X44848Y-71830D01*
X44819Y-71792D01*
X44848Y-71754D01*
X44848Y-71830D01*
X45391Y-71296D02*
X45391Y-71830D01*
X45248Y-70992D02*
X45105Y-71563D01*
X45477Y-71563D01*
X45733Y-71830D02*
X45848Y-71830D01*
X45905Y-71792D01*
X45933Y-71754D01*
X45991Y-71639D01*
X46019Y-71487D01*
X46019Y-71182D01*
X45991Y-71106D01*
X45962Y-71068D01*
X45905Y-71030D01*
X45791Y-71030D01*
X45733Y-71068D01*
X45705Y-71106D01*
X45676Y-71182D01*
X45676Y-71373D01*
X45705Y-71449D01*
X45733Y-71487D01*
X45791Y-71525D01*
X45905Y-71525D01*
X45962Y-71487D01*
X45991Y-71449D01*
X46019Y-71373D01*
X46304Y-71830D02*
X46419Y-71830D01*
X46476Y-71792D01*
X46504Y-71754D01*
X46562Y-71639D01*
X46590Y-71487D01*
X46590Y-71182D01*
X46562Y-71106D01*
X46533Y-71068D01*
X46476Y-71030D01*
X46362Y-71030D01*
X46304Y-71068D01*
X46276Y-71106D01*
X46247Y-71182D01*
X46247Y-71373D01*
X46276Y-71449D01*
X46304Y-71487D01*
X46362Y-71525D01*
X46476Y-71525D01*
X46533Y-71487D01*
X46562Y-71449D01*
X46590Y-71373D01*
X47304Y-71830D02*
X47304Y-71296D01*
X47304Y-71373D02*
X47332Y-71335D01*
X47390Y-71296D01*
X47475Y-71296D01*
X47532Y-71335D01*
X47561Y-71411D01*
X47561Y-71830D01*
X47561Y-71411D02*
X47590Y-71335D01*
X47647Y-71296D01*
X47732Y-71296D01*
X47790Y-71335D01*
X47818Y-71411D01*
X47818Y-71830D01*
X48104Y-71830D02*
X48104Y-71296D01*
X48104Y-71373D02*
X48132Y-71335D01*
X48190Y-71296D01*
X48275Y-71296D01*
X48332Y-71335D01*
X48361Y-71411D01*
X48361Y-71830D01*
X48361Y-71411D02*
X48390Y-71335D01*
X48447Y-71296D01*
X48532Y-71296D01*
X48590Y-71335D01*
X48618Y-71411D01*
X48618Y-71830D01*
X33859Y-70866D02*
X58465Y-70866D01*
X33859Y-41339D02*
X33859Y-72146D01*
X58465Y-41339D02*
X58465Y-72146D01*
X58465Y-70866D02*
X58022Y-71096D01*
X58465Y-70866D02*
X58022Y-70636D01*
X33859Y-70866D02*
X34302Y-71096D01*
X33859Y-70866D02*
X34302Y-70636D01*
X74268Y-63028D02*
X74268Y-63562D01*
X74125Y-62724D02*
X73982Y-63295D01*
X74354Y-63295D01*
X74582Y-63486D02*
X74610Y-63524D01*
X74582Y-63562D01*
X74553Y-63524D01*
X74582Y-63486D01*
X74582Y-63562D01*
X74982Y-62762D02*
X75039Y-62762D01*
X75096Y-62800D01*
X75125Y-62838D01*
X75154Y-62914D01*
X75182Y-63067D01*
X75182Y-63257D01*
X75154Y-63409D01*
X75125Y-63486D01*
X75096Y-63524D01*
X75039Y-63562D01*
X74982Y-63562D01*
X74925Y-63524D01*
X74896Y-63486D01*
X74868Y-63409D01*
X74839Y-63257D01*
X74839Y-63067D01*
X74868Y-62914D01*
X74896Y-62838D01*
X74925Y-62800D01*
X74982Y-62762D01*
X75553Y-62762D02*
X75610Y-62762D01*
X75667Y-62800D01*
X75696Y-62838D01*
X75725Y-62914D01*
X75753Y-63067D01*
X75753Y-63257D01*
X75725Y-63409D01*
X75696Y-63486D01*
X75667Y-63524D01*
X75610Y-63562D01*
X75553Y-63562D01*
X75496Y-63524D01*
X75467Y-63486D01*
X75439Y-63409D01*
X75410Y-63257D01*
X75410Y-63067D01*
X75439Y-62914D01*
X75467Y-62838D01*
X75496Y-62800D01*
X75553Y-62762D01*
X76124Y-62762D02*
X76181Y-62762D01*
X76238Y-62800D01*
X76267Y-62838D01*
X76296Y-62914D01*
X76324Y-63067D01*
X76324Y-63257D01*
X76296Y-63409D01*
X76267Y-63486D01*
X76238Y-63524D01*
X76181Y-63562D01*
X76124Y-63562D01*
X76067Y-63524D01*
X76038Y-63486D01*
X76010Y-63409D01*
X75981Y-63257D01*
X75981Y-63067D01*
X76010Y-62914D01*
X76038Y-62838D01*
X76067Y-62800D01*
X76124Y-62762D01*
X77038Y-63562D02*
X77038Y-63028D01*
X77038Y-63105D02*
X77066Y-63067D01*
X77124Y-63028D01*
X77209Y-63028D01*
X77266Y-63067D01*
X77295Y-63143D01*
X77295Y-63562D01*
X77295Y-63143D02*
X77324Y-63067D01*
X77381Y-63028D01*
X77466Y-63028D01*
X77524Y-63067D01*
X77552Y-63143D01*
X77552Y-63562D01*
X77838Y-63562D02*
X77838Y-63028D01*
X77838Y-63105D02*
X77866Y-63067D01*
X77924Y-63028D01*
X78009Y-63028D01*
X78066Y-63067D01*
X78095Y-63143D01*
X78095Y-63562D01*
X78095Y-63143D02*
X78124Y-63067D01*
X78181Y-63028D01*
X78266Y-63028D01*
X78324Y-63067D01*
X78352Y-63143D01*
X78352Y-63562D01*
X75394Y-62598D02*
X76969Y-62598D01*
X75394Y-48426D02*
X75394Y-63878D01*
X76969Y-48426D02*
X76969Y-63878D01*
X76969Y-62598D02*
X76526Y-62828D01*
X76969Y-62598D02*
X76526Y-62368D01*
X75394Y-62598D02*
X75837Y-62828D01*
X75394Y-62598D02*
X75837Y-62368D01*
X90810Y-39140D02*
X90276Y-39140D01*
X91114Y-38997D02*
X90543Y-38854D01*
X90543Y-39226D01*
X91076Y-39568D02*
X91076Y-39625D01*
X91038Y-39682D01*
X91000Y-39711D01*
X90924Y-39740D01*
X90771Y-39768D01*
X90581Y-39768D01*
X90429Y-39740D01*
X90352Y-39711D01*
X90314Y-39682D01*
X90276Y-39625D01*
X90276Y-39568D01*
X90314Y-39511D01*
X90352Y-39482D01*
X90429Y-39454D01*
X90581Y-39425D01*
X90771Y-39425D01*
X90924Y-39454D01*
X91000Y-39482D01*
X91038Y-39511D01*
X91076Y-39568D01*
X90352Y-40025D02*
X90314Y-40053D01*
X90276Y-40025D01*
X90314Y-39996D01*
X90352Y-40025D01*
X90276Y-40025D01*
X91076Y-40425D02*
X91076Y-40482D01*
X91038Y-40539D01*
X91000Y-40568D01*
X90924Y-40597D01*
X90771Y-40625D01*
X90581Y-40625D01*
X90429Y-40597D01*
X90352Y-40568D01*
X90314Y-40539D01*
X90276Y-40482D01*
X90276Y-40425D01*
X90314Y-40368D01*
X90352Y-40339D01*
X90429Y-40311D01*
X90581Y-40282D01*
X90771Y-40282D01*
X90924Y-40311D01*
X91000Y-40339D01*
X91038Y-40368D01*
X91076Y-40425D01*
X91076Y-40996D02*
X91076Y-41053D01*
X91038Y-41110D01*
X91000Y-41139D01*
X90924Y-41168D01*
X90771Y-41196D01*
X90581Y-41196D01*
X90429Y-41168D01*
X90352Y-41139D01*
X90314Y-41110D01*
X90276Y-41053D01*
X90276Y-40996D01*
X90314Y-40939D01*
X90352Y-40910D01*
X90429Y-40882D01*
X90581Y-40853D01*
X90771Y-40853D01*
X90924Y-40882D01*
X91000Y-40910D01*
X91038Y-40939D01*
X91076Y-40996D01*
X91076Y-41567D02*
X91076Y-41624D01*
X91038Y-41681D01*
X91000Y-41710D01*
X90924Y-41739D01*
X90771Y-41767D01*
X90581Y-41767D01*
X90429Y-41739D01*
X90352Y-41710D01*
X90314Y-41681D01*
X90276Y-41624D01*
X90276Y-41567D01*
X90314Y-41510D01*
X90352Y-41481D01*
X90429Y-41453D01*
X90581Y-41424D01*
X90771Y-41424D01*
X90924Y-41453D01*
X91000Y-41481D01*
X91038Y-41510D01*
X91076Y-41567D01*
X90276Y-42481D02*
X90810Y-42481D01*
X90733Y-42481D02*
X90771Y-42509D01*
X90810Y-42567D01*
X90810Y-42652D01*
X90771Y-42709D01*
X90695Y-42738D01*
X90276Y-42738D01*
X90695Y-42738D02*
X90771Y-42767D01*
X90810Y-42824D01*
X90810Y-42909D01*
X90771Y-42967D01*
X90695Y-42995D01*
X90276Y-42995D01*
X90276Y-43281D02*
X90810Y-43281D01*
X90733Y-43281D02*
X90771Y-43309D01*
X90810Y-43367D01*
X90810Y-43452D01*
X90771Y-43509D01*
X90695Y-43538D01*
X90276Y-43538D01*
X90695Y-43538D02*
X90771Y-43567D01*
X90810Y-43624D01*
X90810Y-43709D01*
X90771Y-43767D01*
X90695Y-43795D01*
X90276Y-43795D01*
X89960Y-33465D02*
X89960Y-49213D01*
X76182Y-33465D02*
X91240Y-33465D01*
X76182Y-49213D02*
X91240Y-49213D01*
X89960Y-49213D02*
X89730Y-48770D01*
X89960Y-49213D02*
X90190Y-48770D01*
X89960Y-33465D02*
X89730Y-33908D01*
X89960Y-33465D02*
X90190Y-33908D01*
X56038Y-7559D02*
X55695Y-7559D01*
X55867Y-7559D02*
X55867Y-6759D01*
X55810Y-6873D01*
X55752Y-6949D01*
X55695Y-6987D01*
X56238Y-6759D02*
X56609Y-6759D01*
X56409Y-7064D01*
X56495Y-7064D01*
X56552Y-7102D01*
X56581Y-7140D01*
X56609Y-7216D01*
X56609Y-7406D01*
X56581Y-7483D01*
X56552Y-7521D01*
X56495Y-7559D01*
X56323Y-7559D01*
X56266Y-7521D01*
X56238Y-7483D01*
X56980Y-6759D02*
X57037Y-6759D01*
X57094Y-6797D01*
X57123Y-6835D01*
X57152Y-6911D01*
X57180Y-7064D01*
X57180Y-7254D01*
X57152Y-7406D01*
X57123Y-7483D01*
X57094Y-7521D01*
X57037Y-7559D01*
X56980Y-7559D01*
X56923Y-7521D01*
X56894Y-7483D01*
X56866Y-7406D01*
X56837Y-7254D01*
X56837Y-7064D01*
X56866Y-6911D01*
X56894Y-6835D01*
X56923Y-6797D01*
X56980Y-6759D01*
X57437Y-7483D02*
X57465Y-7521D01*
X57437Y-7559D01*
X57408Y-7521D01*
X57437Y-7483D01*
X57437Y-7559D01*
X57837Y-6759D02*
X57894Y-6759D01*
X57951Y-6797D01*
X57980Y-6835D01*
X58009Y-6911D01*
X58037Y-7064D01*
X58037Y-7254D01*
X58009Y-7406D01*
X57980Y-7483D01*
X57951Y-7521D01*
X57894Y-7559D01*
X57837Y-7559D01*
X57780Y-7521D01*
X57751Y-7483D01*
X57723Y-7406D01*
X57694Y-7254D01*
X57694Y-7064D01*
X57723Y-6911D01*
X57751Y-6835D01*
X57780Y-6797D01*
X57837Y-6759D01*
X58408Y-6759D02*
X58465Y-6759D01*
X58522Y-6797D01*
X58551Y-6835D01*
X58580Y-6911D01*
X58608Y-7064D01*
X58608Y-7254D01*
X58580Y-7406D01*
X58551Y-7483D01*
X58522Y-7521D01*
X58465Y-7559D01*
X58408Y-7559D01*
X58351Y-7521D01*
X58322Y-7483D01*
X58294Y-7406D01*
X58265Y-7254D01*
X58265Y-7064D01*
X58294Y-6911D01*
X58322Y-6835D01*
X58351Y-6797D01*
X58408Y-6759D01*
X58836Y-6835D02*
X58865Y-6797D01*
X58922Y-6759D01*
X59065Y-6759D01*
X59122Y-6797D01*
X59151Y-6835D01*
X59179Y-6911D01*
X59179Y-6987D01*
X59151Y-7102D01*
X58808Y-7559D01*
X59179Y-7559D01*
X59893Y-7559D02*
X59893Y-7025D01*
X59893Y-7102D02*
X59921Y-7064D01*
X59979Y-7025D01*
X60064Y-7025D01*
X60121Y-7064D01*
X60150Y-7140D01*
X60150Y-7559D01*
X60150Y-7140D02*
X60179Y-7064D01*
X60236Y-7025D01*
X60321Y-7025D01*
X60379Y-7064D01*
X60407Y-7140D01*
X60407Y-7559D01*
X60693Y-7559D02*
X60693Y-7025D01*
X60693Y-7102D02*
X60721Y-7064D01*
X60779Y-7025D01*
X60864Y-7025D01*
X60921Y-7064D01*
X60950Y-7140D01*
X60950Y-7559D01*
X60950Y-7140D02*
X60979Y-7064D01*
X61036Y-7025D01*
X61121Y-7025D01*
X61179Y-7064D01*
X61207Y-7140D01*
X61207Y-7559D01*
X32874Y-7875D02*
X84056Y-7875D01*
X32874Y-41339D02*
X32874Y-6595D01*
X84056Y-41339D02*
X84056Y-6595D01*
X84056Y-7875D02*
X83613Y-8105D01*
X84056Y-7875D02*
X83613Y-7645D01*
X32874Y-7875D02*
X33317Y-8105D01*
X32874Y-7875D02*
X33317Y-7645D01*
G54D11*
X82087Y-41339D02*
X81637Y-45927D01*
X80304Y-50340D01*
X78140Y-54411D01*
X75226Y-57983D01*
X71674Y-60922D01*
X67618Y-63115D01*
X63214Y-64478D01*
X58629Y-64960D01*
X54039Y-64542D01*
X49617Y-63240D01*
X45531Y-61105D01*
X41938Y-58216D01*
X38975Y-54684D01*
X36754Y-50644D01*
X35360Y-46250D01*
X34846Y-41668D01*
X35232Y-37075D01*
X36502Y-32644D01*
X38610Y-28543D01*
X41473Y-24930D01*
X44984Y-21942D01*
X49008Y-19693D01*
X53393Y-18269D01*
X57971Y-17723D01*
X62566Y-18076D01*
X67007Y-19316D01*
X71122Y-21395D01*
X74755Y-24233D01*
X77767Y-27723D01*
X80044Y-31732D01*
X81499Y-36106D01*
X82077Y-40680D01*
X82087Y-41339D01*
X39567Y-27166D02*
X77363Y-27166D01*
G54D12*
X45018Y-57386D02*
X45104Y-57424D01*
X45132Y-57462D01*
X45161Y-57538D01*
X45161Y-57652D01*
X45132Y-57729D01*
X45104Y-57767D01*
X45046Y-57805D01*
X44818Y-57805D01*
X44818Y-57005D01*
X45018Y-57005D01*
X45075Y-57043D01*
X45104Y-57081D01*
X45132Y-57157D01*
X45132Y-57233D01*
X45104Y-57310D01*
X45075Y-57348D01*
X45018Y-57386D01*
X44818Y-57386D01*
X45675Y-57805D02*
X45675Y-57386D01*
X45646Y-57310D01*
X45589Y-57271D01*
X45475Y-57271D01*
X45418Y-57310D01*
X45675Y-57767D02*
X45618Y-57805D01*
X45475Y-57805D01*
X45418Y-57767D01*
X45389Y-57691D01*
X45389Y-57614D01*
X45418Y-57538D01*
X45475Y-57500D01*
X45618Y-57500D01*
X45675Y-57462D01*
X45875Y-57271D02*
X46104Y-57271D01*
X45961Y-57005D02*
X45961Y-57691D01*
X45989Y-57767D01*
X46047Y-57805D01*
X46104Y-57805D01*
X46218Y-57271D02*
X46447Y-57271D01*
X46304Y-57005D02*
X46304Y-57691D01*
X46332Y-57767D01*
X46390Y-57805D01*
X46447Y-57805D01*
X46875Y-57767D02*
X46818Y-57805D01*
X46704Y-57805D01*
X46647Y-57767D01*
X46618Y-57691D01*
X46618Y-57386D01*
X46647Y-57310D01*
X46704Y-57271D01*
X46818Y-57271D01*
X46875Y-57310D01*
X46904Y-57386D01*
X46904Y-57462D01*
X46618Y-57538D01*
X47161Y-57805D02*
X47161Y-57271D01*
X47161Y-57424D02*
X47189Y-57348D01*
X47218Y-57310D01*
X47275Y-57271D01*
X47332Y-57271D01*
X47475Y-57271D02*
X47618Y-57805D01*
X47760Y-57271D02*
X47618Y-57805D01*
X47560Y-57995D01*
X47532Y-58033D01*
X47475Y-58071D01*
G54D11*
X72638Y-44882D02*
X44292Y-44882D01*
X72638Y-58268D02*
X72638Y-44882D01*
X44292Y-58268D02*
X72638Y-58268D01*
X44292Y-53937D02*
X44292Y-58268D01*
X44292Y-44882D02*
X44292Y-53937D01*
X41142Y-41339D02*
X41142Y-33859D01*
X40355Y-33859D02*
X40355Y-48819D01*
X41142Y-48819D02*
X41142Y-41339D01*
X40749Y-33465D02*
X40715Y-33467D01*
X40681Y-33471D01*
X40648Y-33479D01*
X40615Y-33489D01*
X40583Y-33502D01*
X40553Y-33518D01*
X40524Y-33537D01*
X40496Y-33558D01*
X40471Y-33581D01*
X40448Y-33606D01*
X40427Y-33634D01*
X40408Y-33663D01*
X40392Y-33693D01*
X40379Y-33725D01*
X40369Y-33758D01*
X40361Y-33791D01*
X40357Y-33825D01*
X40355Y-33859D01*
X41143Y-33859D02*
X41141Y-33825D01*
X41137Y-33791D01*
X41129Y-33758D01*
X41119Y-33725D01*
X41106Y-33693D01*
X41090Y-33663D01*
X41071Y-33634D01*
X41050Y-33606D01*
X41027Y-33581D01*
X41002Y-33558D01*
X40974Y-33537D01*
X40946Y-33518D01*
X40915Y-33502D01*
X40883Y-33489D01*
X40850Y-33479D01*
X40817Y-33471D01*
X40783Y-33467D01*
X40749Y-33465D01*
X40355Y-48819D02*
X40357Y-48853D01*
X40361Y-48887D01*
X40369Y-48920D01*
X40379Y-48953D01*
X40392Y-48985D01*
X40408Y-49015D01*
X40427Y-49044D01*
X40448Y-49072D01*
X40471Y-49097D01*
X40496Y-49120D01*
X40524Y-49141D01*
X40553Y-49160D01*
X40583Y-49176D01*
X40615Y-49189D01*
X40648Y-49199D01*
X40681Y-49207D01*
X40715Y-49211D01*
X40749Y-49213D01*
X40749Y-49212D02*
X40783Y-49210D01*
X40817Y-49206D01*
X40850Y-49198D01*
X40883Y-49188D01*
X40915Y-49175D01*
X40945Y-49159D01*
X40974Y-49140D01*
X41001Y-49120D01*
X41026Y-49096D01*
X41050Y-49071D01*
X41070Y-49044D01*
X41089Y-49015D01*
X41105Y-48985D01*
X41118Y-48953D01*
X41128Y-48920D01*
X41136Y-48887D01*
X41140Y-48853D01*
X41142Y-48819D01*
X40355Y-33859D02*
X39961Y-33859D01*
X39961Y-33859D02*
X39961Y-48819D01*
X39961Y-48819D02*
X40355Y-48819D01*
X41142Y-33859D02*
X41536Y-33859D01*
X41536Y-33859D02*
X41536Y-48819D01*
X41536Y-48819D02*
X41142Y-48819D01*
X76969Y-48819D02*
X76575Y-48819D01*
X76969Y-33859D02*
X76969Y-48819D01*
X76575Y-33859D02*
X76969Y-33859D01*
X75394Y-48819D02*
X75788Y-48819D01*
X75394Y-33859D02*
X75394Y-48819D01*
X75788Y-33859D02*
X75394Y-33859D01*
X76182Y-49212D02*
X76216Y-49210D01*
X76250Y-49206D01*
X76283Y-49198D01*
X76316Y-49188D01*
X76348Y-49175D01*
X76378Y-49159D01*
X76407Y-49140D01*
X76434Y-49120D01*
X76459Y-49096D01*
X76483Y-49071D01*
X76503Y-49044D01*
X76522Y-49015D01*
X76538Y-48985D01*
X76551Y-48953D01*
X76561Y-48920D01*
X76569Y-48887D01*
X76573Y-48853D01*
X76575Y-48819D01*
X75788Y-48819D02*
X75790Y-48853D01*
X75794Y-48887D01*
X75802Y-48920D01*
X75812Y-48953D01*
X75825Y-48985D01*
X75841Y-49015D01*
X75860Y-49044D01*
X75881Y-49072D01*
X75904Y-49097D01*
X75929Y-49120D01*
X75957Y-49141D01*
X75986Y-49160D01*
X76016Y-49176D01*
X76048Y-49189D01*
X76081Y-49199D01*
X76114Y-49207D01*
X76148Y-49211D01*
X76182Y-49213D01*
X76576Y-33859D02*
X76574Y-33825D01*
X76570Y-33791D01*
X76562Y-33758D01*
X76552Y-33725D01*
X76539Y-33693D01*
X76523Y-33663D01*
X76504Y-33634D01*
X76483Y-33606D01*
X76460Y-33581D01*
X76435Y-33558D01*
X76407Y-33537D01*
X76379Y-33518D01*
X76348Y-33502D01*
X76316Y-33489D01*
X76283Y-33479D01*
X76250Y-33471D01*
X76216Y-33467D01*
X76182Y-33465D01*
X76182Y-33465D02*
X76148Y-33467D01*
X76114Y-33471D01*
X76081Y-33479D01*
X76048Y-33489D01*
X76016Y-33502D01*
X75986Y-33518D01*
X75957Y-33537D01*
X75929Y-33558D01*
X75904Y-33581D01*
X75881Y-33606D01*
X75860Y-33634D01*
X75841Y-33663D01*
X75825Y-33693D01*
X75812Y-33725D01*
X75802Y-33758D01*
X75794Y-33791D01*
X75790Y-33825D01*
X75788Y-33859D01*
X76575Y-48819D02*
X76575Y-41339D01*
X75788Y-33859D02*
X75788Y-48819D01*
X76575Y-41339D02*
X76575Y-33859D01*
X84056Y-41339D02*
X83568Y-46309D01*
X82125Y-51090D01*
X79780Y-55500D01*
X76623Y-59371D01*
X72775Y-62554D01*
X68381Y-64930D01*
X63610Y-66407D01*
X58643Y-66929D01*
X53670Y-66476D01*
X48879Y-65066D01*
X44453Y-62752D01*
X40560Y-59623D01*
X37350Y-55797D01*
X34944Y-51420D01*
X33434Y-46659D01*
X32877Y-41696D01*
X33295Y-36720D01*
X34672Y-31919D01*
X36955Y-27477D01*
X40057Y-23562D01*
X43860Y-20325D01*
X48220Y-17889D01*
X52970Y-16345D01*
X57930Y-15754D01*
X62908Y-16137D01*
X67719Y-17480D01*
X72177Y-19732D01*
X76113Y-22807D01*
X79376Y-26588D01*
X81843Y-30931D01*
X83420Y-35670D01*
X84046Y-40625D01*
X84056Y-41339D01*
X39371Y-41339D02*
X39371Y-35237D01*
X39371Y-41339D02*
X39371Y-47441D01*
X42126Y-47441D02*
X42126Y-35237D01*
X40749Y-33859D02*
X40629Y-33865D01*
X40510Y-33880D01*
X40393Y-33906D01*
X40278Y-33943D01*
X40167Y-33989D01*
X40061Y-34044D01*
X39959Y-34109D01*
X39864Y-34182D01*
X39775Y-34263D01*
X39694Y-34352D01*
X39621Y-34447D01*
X39556Y-34549D01*
X39501Y-34655D01*
X39455Y-34766D01*
X39418Y-34881D01*
X39392Y-34998D01*
X39377Y-35117D01*
X39371Y-35237D01*
X42127Y-35237D02*
X42121Y-35117D01*
X42106Y-34998D01*
X42080Y-34881D01*
X42043Y-34766D01*
X41997Y-34655D01*
X41942Y-34549D01*
X41877Y-34447D01*
X41804Y-34352D01*
X41723Y-34263D01*
X41634Y-34182D01*
X41539Y-34109D01*
X41438Y-34044D01*
X41331Y-33989D01*
X41220Y-33943D01*
X41105Y-33906D01*
X40988Y-33880D01*
X40869Y-33865D01*
X40749Y-33859D01*
X39371Y-47441D02*
X39377Y-47561D01*
X39392Y-47680D01*
X39418Y-47797D01*
X39455Y-47912D01*
X39501Y-48023D01*
X39556Y-48129D01*
X39621Y-48231D01*
X39694Y-48326D01*
X39775Y-48415D01*
X39864Y-48496D01*
X39959Y-48569D01*
X40061Y-48634D01*
X40167Y-48689D01*
X40278Y-48735D01*
X40393Y-48772D01*
X40510Y-48798D01*
X40629Y-48813D01*
X40749Y-48819D01*
X40749Y-48818D02*
X40869Y-48812D01*
X40988Y-48797D01*
X41105Y-48771D01*
X41219Y-48734D01*
X41330Y-48688D01*
X41437Y-48633D01*
X41538Y-48568D01*
X41634Y-48495D01*
X41722Y-48414D01*
X41803Y-48326D01*
X41876Y-48230D01*
X41941Y-48129D01*
X41996Y-48022D01*
X42042Y-47911D01*
X42079Y-47797D01*
X42105Y-47680D01*
X42120Y-47561D01*
X42126Y-47441D01*
X76182Y-48818D02*
X76302Y-48812D01*
X76421Y-48797D01*
X76538Y-48771D01*
X76652Y-48734D01*
X76763Y-48688D01*
X76870Y-48633D01*
X76971Y-48568D01*
X77067Y-48495D01*
X77155Y-48414D01*
X77236Y-48326D01*
X77309Y-48230D01*
X77374Y-48129D01*
X77429Y-48022D01*
X77475Y-47911D01*
X77512Y-47797D01*
X77538Y-47680D01*
X77553Y-47561D01*
X77559Y-47441D01*
X74804Y-47441D02*
X74810Y-47561D01*
X74825Y-47680D01*
X74851Y-47797D01*
X74888Y-47912D01*
X74934Y-48023D01*
X74989Y-48129D01*
X75054Y-48231D01*
X75127Y-48326D01*
X75208Y-48415D01*
X75297Y-48496D01*
X75392Y-48569D01*
X75494Y-48634D01*
X75600Y-48689D01*
X75711Y-48735D01*
X75826Y-48772D01*
X75943Y-48798D01*
X76062Y-48813D01*
X76182Y-48819D01*
X77560Y-35237D02*
X77554Y-35117D01*
X77539Y-34998D01*
X77513Y-34881D01*
X77476Y-34766D01*
X77430Y-34655D01*
X77375Y-34549D01*
X77310Y-34447D01*
X77237Y-34352D01*
X77156Y-34263D01*
X77067Y-34182D01*
X76972Y-34109D01*
X76871Y-34044D01*
X76764Y-33989D01*
X76653Y-33943D01*
X76538Y-33906D01*
X76421Y-33880D01*
X76302Y-33865D01*
X76182Y-33859D01*
X76182Y-33859D02*
X76062Y-33865D01*
X75943Y-33880D01*
X75826Y-33906D01*
X75711Y-33943D01*
X75600Y-33989D01*
X75494Y-34044D01*
X75392Y-34109D01*
X75297Y-34182D01*
X75208Y-34263D01*
X75127Y-34352D01*
X75054Y-34447D01*
X74989Y-34549D01*
X74934Y-34655D01*
X74888Y-34766D01*
X74851Y-34881D01*
X74825Y-34998D01*
X74810Y-35117D01*
X74804Y-35237D01*
X77559Y-47441D02*
X77559Y-35237D01*
X74804Y-41339D02*
X74804Y-47441D01*
X74804Y-41339D02*
X74804Y-35237D01*
G54D10*
X68906Y-61024D02*
X68894Y-61140D01*
X68860Y-61252D01*
X68805Y-61355D01*
X68732Y-61446D01*
X68641Y-61520D01*
X68539Y-61576D01*
X68427Y-61610D01*
X68311Y-61622D01*
X68195Y-61612D01*
X68083Y-61579D01*
X67980Y-61525D01*
X67888Y-61451D01*
X67813Y-61362D01*
X67757Y-61259D01*
X67722Y-61148D01*
X67709Y-61032D01*
X67718Y-60916D01*
X67751Y-60804D01*
X67804Y-60700D01*
X67877Y-60608D01*
X67966Y-60533D01*
X68068Y-60476D01*
X68179Y-60439D01*
X68295Y-60426D01*
X68411Y-60435D01*
X68523Y-60466D01*
X68627Y-60519D01*
X68720Y-60591D01*
X68796Y-60679D01*
X68854Y-60781D01*
X68891Y-60892D01*
X68905Y-61008D01*
X68906Y-61024D01*
X49220Y-61024D02*
X49208Y-61140D01*
X49174Y-61252D01*
X49119Y-61355D01*
X49046Y-61446D01*
X48955Y-61520D01*
X48853Y-61576D01*
X48741Y-61610D01*
X48625Y-61622D01*
X48509Y-61612D01*
X48397Y-61579D01*
X48294Y-61525D01*
X48202Y-61451D01*
X48127Y-61362D01*
X48071Y-61259D01*
X48036Y-61148D01*
X48023Y-61032D01*
X48032Y-60916D01*
X48065Y-60804D01*
X48118Y-60700D01*
X48191Y-60608D01*
X48280Y-60533D01*
X48382Y-60476D01*
X48493Y-60439D01*
X48609Y-60426D01*
X48725Y-60435D01*
X48837Y-60466D01*
X48941Y-60519D01*
X49034Y-60591D01*
X49110Y-60679D01*
X49168Y-60781D01*
X49205Y-60892D01*
X49219Y-61008D01*
X49220Y-61024D01*
X49219Y-41337D02*
X49207Y-41453D01*
X49173Y-41565D01*
X49118Y-41668D01*
X49045Y-41759D01*
X48954Y-41833D01*
X48852Y-41889D01*
X48740Y-41923D01*
X48624Y-41935D01*
X48508Y-41925D01*
X48396Y-41892D01*
X48293Y-41838D01*
X48201Y-41764D01*
X48126Y-41675D01*
X48070Y-41572D01*
X48035Y-41461D01*
X48022Y-41345D01*
X48031Y-41229D01*
X48064Y-41117D01*
X48117Y-41013D01*
X48190Y-40921D01*
X48279Y-40846D01*
X48381Y-40789D01*
X48492Y-40752D01*
X48608Y-40739D01*
X48724Y-40748D01*
X48836Y-40779D01*
X48940Y-40832D01*
X49033Y-40904D01*
X49109Y-40992D01*
X49167Y-41094D01*
X49204Y-41205D01*
X49218Y-41321D01*
X49219Y-41337D01*
X68906Y-41338D02*
X68894Y-41454D01*
X68860Y-41566D01*
X68805Y-41669D01*
X68732Y-41760D01*
X68641Y-41834D01*
X68539Y-41890D01*
X68427Y-41924D01*
X68311Y-41936D01*
X68195Y-41926D01*
X68083Y-41893D01*
X67980Y-41839D01*
X67888Y-41765D01*
X67813Y-41676D01*
X67757Y-41573D01*
X67722Y-41462D01*
X67709Y-41346D01*
X67718Y-41230D01*
X67751Y-41118D01*
X67804Y-41014D01*
X67877Y-40922D01*
X67966Y-40847D01*
X68068Y-40790D01*
X68179Y-40753D01*
X68295Y-40740D01*
X68411Y-40749D01*
X68523Y-40780D01*
X68627Y-40833D01*
X68720Y-40905D01*
X68796Y-40993D01*
X68854Y-41095D01*
X68891Y-41206D01*
X68905Y-41322D01*
X68906Y-41338D01*
M02*
