G04 (created by PCBNEW-RS274X (2011-nov-30)-testing) date Mon 09 Jul 2012 07:17:13 PM CEST*
%MOIN*%
G04 Gerber Fmt 3.4, Leading zero omitted, Abs format*
%FSLAX34Y34*%
G01*
G70*
G90*
G04 APERTURE LIST*
%ADD10C,0.006*%
%ADD11C,0.015*%
G04 APERTURE END LIST*
G54D10*
G54D11*
X84056Y-41339D02*
X83568Y-46309D01*
X82125Y-51090D01*
X79780Y-55500D01*
X76623Y-59371D01*
X72775Y-62554D01*
X68381Y-64930D01*
X63610Y-66407D01*
X58643Y-66929D01*
X53670Y-66476D01*
X48879Y-65066D01*
X44453Y-62752D01*
X40560Y-59623D01*
X37350Y-55797D01*
X34944Y-51420D01*
X33434Y-46659D01*
X32877Y-41696D01*
X33295Y-36720D01*
X34672Y-31919D01*
X36955Y-27477D01*
X40057Y-23562D01*
X43860Y-20325D01*
X48220Y-17889D01*
X52970Y-16345D01*
X57930Y-15754D01*
X62908Y-16137D01*
X67719Y-17480D01*
X72177Y-19732D01*
X76113Y-22807D01*
X79376Y-26588D01*
X81843Y-30931D01*
X83420Y-35670D01*
X84046Y-40625D01*
X84056Y-41339D01*
X39371Y-41339D02*
X39371Y-35237D01*
X39371Y-41339D02*
X39371Y-47441D01*
X42126Y-47441D02*
X42126Y-35237D01*
X40749Y-33859D02*
X40629Y-33865D01*
X40510Y-33880D01*
X40393Y-33906D01*
X40278Y-33943D01*
X40167Y-33989D01*
X40061Y-34044D01*
X39959Y-34109D01*
X39864Y-34182D01*
X39775Y-34263D01*
X39694Y-34352D01*
X39621Y-34447D01*
X39556Y-34549D01*
X39501Y-34655D01*
X39455Y-34766D01*
X39418Y-34881D01*
X39392Y-34998D01*
X39377Y-35117D01*
X39371Y-35237D01*
X42127Y-35237D02*
X42121Y-35117D01*
X42106Y-34998D01*
X42080Y-34881D01*
X42043Y-34766D01*
X41997Y-34655D01*
X41942Y-34549D01*
X41877Y-34447D01*
X41804Y-34352D01*
X41723Y-34263D01*
X41634Y-34182D01*
X41539Y-34109D01*
X41438Y-34044D01*
X41331Y-33989D01*
X41220Y-33943D01*
X41105Y-33906D01*
X40988Y-33880D01*
X40869Y-33865D01*
X40749Y-33859D01*
X39371Y-47441D02*
X39377Y-47561D01*
X39392Y-47680D01*
X39418Y-47797D01*
X39455Y-47912D01*
X39501Y-48023D01*
X39556Y-48129D01*
X39621Y-48231D01*
X39694Y-48326D01*
X39775Y-48415D01*
X39864Y-48496D01*
X39959Y-48569D01*
X40061Y-48634D01*
X40167Y-48689D01*
X40278Y-48735D01*
X40393Y-48772D01*
X40510Y-48798D01*
X40629Y-48813D01*
X40749Y-48819D01*
X40749Y-48818D02*
X40869Y-48812D01*
X40988Y-48797D01*
X41105Y-48771D01*
X41219Y-48734D01*
X41330Y-48688D01*
X41437Y-48633D01*
X41538Y-48568D01*
X41634Y-48495D01*
X41722Y-48414D01*
X41803Y-48326D01*
X41876Y-48230D01*
X41941Y-48129D01*
X41996Y-48022D01*
X42042Y-47911D01*
X42079Y-47797D01*
X42105Y-47680D01*
X42120Y-47561D01*
X42126Y-47441D01*
X76182Y-48818D02*
X76302Y-48812D01*
X76421Y-48797D01*
X76538Y-48771D01*
X76652Y-48734D01*
X76763Y-48688D01*
X76870Y-48633D01*
X76971Y-48568D01*
X77067Y-48495D01*
X77155Y-48414D01*
X77236Y-48326D01*
X77309Y-48230D01*
X77374Y-48129D01*
X77429Y-48022D01*
X77475Y-47911D01*
X77512Y-47797D01*
X77538Y-47680D01*
X77553Y-47561D01*
X77559Y-47441D01*
X74804Y-47441D02*
X74810Y-47561D01*
X74825Y-47680D01*
X74851Y-47797D01*
X74888Y-47912D01*
X74934Y-48023D01*
X74989Y-48129D01*
X75054Y-48231D01*
X75127Y-48326D01*
X75208Y-48415D01*
X75297Y-48496D01*
X75392Y-48569D01*
X75494Y-48634D01*
X75600Y-48689D01*
X75711Y-48735D01*
X75826Y-48772D01*
X75943Y-48798D01*
X76062Y-48813D01*
X76182Y-48819D01*
X77560Y-35237D02*
X77554Y-35117D01*
X77539Y-34998D01*
X77513Y-34881D01*
X77476Y-34766D01*
X77430Y-34655D01*
X77375Y-34549D01*
X77310Y-34447D01*
X77237Y-34352D01*
X77156Y-34263D01*
X77067Y-34182D01*
X76972Y-34109D01*
X76871Y-34044D01*
X76764Y-33989D01*
X76653Y-33943D01*
X76538Y-33906D01*
X76421Y-33880D01*
X76302Y-33865D01*
X76182Y-33859D01*
X76182Y-33859D02*
X76062Y-33865D01*
X75943Y-33880D01*
X75826Y-33906D01*
X75711Y-33943D01*
X75600Y-33989D01*
X75494Y-34044D01*
X75392Y-34109D01*
X75297Y-34182D01*
X75208Y-34263D01*
X75127Y-34352D01*
X75054Y-34447D01*
X74989Y-34549D01*
X74934Y-34655D01*
X74888Y-34766D01*
X74851Y-34881D01*
X74825Y-34998D01*
X74810Y-35117D01*
X74804Y-35237D01*
X77559Y-47441D02*
X77559Y-35237D01*
X74804Y-41339D02*
X74804Y-47441D01*
X74804Y-41339D02*
X74804Y-35237D01*
M02*
