G04 (created by PCBNEW-RS274X (2011-nov-30)-testing) date Mon 09 Jul 2012 07:17:13 PM CEST*
%MOIN*%
G04 Gerber Fmt 3.4, Leading zero omitted, Abs format*
%FSLAX34Y34*%
G01*
G70*
G90*
G04 APERTURE LIST*
%ADD10C,0.006*%
%ADD11C,0.012*%
%ADD12C,0.015*%
%ADD13C,0.01*%
%ADD14C,0.005*%
%ADD15C,0.007*%
%ADD16C,0.0035*%
%ADD17C,0.002*%
%ADD18C,0.0025*%
%ADD19C,0.001*%
%ADD20C,0.008*%
%ADD21C,0.003*%
%ADD22C,0.0001*%
%ADD23C,0.0113*%
%ADD24C,0.0097*%
G04 APERTURE END LIST*
G54D10*
G54D11*
X73489Y-40995D02*
X73108Y-41195D01*
X73489Y-41338D02*
X72689Y-41338D01*
X72689Y-41110D01*
X72727Y-41052D01*
X72765Y-41024D01*
X72841Y-40995D01*
X72955Y-40995D01*
X73032Y-41024D01*
X73070Y-41052D01*
X73108Y-41110D01*
X73108Y-41338D01*
X73260Y-40767D02*
X73260Y-40481D01*
X73489Y-40824D02*
X72689Y-40624D01*
X73489Y-40424D01*
X73565Y-40367D02*
X73565Y-39910D01*
X72689Y-39824D02*
X73489Y-39424D01*
X72689Y-39424D02*
X73489Y-39824D01*
X73489Y-38882D02*
X73489Y-39225D01*
X73489Y-39053D02*
X72689Y-39053D01*
X72803Y-39110D01*
X72879Y-39168D01*
X72917Y-39225D01*
X72689Y-38511D02*
X72689Y-38454D01*
X72727Y-38397D01*
X72765Y-38368D01*
X72841Y-38339D01*
X72994Y-38311D01*
X73184Y-38311D01*
X73336Y-38339D01*
X73413Y-38368D01*
X73451Y-38397D01*
X73489Y-38454D01*
X73489Y-38511D01*
X73451Y-38568D01*
X73413Y-38597D01*
X73336Y-38625D01*
X73184Y-38654D01*
X72994Y-38654D01*
X72841Y-38625D01*
X72765Y-38597D01*
X72727Y-38568D01*
X72689Y-38511D01*
X73489Y-46838D02*
X73108Y-47038D01*
X73489Y-47181D02*
X72689Y-47181D01*
X72689Y-46953D01*
X72727Y-46895D01*
X72765Y-46867D01*
X72841Y-46838D01*
X72955Y-46838D01*
X73032Y-46867D01*
X73070Y-46895D01*
X73108Y-46953D01*
X73108Y-47181D01*
X73070Y-46381D02*
X73108Y-46295D01*
X73146Y-46267D01*
X73222Y-46238D01*
X73336Y-46238D01*
X73413Y-46267D01*
X73451Y-46295D01*
X73489Y-46353D01*
X73489Y-46581D01*
X72689Y-46581D01*
X72689Y-46381D01*
X72727Y-46324D01*
X72765Y-46295D01*
X72841Y-46267D01*
X72917Y-46267D01*
X72994Y-46295D01*
X73032Y-46324D01*
X73070Y-46381D01*
X73070Y-46581D01*
X73565Y-46124D02*
X73565Y-45667D01*
X72689Y-45581D02*
X73489Y-45181D01*
X72689Y-45181D02*
X73489Y-45581D01*
X73489Y-44639D02*
X73489Y-44982D01*
X73489Y-44810D02*
X72689Y-44810D01*
X72803Y-44867D01*
X72879Y-44925D01*
X72917Y-44982D01*
X73489Y-44068D02*
X73489Y-44411D01*
X73489Y-44239D02*
X72689Y-44239D01*
X72803Y-44296D01*
X72879Y-44354D01*
X72917Y-44411D01*
X44089Y-38152D02*
X44089Y-38438D01*
X43289Y-38438D01*
X43670Y-37752D02*
X43708Y-37666D01*
X43746Y-37638D01*
X43822Y-37609D01*
X43936Y-37609D01*
X44013Y-37638D01*
X44051Y-37666D01*
X44089Y-37724D01*
X44089Y-37952D01*
X43289Y-37952D01*
X43289Y-37752D01*
X43327Y-37695D01*
X43365Y-37666D01*
X43441Y-37638D01*
X43517Y-37638D01*
X43594Y-37666D01*
X43632Y-37695D01*
X43670Y-37752D01*
X43670Y-37952D01*
X44165Y-37495D02*
X44165Y-37038D01*
X43289Y-36952D02*
X44089Y-36552D01*
X43289Y-36552D02*
X44089Y-36952D01*
X44089Y-36296D02*
X44089Y-36181D01*
X44051Y-36124D01*
X44013Y-36096D01*
X43898Y-36038D01*
X43746Y-36010D01*
X43441Y-36010D01*
X43365Y-36038D01*
X43327Y-36067D01*
X43289Y-36124D01*
X43289Y-36238D01*
X43327Y-36296D01*
X43365Y-36324D01*
X43441Y-36353D01*
X43632Y-36353D01*
X43708Y-36324D01*
X43746Y-36296D01*
X43784Y-36238D01*
X43784Y-36124D01*
X43746Y-36067D01*
X43708Y-36038D01*
X43632Y-36010D01*
X44089Y-45909D02*
X44089Y-46195D01*
X43289Y-46195D01*
X43860Y-45738D02*
X43860Y-45452D01*
X44089Y-45795D02*
X43289Y-45595D01*
X44089Y-45395D01*
X44165Y-45338D02*
X44165Y-44881D01*
X43289Y-44795D02*
X44089Y-44395D01*
X43289Y-44395D02*
X44089Y-44795D01*
X43632Y-44081D02*
X43594Y-44139D01*
X43555Y-44167D01*
X43479Y-44196D01*
X43441Y-44196D01*
X43365Y-44167D01*
X43327Y-44139D01*
X43289Y-44081D01*
X43289Y-43967D01*
X43327Y-43910D01*
X43365Y-43881D01*
X43441Y-43853D01*
X43479Y-43853D01*
X43555Y-43881D01*
X43594Y-43910D01*
X43632Y-43967D01*
X43632Y-44081D01*
X43670Y-44139D01*
X43708Y-44167D01*
X43784Y-44196D01*
X43936Y-44196D01*
X44013Y-44167D01*
X44051Y-44139D01*
X44089Y-44081D01*
X44089Y-43967D01*
X44051Y-43910D01*
X44013Y-43881D01*
X43936Y-43853D01*
X43784Y-43853D01*
X43708Y-43881D01*
X43670Y-43910D01*
X43632Y-43967D01*
G54D12*
X49965Y-35589D02*
X50465Y-35089D01*
X49965Y-35089D02*
X50465Y-35589D01*
G54D11*
X63072Y-28232D02*
X63406Y-28832D01*
X63406Y-28232D02*
X63072Y-28832D01*
X63858Y-28832D02*
X63572Y-28832D01*
X63715Y-28832D02*
X63715Y-28232D01*
X63667Y-28318D01*
X63620Y-28375D01*
X63572Y-28403D01*
X64286Y-28432D02*
X64286Y-28832D01*
X64167Y-28203D02*
X64048Y-28632D01*
X64358Y-28632D01*
G54D12*
X60715Y-27839D02*
X60715Y-27339D01*
X61465Y-65089D02*
X61965Y-65589D01*
X59465Y-65089D02*
X61465Y-65089D01*
X55215Y-65089D02*
X54715Y-65589D01*
X55465Y-65089D02*
X55215Y-65089D01*
X55465Y-65089D02*
X57215Y-65089D01*
X56215Y-64589D02*
X56215Y-65089D01*
X56715Y-64089D02*
X56215Y-64589D01*
X60715Y-64589D02*
X60715Y-65089D01*
X60215Y-64089D02*
X60715Y-64589D01*
X48215Y-52839D02*
X47715Y-52339D01*
X48215Y-57339D02*
X48215Y-52839D01*
X56715Y-43839D02*
X56965Y-43839D01*
X56715Y-43839D02*
X56715Y-44089D01*
X56965Y-45089D02*
X56965Y-44839D01*
X56965Y-44089D02*
X56965Y-44839D01*
X56715Y-43839D02*
X56965Y-44089D01*
G54D13*
X49917Y-41046D02*
X49417Y-41046D01*
X49417Y-40951D01*
X49441Y-40893D01*
X49489Y-40855D01*
X49536Y-40836D01*
X49632Y-40817D01*
X49703Y-40817D01*
X49798Y-40836D01*
X49846Y-40855D01*
X49894Y-40893D01*
X49917Y-40951D01*
X49917Y-41046D01*
X49417Y-40703D02*
X49417Y-40474D01*
X49917Y-40589D02*
X49417Y-40589D01*
X49917Y-40112D02*
X49679Y-40246D01*
X49917Y-40341D02*
X49417Y-40341D01*
X49417Y-40188D01*
X49441Y-40150D01*
X49465Y-40131D01*
X49513Y-40112D01*
X49584Y-40112D01*
X49632Y-40131D01*
X49655Y-40150D01*
X49679Y-40188D01*
X49679Y-40341D01*
G54D11*
X50234Y-38567D02*
X50234Y-38110D01*
X48280Y-34625D02*
X48366Y-34663D01*
X48509Y-34663D01*
X48566Y-34625D01*
X48595Y-34587D01*
X48623Y-34510D01*
X48623Y-34434D01*
X48595Y-34358D01*
X48566Y-34320D01*
X48509Y-34282D01*
X48395Y-34244D01*
X48337Y-34206D01*
X48309Y-34168D01*
X48280Y-34091D01*
X48280Y-34015D01*
X48309Y-33939D01*
X48337Y-33901D01*
X48395Y-33863D01*
X48537Y-33863D01*
X48623Y-33901D01*
X49108Y-34625D02*
X49051Y-34663D01*
X48937Y-34663D01*
X48880Y-34625D01*
X48851Y-34549D01*
X48851Y-34244D01*
X48880Y-34168D01*
X48937Y-34129D01*
X49051Y-34129D01*
X49108Y-34168D01*
X49137Y-34244D01*
X49137Y-34320D01*
X48851Y-34396D01*
X49394Y-34663D02*
X49394Y-34129D01*
X49394Y-34282D02*
X49422Y-34206D01*
X49451Y-34168D01*
X49508Y-34129D01*
X49565Y-34129D01*
X49765Y-34663D02*
X49765Y-34129D01*
X49765Y-33863D02*
X49736Y-33901D01*
X49765Y-33939D01*
X49793Y-33901D01*
X49765Y-33863D01*
X49765Y-33939D01*
X50308Y-34663D02*
X50308Y-34244D01*
X50279Y-34168D01*
X50222Y-34129D01*
X50108Y-34129D01*
X50051Y-34168D01*
X50308Y-34625D02*
X50251Y-34663D01*
X50108Y-34663D01*
X50051Y-34625D01*
X50022Y-34549D01*
X50022Y-34472D01*
X50051Y-34396D01*
X50108Y-34358D01*
X50251Y-34358D01*
X50308Y-34320D01*
X50680Y-34663D02*
X50622Y-34625D01*
X50594Y-34549D01*
X50594Y-33863D01*
X59922Y-65744D02*
X60122Y-65744D01*
X60208Y-66163D02*
X59922Y-66163D01*
X59922Y-65363D01*
X60208Y-65363D01*
X60408Y-66163D02*
X60722Y-65629D01*
X60408Y-65629D02*
X60722Y-66163D01*
X60865Y-65629D02*
X61094Y-65629D01*
X60951Y-65363D02*
X60951Y-66049D01*
X60979Y-66125D01*
X61037Y-66163D01*
X61094Y-66163D01*
X55644Y-65744D02*
X55730Y-65782D01*
X55758Y-65820D01*
X55787Y-65896D01*
X55787Y-66010D01*
X55758Y-66087D01*
X55730Y-66125D01*
X55672Y-66163D01*
X55444Y-66163D01*
X55444Y-65363D01*
X55644Y-65363D01*
X55701Y-65401D01*
X55730Y-65439D01*
X55758Y-65515D01*
X55758Y-65591D01*
X55730Y-65668D01*
X55701Y-65706D01*
X55644Y-65744D01*
X55444Y-65744D01*
X56301Y-66163D02*
X56301Y-65744D01*
X56272Y-65668D01*
X56215Y-65629D01*
X56101Y-65629D01*
X56044Y-65668D01*
X56301Y-66125D02*
X56244Y-66163D01*
X56101Y-66163D01*
X56044Y-66125D01*
X56015Y-66049D01*
X56015Y-65972D01*
X56044Y-65896D01*
X56101Y-65858D01*
X56244Y-65858D01*
X56301Y-65820D01*
X56501Y-65629D02*
X56730Y-65629D01*
X56587Y-65363D02*
X56587Y-66049D01*
X56615Y-66125D01*
X56673Y-66163D01*
X56730Y-66163D01*
X56844Y-65629D02*
X57073Y-65629D01*
X56930Y-65363D02*
X56930Y-66049D01*
X56958Y-66125D01*
X57016Y-66163D01*
X57073Y-66163D01*
G54D12*
X51215Y-55089D02*
X51465Y-54839D01*
X51215Y-55089D02*
X50965Y-54839D01*
X51465Y-55089D02*
X50965Y-55089D01*
X66965Y-55089D02*
X66715Y-54839D01*
X66965Y-55089D02*
X67215Y-54839D01*
X66715Y-55089D02*
X67215Y-55089D01*
X58715Y-32589D02*
X58965Y-32839D01*
X58715Y-32589D02*
X58965Y-32339D01*
X58715Y-32839D02*
X58715Y-32589D01*
X58715Y-32589D02*
X58715Y-32339D01*
G54D11*
X57737Y-44858D02*
X58194Y-44858D01*
X57965Y-45163D02*
X57965Y-44553D01*
X57737Y-43858D02*
X58194Y-43858D01*
X57737Y-42858D02*
X58194Y-42858D01*
X57737Y-41858D02*
X58194Y-41858D01*
X57965Y-42163D02*
X57965Y-41553D01*
X56737Y-38358D02*
X57194Y-38358D01*
X56965Y-38663D02*
X56965Y-38053D01*
G54D13*
X56489Y-36803D02*
X56546Y-36832D01*
X56642Y-36832D01*
X56680Y-36803D01*
X56699Y-36775D01*
X56718Y-36718D01*
X56718Y-36660D01*
X56699Y-36603D01*
X56680Y-36575D01*
X56642Y-36546D01*
X56565Y-36518D01*
X56527Y-36489D01*
X56508Y-36460D01*
X56489Y-36403D01*
X56489Y-36346D01*
X56508Y-36289D01*
X56527Y-36260D01*
X56565Y-36232D01*
X56661Y-36232D01*
X56718Y-36260D01*
X57118Y-36775D02*
X57099Y-36803D01*
X57042Y-36832D01*
X57004Y-36832D01*
X56946Y-36803D01*
X56908Y-36746D01*
X56889Y-36689D01*
X56870Y-36575D01*
X56870Y-36489D01*
X56889Y-36375D01*
X56908Y-36318D01*
X56946Y-36260D01*
X57004Y-36232D01*
X57042Y-36232D01*
X57099Y-36260D01*
X57118Y-36289D01*
X57480Y-36832D02*
X57289Y-36832D01*
X57289Y-36232D01*
X56479Y-37803D02*
X56536Y-37832D01*
X56632Y-37832D01*
X56670Y-37803D01*
X56689Y-37775D01*
X56708Y-37718D01*
X56708Y-37660D01*
X56689Y-37603D01*
X56670Y-37575D01*
X56632Y-37546D01*
X56555Y-37518D01*
X56517Y-37489D01*
X56498Y-37460D01*
X56479Y-37403D01*
X56479Y-37346D01*
X56498Y-37289D01*
X56517Y-37260D01*
X56555Y-37232D01*
X56651Y-37232D01*
X56708Y-37260D01*
X56879Y-37832D02*
X56879Y-37232D01*
X56974Y-37232D01*
X57032Y-37260D01*
X57070Y-37318D01*
X57089Y-37375D01*
X57108Y-37489D01*
X57108Y-37575D01*
X57089Y-37689D01*
X57070Y-37746D01*
X57032Y-37803D01*
X56974Y-37832D01*
X56879Y-37832D01*
X57260Y-37660D02*
X57451Y-37660D01*
X57222Y-37832D02*
X57355Y-37232D01*
X57489Y-37832D01*
G54D11*
X70539Y-57917D02*
X69739Y-57917D01*
X70539Y-57288D02*
X70158Y-57488D01*
X70539Y-57631D02*
X69739Y-57631D01*
X69739Y-57403D01*
X69777Y-57345D01*
X69815Y-57317D01*
X69891Y-57288D01*
X70005Y-57288D01*
X70082Y-57317D01*
X70120Y-57345D01*
X70158Y-57403D01*
X70158Y-57631D01*
X70501Y-56603D02*
X70539Y-56517D01*
X70539Y-56374D01*
X70501Y-56317D01*
X70463Y-56288D01*
X70386Y-56260D01*
X70310Y-56260D01*
X70234Y-56288D01*
X70196Y-56317D01*
X70158Y-56374D01*
X70120Y-56488D01*
X70082Y-56546D01*
X70044Y-56574D01*
X69967Y-56603D01*
X69891Y-56603D01*
X69815Y-56574D01*
X69777Y-56546D01*
X69739Y-56488D01*
X69739Y-56346D01*
X69777Y-56260D01*
X70501Y-55746D02*
X70539Y-55803D01*
X70539Y-55917D01*
X70501Y-55975D01*
X70463Y-56003D01*
X70386Y-56032D01*
X70158Y-56032D01*
X70082Y-56003D01*
X70044Y-55975D01*
X70005Y-55917D01*
X70005Y-55803D01*
X70044Y-55746D01*
X70539Y-55232D02*
X70120Y-55232D01*
X70044Y-55261D01*
X70005Y-55318D01*
X70005Y-55432D01*
X70044Y-55489D01*
X70501Y-55232D02*
X70539Y-55289D01*
X70539Y-55432D01*
X70501Y-55489D01*
X70425Y-55518D01*
X70348Y-55518D01*
X70272Y-55489D01*
X70234Y-55432D01*
X70234Y-55289D01*
X70196Y-55232D01*
X70005Y-54946D02*
X70539Y-54946D01*
X70082Y-54946D02*
X70044Y-54918D01*
X70005Y-54860D01*
X70005Y-54775D01*
X70044Y-54718D01*
X70120Y-54689D01*
X70539Y-54689D01*
X70005Y-54403D02*
X70539Y-54403D01*
X70082Y-54403D02*
X70044Y-54375D01*
X70005Y-54317D01*
X70005Y-54232D01*
X70044Y-54175D01*
X70120Y-54146D01*
X70539Y-54146D01*
X70501Y-53632D02*
X70539Y-53689D01*
X70539Y-53803D01*
X70501Y-53860D01*
X70425Y-53889D01*
X70120Y-53889D01*
X70044Y-53860D01*
X70005Y-53803D01*
X70005Y-53689D01*
X70044Y-53632D01*
X70120Y-53603D01*
X70196Y-53603D01*
X70272Y-53889D01*
X70539Y-53346D02*
X70005Y-53346D01*
X70158Y-53346D02*
X70082Y-53318D01*
X70044Y-53289D01*
X70005Y-53232D01*
X70005Y-53175D01*
X72039Y-55110D02*
X71658Y-55310D01*
X72039Y-55453D02*
X71239Y-55453D01*
X71239Y-55225D01*
X71277Y-55167D01*
X71315Y-55139D01*
X71391Y-55110D01*
X71505Y-55110D01*
X71582Y-55139D01*
X71620Y-55167D01*
X71658Y-55225D01*
X71658Y-55453D01*
X72039Y-54596D02*
X71620Y-54596D01*
X71544Y-54625D01*
X71505Y-54682D01*
X71505Y-54796D01*
X71544Y-54853D01*
X72001Y-54596D02*
X72039Y-54653D01*
X72039Y-54796D01*
X72001Y-54853D01*
X71925Y-54882D01*
X71848Y-54882D01*
X71772Y-54853D01*
X71734Y-54796D01*
X71734Y-54653D01*
X71696Y-54596D01*
X72039Y-54053D02*
X71239Y-54053D01*
X72001Y-54053D02*
X72039Y-54110D01*
X72039Y-54224D01*
X72001Y-54282D01*
X71963Y-54310D01*
X71886Y-54339D01*
X71658Y-54339D01*
X71582Y-54310D01*
X71544Y-54282D01*
X71505Y-54224D01*
X71505Y-54110D01*
X71544Y-54053D01*
X72039Y-53767D02*
X71505Y-53767D01*
X71239Y-53767D02*
X71277Y-53796D01*
X71315Y-53767D01*
X71277Y-53739D01*
X71239Y-53767D01*
X71315Y-53767D01*
X72039Y-53395D02*
X72001Y-53453D01*
X71963Y-53481D01*
X71886Y-53510D01*
X71658Y-53510D01*
X71582Y-53481D01*
X71544Y-53453D01*
X71505Y-53395D01*
X71505Y-53310D01*
X71544Y-53253D01*
X71582Y-53224D01*
X71658Y-53195D01*
X71886Y-53195D01*
X71963Y-53224D01*
X72001Y-53253D01*
X72039Y-53310D01*
X72039Y-53395D01*
X73120Y-56974D02*
X73120Y-56774D01*
X73539Y-56688D02*
X73539Y-56974D01*
X72739Y-56974D01*
X72739Y-56688D01*
X73005Y-56431D02*
X73539Y-56431D01*
X73082Y-56431D02*
X73044Y-56403D01*
X73005Y-56345D01*
X73005Y-56260D01*
X73044Y-56203D01*
X73120Y-56174D01*
X73539Y-56174D01*
X73501Y-55631D02*
X73539Y-55688D01*
X73539Y-55802D01*
X73501Y-55860D01*
X73463Y-55888D01*
X73386Y-55917D01*
X73158Y-55917D01*
X73082Y-55888D01*
X73044Y-55860D01*
X73005Y-55802D01*
X73005Y-55688D01*
X73044Y-55631D01*
X73539Y-55288D02*
X73501Y-55346D01*
X73463Y-55374D01*
X73386Y-55403D01*
X73158Y-55403D01*
X73082Y-55374D01*
X73044Y-55346D01*
X73005Y-55288D01*
X73005Y-55203D01*
X73044Y-55146D01*
X73082Y-55117D01*
X73158Y-55088D01*
X73386Y-55088D01*
X73463Y-55117D01*
X73501Y-55146D01*
X73539Y-55203D01*
X73539Y-55288D01*
X73539Y-54574D02*
X72739Y-54574D01*
X73501Y-54574D02*
X73539Y-54631D01*
X73539Y-54745D01*
X73501Y-54803D01*
X73463Y-54831D01*
X73386Y-54860D01*
X73158Y-54860D01*
X73082Y-54831D01*
X73044Y-54803D01*
X73005Y-54745D01*
X73005Y-54631D01*
X73044Y-54574D01*
X73501Y-54060D02*
X73539Y-54117D01*
X73539Y-54231D01*
X73501Y-54288D01*
X73425Y-54317D01*
X73120Y-54317D01*
X73044Y-54288D01*
X73005Y-54231D01*
X73005Y-54117D01*
X73044Y-54060D01*
X73120Y-54031D01*
X73196Y-54031D01*
X73272Y-54317D01*
X73539Y-53774D02*
X73005Y-53774D01*
X73158Y-53774D02*
X73082Y-53746D01*
X73044Y-53717D01*
X73005Y-53660D01*
X73005Y-53603D01*
X73501Y-53432D02*
X73539Y-53375D01*
X73539Y-53260D01*
X73501Y-53203D01*
X73425Y-53175D01*
X73386Y-53175D01*
X73310Y-53203D01*
X73272Y-53260D01*
X73272Y-53346D01*
X73234Y-53403D01*
X73158Y-53432D01*
X73120Y-53432D01*
X73044Y-53403D01*
X73005Y-53346D01*
X73005Y-53260D01*
X73044Y-53203D01*
X75039Y-56425D02*
X74239Y-56425D01*
X75039Y-55796D02*
X74658Y-55996D01*
X75039Y-56139D02*
X74239Y-56139D01*
X74239Y-55911D01*
X74277Y-55853D01*
X74315Y-55825D01*
X74391Y-55796D01*
X74505Y-55796D01*
X74582Y-55825D01*
X74620Y-55853D01*
X74658Y-55911D01*
X74658Y-56139D01*
X75039Y-54796D02*
X75039Y-55082D01*
X74239Y-55082D01*
X74620Y-54596D02*
X74620Y-54396D01*
X75039Y-54310D02*
X75039Y-54596D01*
X74239Y-54596D01*
X74239Y-54310D01*
X75039Y-54053D02*
X74239Y-54053D01*
X74239Y-53910D01*
X74277Y-53825D01*
X74353Y-53767D01*
X74429Y-53739D01*
X74582Y-53710D01*
X74696Y-53710D01*
X74848Y-53739D01*
X74925Y-53767D01*
X75001Y-53825D01*
X75039Y-53910D01*
X75039Y-54053D01*
X75001Y-53482D02*
X75039Y-53425D01*
X75039Y-53310D01*
X75001Y-53253D01*
X74925Y-53225D01*
X74886Y-53225D01*
X74810Y-53253D01*
X74772Y-53310D01*
X74772Y-53396D01*
X74734Y-53453D01*
X74658Y-53482D01*
X74620Y-53482D01*
X74544Y-53453D01*
X74505Y-53396D01*
X74505Y-53310D01*
X74544Y-53253D01*
G54D12*
X84056Y-41339D02*
X83568Y-46309D01*
X82125Y-51090D01*
X79780Y-55500D01*
X76623Y-59371D01*
X72775Y-62554D01*
X68381Y-64930D01*
X63610Y-66407D01*
X58643Y-66929D01*
X53670Y-66476D01*
X48879Y-65066D01*
X44453Y-62752D01*
X40560Y-59623D01*
X37350Y-55797D01*
X34944Y-51420D01*
X33434Y-46659D01*
X32877Y-41696D01*
X33295Y-36720D01*
X34672Y-31919D01*
X36955Y-27477D01*
X40057Y-23562D01*
X43860Y-20325D01*
X48220Y-17889D01*
X52970Y-16345D01*
X57930Y-15754D01*
X62908Y-16137D01*
X67719Y-17480D01*
X72177Y-19732D01*
X76113Y-22807D01*
X79376Y-26588D01*
X81843Y-30931D01*
X83420Y-35670D01*
X84046Y-40625D01*
X84056Y-41339D01*
X39371Y-41339D02*
X39371Y-35237D01*
X39371Y-41339D02*
X39371Y-47441D01*
X42126Y-47441D02*
X42126Y-35237D01*
X40749Y-33859D02*
X40629Y-33865D01*
X40510Y-33880D01*
X40393Y-33906D01*
X40278Y-33943D01*
X40167Y-33989D01*
X40061Y-34044D01*
X39959Y-34109D01*
X39864Y-34182D01*
X39775Y-34263D01*
X39694Y-34352D01*
X39621Y-34447D01*
X39556Y-34549D01*
X39501Y-34655D01*
X39455Y-34766D01*
X39418Y-34881D01*
X39392Y-34998D01*
X39377Y-35117D01*
X39371Y-35237D01*
X42127Y-35237D02*
X42121Y-35117D01*
X42106Y-34998D01*
X42080Y-34881D01*
X42043Y-34766D01*
X41997Y-34655D01*
X41942Y-34549D01*
X41877Y-34447D01*
X41804Y-34352D01*
X41723Y-34263D01*
X41634Y-34182D01*
X41539Y-34109D01*
X41438Y-34044D01*
X41331Y-33989D01*
X41220Y-33943D01*
X41105Y-33906D01*
X40988Y-33880D01*
X40869Y-33865D01*
X40749Y-33859D01*
X39371Y-47441D02*
X39377Y-47561D01*
X39392Y-47680D01*
X39418Y-47797D01*
X39455Y-47912D01*
X39501Y-48023D01*
X39556Y-48129D01*
X39621Y-48231D01*
X39694Y-48326D01*
X39775Y-48415D01*
X39864Y-48496D01*
X39959Y-48569D01*
X40061Y-48634D01*
X40167Y-48689D01*
X40278Y-48735D01*
X40393Y-48772D01*
X40510Y-48798D01*
X40629Y-48813D01*
X40749Y-48819D01*
X40749Y-48818D02*
X40869Y-48812D01*
X40988Y-48797D01*
X41105Y-48771D01*
X41219Y-48734D01*
X41330Y-48688D01*
X41437Y-48633D01*
X41538Y-48568D01*
X41634Y-48495D01*
X41722Y-48414D01*
X41803Y-48326D01*
X41876Y-48230D01*
X41941Y-48129D01*
X41996Y-48022D01*
X42042Y-47911D01*
X42079Y-47797D01*
X42105Y-47680D01*
X42120Y-47561D01*
X42126Y-47441D01*
X76182Y-48818D02*
X76302Y-48812D01*
X76421Y-48797D01*
X76538Y-48771D01*
X76652Y-48734D01*
X76763Y-48688D01*
X76870Y-48633D01*
X76971Y-48568D01*
X77067Y-48495D01*
X77155Y-48414D01*
X77236Y-48326D01*
X77309Y-48230D01*
X77374Y-48129D01*
X77429Y-48022D01*
X77475Y-47911D01*
X77512Y-47797D01*
X77538Y-47680D01*
X77553Y-47561D01*
X77559Y-47441D01*
X74804Y-47441D02*
X74810Y-47561D01*
X74825Y-47680D01*
X74851Y-47797D01*
X74888Y-47912D01*
X74934Y-48023D01*
X74989Y-48129D01*
X75054Y-48231D01*
X75127Y-48326D01*
X75208Y-48415D01*
X75297Y-48496D01*
X75392Y-48569D01*
X75494Y-48634D01*
X75600Y-48689D01*
X75711Y-48735D01*
X75826Y-48772D01*
X75943Y-48798D01*
X76062Y-48813D01*
X76182Y-48819D01*
X77560Y-35237D02*
X77554Y-35117D01*
X77539Y-34998D01*
X77513Y-34881D01*
X77476Y-34766D01*
X77430Y-34655D01*
X77375Y-34549D01*
X77310Y-34447D01*
X77237Y-34352D01*
X77156Y-34263D01*
X77067Y-34182D01*
X76972Y-34109D01*
X76871Y-34044D01*
X76764Y-33989D01*
X76653Y-33943D01*
X76538Y-33906D01*
X76421Y-33880D01*
X76302Y-33865D01*
X76182Y-33859D01*
X76182Y-33859D02*
X76062Y-33865D01*
X75943Y-33880D01*
X75826Y-33906D01*
X75711Y-33943D01*
X75600Y-33989D01*
X75494Y-34044D01*
X75392Y-34109D01*
X75297Y-34182D01*
X75208Y-34263D01*
X75127Y-34352D01*
X75054Y-34447D01*
X74989Y-34549D01*
X74934Y-34655D01*
X74888Y-34766D01*
X74851Y-34881D01*
X74825Y-34998D01*
X74810Y-35117D01*
X74804Y-35237D01*
X77559Y-47441D02*
X77559Y-35237D01*
X74804Y-41339D02*
X74804Y-47441D01*
X74804Y-41339D02*
X74804Y-35237D01*
G54D14*
X55565Y-35839D02*
X56365Y-35839D01*
X55565Y-36839D02*
X56365Y-36839D01*
X56365Y-34839D02*
X56465Y-34939D01*
X56465Y-34939D02*
X56465Y-35739D01*
X56465Y-35739D02*
X56365Y-35839D01*
X55565Y-35839D02*
X55465Y-35739D01*
X55465Y-35739D02*
X55465Y-34939D01*
X55465Y-34939D02*
X55565Y-34839D01*
X56365Y-35839D02*
X56465Y-35939D01*
X56465Y-35939D02*
X56465Y-36739D01*
X55465Y-35939D02*
X55565Y-35839D01*
X55565Y-34839D02*
X56365Y-34839D01*
X55565Y-38839D02*
X55465Y-38739D01*
X55465Y-38739D02*
X55465Y-37939D01*
X55465Y-37939D02*
X55565Y-37839D01*
X55565Y-37839D02*
X55465Y-37739D01*
X55465Y-37739D02*
X55465Y-36939D01*
X55465Y-36939D02*
X55565Y-36839D01*
X55565Y-36839D02*
X55465Y-36739D01*
X55465Y-36739D02*
X55465Y-35939D01*
X56465Y-38739D02*
X56365Y-38839D01*
X56365Y-38839D02*
X55565Y-38839D01*
X56465Y-36739D02*
X56365Y-36839D01*
X56365Y-36839D02*
X56465Y-36939D01*
X56465Y-36939D02*
X56465Y-37739D01*
X56465Y-37739D02*
X56365Y-37839D01*
X56365Y-37839D02*
X56465Y-37939D01*
X56465Y-37939D02*
X56465Y-38739D01*
X54565Y-35839D02*
X55365Y-35839D01*
X54565Y-36839D02*
X55365Y-36839D01*
X55365Y-34839D02*
X55465Y-34939D01*
X55465Y-34939D02*
X55465Y-35739D01*
X55465Y-35739D02*
X55365Y-35839D01*
X54565Y-35839D02*
X54465Y-35739D01*
X54465Y-35739D02*
X54465Y-34939D01*
X54465Y-34939D02*
X54565Y-34839D01*
X55365Y-35839D02*
X55465Y-35939D01*
X55465Y-35939D02*
X55465Y-36739D01*
X54465Y-35939D02*
X54565Y-35839D01*
X54565Y-34839D02*
X55365Y-34839D01*
X54565Y-38839D02*
X54465Y-38739D01*
X54465Y-38739D02*
X54465Y-37939D01*
X54465Y-37939D02*
X54565Y-37839D01*
X54565Y-37839D02*
X54465Y-37739D01*
X54465Y-37739D02*
X54465Y-36939D01*
X54465Y-36939D02*
X54565Y-36839D01*
X54565Y-36839D02*
X54465Y-36739D01*
X54465Y-36739D02*
X54465Y-35939D01*
X55465Y-38739D02*
X55365Y-38839D01*
X55365Y-38839D02*
X54565Y-38839D01*
X55465Y-36739D02*
X55365Y-36839D01*
X55365Y-36839D02*
X55465Y-36939D01*
X55465Y-36939D02*
X55465Y-37739D01*
X55465Y-37739D02*
X55365Y-37839D01*
X55365Y-37839D02*
X55465Y-37939D01*
X55465Y-37939D02*
X55465Y-38739D01*
X60365Y-42339D02*
X59565Y-42339D01*
X60365Y-41339D02*
X59565Y-41339D01*
X59565Y-43339D02*
X59465Y-43239D01*
X59465Y-43239D02*
X59465Y-42439D01*
X59465Y-42439D02*
X59565Y-42339D01*
X60365Y-42339D02*
X60465Y-42439D01*
X60465Y-42439D02*
X60465Y-43239D01*
X60465Y-43239D02*
X60365Y-43339D01*
X59565Y-42339D02*
X59465Y-42239D01*
X59465Y-42239D02*
X59465Y-41439D01*
X60465Y-42239D02*
X60365Y-42339D01*
X60365Y-43339D02*
X59565Y-43339D01*
X60365Y-39339D02*
X60465Y-39439D01*
X60465Y-39439D02*
X60465Y-40239D01*
X60465Y-40239D02*
X60365Y-40339D01*
X60365Y-40339D02*
X60465Y-40439D01*
X60465Y-40439D02*
X60465Y-41239D01*
X60465Y-41239D02*
X60365Y-41339D01*
X60365Y-41339D02*
X60465Y-41439D01*
X60465Y-41439D02*
X60465Y-42239D01*
X59465Y-39439D02*
X59565Y-39339D01*
X59565Y-39339D02*
X60365Y-39339D01*
X59465Y-41439D02*
X59565Y-41339D01*
X59565Y-41339D02*
X59465Y-41239D01*
X59465Y-41239D02*
X59465Y-40439D01*
X59465Y-40439D02*
X59565Y-40339D01*
X59565Y-40339D02*
X59465Y-40239D01*
X59465Y-40239D02*
X59465Y-39439D01*
X59365Y-42339D02*
X58565Y-42339D01*
X59365Y-41339D02*
X58565Y-41339D01*
X58565Y-43339D02*
X58465Y-43239D01*
X58465Y-43239D02*
X58465Y-42439D01*
X58465Y-42439D02*
X58565Y-42339D01*
X59365Y-42339D02*
X59465Y-42439D01*
X59465Y-42439D02*
X59465Y-43239D01*
X59465Y-43239D02*
X59365Y-43339D01*
X58565Y-42339D02*
X58465Y-42239D01*
X58465Y-42239D02*
X58465Y-41439D01*
X59465Y-42239D02*
X59365Y-42339D01*
X59365Y-43339D02*
X58565Y-43339D01*
X59365Y-39339D02*
X59465Y-39439D01*
X59465Y-39439D02*
X59465Y-40239D01*
X59465Y-40239D02*
X59365Y-40339D01*
X59365Y-40339D02*
X59465Y-40439D01*
X59465Y-40439D02*
X59465Y-41239D01*
X59465Y-41239D02*
X59365Y-41339D01*
X59365Y-41339D02*
X59465Y-41439D01*
X59465Y-41439D02*
X59465Y-42239D01*
X58465Y-39439D02*
X58565Y-39339D01*
X58565Y-39339D02*
X59365Y-39339D01*
X58465Y-41439D02*
X58565Y-41339D01*
X58565Y-41339D02*
X58465Y-41239D01*
X58465Y-41239D02*
X58465Y-40439D01*
X58465Y-40439D02*
X58565Y-40339D01*
X58565Y-40339D02*
X58465Y-40239D01*
X58465Y-40239D02*
X58465Y-39439D01*
G54D15*
X73751Y-38139D02*
X73751Y-28539D01*
X73751Y-28539D02*
X65765Y-28539D01*
X65765Y-28539D02*
X62882Y-31423D01*
X62882Y-31423D02*
X62882Y-35255D01*
X62882Y-35255D02*
X65765Y-38139D01*
X65765Y-38139D02*
X73751Y-38139D01*
G54D14*
X73751Y-38139D02*
X73751Y-28539D01*
X73751Y-28539D02*
X65765Y-28539D01*
X65765Y-28539D02*
X62882Y-31423D01*
X62882Y-31423D02*
X62882Y-35255D01*
X62882Y-35255D02*
X65765Y-38139D01*
X65765Y-38139D02*
X73751Y-38139D01*
X59965Y-28139D02*
X59965Y-27939D01*
X58965Y-27989D02*
X58965Y-27939D01*
X58965Y-28139D02*
X58965Y-27989D01*
X60015Y-28089D02*
X58965Y-28089D01*
X58965Y-28089D02*
X58965Y-28039D01*
X58965Y-28039D02*
X59965Y-28039D01*
X59965Y-28039D02*
X59965Y-27989D01*
X59965Y-27989D02*
X58965Y-27989D01*
X59465Y-27539D02*
X59465Y-27189D01*
X58915Y-28139D02*
X60015Y-28139D01*
X60015Y-28139D02*
X60015Y-27939D01*
X60015Y-27939D02*
X58915Y-27939D01*
X58915Y-27939D02*
X58915Y-28139D01*
X59465Y-27739D02*
X58915Y-27739D01*
X58915Y-27739D02*
X58915Y-27539D01*
X58915Y-27539D02*
X60015Y-27539D01*
X60015Y-27539D02*
X60015Y-27739D01*
X59465Y-27739D02*
X60015Y-27739D01*
X59465Y-28489D02*
X59465Y-28139D01*
X59565Y-26589D02*
X59615Y-26589D01*
X59465Y-26739D02*
X59465Y-26439D01*
X59315Y-26589D02*
X59565Y-26589D01*
G54D16*
X60465Y-27839D02*
X60445Y-28033D01*
X60389Y-28220D01*
X60297Y-28392D01*
X60174Y-28543D01*
X60024Y-28668D01*
X59852Y-28760D01*
X59666Y-28818D01*
X59471Y-28838D01*
X59278Y-28821D01*
X59091Y-28766D01*
X58918Y-28675D01*
X58766Y-28553D01*
X58640Y-28403D01*
X58546Y-28232D01*
X58487Y-28046D01*
X58466Y-27852D01*
X58482Y-27659D01*
X58536Y-27471D01*
X58625Y-27298D01*
X58746Y-27145D01*
X58895Y-27018D01*
X59065Y-26923D01*
X59251Y-26863D01*
X59445Y-26840D01*
X59638Y-26855D01*
X59826Y-26907D01*
X60000Y-26995D01*
X60154Y-27115D01*
X60282Y-27263D01*
X60378Y-27433D01*
X60440Y-27618D01*
X60464Y-27812D01*
X60465Y-27839D01*
G54D12*
X61765Y-64139D02*
X61765Y-64439D01*
X61765Y-64439D02*
X65165Y-64439D01*
X65165Y-64439D02*
X65165Y-64139D01*
X61765Y-62939D02*
X65165Y-62939D01*
X61765Y-59139D02*
X65165Y-59139D01*
X65165Y-64139D02*
X65165Y-59139D01*
X61765Y-64139D02*
X61765Y-59139D01*
G54D14*
X50365Y-46689D02*
X50365Y-43989D01*
X48565Y-43989D02*
X48565Y-46689D01*
G54D17*
X50165Y-46689D02*
X50165Y-43989D01*
X48765Y-43989D02*
X48765Y-46689D01*
X49465Y-43289D02*
X49404Y-43292D01*
X49344Y-43300D01*
X49284Y-43313D01*
X49226Y-43332D01*
X49170Y-43355D01*
X49116Y-43383D01*
X49064Y-43416D01*
X49016Y-43453D01*
X48971Y-43495D01*
X48929Y-43540D01*
X48892Y-43588D01*
X48859Y-43640D01*
X48831Y-43694D01*
X48808Y-43750D01*
X48789Y-43808D01*
X48776Y-43868D01*
X48768Y-43928D01*
X48765Y-43989D01*
G54D14*
X49465Y-43089D02*
X49387Y-43093D01*
X49309Y-43103D01*
X49233Y-43120D01*
X49158Y-43144D01*
X49085Y-43174D01*
X49016Y-43210D01*
X48949Y-43252D01*
X48887Y-43300D01*
X48829Y-43353D01*
X48776Y-43411D01*
X48728Y-43473D01*
X48686Y-43540D01*
X48650Y-43609D01*
X48620Y-43682D01*
X48596Y-43757D01*
X48579Y-43833D01*
X48569Y-43911D01*
X48565Y-43989D01*
G54D17*
X50165Y-43989D02*
X50162Y-43928D01*
X50154Y-43868D01*
X50141Y-43808D01*
X50122Y-43750D01*
X50099Y-43694D01*
X50071Y-43640D01*
X50038Y-43588D01*
X50001Y-43540D01*
X49959Y-43495D01*
X49914Y-43453D01*
X49866Y-43416D01*
X49815Y-43383D01*
X49760Y-43355D01*
X49704Y-43332D01*
X49646Y-43313D01*
X49586Y-43300D01*
X49526Y-43292D01*
X49465Y-43289D01*
G54D14*
X50365Y-43989D02*
X50361Y-43911D01*
X50351Y-43833D01*
X50334Y-43757D01*
X50310Y-43682D01*
X50280Y-43609D01*
X50244Y-43540D01*
X50202Y-43473D01*
X50154Y-43411D01*
X50101Y-43353D01*
X50043Y-43300D01*
X49981Y-43252D01*
X49915Y-43210D01*
X49845Y-43174D01*
X49772Y-43144D01*
X49697Y-43120D01*
X49621Y-43103D01*
X49543Y-43093D01*
X49465Y-43089D01*
X49465Y-47589D02*
X49543Y-47585D01*
X49621Y-47575D01*
X49697Y-47558D01*
X49772Y-47534D01*
X49845Y-47504D01*
X49915Y-47468D01*
X49981Y-47426D01*
X50043Y-47378D01*
X50101Y-47325D01*
X50154Y-47267D01*
X50202Y-47205D01*
X50244Y-47138D01*
X50280Y-47069D01*
X50310Y-46996D01*
X50334Y-46921D01*
X50351Y-46845D01*
X50361Y-46767D01*
X50365Y-46689D01*
G54D17*
X49465Y-47389D02*
X49526Y-47386D01*
X49586Y-47378D01*
X49646Y-47365D01*
X49704Y-47346D01*
X49760Y-47323D01*
X49815Y-47295D01*
X49866Y-47262D01*
X49914Y-47225D01*
X49959Y-47183D01*
X50001Y-47138D01*
X50038Y-47090D01*
X50071Y-47038D01*
X50099Y-46984D01*
X50122Y-46928D01*
X50141Y-46870D01*
X50154Y-46810D01*
X50162Y-46750D01*
X50165Y-46689D01*
X48765Y-46689D02*
X48768Y-46750D01*
X48776Y-46810D01*
X48789Y-46870D01*
X48808Y-46928D01*
X48831Y-46984D01*
X48859Y-47038D01*
X48892Y-47090D01*
X48929Y-47138D01*
X48971Y-47183D01*
X49016Y-47225D01*
X49064Y-47262D01*
X49116Y-47295D01*
X49170Y-47323D01*
X49226Y-47346D01*
X49284Y-47365D01*
X49344Y-47378D01*
X49404Y-47386D01*
X49465Y-47389D01*
G54D14*
X48565Y-46689D02*
X48569Y-46767D01*
X48579Y-46845D01*
X48596Y-46921D01*
X48620Y-46996D01*
X48650Y-47069D01*
X48686Y-47138D01*
X48728Y-47205D01*
X48776Y-47267D01*
X48829Y-47325D01*
X48887Y-47378D01*
X48949Y-47426D01*
X49016Y-47468D01*
X49085Y-47504D01*
X49158Y-47534D01*
X49233Y-47558D01*
X49309Y-47575D01*
X49387Y-47585D01*
X49465Y-47589D01*
G54D11*
X73715Y-31589D02*
X75215Y-33089D01*
X75215Y-33089D02*
X75715Y-33089D01*
X75715Y-33089D02*
X76215Y-32589D01*
X76215Y-32589D02*
X76215Y-31589D01*
X76215Y-31589D02*
X75215Y-30589D01*
X75215Y-30589D02*
X74215Y-30589D01*
X74215Y-30589D02*
X73715Y-31089D01*
X73715Y-31089D02*
X73715Y-31589D01*
G54D14*
X55965Y-64489D02*
X54965Y-64489D01*
X55965Y-63689D02*
X54965Y-63689D01*
X55965Y-64489D02*
X55999Y-64487D01*
X56034Y-64482D01*
X56068Y-64475D01*
X56101Y-64464D01*
X56134Y-64451D01*
X56165Y-64435D01*
X56194Y-64416D01*
X56222Y-64395D01*
X56247Y-64371D01*
X56271Y-64346D01*
X56292Y-64318D01*
X56311Y-64288D01*
X56327Y-64258D01*
X56340Y-64225D01*
X56351Y-64192D01*
X56358Y-64158D01*
X56363Y-64123D01*
X56365Y-64089D01*
X56365Y-64089D02*
X56363Y-64055D01*
X56358Y-64020D01*
X56351Y-63986D01*
X56340Y-63953D01*
X56327Y-63920D01*
X56311Y-63890D01*
X56292Y-63860D01*
X56271Y-63832D01*
X56247Y-63807D01*
X56222Y-63783D01*
X56194Y-63762D01*
X56165Y-63743D01*
X56134Y-63727D01*
X56101Y-63714D01*
X56068Y-63703D01*
X56034Y-63696D01*
X55999Y-63691D01*
X55965Y-63689D01*
X54565Y-64089D02*
X54567Y-64123D01*
X54572Y-64158D01*
X54579Y-64192D01*
X54590Y-64225D01*
X54603Y-64258D01*
X54619Y-64288D01*
X54638Y-64318D01*
X54659Y-64346D01*
X54683Y-64371D01*
X54708Y-64395D01*
X54736Y-64416D01*
X54766Y-64435D01*
X54796Y-64451D01*
X54829Y-64464D01*
X54862Y-64475D01*
X54896Y-64482D01*
X54931Y-64487D01*
X54965Y-64489D01*
X54965Y-63689D02*
X54931Y-63691D01*
X54896Y-63696D01*
X54862Y-63703D01*
X54829Y-63714D01*
X54796Y-63727D01*
X54766Y-63743D01*
X54736Y-63762D01*
X54708Y-63783D01*
X54683Y-63807D01*
X54659Y-63832D01*
X54638Y-63860D01*
X54619Y-63890D01*
X54603Y-63920D01*
X54590Y-63953D01*
X54579Y-63986D01*
X54572Y-64020D01*
X54567Y-64055D01*
X54565Y-64089D01*
G54D11*
X49965Y-39839D02*
X48965Y-39839D01*
X48965Y-39839D02*
X48965Y-34839D01*
X48965Y-34839D02*
X49965Y-34839D01*
X49965Y-34839D02*
X49965Y-39839D01*
X49965Y-38839D02*
X48965Y-38839D01*
G54D14*
X69415Y-44039D02*
X69415Y-44139D01*
X69415Y-44039D02*
X68815Y-44039D01*
X68815Y-44139D02*
X68815Y-44039D01*
X68715Y-44139D02*
X68115Y-44139D01*
X68815Y-46639D02*
X68815Y-46539D01*
X68815Y-46639D02*
X69415Y-46639D01*
X69415Y-46539D02*
X69415Y-46639D01*
X68115Y-44139D02*
X67915Y-44339D01*
X70315Y-44339D02*
X70115Y-44139D01*
X70115Y-44139D02*
X69515Y-44139D01*
X67915Y-46339D02*
X68115Y-46539D01*
X68115Y-46539D02*
X68715Y-46539D01*
X70315Y-46339D02*
X70115Y-46539D01*
X70115Y-46539D02*
X69515Y-46539D01*
G54D17*
X68615Y-45839D02*
X69615Y-45839D01*
X69615Y-44839D02*
X69615Y-45839D01*
X69615Y-44839D02*
X68615Y-44839D01*
X68615Y-45839D02*
X68615Y-44839D01*
X67915Y-45839D02*
X68015Y-45839D01*
X68015Y-44839D02*
X68015Y-45839D01*
X68015Y-44839D02*
X67915Y-44839D01*
X70215Y-44889D02*
X70215Y-45839D01*
X70215Y-44889D02*
X70315Y-44889D01*
X70215Y-45839D02*
X70315Y-45839D01*
G54D14*
X70315Y-44339D02*
X70315Y-44489D01*
X70315Y-46339D02*
X70315Y-46189D01*
X70315Y-46189D02*
X70315Y-45839D01*
X67915Y-46339D02*
X67915Y-46189D01*
X67915Y-44339D02*
X67915Y-44489D01*
X67915Y-44489D02*
X67915Y-44839D01*
X67915Y-44839D02*
X67915Y-45839D01*
X67915Y-45839D02*
X67915Y-46189D01*
X70315Y-45839D02*
X70315Y-44889D01*
X70315Y-44889D02*
X70315Y-44489D01*
X69415Y-44139D02*
X69515Y-44139D01*
X68815Y-44139D02*
X68715Y-44139D01*
X69415Y-46539D02*
X69515Y-46539D01*
X68815Y-46539D02*
X68715Y-46539D01*
X69965Y-45839D02*
X69965Y-44839D01*
X68215Y-44839D02*
X68215Y-45839D01*
X68615Y-46289D02*
X68915Y-46289D01*
X69315Y-46289D02*
X69615Y-46289D01*
X68915Y-46289D02*
X69265Y-46189D01*
G54D18*
X69609Y-45339D02*
X69599Y-45434D01*
X69571Y-45527D01*
X69526Y-45612D01*
X69465Y-45687D01*
X69391Y-45748D01*
X69306Y-45794D01*
X69214Y-45822D01*
X69118Y-45832D01*
X69023Y-45824D01*
X68930Y-45797D01*
X68845Y-45752D01*
X68770Y-45691D01*
X68708Y-45618D01*
X68661Y-45533D01*
X68632Y-45441D01*
X68622Y-45345D01*
X68630Y-45250D01*
X68656Y-45158D01*
X68700Y-45072D01*
X68760Y-44996D01*
X68834Y-44934D01*
X68918Y-44887D01*
X69009Y-44857D01*
X69105Y-44846D01*
X69200Y-44853D01*
X69293Y-44879D01*
X69379Y-44922D01*
X69455Y-44982D01*
X69518Y-45055D01*
X69566Y-45139D01*
X69596Y-45230D01*
X69608Y-45326D01*
X69609Y-45339D01*
X70106Y-46189D02*
X70103Y-46216D01*
X70095Y-46242D01*
X70082Y-46267D01*
X70065Y-46288D01*
X70043Y-46305D01*
X70019Y-46318D01*
X69993Y-46327D01*
X69965Y-46329D01*
X69939Y-46327D01*
X69913Y-46319D01*
X69888Y-46306D01*
X69867Y-46289D01*
X69849Y-46268D01*
X69836Y-46244D01*
X69828Y-46218D01*
X69825Y-46190D01*
X69827Y-46164D01*
X69834Y-46138D01*
X69847Y-46113D01*
X69864Y-46092D01*
X69885Y-46074D01*
X69909Y-46060D01*
X69935Y-46052D01*
X69963Y-46049D01*
X69989Y-46051D01*
X70015Y-46058D01*
X70040Y-46070D01*
X70062Y-46087D01*
X70080Y-46108D01*
X70093Y-46132D01*
X70102Y-46158D01*
X70105Y-46186D01*
X70106Y-46189D01*
X70056Y-44489D02*
X70053Y-44516D01*
X70045Y-44542D01*
X70032Y-44567D01*
X70015Y-44588D01*
X69993Y-44605D01*
X69969Y-44618D01*
X69943Y-44627D01*
X69915Y-44629D01*
X69889Y-44627D01*
X69863Y-44619D01*
X69838Y-44606D01*
X69817Y-44589D01*
X69799Y-44568D01*
X69786Y-44544D01*
X69778Y-44518D01*
X69775Y-44490D01*
X69777Y-44464D01*
X69784Y-44438D01*
X69797Y-44413D01*
X69814Y-44392D01*
X69835Y-44374D01*
X69859Y-44360D01*
X69885Y-44352D01*
X69913Y-44349D01*
X69939Y-44351D01*
X69965Y-44358D01*
X69990Y-44370D01*
X70012Y-44387D01*
X70030Y-44408D01*
X70043Y-44432D01*
X70052Y-44458D01*
X70055Y-44486D01*
X70056Y-44489D01*
X68406Y-44489D02*
X68403Y-44516D01*
X68395Y-44542D01*
X68382Y-44567D01*
X68365Y-44588D01*
X68343Y-44605D01*
X68319Y-44618D01*
X68293Y-44627D01*
X68265Y-44629D01*
X68239Y-44627D01*
X68213Y-44619D01*
X68188Y-44606D01*
X68167Y-44589D01*
X68149Y-44568D01*
X68136Y-44544D01*
X68128Y-44518D01*
X68125Y-44490D01*
X68127Y-44464D01*
X68134Y-44438D01*
X68147Y-44413D01*
X68164Y-44392D01*
X68185Y-44374D01*
X68209Y-44360D01*
X68235Y-44352D01*
X68263Y-44349D01*
X68289Y-44351D01*
X68315Y-44358D01*
X68340Y-44370D01*
X68362Y-44387D01*
X68380Y-44408D01*
X68393Y-44432D01*
X68402Y-44458D01*
X68405Y-44486D01*
X68406Y-44489D01*
X68406Y-46189D02*
X68403Y-46216D01*
X68395Y-46242D01*
X68382Y-46267D01*
X68365Y-46288D01*
X68343Y-46305D01*
X68319Y-46318D01*
X68293Y-46327D01*
X68265Y-46329D01*
X68239Y-46327D01*
X68213Y-46319D01*
X68188Y-46306D01*
X68167Y-46289D01*
X68149Y-46268D01*
X68136Y-46244D01*
X68128Y-46218D01*
X68125Y-46190D01*
X68127Y-46164D01*
X68134Y-46138D01*
X68147Y-46113D01*
X68164Y-46092D01*
X68185Y-46074D01*
X68209Y-46060D01*
X68235Y-46052D01*
X68263Y-46049D01*
X68289Y-46051D01*
X68315Y-46058D01*
X68340Y-46070D01*
X68362Y-46087D01*
X68380Y-46108D01*
X68393Y-46132D01*
X68402Y-46158D01*
X68405Y-46186D01*
X68406Y-46189D01*
G54D19*
X69291Y-45339D02*
X69287Y-45373D01*
X69277Y-45406D01*
X69261Y-45436D01*
X69239Y-45463D01*
X69213Y-45484D01*
X69183Y-45501D01*
X69150Y-45511D01*
X69116Y-45514D01*
X69083Y-45511D01*
X69050Y-45502D01*
X69019Y-45486D01*
X68992Y-45464D01*
X68970Y-45438D01*
X68954Y-45408D01*
X68943Y-45375D01*
X68940Y-45341D01*
X68942Y-45308D01*
X68952Y-45275D01*
X68968Y-45244D01*
X68989Y-45217D01*
X69015Y-45195D01*
X69045Y-45178D01*
X69078Y-45168D01*
X69112Y-45164D01*
X69145Y-45166D01*
X69178Y-45175D01*
X69209Y-45191D01*
X69236Y-45212D01*
X69258Y-45238D01*
X69275Y-45268D01*
X69286Y-45301D01*
X69290Y-45335D01*
X69291Y-45339D01*
G54D18*
X69185Y-45339D02*
X69183Y-45352D01*
X69179Y-45365D01*
X69173Y-45377D01*
X69164Y-45388D01*
X69154Y-45397D01*
X69142Y-45403D01*
X69129Y-45407D01*
X69115Y-45408D01*
X69102Y-45407D01*
X69089Y-45403D01*
X69077Y-45397D01*
X69067Y-45389D01*
X69058Y-45378D01*
X69051Y-45366D01*
X69047Y-45353D01*
X69046Y-45339D01*
X69047Y-45327D01*
X69050Y-45314D01*
X69057Y-45302D01*
X69065Y-45291D01*
X69076Y-45282D01*
X69087Y-45275D01*
X69100Y-45271D01*
X69114Y-45270D01*
X69127Y-45271D01*
X69140Y-45274D01*
X69152Y-45280D01*
X69163Y-45289D01*
X69172Y-45299D01*
X69178Y-45311D01*
X69183Y-45324D01*
X69184Y-45338D01*
X69185Y-45339D01*
G54D14*
X46665Y-36789D02*
X46665Y-36889D01*
X46665Y-36789D02*
X46065Y-36789D01*
X46065Y-36889D02*
X46065Y-36789D01*
X45965Y-36889D02*
X45365Y-36889D01*
X46065Y-39389D02*
X46065Y-39289D01*
X46065Y-39389D02*
X46665Y-39389D01*
X46665Y-39289D02*
X46665Y-39389D01*
X45365Y-36889D02*
X45165Y-37089D01*
X47565Y-37089D02*
X47365Y-36889D01*
X47365Y-36889D02*
X46765Y-36889D01*
X45165Y-39089D02*
X45365Y-39289D01*
X45365Y-39289D02*
X45965Y-39289D01*
X47565Y-39089D02*
X47365Y-39289D01*
X47365Y-39289D02*
X46765Y-39289D01*
G54D17*
X45865Y-38589D02*
X46865Y-38589D01*
X46865Y-37589D02*
X46865Y-38589D01*
X46865Y-37589D02*
X45865Y-37589D01*
X45865Y-38589D02*
X45865Y-37589D01*
X45165Y-38589D02*
X45265Y-38589D01*
X45265Y-37589D02*
X45265Y-38589D01*
X45265Y-37589D02*
X45165Y-37589D01*
X47465Y-37639D02*
X47465Y-38589D01*
X47465Y-37639D02*
X47565Y-37639D01*
X47465Y-38589D02*
X47565Y-38589D01*
G54D14*
X47565Y-37089D02*
X47565Y-37239D01*
X47565Y-39089D02*
X47565Y-38939D01*
X47565Y-38939D02*
X47565Y-38589D01*
X45165Y-39089D02*
X45165Y-38939D01*
X45165Y-37089D02*
X45165Y-37239D01*
X45165Y-37239D02*
X45165Y-37589D01*
X45165Y-37589D02*
X45165Y-38589D01*
X45165Y-38589D02*
X45165Y-38939D01*
X47565Y-38589D02*
X47565Y-37639D01*
X47565Y-37639D02*
X47565Y-37239D01*
X46665Y-36889D02*
X46765Y-36889D01*
X46065Y-36889D02*
X45965Y-36889D01*
X46665Y-39289D02*
X46765Y-39289D01*
X46065Y-39289D02*
X45965Y-39289D01*
X47215Y-38589D02*
X47215Y-37589D01*
X45465Y-37589D02*
X45465Y-38589D01*
X45865Y-39039D02*
X46165Y-39039D01*
X46565Y-39039D02*
X46865Y-39039D01*
X46165Y-39039D02*
X46515Y-38939D01*
G54D18*
X46859Y-38089D02*
X46849Y-38184D01*
X46821Y-38277D01*
X46776Y-38362D01*
X46715Y-38437D01*
X46641Y-38498D01*
X46556Y-38544D01*
X46464Y-38572D01*
X46368Y-38582D01*
X46273Y-38574D01*
X46180Y-38547D01*
X46095Y-38502D01*
X46020Y-38441D01*
X45958Y-38368D01*
X45911Y-38283D01*
X45882Y-38191D01*
X45872Y-38095D01*
X45880Y-38000D01*
X45906Y-37908D01*
X45950Y-37822D01*
X46010Y-37746D01*
X46084Y-37684D01*
X46168Y-37637D01*
X46259Y-37607D01*
X46355Y-37596D01*
X46450Y-37603D01*
X46543Y-37629D01*
X46629Y-37672D01*
X46705Y-37732D01*
X46768Y-37805D01*
X46816Y-37889D01*
X46846Y-37980D01*
X46858Y-38076D01*
X46859Y-38089D01*
X47356Y-38939D02*
X47353Y-38966D01*
X47345Y-38992D01*
X47332Y-39017D01*
X47315Y-39038D01*
X47293Y-39055D01*
X47269Y-39068D01*
X47243Y-39077D01*
X47215Y-39079D01*
X47189Y-39077D01*
X47163Y-39069D01*
X47138Y-39056D01*
X47117Y-39039D01*
X47099Y-39018D01*
X47086Y-38994D01*
X47078Y-38968D01*
X47075Y-38940D01*
X47077Y-38914D01*
X47084Y-38888D01*
X47097Y-38863D01*
X47114Y-38842D01*
X47135Y-38824D01*
X47159Y-38810D01*
X47185Y-38802D01*
X47213Y-38799D01*
X47239Y-38801D01*
X47265Y-38808D01*
X47290Y-38820D01*
X47312Y-38837D01*
X47330Y-38858D01*
X47343Y-38882D01*
X47352Y-38908D01*
X47355Y-38936D01*
X47356Y-38939D01*
X47306Y-37239D02*
X47303Y-37266D01*
X47295Y-37292D01*
X47282Y-37317D01*
X47265Y-37338D01*
X47243Y-37355D01*
X47219Y-37368D01*
X47193Y-37377D01*
X47165Y-37379D01*
X47139Y-37377D01*
X47113Y-37369D01*
X47088Y-37356D01*
X47067Y-37339D01*
X47049Y-37318D01*
X47036Y-37294D01*
X47028Y-37268D01*
X47025Y-37240D01*
X47027Y-37214D01*
X47034Y-37188D01*
X47047Y-37163D01*
X47064Y-37142D01*
X47085Y-37124D01*
X47109Y-37110D01*
X47135Y-37102D01*
X47163Y-37099D01*
X47189Y-37101D01*
X47215Y-37108D01*
X47240Y-37120D01*
X47262Y-37137D01*
X47280Y-37158D01*
X47293Y-37182D01*
X47302Y-37208D01*
X47305Y-37236D01*
X47306Y-37239D01*
X45656Y-37239D02*
X45653Y-37266D01*
X45645Y-37292D01*
X45632Y-37317D01*
X45615Y-37338D01*
X45593Y-37355D01*
X45569Y-37368D01*
X45543Y-37377D01*
X45515Y-37379D01*
X45489Y-37377D01*
X45463Y-37369D01*
X45438Y-37356D01*
X45417Y-37339D01*
X45399Y-37318D01*
X45386Y-37294D01*
X45378Y-37268D01*
X45375Y-37240D01*
X45377Y-37214D01*
X45384Y-37188D01*
X45397Y-37163D01*
X45414Y-37142D01*
X45435Y-37124D01*
X45459Y-37110D01*
X45485Y-37102D01*
X45513Y-37099D01*
X45539Y-37101D01*
X45565Y-37108D01*
X45590Y-37120D01*
X45612Y-37137D01*
X45630Y-37158D01*
X45643Y-37182D01*
X45652Y-37208D01*
X45655Y-37236D01*
X45656Y-37239D01*
X45656Y-38939D02*
X45653Y-38966D01*
X45645Y-38992D01*
X45632Y-39017D01*
X45615Y-39038D01*
X45593Y-39055D01*
X45569Y-39068D01*
X45543Y-39077D01*
X45515Y-39079D01*
X45489Y-39077D01*
X45463Y-39069D01*
X45438Y-39056D01*
X45417Y-39039D01*
X45399Y-39018D01*
X45386Y-38994D01*
X45378Y-38968D01*
X45375Y-38940D01*
X45377Y-38914D01*
X45384Y-38888D01*
X45397Y-38863D01*
X45414Y-38842D01*
X45435Y-38824D01*
X45459Y-38810D01*
X45485Y-38802D01*
X45513Y-38799D01*
X45539Y-38801D01*
X45565Y-38808D01*
X45590Y-38820D01*
X45612Y-38837D01*
X45630Y-38858D01*
X45643Y-38882D01*
X45652Y-38908D01*
X45655Y-38936D01*
X45656Y-38939D01*
G54D19*
X46541Y-38089D02*
X46537Y-38123D01*
X46527Y-38156D01*
X46511Y-38186D01*
X46489Y-38213D01*
X46463Y-38234D01*
X46433Y-38251D01*
X46400Y-38261D01*
X46366Y-38264D01*
X46333Y-38261D01*
X46300Y-38252D01*
X46269Y-38236D01*
X46242Y-38214D01*
X46220Y-38188D01*
X46204Y-38158D01*
X46193Y-38125D01*
X46190Y-38091D01*
X46192Y-38058D01*
X46202Y-38025D01*
X46218Y-37994D01*
X46239Y-37967D01*
X46265Y-37945D01*
X46295Y-37928D01*
X46328Y-37918D01*
X46362Y-37914D01*
X46395Y-37916D01*
X46428Y-37925D01*
X46459Y-37941D01*
X46486Y-37962D01*
X46508Y-37988D01*
X46525Y-38018D01*
X46536Y-38051D01*
X46540Y-38085D01*
X46541Y-38089D01*
G54D18*
X46435Y-38089D02*
X46433Y-38102D01*
X46429Y-38115D01*
X46423Y-38127D01*
X46414Y-38138D01*
X46404Y-38147D01*
X46392Y-38153D01*
X46379Y-38157D01*
X46365Y-38158D01*
X46352Y-38157D01*
X46339Y-38153D01*
X46327Y-38147D01*
X46317Y-38139D01*
X46308Y-38128D01*
X46301Y-38116D01*
X46297Y-38103D01*
X46296Y-38089D01*
X46297Y-38077D01*
X46300Y-38064D01*
X46307Y-38052D01*
X46315Y-38041D01*
X46326Y-38032D01*
X46337Y-38025D01*
X46350Y-38021D01*
X46364Y-38020D01*
X46377Y-38021D01*
X46390Y-38024D01*
X46402Y-38030D01*
X46413Y-38039D01*
X46422Y-38049D01*
X46428Y-38061D01*
X46433Y-38074D01*
X46434Y-38088D01*
X46435Y-38089D01*
G54D12*
X53965Y-58339D02*
X61215Y-58339D01*
X61215Y-58339D02*
X61215Y-63089D01*
X61215Y-63089D02*
X53965Y-63089D01*
X53965Y-63089D02*
X53965Y-58339D01*
G54D11*
X59965Y-63589D02*
X59965Y-64589D01*
X59965Y-64589D02*
X56965Y-64589D01*
X56965Y-64589D02*
X56965Y-63589D01*
X56965Y-63589D02*
X59965Y-63589D01*
X58965Y-64589D02*
X58965Y-63589D01*
G54D20*
X49471Y-56337D02*
X49471Y-57837D01*
G54D21*
X51198Y-57087D02*
X51184Y-57224D01*
X51144Y-57356D01*
X51079Y-57478D01*
X50992Y-57585D01*
X50886Y-57673D01*
X50764Y-57738D01*
X50633Y-57779D01*
X50495Y-57793D01*
X50359Y-57781D01*
X50227Y-57742D01*
X50104Y-57678D01*
X49997Y-57592D01*
X49908Y-57486D01*
X49842Y-57365D01*
X49800Y-57233D01*
X49785Y-57096D01*
X49796Y-56960D01*
X49834Y-56827D01*
X49897Y-56705D01*
X49983Y-56596D01*
X50088Y-56507D01*
X50208Y-56440D01*
X50340Y-56397D01*
X50477Y-56381D01*
X50613Y-56391D01*
X50746Y-56428D01*
X50869Y-56491D01*
X50978Y-56576D01*
X51068Y-56680D01*
X51136Y-56800D01*
X51180Y-56931D01*
X51197Y-57068D01*
X51198Y-57087D01*
G54D13*
X49492Y-57837D02*
X49561Y-57921D01*
X49637Y-57999D01*
X49720Y-58070D01*
X49809Y-58134D01*
X49903Y-58189D01*
X50001Y-58236D01*
X50103Y-58275D01*
X50208Y-58304D01*
X50315Y-58324D01*
X50424Y-58335D01*
X50532Y-58336D01*
X50641Y-58327D01*
X50748Y-58310D01*
X50854Y-58283D01*
X50957Y-58246D01*
X51056Y-58201D01*
X51151Y-58148D01*
X51241Y-58086D01*
X51325Y-58017D01*
X51403Y-57941D01*
X51474Y-57858D01*
X51538Y-57769D01*
X51593Y-57675D01*
X51640Y-57577D01*
X51679Y-57475D01*
X51708Y-57370D01*
X51728Y-57263D01*
X51739Y-57154D01*
X51740Y-57046D01*
X51731Y-56937D01*
X51714Y-56830D01*
X51687Y-56724D01*
X51650Y-56621D01*
X51605Y-56522D01*
X51552Y-56427D01*
X51490Y-56337D01*
X51421Y-56253D01*
X51345Y-56175D01*
X51262Y-56104D01*
X51173Y-56040D01*
X51079Y-55985D01*
X50981Y-55938D01*
X50879Y-55899D01*
X50774Y-55870D01*
X50667Y-55850D01*
X50558Y-55839D01*
X50450Y-55838D01*
X50341Y-55847D01*
X50234Y-55864D01*
X50128Y-55891D01*
X50025Y-55928D01*
X49926Y-55973D01*
X49831Y-56026D01*
X49741Y-56088D01*
X49657Y-56157D01*
X49579Y-56233D01*
X49508Y-56316D01*
X49492Y-56337D01*
G54D10*
X50491Y-57537D02*
X50530Y-57535D01*
X50569Y-57530D01*
X50607Y-57521D01*
X50644Y-57509D01*
X50681Y-57494D01*
X50716Y-57476D01*
X50749Y-57455D01*
X50780Y-57431D01*
X50809Y-57405D01*
X50835Y-57376D01*
X50859Y-57345D01*
X50880Y-57311D01*
X50898Y-57277D01*
X50913Y-57240D01*
X50925Y-57203D01*
X50934Y-57165D01*
X50939Y-57126D01*
X50941Y-57087D01*
X50491Y-56637D02*
X50452Y-56639D01*
X50413Y-56644D01*
X50375Y-56653D01*
X50338Y-56665D01*
X50301Y-56680D01*
X50267Y-56698D01*
X50233Y-56719D01*
X50202Y-56743D01*
X50173Y-56769D01*
X50147Y-56798D01*
X50123Y-56829D01*
X50102Y-56863D01*
X50084Y-56897D01*
X50069Y-56934D01*
X50057Y-56971D01*
X50048Y-57009D01*
X50043Y-57048D01*
X50041Y-57087D01*
X50491Y-57737D02*
X50547Y-57734D01*
X50603Y-57727D01*
X50659Y-57714D01*
X50713Y-57697D01*
X50765Y-57676D01*
X50816Y-57649D01*
X50863Y-57619D01*
X50908Y-57584D01*
X50950Y-57546D01*
X50988Y-57504D01*
X51023Y-57459D01*
X51053Y-57411D01*
X51080Y-57361D01*
X51101Y-57309D01*
X51118Y-57255D01*
X51131Y-57199D01*
X51138Y-57143D01*
X51141Y-57087D01*
X50491Y-56437D02*
X50435Y-56440D01*
X50379Y-56447D01*
X50323Y-56460D01*
X50269Y-56477D01*
X50217Y-56498D01*
X50167Y-56525D01*
X50119Y-56555D01*
X50074Y-56590D01*
X50032Y-56628D01*
X49994Y-56670D01*
X49959Y-56715D01*
X49929Y-56763D01*
X49902Y-56813D01*
X49881Y-56865D01*
X49864Y-56919D01*
X49851Y-56975D01*
X49844Y-57031D01*
X49841Y-57087D01*
X50491Y-57937D02*
X50565Y-57933D01*
X50638Y-57924D01*
X50710Y-57908D01*
X50781Y-57885D01*
X50850Y-57857D01*
X50916Y-57823D01*
X50978Y-57783D01*
X51037Y-57738D01*
X51092Y-57688D01*
X51142Y-57633D01*
X51187Y-57574D01*
X51227Y-57511D01*
X51261Y-57446D01*
X51289Y-57377D01*
X51312Y-57306D01*
X51328Y-57234D01*
X51337Y-57161D01*
X51341Y-57087D01*
X50491Y-56237D02*
X50417Y-56241D01*
X50344Y-56250D01*
X50272Y-56266D01*
X50201Y-56289D01*
X50132Y-56317D01*
X50067Y-56351D01*
X50004Y-56391D01*
X49945Y-56436D01*
X49890Y-56486D01*
X49840Y-56541D01*
X49795Y-56600D01*
X49755Y-56663D01*
X49721Y-56728D01*
X49693Y-56797D01*
X49670Y-56868D01*
X49654Y-56940D01*
X49645Y-57013D01*
X49641Y-57087D01*
G54D20*
X59585Y-36183D02*
X59585Y-34683D01*
G54D21*
X59272Y-35433D02*
X59258Y-35570D01*
X59218Y-35702D01*
X59153Y-35824D01*
X59066Y-35931D01*
X58960Y-36019D01*
X58838Y-36084D01*
X58707Y-36125D01*
X58569Y-36139D01*
X58433Y-36127D01*
X58301Y-36088D01*
X58178Y-36024D01*
X58071Y-35938D01*
X57982Y-35832D01*
X57916Y-35711D01*
X57874Y-35579D01*
X57859Y-35442D01*
X57870Y-35306D01*
X57908Y-35173D01*
X57971Y-35051D01*
X58057Y-34942D01*
X58162Y-34853D01*
X58282Y-34786D01*
X58414Y-34743D01*
X58551Y-34727D01*
X58687Y-34737D01*
X58820Y-34774D01*
X58943Y-34837D01*
X59052Y-34922D01*
X59142Y-35026D01*
X59210Y-35146D01*
X59254Y-35277D01*
X59271Y-35414D01*
X59272Y-35433D01*
G54D13*
X59564Y-34683D02*
X59495Y-34599D01*
X59419Y-34521D01*
X59336Y-34450D01*
X59247Y-34386D01*
X59153Y-34331D01*
X59055Y-34284D01*
X58953Y-34245D01*
X58848Y-34216D01*
X58741Y-34196D01*
X58632Y-34185D01*
X58524Y-34184D01*
X58415Y-34193D01*
X58308Y-34210D01*
X58202Y-34237D01*
X58099Y-34274D01*
X58000Y-34319D01*
X57905Y-34372D01*
X57815Y-34434D01*
X57731Y-34503D01*
X57653Y-34579D01*
X57582Y-34662D01*
X57518Y-34751D01*
X57463Y-34845D01*
X57416Y-34943D01*
X57377Y-35045D01*
X57348Y-35150D01*
X57328Y-35257D01*
X57317Y-35366D01*
X57316Y-35474D01*
X57325Y-35583D01*
X57342Y-35690D01*
X57369Y-35796D01*
X57406Y-35899D01*
X57451Y-35998D01*
X57504Y-36093D01*
X57566Y-36183D01*
X57635Y-36267D01*
X57711Y-36345D01*
X57794Y-36416D01*
X57883Y-36480D01*
X57977Y-36535D01*
X58075Y-36582D01*
X58177Y-36621D01*
X58282Y-36650D01*
X58389Y-36670D01*
X58498Y-36681D01*
X58606Y-36682D01*
X58715Y-36673D01*
X58822Y-36656D01*
X58928Y-36629D01*
X59031Y-36592D01*
X59130Y-36547D01*
X59225Y-36494D01*
X59315Y-36432D01*
X59399Y-36363D01*
X59477Y-36287D01*
X59548Y-36204D01*
X59564Y-36183D01*
G54D10*
X58565Y-34983D02*
X58526Y-34985D01*
X58487Y-34990D01*
X58449Y-34999D01*
X58412Y-35011D01*
X58375Y-35026D01*
X58341Y-35044D01*
X58307Y-35065D01*
X58276Y-35089D01*
X58247Y-35115D01*
X58221Y-35144D01*
X58197Y-35175D01*
X58176Y-35209D01*
X58158Y-35243D01*
X58143Y-35280D01*
X58131Y-35317D01*
X58122Y-35355D01*
X58117Y-35394D01*
X58115Y-35433D01*
X58565Y-35883D02*
X58604Y-35881D01*
X58643Y-35876D01*
X58681Y-35867D01*
X58718Y-35855D01*
X58755Y-35840D01*
X58790Y-35822D01*
X58823Y-35801D01*
X58854Y-35777D01*
X58883Y-35751D01*
X58909Y-35722D01*
X58933Y-35691D01*
X58954Y-35657D01*
X58972Y-35623D01*
X58987Y-35586D01*
X58999Y-35549D01*
X59008Y-35511D01*
X59013Y-35472D01*
X59015Y-35433D01*
X58565Y-34783D02*
X58509Y-34786D01*
X58453Y-34793D01*
X58397Y-34806D01*
X58343Y-34823D01*
X58291Y-34844D01*
X58241Y-34871D01*
X58193Y-34901D01*
X58148Y-34936D01*
X58106Y-34974D01*
X58068Y-35016D01*
X58033Y-35061D01*
X58003Y-35109D01*
X57976Y-35159D01*
X57955Y-35211D01*
X57938Y-35265D01*
X57925Y-35321D01*
X57918Y-35377D01*
X57915Y-35433D01*
X58565Y-36083D02*
X58621Y-36080D01*
X58677Y-36073D01*
X58733Y-36060D01*
X58787Y-36043D01*
X58839Y-36022D01*
X58890Y-35995D01*
X58937Y-35965D01*
X58982Y-35930D01*
X59024Y-35892D01*
X59062Y-35850D01*
X59097Y-35805D01*
X59127Y-35757D01*
X59154Y-35707D01*
X59175Y-35655D01*
X59192Y-35601D01*
X59205Y-35545D01*
X59212Y-35489D01*
X59215Y-35433D01*
X58565Y-34583D02*
X58491Y-34587D01*
X58418Y-34596D01*
X58346Y-34612D01*
X58275Y-34635D01*
X58206Y-34663D01*
X58141Y-34697D01*
X58078Y-34737D01*
X58019Y-34782D01*
X57964Y-34832D01*
X57914Y-34887D01*
X57869Y-34946D01*
X57829Y-35009D01*
X57795Y-35074D01*
X57767Y-35143D01*
X57744Y-35214D01*
X57728Y-35286D01*
X57719Y-35359D01*
X57715Y-35433D01*
X58565Y-36283D02*
X58639Y-36279D01*
X58712Y-36270D01*
X58784Y-36254D01*
X58855Y-36231D01*
X58924Y-36203D01*
X58990Y-36169D01*
X59052Y-36129D01*
X59111Y-36084D01*
X59166Y-36034D01*
X59216Y-35979D01*
X59261Y-35920D01*
X59301Y-35857D01*
X59335Y-35792D01*
X59363Y-35723D01*
X59386Y-35652D01*
X59402Y-35580D01*
X59411Y-35507D01*
X59415Y-35433D01*
G54D20*
X67089Y-55967D02*
X65589Y-55967D01*
G54D21*
X67046Y-56987D02*
X67032Y-57124D01*
X66992Y-57256D01*
X66927Y-57378D01*
X66840Y-57485D01*
X66734Y-57573D01*
X66612Y-57638D01*
X66481Y-57679D01*
X66343Y-57693D01*
X66207Y-57681D01*
X66075Y-57642D01*
X65952Y-57578D01*
X65845Y-57492D01*
X65756Y-57386D01*
X65690Y-57265D01*
X65648Y-57133D01*
X65633Y-56996D01*
X65644Y-56860D01*
X65682Y-56727D01*
X65745Y-56605D01*
X65831Y-56496D01*
X65936Y-56407D01*
X66056Y-56340D01*
X66188Y-56297D01*
X66325Y-56281D01*
X66461Y-56291D01*
X66594Y-56328D01*
X66717Y-56391D01*
X66826Y-56476D01*
X66916Y-56580D01*
X66984Y-56700D01*
X67028Y-56831D01*
X67045Y-56968D01*
X67046Y-56987D01*
G54D13*
X65589Y-55988D02*
X65505Y-56057D01*
X65427Y-56133D01*
X65356Y-56216D01*
X65292Y-56305D01*
X65237Y-56399D01*
X65190Y-56497D01*
X65151Y-56599D01*
X65122Y-56704D01*
X65102Y-56811D01*
X65091Y-56920D01*
X65090Y-57028D01*
X65099Y-57137D01*
X65116Y-57244D01*
X65143Y-57350D01*
X65180Y-57453D01*
X65225Y-57552D01*
X65278Y-57647D01*
X65340Y-57737D01*
X65409Y-57821D01*
X65485Y-57899D01*
X65568Y-57970D01*
X65657Y-58034D01*
X65751Y-58089D01*
X65849Y-58136D01*
X65951Y-58175D01*
X66056Y-58204D01*
X66163Y-58224D01*
X66272Y-58235D01*
X66380Y-58236D01*
X66489Y-58227D01*
X66596Y-58210D01*
X66702Y-58183D01*
X66805Y-58146D01*
X66904Y-58101D01*
X66999Y-58048D01*
X67089Y-57986D01*
X67173Y-57917D01*
X67251Y-57841D01*
X67322Y-57758D01*
X67386Y-57669D01*
X67441Y-57575D01*
X67488Y-57477D01*
X67527Y-57375D01*
X67556Y-57270D01*
X67576Y-57163D01*
X67587Y-57054D01*
X67588Y-56946D01*
X67579Y-56837D01*
X67562Y-56730D01*
X67535Y-56624D01*
X67498Y-56521D01*
X67453Y-56422D01*
X67400Y-56327D01*
X67338Y-56237D01*
X67269Y-56153D01*
X67193Y-56075D01*
X67110Y-56004D01*
X67089Y-55988D01*
G54D10*
X65889Y-56987D02*
X65891Y-57026D01*
X65896Y-57065D01*
X65905Y-57103D01*
X65917Y-57140D01*
X65932Y-57177D01*
X65950Y-57211D01*
X65971Y-57245D01*
X65995Y-57276D01*
X66021Y-57305D01*
X66050Y-57331D01*
X66081Y-57355D01*
X66115Y-57376D01*
X66149Y-57394D01*
X66186Y-57409D01*
X66223Y-57421D01*
X66261Y-57430D01*
X66300Y-57435D01*
X66339Y-57437D01*
X66789Y-56987D02*
X66787Y-56948D01*
X66782Y-56909D01*
X66773Y-56871D01*
X66761Y-56834D01*
X66746Y-56797D01*
X66728Y-56763D01*
X66707Y-56729D01*
X66683Y-56698D01*
X66657Y-56669D01*
X66628Y-56643D01*
X66597Y-56619D01*
X66564Y-56598D01*
X66529Y-56580D01*
X66492Y-56565D01*
X66455Y-56553D01*
X66417Y-56544D01*
X66378Y-56539D01*
X66339Y-56537D01*
X65689Y-56987D02*
X65692Y-57043D01*
X65699Y-57099D01*
X65712Y-57155D01*
X65729Y-57209D01*
X65750Y-57261D01*
X65777Y-57311D01*
X65807Y-57359D01*
X65842Y-57404D01*
X65880Y-57446D01*
X65922Y-57484D01*
X65967Y-57519D01*
X66015Y-57549D01*
X66065Y-57576D01*
X66117Y-57597D01*
X66171Y-57614D01*
X66227Y-57627D01*
X66283Y-57634D01*
X66339Y-57637D01*
X66989Y-56987D02*
X66986Y-56931D01*
X66979Y-56875D01*
X66966Y-56819D01*
X66949Y-56765D01*
X66928Y-56713D01*
X66901Y-56663D01*
X66871Y-56615D01*
X66836Y-56570D01*
X66798Y-56528D01*
X66756Y-56490D01*
X66711Y-56455D01*
X66664Y-56425D01*
X66613Y-56398D01*
X66561Y-56377D01*
X66507Y-56360D01*
X66451Y-56347D01*
X66395Y-56340D01*
X66339Y-56337D01*
X65489Y-56987D02*
X65493Y-57061D01*
X65502Y-57134D01*
X65518Y-57206D01*
X65541Y-57277D01*
X65569Y-57346D01*
X65603Y-57411D01*
X65643Y-57474D01*
X65688Y-57533D01*
X65738Y-57588D01*
X65793Y-57638D01*
X65852Y-57683D01*
X65915Y-57723D01*
X65980Y-57757D01*
X66049Y-57785D01*
X66120Y-57808D01*
X66192Y-57824D01*
X66265Y-57833D01*
X66339Y-57837D01*
X67189Y-56987D02*
X67185Y-56913D01*
X67176Y-56840D01*
X67160Y-56768D01*
X67137Y-56697D01*
X67109Y-56628D01*
X67075Y-56563D01*
X67035Y-56500D01*
X66990Y-56441D01*
X66940Y-56386D01*
X66885Y-56336D01*
X66826Y-56291D01*
X66764Y-56251D01*
X66698Y-56217D01*
X66629Y-56189D01*
X66558Y-56166D01*
X66486Y-56150D01*
X66413Y-56141D01*
X66339Y-56137D01*
G54D13*
X65495Y-38589D02*
X65495Y-39589D01*
G54D10*
X66575Y-39473D02*
X66607Y-39431D01*
X66635Y-39387D01*
X66659Y-39340D01*
X66679Y-39292D01*
X66695Y-39242D01*
X66706Y-39191D01*
X66712Y-39139D01*
X66715Y-39089D01*
X66714Y-39089D02*
X66711Y-39037D01*
X66704Y-38985D01*
X66693Y-38934D01*
X66677Y-38885D01*
X66657Y-38836D01*
X66633Y-38790D01*
X66605Y-38746D01*
X66573Y-38704D01*
X66562Y-38692D01*
X65516Y-39089D02*
X65519Y-39141D01*
X65526Y-39193D01*
X65537Y-39244D01*
X65553Y-39293D01*
X65573Y-39342D01*
X65597Y-39388D01*
X65625Y-39432D01*
X65657Y-39474D01*
X65661Y-39478D01*
X65655Y-38705D02*
X65623Y-38747D01*
X65595Y-38791D01*
X65571Y-38838D01*
X65551Y-38886D01*
X65535Y-38936D01*
X65524Y-38987D01*
X65518Y-39039D01*
X65515Y-39089D01*
X65628Y-39438D02*
X65660Y-39479D01*
X65696Y-39517D01*
X65735Y-39552D01*
X65777Y-39584D01*
X65821Y-39611D01*
X65868Y-39635D01*
X65916Y-39654D01*
X65966Y-39670D01*
X66018Y-39680D01*
X66069Y-39687D01*
X66115Y-39689D01*
X66115Y-39689D02*
X66167Y-39686D01*
X66219Y-39679D01*
X66270Y-39668D01*
X66320Y-39652D01*
X66368Y-39632D01*
X66415Y-39608D01*
X66459Y-39580D01*
X66500Y-39548D01*
X66539Y-39513D01*
X66574Y-39474D01*
X66594Y-39449D01*
X66115Y-38490D02*
X66063Y-38493D01*
X66011Y-38500D01*
X65960Y-38511D01*
X65911Y-38527D01*
X65862Y-38547D01*
X65816Y-38571D01*
X65772Y-38599D01*
X65730Y-38631D01*
X65692Y-38666D01*
X65657Y-38704D01*
X65643Y-38722D01*
X66588Y-38721D02*
X66554Y-38681D01*
X66517Y-38644D01*
X66476Y-38611D01*
X66433Y-38581D01*
X66388Y-38555D01*
X66340Y-38534D01*
X66291Y-38516D01*
X66240Y-38503D01*
X66189Y-38494D01*
X66136Y-38490D01*
X66115Y-38489D01*
X66115Y-39339D02*
X66136Y-39338D01*
X66158Y-39335D01*
X66179Y-39330D01*
X66200Y-39323D01*
X66220Y-39315D01*
X66240Y-39305D01*
X66258Y-39293D01*
X66275Y-39280D01*
X66291Y-39265D01*
X66306Y-39249D01*
X66319Y-39232D01*
X66331Y-39213D01*
X66341Y-39194D01*
X66349Y-39174D01*
X66356Y-39153D01*
X66361Y-39132D01*
X66364Y-39110D01*
X66365Y-39089D01*
X66115Y-39489D02*
X66149Y-39487D01*
X66184Y-39482D01*
X66218Y-39475D01*
X66251Y-39464D01*
X66284Y-39451D01*
X66315Y-39435D01*
X66344Y-39416D01*
X66372Y-39395D01*
X66397Y-39371D01*
X66421Y-39346D01*
X66442Y-39318D01*
X66461Y-39288D01*
X66477Y-39258D01*
X66490Y-39225D01*
X66501Y-39192D01*
X66508Y-39158D01*
X66513Y-39123D01*
X66515Y-39089D01*
X66115Y-38839D02*
X66094Y-38840D01*
X66072Y-38843D01*
X66051Y-38848D01*
X66030Y-38855D01*
X66010Y-38863D01*
X65991Y-38873D01*
X65972Y-38885D01*
X65955Y-38898D01*
X65939Y-38913D01*
X65924Y-38929D01*
X65911Y-38946D01*
X65899Y-38965D01*
X65889Y-38984D01*
X65881Y-39004D01*
X65874Y-39025D01*
X65869Y-39046D01*
X65866Y-39068D01*
X65865Y-39089D01*
X66115Y-38689D02*
X66081Y-38691D01*
X66046Y-38696D01*
X66012Y-38703D01*
X65979Y-38714D01*
X65946Y-38727D01*
X65916Y-38743D01*
X65886Y-38762D01*
X65858Y-38783D01*
X65833Y-38807D01*
X65809Y-38832D01*
X65788Y-38860D01*
X65769Y-38890D01*
X65753Y-38920D01*
X65740Y-38953D01*
X65729Y-38986D01*
X65722Y-39020D01*
X65717Y-39055D01*
X65715Y-39089D01*
G54D13*
X65502Y-39602D02*
X65549Y-39653D01*
X65600Y-39700D01*
X65655Y-39743D01*
X65714Y-39781D01*
X65776Y-39813D01*
X65841Y-39840D01*
X65907Y-39861D01*
X65975Y-39876D01*
X66044Y-39885D01*
X66114Y-39888D01*
X66115Y-39889D01*
X66115Y-39888D02*
X66184Y-39884D01*
X66253Y-39875D01*
X66321Y-39860D01*
X66388Y-39839D01*
X66452Y-39813D01*
X66514Y-39780D01*
X66573Y-39743D01*
X66628Y-39701D01*
X66679Y-39653D01*
X66727Y-39602D01*
X66769Y-39547D01*
X66806Y-39488D01*
X66819Y-39465D01*
X66114Y-38292D02*
X66045Y-38295D01*
X65976Y-38304D01*
X65908Y-38319D01*
X65841Y-38340D01*
X65777Y-38367D01*
X65715Y-38399D01*
X65657Y-38437D01*
X65601Y-38479D01*
X65550Y-38526D01*
X65506Y-38574D01*
X66809Y-38692D02*
X66771Y-38633D01*
X66729Y-38577D01*
X66682Y-38526D01*
X66631Y-38478D01*
X66576Y-38436D01*
X66517Y-38398D01*
X66455Y-38366D01*
X66391Y-38339D01*
X66324Y-38317D01*
X66256Y-38302D01*
X66187Y-38293D01*
X66117Y-38290D01*
X66115Y-38289D01*
X66819Y-39468D02*
X66849Y-39405D01*
X66874Y-39340D01*
X66893Y-39273D01*
X66906Y-39204D01*
X66913Y-39135D01*
X66915Y-39089D01*
X66914Y-39089D02*
X66910Y-39020D01*
X66901Y-38951D01*
X66886Y-38883D01*
X66865Y-38816D01*
X66839Y-38752D01*
X66806Y-38690D01*
X66795Y-38671D01*
X57745Y-55089D02*
X57745Y-56089D01*
G54D10*
X58825Y-55973D02*
X58857Y-55931D01*
X58885Y-55887D01*
X58909Y-55840D01*
X58929Y-55792D01*
X58945Y-55742D01*
X58956Y-55691D01*
X58962Y-55639D01*
X58965Y-55589D01*
X58964Y-55589D02*
X58961Y-55537D01*
X58954Y-55485D01*
X58943Y-55434D01*
X58927Y-55385D01*
X58907Y-55336D01*
X58883Y-55290D01*
X58855Y-55246D01*
X58823Y-55204D01*
X58812Y-55192D01*
X57766Y-55589D02*
X57769Y-55641D01*
X57776Y-55693D01*
X57787Y-55744D01*
X57803Y-55793D01*
X57823Y-55842D01*
X57847Y-55888D01*
X57875Y-55932D01*
X57907Y-55974D01*
X57911Y-55978D01*
X57905Y-55205D02*
X57873Y-55247D01*
X57845Y-55291D01*
X57821Y-55338D01*
X57801Y-55386D01*
X57785Y-55436D01*
X57774Y-55487D01*
X57768Y-55539D01*
X57765Y-55589D01*
X57878Y-55938D02*
X57910Y-55979D01*
X57946Y-56017D01*
X57985Y-56052D01*
X58027Y-56084D01*
X58071Y-56111D01*
X58118Y-56135D01*
X58166Y-56154D01*
X58216Y-56170D01*
X58268Y-56180D01*
X58319Y-56187D01*
X58365Y-56189D01*
X58365Y-56189D02*
X58417Y-56186D01*
X58469Y-56179D01*
X58520Y-56168D01*
X58570Y-56152D01*
X58618Y-56132D01*
X58665Y-56108D01*
X58709Y-56080D01*
X58750Y-56048D01*
X58789Y-56013D01*
X58824Y-55974D01*
X58844Y-55949D01*
X58365Y-54990D02*
X58313Y-54993D01*
X58261Y-55000D01*
X58210Y-55011D01*
X58161Y-55027D01*
X58112Y-55047D01*
X58066Y-55071D01*
X58022Y-55099D01*
X57980Y-55131D01*
X57942Y-55166D01*
X57907Y-55204D01*
X57893Y-55222D01*
X58838Y-55221D02*
X58804Y-55181D01*
X58767Y-55144D01*
X58726Y-55111D01*
X58683Y-55081D01*
X58638Y-55055D01*
X58590Y-55034D01*
X58541Y-55016D01*
X58490Y-55003D01*
X58439Y-54994D01*
X58386Y-54990D01*
X58365Y-54989D01*
X58365Y-55839D02*
X58386Y-55838D01*
X58408Y-55835D01*
X58429Y-55830D01*
X58450Y-55823D01*
X58470Y-55815D01*
X58490Y-55805D01*
X58508Y-55793D01*
X58525Y-55780D01*
X58541Y-55765D01*
X58556Y-55749D01*
X58569Y-55732D01*
X58581Y-55713D01*
X58591Y-55694D01*
X58599Y-55674D01*
X58606Y-55653D01*
X58611Y-55632D01*
X58614Y-55610D01*
X58615Y-55589D01*
X58365Y-55989D02*
X58399Y-55987D01*
X58434Y-55982D01*
X58468Y-55975D01*
X58501Y-55964D01*
X58534Y-55951D01*
X58565Y-55935D01*
X58594Y-55916D01*
X58622Y-55895D01*
X58647Y-55871D01*
X58671Y-55846D01*
X58692Y-55818D01*
X58711Y-55788D01*
X58727Y-55758D01*
X58740Y-55725D01*
X58751Y-55692D01*
X58758Y-55658D01*
X58763Y-55623D01*
X58765Y-55589D01*
X58365Y-55339D02*
X58344Y-55340D01*
X58322Y-55343D01*
X58301Y-55348D01*
X58280Y-55355D01*
X58260Y-55363D01*
X58241Y-55373D01*
X58222Y-55385D01*
X58205Y-55398D01*
X58189Y-55413D01*
X58174Y-55429D01*
X58161Y-55446D01*
X58149Y-55465D01*
X58139Y-55484D01*
X58131Y-55504D01*
X58124Y-55525D01*
X58119Y-55546D01*
X58116Y-55568D01*
X58115Y-55589D01*
X58365Y-55189D02*
X58331Y-55191D01*
X58296Y-55196D01*
X58262Y-55203D01*
X58229Y-55214D01*
X58196Y-55227D01*
X58166Y-55243D01*
X58136Y-55262D01*
X58108Y-55283D01*
X58083Y-55307D01*
X58059Y-55332D01*
X58038Y-55360D01*
X58019Y-55390D01*
X58003Y-55420D01*
X57990Y-55453D01*
X57979Y-55486D01*
X57972Y-55520D01*
X57967Y-55555D01*
X57965Y-55589D01*
G54D13*
X57752Y-56102D02*
X57799Y-56153D01*
X57850Y-56200D01*
X57905Y-56243D01*
X57964Y-56281D01*
X58026Y-56313D01*
X58091Y-56340D01*
X58157Y-56361D01*
X58225Y-56376D01*
X58294Y-56385D01*
X58364Y-56388D01*
X58365Y-56389D01*
X58365Y-56388D02*
X58434Y-56384D01*
X58503Y-56375D01*
X58571Y-56360D01*
X58638Y-56339D01*
X58702Y-56313D01*
X58764Y-56280D01*
X58823Y-56243D01*
X58878Y-56201D01*
X58929Y-56153D01*
X58977Y-56102D01*
X59019Y-56047D01*
X59056Y-55988D01*
X59069Y-55965D01*
X58364Y-54792D02*
X58295Y-54795D01*
X58226Y-54804D01*
X58158Y-54819D01*
X58091Y-54840D01*
X58027Y-54867D01*
X57965Y-54899D01*
X57907Y-54937D01*
X57851Y-54979D01*
X57800Y-55026D01*
X57756Y-55074D01*
X59059Y-55192D02*
X59021Y-55133D01*
X58979Y-55077D01*
X58932Y-55026D01*
X58881Y-54978D01*
X58826Y-54936D01*
X58767Y-54898D01*
X58705Y-54866D01*
X58641Y-54839D01*
X58574Y-54817D01*
X58506Y-54802D01*
X58437Y-54793D01*
X58367Y-54790D01*
X58365Y-54789D01*
X59069Y-55968D02*
X59099Y-55905D01*
X59124Y-55840D01*
X59143Y-55773D01*
X59156Y-55704D01*
X59163Y-55635D01*
X59165Y-55589D01*
X59164Y-55589D02*
X59160Y-55520D01*
X59151Y-55451D01*
X59136Y-55383D01*
X59115Y-55316D01*
X59089Y-55252D01*
X59056Y-55190D01*
X59045Y-55171D01*
X47715Y-59059D02*
X48715Y-59059D01*
G54D10*
X48599Y-57979D02*
X48557Y-57947D01*
X48513Y-57919D01*
X48466Y-57895D01*
X48418Y-57875D01*
X48368Y-57859D01*
X48317Y-57848D01*
X48265Y-57842D01*
X48215Y-57839D01*
X48215Y-57840D02*
X48163Y-57843D01*
X48111Y-57850D01*
X48060Y-57861D01*
X48011Y-57877D01*
X47962Y-57897D01*
X47916Y-57921D01*
X47872Y-57949D01*
X47830Y-57981D01*
X47818Y-57992D01*
X48215Y-59038D02*
X48267Y-59035D01*
X48319Y-59028D01*
X48370Y-59017D01*
X48419Y-59001D01*
X48468Y-58981D01*
X48514Y-58957D01*
X48558Y-58929D01*
X48600Y-58897D01*
X48604Y-58893D01*
X47831Y-58899D02*
X47873Y-58931D01*
X47917Y-58959D01*
X47964Y-58983D01*
X48012Y-59003D01*
X48062Y-59019D01*
X48113Y-59030D01*
X48165Y-59036D01*
X48215Y-59039D01*
X48564Y-58926D02*
X48605Y-58894D01*
X48643Y-58858D01*
X48678Y-58819D01*
X48710Y-58777D01*
X48737Y-58733D01*
X48761Y-58686D01*
X48780Y-58638D01*
X48796Y-58588D01*
X48806Y-58536D01*
X48813Y-58485D01*
X48815Y-58439D01*
X48815Y-58439D02*
X48812Y-58387D01*
X48805Y-58335D01*
X48794Y-58284D01*
X48778Y-58234D01*
X48758Y-58186D01*
X48734Y-58140D01*
X48706Y-58095D01*
X48674Y-58054D01*
X48639Y-58015D01*
X48600Y-57980D01*
X48575Y-57960D01*
X47616Y-58439D02*
X47619Y-58491D01*
X47626Y-58543D01*
X47637Y-58594D01*
X47653Y-58643D01*
X47673Y-58692D01*
X47697Y-58738D01*
X47725Y-58782D01*
X47757Y-58824D01*
X47792Y-58862D01*
X47830Y-58897D01*
X47848Y-58911D01*
X47847Y-57966D02*
X47807Y-58000D01*
X47770Y-58037D01*
X47737Y-58078D01*
X47707Y-58121D01*
X47681Y-58166D01*
X47660Y-58214D01*
X47642Y-58263D01*
X47629Y-58314D01*
X47620Y-58365D01*
X47616Y-58418D01*
X47615Y-58439D01*
X48465Y-58439D02*
X48464Y-58418D01*
X48461Y-58396D01*
X48456Y-58375D01*
X48449Y-58354D01*
X48441Y-58334D01*
X48431Y-58315D01*
X48419Y-58296D01*
X48406Y-58279D01*
X48391Y-58263D01*
X48375Y-58248D01*
X48358Y-58235D01*
X48340Y-58223D01*
X48320Y-58213D01*
X48300Y-58205D01*
X48279Y-58198D01*
X48258Y-58193D01*
X48236Y-58190D01*
X48215Y-58189D01*
X48615Y-58439D02*
X48613Y-58405D01*
X48608Y-58370D01*
X48601Y-58336D01*
X48590Y-58303D01*
X48577Y-58270D01*
X48561Y-58240D01*
X48542Y-58210D01*
X48521Y-58182D01*
X48497Y-58157D01*
X48472Y-58133D01*
X48444Y-58112D01*
X48415Y-58093D01*
X48384Y-58077D01*
X48351Y-58064D01*
X48318Y-58053D01*
X48284Y-58046D01*
X48249Y-58041D01*
X48215Y-58039D01*
X47965Y-58439D02*
X47966Y-58460D01*
X47969Y-58482D01*
X47974Y-58503D01*
X47981Y-58524D01*
X47989Y-58544D01*
X47999Y-58563D01*
X48011Y-58582D01*
X48024Y-58599D01*
X48039Y-58615D01*
X48055Y-58630D01*
X48072Y-58643D01*
X48091Y-58655D01*
X48110Y-58665D01*
X48130Y-58673D01*
X48151Y-58680D01*
X48172Y-58685D01*
X48194Y-58688D01*
X48215Y-58689D01*
X47815Y-58439D02*
X47817Y-58473D01*
X47822Y-58508D01*
X47829Y-58542D01*
X47840Y-58575D01*
X47853Y-58608D01*
X47869Y-58638D01*
X47888Y-58668D01*
X47909Y-58696D01*
X47933Y-58721D01*
X47958Y-58745D01*
X47986Y-58766D01*
X48016Y-58785D01*
X48046Y-58801D01*
X48079Y-58814D01*
X48112Y-58825D01*
X48146Y-58832D01*
X48181Y-58837D01*
X48215Y-58839D01*
G54D13*
X48728Y-59052D02*
X48779Y-59005D01*
X48826Y-58954D01*
X48869Y-58899D01*
X48907Y-58840D01*
X48939Y-58778D01*
X48966Y-58713D01*
X48987Y-58647D01*
X49002Y-58579D01*
X49011Y-58510D01*
X49014Y-58440D01*
X49015Y-58439D01*
X49014Y-58439D02*
X49010Y-58370D01*
X49001Y-58301D01*
X48986Y-58233D01*
X48965Y-58166D01*
X48939Y-58102D01*
X48906Y-58040D01*
X48869Y-57981D01*
X48827Y-57926D01*
X48779Y-57875D01*
X48728Y-57827D01*
X48673Y-57785D01*
X48614Y-57748D01*
X48591Y-57735D01*
X47418Y-58440D02*
X47421Y-58509D01*
X47430Y-58578D01*
X47445Y-58646D01*
X47466Y-58713D01*
X47493Y-58777D01*
X47525Y-58839D01*
X47563Y-58897D01*
X47605Y-58953D01*
X47652Y-59004D01*
X47700Y-59048D01*
X47818Y-57745D02*
X47759Y-57783D01*
X47703Y-57825D01*
X47652Y-57872D01*
X47604Y-57923D01*
X47562Y-57978D01*
X47524Y-58037D01*
X47492Y-58099D01*
X47465Y-58163D01*
X47443Y-58230D01*
X47428Y-58298D01*
X47419Y-58367D01*
X47416Y-58437D01*
X47415Y-58439D01*
X48594Y-57735D02*
X48531Y-57705D01*
X48466Y-57680D01*
X48399Y-57661D01*
X48330Y-57648D01*
X48261Y-57641D01*
X48215Y-57639D01*
X48215Y-57640D02*
X48146Y-57644D01*
X48077Y-57653D01*
X48009Y-57668D01*
X47942Y-57689D01*
X47878Y-57715D01*
X47816Y-57748D01*
X47797Y-57759D01*
G54D12*
X38965Y-41089D02*
X39215Y-41089D01*
X39215Y-41089D02*
X39215Y-41589D01*
X39215Y-41589D02*
X38965Y-41589D01*
X38465Y-42089D02*
X38465Y-40839D01*
X38465Y-40839D02*
X38965Y-40839D01*
X38965Y-40839D02*
X38965Y-42089D01*
X38715Y-42089D02*
X38715Y-43339D01*
X38465Y-42089D02*
X38965Y-42089D01*
X77965Y-41589D02*
X77715Y-41589D01*
X77715Y-41589D02*
X77715Y-41089D01*
X77715Y-41089D02*
X77965Y-41089D01*
X78465Y-40589D02*
X78465Y-41839D01*
X78465Y-41839D02*
X77965Y-41839D01*
X77965Y-41839D02*
X77965Y-40589D01*
X78215Y-40589D02*
X78215Y-39339D01*
X78465Y-40589D02*
X77965Y-40589D01*
G54D11*
X70965Y-59339D02*
X67965Y-59339D01*
X67965Y-59339D02*
X67965Y-58339D01*
X67965Y-58339D02*
X70965Y-58339D01*
X70965Y-58339D02*
X70965Y-59339D01*
X68215Y-59339D02*
X68215Y-58339D01*
X68465Y-58339D02*
X68465Y-59339D01*
X70965Y-58839D02*
X71465Y-58839D01*
X67965Y-58839D02*
X67465Y-58839D01*
G54D14*
X51965Y-58539D02*
X51965Y-58739D01*
X52965Y-58689D02*
X52965Y-58739D01*
X52965Y-58539D02*
X52965Y-58689D01*
X51915Y-58589D02*
X52965Y-58589D01*
X52965Y-58589D02*
X52965Y-58639D01*
X52965Y-58639D02*
X51965Y-58639D01*
X51965Y-58639D02*
X51965Y-58689D01*
X51965Y-58689D02*
X52965Y-58689D01*
X52465Y-59139D02*
X52465Y-59489D01*
X53015Y-58539D02*
X51915Y-58539D01*
X51915Y-58539D02*
X51915Y-58739D01*
X51915Y-58739D02*
X53015Y-58739D01*
X53015Y-58739D02*
X53015Y-58539D01*
X52465Y-58939D02*
X53015Y-58939D01*
X53015Y-58939D02*
X53015Y-59139D01*
X53015Y-59139D02*
X51915Y-59139D01*
X51915Y-59139D02*
X51915Y-58939D01*
X52465Y-58939D02*
X51915Y-58939D01*
X52465Y-58189D02*
X52465Y-58539D01*
X52365Y-60089D02*
X52315Y-60089D01*
X52465Y-59939D02*
X52465Y-60239D01*
X52615Y-60089D02*
X52365Y-60089D01*
G54D16*
X53465Y-58839D02*
X53445Y-59033D01*
X53389Y-59220D01*
X53297Y-59392D01*
X53174Y-59543D01*
X53024Y-59668D01*
X52852Y-59760D01*
X52666Y-59818D01*
X52471Y-59838D01*
X52278Y-59821D01*
X52091Y-59766D01*
X51918Y-59675D01*
X51766Y-59553D01*
X51640Y-59403D01*
X51546Y-59232D01*
X51487Y-59046D01*
X51466Y-58852D01*
X51482Y-58659D01*
X51536Y-58471D01*
X51625Y-58298D01*
X51746Y-58145D01*
X51895Y-58018D01*
X52065Y-57923D01*
X52251Y-57863D01*
X52445Y-57840D01*
X52638Y-57855D01*
X52826Y-57907D01*
X53000Y-57995D01*
X53154Y-58115D01*
X53282Y-58263D01*
X53378Y-58433D01*
X53440Y-58618D01*
X53464Y-58812D01*
X53465Y-58839D01*
G54D14*
X74415Y-29839D02*
X74615Y-29839D01*
X74565Y-28839D02*
X74615Y-28839D01*
X74415Y-28839D02*
X74565Y-28839D01*
X74465Y-29889D02*
X74465Y-28839D01*
X74465Y-28839D02*
X74515Y-28839D01*
X74515Y-28839D02*
X74515Y-29839D01*
X74515Y-29839D02*
X74565Y-29839D01*
X74565Y-29839D02*
X74565Y-28839D01*
X75015Y-29339D02*
X75365Y-29339D01*
X74415Y-28789D02*
X74415Y-29889D01*
X74415Y-29889D02*
X74615Y-29889D01*
X74615Y-29889D02*
X74615Y-28789D01*
X74615Y-28789D02*
X74415Y-28789D01*
X74815Y-29339D02*
X74815Y-28789D01*
X74815Y-28789D02*
X75015Y-28789D01*
X75015Y-28789D02*
X75015Y-29889D01*
X75015Y-29889D02*
X74815Y-29889D01*
X74815Y-29339D02*
X74815Y-29889D01*
X74065Y-29339D02*
X74415Y-29339D01*
X75965Y-29439D02*
X75965Y-29489D01*
X75815Y-29339D02*
X76115Y-29339D01*
X75965Y-29189D02*
X75965Y-29439D01*
G54D16*
X75715Y-29339D02*
X75695Y-29533D01*
X75639Y-29720D01*
X75547Y-29892D01*
X75424Y-30043D01*
X75274Y-30168D01*
X75102Y-30260D01*
X74916Y-30318D01*
X74721Y-30338D01*
X74528Y-30321D01*
X74341Y-30266D01*
X74168Y-30175D01*
X74016Y-30053D01*
X73890Y-29903D01*
X73796Y-29732D01*
X73737Y-29546D01*
X73716Y-29352D01*
X73732Y-29159D01*
X73786Y-28971D01*
X73875Y-28798D01*
X73996Y-28645D01*
X74145Y-28518D01*
X74315Y-28423D01*
X74501Y-28363D01*
X74695Y-28340D01*
X74888Y-28355D01*
X75076Y-28407D01*
X75250Y-28495D01*
X75404Y-28615D01*
X75532Y-28763D01*
X75628Y-28933D01*
X75690Y-29118D01*
X75714Y-29312D01*
X75715Y-29339D01*
G54D14*
X57965Y-28139D02*
X57965Y-27939D01*
X56965Y-27989D02*
X56965Y-27939D01*
X56965Y-28139D02*
X56965Y-27989D01*
X58015Y-28089D02*
X56965Y-28089D01*
X56965Y-28089D02*
X56965Y-28039D01*
X56965Y-28039D02*
X57965Y-28039D01*
X57965Y-28039D02*
X57965Y-27989D01*
X57965Y-27989D02*
X56965Y-27989D01*
X57465Y-27539D02*
X57465Y-27189D01*
X56915Y-28139D02*
X58015Y-28139D01*
X58015Y-28139D02*
X58015Y-27939D01*
X58015Y-27939D02*
X56915Y-27939D01*
X56915Y-27939D02*
X56915Y-28139D01*
X57465Y-27739D02*
X56915Y-27739D01*
X56915Y-27739D02*
X56915Y-27539D01*
X56915Y-27539D02*
X58015Y-27539D01*
X58015Y-27539D02*
X58015Y-27739D01*
X57465Y-27739D02*
X58015Y-27739D01*
X57465Y-28489D02*
X57465Y-28139D01*
X57565Y-26589D02*
X57615Y-26589D01*
X57465Y-26739D02*
X57465Y-26439D01*
X57315Y-26589D02*
X57565Y-26589D01*
G54D16*
X58465Y-27839D02*
X58445Y-28033D01*
X58389Y-28220D01*
X58297Y-28392D01*
X58174Y-28543D01*
X58024Y-28668D01*
X57852Y-28760D01*
X57666Y-28818D01*
X57471Y-28838D01*
X57278Y-28821D01*
X57091Y-28766D01*
X56918Y-28675D01*
X56766Y-28553D01*
X56640Y-28403D01*
X56546Y-28232D01*
X56487Y-28046D01*
X56466Y-27852D01*
X56482Y-27659D01*
X56536Y-27471D01*
X56625Y-27298D01*
X56746Y-27145D01*
X56895Y-27018D01*
X57065Y-26923D01*
X57251Y-26863D01*
X57445Y-26840D01*
X57638Y-26855D01*
X57826Y-26907D01*
X58000Y-26995D01*
X58154Y-27115D01*
X58282Y-27263D01*
X58378Y-27433D01*
X58440Y-27618D01*
X58464Y-27812D01*
X58465Y-27839D01*
G54D14*
X50965Y-28539D02*
X50965Y-28739D01*
X51965Y-28689D02*
X51965Y-28739D01*
X51965Y-28539D02*
X51965Y-28689D01*
X50915Y-28589D02*
X51965Y-28589D01*
X51965Y-28589D02*
X51965Y-28639D01*
X51965Y-28639D02*
X50965Y-28639D01*
X50965Y-28639D02*
X50965Y-28689D01*
X50965Y-28689D02*
X51965Y-28689D01*
X51465Y-29139D02*
X51465Y-29489D01*
X52015Y-28539D02*
X50915Y-28539D01*
X50915Y-28539D02*
X50915Y-28739D01*
X50915Y-28739D02*
X52015Y-28739D01*
X52015Y-28739D02*
X52015Y-28539D01*
X51465Y-28939D02*
X52015Y-28939D01*
X52015Y-28939D02*
X52015Y-29139D01*
X52015Y-29139D02*
X50915Y-29139D01*
X50915Y-29139D02*
X50915Y-28939D01*
X51465Y-28939D02*
X50915Y-28939D01*
X51465Y-28189D02*
X51465Y-28539D01*
X51365Y-30089D02*
X51315Y-30089D01*
X51465Y-29939D02*
X51465Y-30239D01*
X51615Y-30089D02*
X51365Y-30089D01*
G54D16*
X52465Y-28839D02*
X52445Y-29033D01*
X52389Y-29220D01*
X52297Y-29392D01*
X52174Y-29543D01*
X52024Y-29668D01*
X51852Y-29760D01*
X51666Y-29818D01*
X51471Y-29838D01*
X51278Y-29821D01*
X51091Y-29766D01*
X50918Y-29675D01*
X50766Y-29553D01*
X50640Y-29403D01*
X50546Y-29232D01*
X50487Y-29046D01*
X50466Y-28852D01*
X50482Y-28659D01*
X50536Y-28471D01*
X50625Y-28298D01*
X50746Y-28145D01*
X50895Y-28018D01*
X51065Y-27923D01*
X51251Y-27863D01*
X51445Y-27840D01*
X51638Y-27855D01*
X51826Y-27907D01*
X52000Y-27995D01*
X52154Y-28115D01*
X52282Y-28263D01*
X52378Y-28433D01*
X52440Y-28618D01*
X52464Y-28812D01*
X52465Y-28839D01*
G54D12*
X63465Y-31339D02*
X64465Y-31339D01*
X64465Y-31339D02*
X64465Y-35339D01*
X64465Y-35339D02*
X63465Y-35339D01*
X63465Y-30339D02*
X62465Y-30339D01*
X62465Y-30339D02*
X62465Y-36339D01*
X62465Y-36339D02*
X63465Y-36339D01*
X63465Y-36339D02*
X63465Y-30339D01*
G54D11*
X42965Y-55839D02*
X41465Y-57339D01*
X41465Y-57339D02*
X41465Y-57839D01*
X41465Y-57839D02*
X41965Y-58339D01*
X41965Y-58339D02*
X42965Y-58339D01*
X42965Y-58339D02*
X43965Y-57339D01*
X43965Y-57339D02*
X43965Y-56339D01*
X43965Y-56339D02*
X43465Y-55839D01*
X43465Y-55839D02*
X42965Y-55839D01*
G54D12*
X74465Y-40839D02*
X74215Y-40589D01*
X74465Y-41339D02*
X73965Y-40839D01*
X74465Y-41839D02*
X73965Y-41339D01*
X74715Y-41589D02*
X74465Y-41589D01*
X74715Y-41589D02*
X74715Y-41089D01*
X74465Y-41089D02*
X74715Y-41089D01*
X74465Y-40589D02*
X74465Y-41839D01*
X74465Y-41839D02*
X73965Y-41839D01*
X73965Y-41839D02*
X73965Y-40589D01*
X74215Y-40589D02*
X74215Y-39339D01*
X74465Y-40589D02*
X73965Y-40589D01*
X42465Y-41839D02*
X42715Y-42089D01*
X42465Y-41339D02*
X42965Y-41839D01*
X42465Y-40839D02*
X42965Y-41339D01*
X42215Y-41089D02*
X42465Y-41089D01*
X42215Y-41089D02*
X42215Y-41589D01*
X42465Y-41589D02*
X42215Y-41589D01*
X42465Y-42089D02*
X42465Y-40839D01*
X42465Y-40839D02*
X42965Y-40839D01*
X42965Y-40839D02*
X42965Y-42089D01*
X42715Y-42089D02*
X42715Y-43339D01*
X42465Y-42089D02*
X42965Y-42089D01*
G54D14*
X57031Y-43339D02*
X57024Y-43400D01*
X57007Y-43459D01*
X56978Y-43513D01*
X56939Y-43561D01*
X56891Y-43600D01*
X56837Y-43630D01*
X56778Y-43648D01*
X56717Y-43654D01*
X56656Y-43649D01*
X56597Y-43631D01*
X56542Y-43603D01*
X56494Y-43564D01*
X56455Y-43517D01*
X56425Y-43463D01*
X56406Y-43404D01*
X56400Y-43343D01*
X56405Y-43282D01*
X56422Y-43223D01*
X56450Y-43168D01*
X56488Y-43120D01*
X56535Y-43080D01*
X56589Y-43050D01*
X56648Y-43031D01*
X56709Y-43024D01*
X56769Y-43028D01*
X56829Y-43045D01*
X56884Y-43073D01*
X56932Y-43111D01*
X56973Y-43157D01*
X57003Y-43211D01*
X57023Y-43269D01*
X57030Y-43331D01*
X57031Y-43339D01*
G54D12*
X53465Y-35339D02*
X53465Y-50339D01*
X53465Y-50339D02*
X51465Y-50339D01*
X51465Y-50339D02*
X51465Y-35339D01*
X51465Y-35339D02*
X53465Y-35339D01*
X52965Y-35339D02*
X52965Y-35839D01*
X52965Y-35839D02*
X51965Y-35839D01*
X51965Y-35839D02*
X51965Y-35339D01*
X67965Y-51339D02*
X67465Y-51339D01*
X67465Y-51339D02*
X67465Y-50339D01*
X67465Y-50339D02*
X67965Y-50339D01*
X67965Y-50339D02*
X67965Y-50339D01*
X67965Y-51839D02*
X54965Y-51839D01*
X54965Y-51839D02*
X54965Y-49839D01*
X54965Y-49839D02*
X67965Y-49839D01*
X67965Y-49839D02*
X67965Y-51839D01*
X65715Y-32339D02*
X73715Y-32339D01*
X73715Y-34339D02*
X65715Y-34339D01*
X65715Y-34339D02*
X65715Y-32339D01*
X65715Y-32839D02*
X66215Y-32839D01*
X66215Y-32839D02*
X66215Y-33839D01*
X66215Y-33839D02*
X65715Y-33839D01*
X73715Y-32339D02*
X73715Y-34339D01*
X70465Y-51339D02*
X70465Y-50339D01*
X70465Y-50339D02*
X74465Y-50339D01*
X74465Y-50339D02*
X74465Y-51339D01*
X74465Y-51339D02*
X70465Y-51339D01*
X74965Y-48839D02*
X74965Y-52839D01*
X74965Y-52839D02*
X69965Y-52839D01*
X69965Y-52839D02*
X69965Y-48839D01*
X69965Y-48839D02*
X74965Y-48839D01*
G54D11*
X72715Y-26339D02*
X71215Y-27839D01*
X71215Y-27839D02*
X71215Y-28339D01*
X71215Y-28339D02*
X71715Y-28839D01*
X71715Y-28839D02*
X72715Y-28839D01*
X72715Y-28839D02*
X73715Y-27839D01*
X73715Y-27839D02*
X73715Y-26839D01*
X73715Y-26839D02*
X73215Y-26339D01*
X73215Y-26339D02*
X72715Y-26339D01*
G54D14*
X69215Y-49489D02*
X69214Y-49481D01*
X69213Y-49472D01*
X69211Y-49464D01*
X69208Y-49455D01*
X69205Y-49447D01*
X69201Y-49440D01*
X69196Y-49432D01*
X69191Y-49425D01*
X69185Y-49419D01*
X69179Y-49413D01*
X69172Y-49408D01*
X69165Y-49403D01*
X69157Y-49399D01*
X69149Y-49396D01*
X69140Y-49393D01*
X69132Y-49391D01*
X69123Y-49390D01*
X69115Y-49389D01*
X68315Y-49389D02*
X68307Y-49390D01*
X68298Y-49391D01*
X68290Y-49393D01*
X68281Y-49396D01*
X68273Y-49399D01*
X68266Y-49403D01*
X68258Y-49408D01*
X68251Y-49413D01*
X68245Y-49419D01*
X68239Y-49425D01*
X68234Y-49432D01*
X68229Y-49440D01*
X68225Y-49447D01*
X68222Y-49455D01*
X68219Y-49464D01*
X68217Y-49472D01*
X68216Y-49481D01*
X68215Y-49489D01*
X68215Y-52189D02*
X68216Y-52197D01*
X68217Y-52206D01*
X68219Y-52214D01*
X68222Y-52223D01*
X68225Y-52231D01*
X68229Y-52238D01*
X68234Y-52246D01*
X68239Y-52253D01*
X68245Y-52259D01*
X68251Y-52265D01*
X68258Y-52270D01*
X68266Y-52275D01*
X68273Y-52279D01*
X68281Y-52282D01*
X68290Y-52285D01*
X68298Y-52287D01*
X68307Y-52288D01*
X68315Y-52289D01*
X69115Y-52289D02*
X69123Y-52288D01*
X69132Y-52287D01*
X69140Y-52285D01*
X69149Y-52282D01*
X69157Y-52279D01*
X69165Y-52275D01*
X69172Y-52270D01*
X69179Y-52265D01*
X69185Y-52259D01*
X69191Y-52253D01*
X69196Y-52246D01*
X69201Y-52238D01*
X69205Y-52231D01*
X69208Y-52223D01*
X69211Y-52214D01*
X69213Y-52206D01*
X69214Y-52197D01*
X69215Y-52189D01*
G54D11*
X68465Y-50959D02*
X68715Y-50959D01*
X68715Y-50959D02*
X68965Y-50959D01*
G54D14*
X68715Y-50959D02*
X68715Y-51439D01*
G54D11*
X68465Y-50709D02*
X68715Y-50709D01*
X68715Y-50709D02*
X68965Y-50709D01*
G54D14*
X68715Y-50709D02*
X68715Y-50239D01*
X68315Y-52289D02*
X69115Y-52289D01*
X69215Y-52189D02*
X69215Y-49489D01*
X69115Y-49389D02*
X68315Y-49389D01*
X68215Y-49489D02*
X68215Y-52189D01*
X46965Y-39989D02*
X46964Y-39981D01*
X46963Y-39972D01*
X46961Y-39964D01*
X46958Y-39955D01*
X46955Y-39947D01*
X46951Y-39940D01*
X46946Y-39932D01*
X46941Y-39925D01*
X46935Y-39919D01*
X46929Y-39913D01*
X46922Y-39908D01*
X46915Y-39903D01*
X46907Y-39899D01*
X46899Y-39896D01*
X46890Y-39893D01*
X46882Y-39891D01*
X46873Y-39890D01*
X46865Y-39889D01*
X46065Y-39889D02*
X46057Y-39890D01*
X46048Y-39891D01*
X46040Y-39893D01*
X46031Y-39896D01*
X46023Y-39899D01*
X46016Y-39903D01*
X46008Y-39908D01*
X46001Y-39913D01*
X45995Y-39919D01*
X45989Y-39925D01*
X45984Y-39932D01*
X45979Y-39940D01*
X45975Y-39947D01*
X45972Y-39955D01*
X45969Y-39964D01*
X45967Y-39972D01*
X45966Y-39981D01*
X45965Y-39989D01*
X45965Y-42689D02*
X45966Y-42697D01*
X45967Y-42706D01*
X45969Y-42714D01*
X45972Y-42723D01*
X45975Y-42731D01*
X45979Y-42738D01*
X45984Y-42746D01*
X45989Y-42753D01*
X45995Y-42759D01*
X46001Y-42765D01*
X46008Y-42770D01*
X46016Y-42775D01*
X46023Y-42779D01*
X46031Y-42782D01*
X46040Y-42785D01*
X46048Y-42787D01*
X46057Y-42788D01*
X46065Y-42789D01*
X46865Y-42789D02*
X46873Y-42788D01*
X46882Y-42787D01*
X46890Y-42785D01*
X46899Y-42782D01*
X46907Y-42779D01*
X46915Y-42775D01*
X46922Y-42770D01*
X46929Y-42765D01*
X46935Y-42759D01*
X46941Y-42753D01*
X46946Y-42746D01*
X46951Y-42738D01*
X46955Y-42731D01*
X46958Y-42723D01*
X46961Y-42714D01*
X46963Y-42706D01*
X46964Y-42697D01*
X46965Y-42689D01*
G54D11*
X46215Y-41459D02*
X46465Y-41459D01*
X46465Y-41459D02*
X46715Y-41459D01*
G54D14*
X46465Y-41459D02*
X46465Y-41939D01*
G54D11*
X46215Y-41209D02*
X46465Y-41209D01*
X46465Y-41209D02*
X46715Y-41209D01*
G54D14*
X46465Y-41209D02*
X46465Y-40739D01*
X46065Y-42789D02*
X46865Y-42789D01*
X46965Y-42689D02*
X46965Y-39989D01*
X46865Y-39889D02*
X46065Y-39889D01*
X45965Y-39989D02*
X45965Y-42689D01*
X56465Y-41989D02*
X56464Y-41981D01*
X56463Y-41972D01*
X56461Y-41964D01*
X56458Y-41955D01*
X56455Y-41947D01*
X56451Y-41940D01*
X56446Y-41932D01*
X56441Y-41925D01*
X56435Y-41919D01*
X56429Y-41913D01*
X56422Y-41908D01*
X56415Y-41903D01*
X56407Y-41899D01*
X56399Y-41896D01*
X56390Y-41893D01*
X56382Y-41891D01*
X56373Y-41890D01*
X56365Y-41889D01*
X55565Y-41889D02*
X55557Y-41890D01*
X55548Y-41891D01*
X55540Y-41893D01*
X55531Y-41896D01*
X55523Y-41899D01*
X55516Y-41903D01*
X55508Y-41908D01*
X55501Y-41913D01*
X55495Y-41919D01*
X55489Y-41925D01*
X55484Y-41932D01*
X55479Y-41940D01*
X55475Y-41947D01*
X55472Y-41955D01*
X55469Y-41964D01*
X55467Y-41972D01*
X55466Y-41981D01*
X55465Y-41989D01*
X55465Y-44689D02*
X55466Y-44697D01*
X55467Y-44706D01*
X55469Y-44714D01*
X55472Y-44723D01*
X55475Y-44731D01*
X55479Y-44738D01*
X55484Y-44746D01*
X55489Y-44753D01*
X55495Y-44759D01*
X55501Y-44765D01*
X55508Y-44770D01*
X55516Y-44775D01*
X55523Y-44779D01*
X55531Y-44782D01*
X55540Y-44785D01*
X55548Y-44787D01*
X55557Y-44788D01*
X55565Y-44789D01*
X56365Y-44789D02*
X56373Y-44788D01*
X56382Y-44787D01*
X56390Y-44785D01*
X56399Y-44782D01*
X56407Y-44779D01*
X56415Y-44775D01*
X56422Y-44770D01*
X56429Y-44765D01*
X56435Y-44759D01*
X56441Y-44753D01*
X56446Y-44746D01*
X56451Y-44738D01*
X56455Y-44731D01*
X56458Y-44723D01*
X56461Y-44714D01*
X56463Y-44706D01*
X56464Y-44697D01*
X56465Y-44689D01*
G54D11*
X55715Y-43459D02*
X55965Y-43459D01*
X55965Y-43459D02*
X56215Y-43459D01*
G54D14*
X55965Y-43459D02*
X55965Y-43939D01*
G54D11*
X55715Y-43209D02*
X55965Y-43209D01*
X55965Y-43209D02*
X56215Y-43209D01*
G54D14*
X55965Y-43209D02*
X55965Y-42739D01*
X55565Y-44789D02*
X56365Y-44789D01*
X56465Y-44689D02*
X56465Y-41989D01*
X56365Y-41889D02*
X55565Y-41889D01*
X55465Y-41989D02*
X55465Y-44689D01*
X73315Y-36839D02*
X73323Y-36838D01*
X73332Y-36837D01*
X73340Y-36835D01*
X73349Y-36832D01*
X73357Y-36829D01*
X73365Y-36825D01*
X73372Y-36820D01*
X73379Y-36815D01*
X73385Y-36809D01*
X73391Y-36803D01*
X73396Y-36796D01*
X73401Y-36788D01*
X73405Y-36781D01*
X73408Y-36773D01*
X73411Y-36764D01*
X73413Y-36756D01*
X73414Y-36747D01*
X73415Y-36739D01*
X73415Y-35939D02*
X73414Y-35931D01*
X73413Y-35922D01*
X73411Y-35914D01*
X73408Y-35905D01*
X73405Y-35897D01*
X73401Y-35890D01*
X73396Y-35882D01*
X73391Y-35875D01*
X73385Y-35869D01*
X73379Y-35863D01*
X73372Y-35858D01*
X73365Y-35853D01*
X73357Y-35849D01*
X73349Y-35846D01*
X73340Y-35843D01*
X73332Y-35841D01*
X73323Y-35840D01*
X73315Y-35839D01*
X70615Y-35839D02*
X70607Y-35840D01*
X70598Y-35841D01*
X70590Y-35843D01*
X70581Y-35846D01*
X70573Y-35849D01*
X70566Y-35853D01*
X70558Y-35858D01*
X70551Y-35863D01*
X70545Y-35869D01*
X70539Y-35875D01*
X70534Y-35882D01*
X70529Y-35890D01*
X70525Y-35897D01*
X70522Y-35905D01*
X70519Y-35914D01*
X70517Y-35922D01*
X70516Y-35931D01*
X70515Y-35939D01*
X70515Y-36739D02*
X70516Y-36747D01*
X70517Y-36756D01*
X70519Y-36764D01*
X70522Y-36773D01*
X70525Y-36781D01*
X70529Y-36788D01*
X70534Y-36796D01*
X70539Y-36803D01*
X70545Y-36809D01*
X70551Y-36815D01*
X70558Y-36820D01*
X70566Y-36825D01*
X70573Y-36829D01*
X70581Y-36832D01*
X70590Y-36835D01*
X70598Y-36837D01*
X70607Y-36838D01*
X70615Y-36839D01*
G54D11*
X71845Y-36089D02*
X71845Y-36339D01*
X71845Y-36339D02*
X71845Y-36589D01*
G54D14*
X71845Y-36339D02*
X71365Y-36339D01*
G54D11*
X72095Y-36089D02*
X72095Y-36339D01*
X72095Y-36339D02*
X72095Y-36589D01*
G54D14*
X72095Y-36339D02*
X72565Y-36339D01*
X70515Y-35939D02*
X70515Y-36739D01*
X70615Y-36839D02*
X73315Y-36839D01*
X73415Y-36739D02*
X73415Y-35939D01*
X73315Y-35839D02*
X70615Y-35839D01*
X47465Y-43989D02*
X47464Y-43981D01*
X47463Y-43972D01*
X47461Y-43964D01*
X47458Y-43955D01*
X47455Y-43947D01*
X47451Y-43940D01*
X47446Y-43932D01*
X47441Y-43925D01*
X47435Y-43919D01*
X47429Y-43913D01*
X47422Y-43908D01*
X47415Y-43903D01*
X47407Y-43899D01*
X47399Y-43896D01*
X47390Y-43893D01*
X47382Y-43891D01*
X47373Y-43890D01*
X47365Y-43889D01*
X46565Y-43889D02*
X46557Y-43890D01*
X46548Y-43891D01*
X46540Y-43893D01*
X46531Y-43896D01*
X46523Y-43899D01*
X46516Y-43903D01*
X46508Y-43908D01*
X46501Y-43913D01*
X46495Y-43919D01*
X46489Y-43925D01*
X46484Y-43932D01*
X46479Y-43940D01*
X46475Y-43947D01*
X46472Y-43955D01*
X46469Y-43964D01*
X46467Y-43972D01*
X46466Y-43981D01*
X46465Y-43989D01*
X46465Y-46689D02*
X46466Y-46697D01*
X46467Y-46706D01*
X46469Y-46714D01*
X46472Y-46723D01*
X46475Y-46731D01*
X46479Y-46738D01*
X46484Y-46746D01*
X46489Y-46753D01*
X46495Y-46759D01*
X46501Y-46765D01*
X46508Y-46770D01*
X46516Y-46775D01*
X46523Y-46779D01*
X46531Y-46782D01*
X46540Y-46785D01*
X46548Y-46787D01*
X46557Y-46788D01*
X46565Y-46789D01*
X47365Y-46789D02*
X47373Y-46788D01*
X47382Y-46787D01*
X47390Y-46785D01*
X47399Y-46782D01*
X47407Y-46779D01*
X47415Y-46775D01*
X47422Y-46770D01*
X47429Y-46765D01*
X47435Y-46759D01*
X47441Y-46753D01*
X47446Y-46746D01*
X47451Y-46738D01*
X47455Y-46731D01*
X47458Y-46723D01*
X47461Y-46714D01*
X47463Y-46706D01*
X47464Y-46697D01*
X47465Y-46689D01*
G54D11*
X46715Y-45459D02*
X46965Y-45459D01*
X46965Y-45459D02*
X47215Y-45459D01*
G54D14*
X46965Y-45459D02*
X46965Y-45939D01*
G54D11*
X46715Y-45209D02*
X46965Y-45209D01*
X46965Y-45209D02*
X47215Y-45209D01*
G54D14*
X46965Y-45209D02*
X46965Y-44739D01*
X46565Y-46789D02*
X47365Y-46789D01*
X47465Y-46689D02*
X47465Y-43989D01*
X47365Y-43889D02*
X46565Y-43889D01*
X46465Y-43989D02*
X46465Y-46689D01*
X56065Y-31089D02*
X56073Y-31088D01*
X56082Y-31087D01*
X56090Y-31085D01*
X56099Y-31082D01*
X56107Y-31079D01*
X56115Y-31075D01*
X56122Y-31070D01*
X56129Y-31065D01*
X56135Y-31059D01*
X56141Y-31053D01*
X56146Y-31046D01*
X56151Y-31038D01*
X56155Y-31031D01*
X56158Y-31023D01*
X56161Y-31014D01*
X56163Y-31006D01*
X56164Y-30997D01*
X56165Y-30989D01*
X56165Y-30189D02*
X56164Y-30181D01*
X56163Y-30172D01*
X56161Y-30164D01*
X56158Y-30155D01*
X56155Y-30147D01*
X56151Y-30140D01*
X56146Y-30132D01*
X56141Y-30125D01*
X56135Y-30119D01*
X56129Y-30113D01*
X56122Y-30108D01*
X56115Y-30103D01*
X56107Y-30099D01*
X56099Y-30096D01*
X56090Y-30093D01*
X56082Y-30091D01*
X56073Y-30090D01*
X56065Y-30089D01*
X53365Y-30089D02*
X53357Y-30090D01*
X53348Y-30091D01*
X53340Y-30093D01*
X53331Y-30096D01*
X53323Y-30099D01*
X53316Y-30103D01*
X53308Y-30108D01*
X53301Y-30113D01*
X53295Y-30119D01*
X53289Y-30125D01*
X53284Y-30132D01*
X53279Y-30140D01*
X53275Y-30147D01*
X53272Y-30155D01*
X53269Y-30164D01*
X53267Y-30172D01*
X53266Y-30181D01*
X53265Y-30189D01*
X53265Y-30989D02*
X53266Y-30997D01*
X53267Y-31006D01*
X53269Y-31014D01*
X53272Y-31023D01*
X53275Y-31031D01*
X53279Y-31038D01*
X53284Y-31046D01*
X53289Y-31053D01*
X53295Y-31059D01*
X53301Y-31065D01*
X53308Y-31070D01*
X53316Y-31075D01*
X53323Y-31079D01*
X53331Y-31082D01*
X53340Y-31085D01*
X53348Y-31087D01*
X53357Y-31088D01*
X53365Y-31089D01*
G54D11*
X54595Y-30339D02*
X54595Y-30589D01*
X54595Y-30589D02*
X54595Y-30839D01*
G54D14*
X54595Y-30589D02*
X54115Y-30589D01*
G54D11*
X54845Y-30339D02*
X54845Y-30589D01*
X54845Y-30589D02*
X54845Y-30839D01*
G54D14*
X54845Y-30589D02*
X55315Y-30589D01*
X53265Y-30189D02*
X53265Y-30989D01*
X53365Y-31089D02*
X56065Y-31089D01*
X56165Y-30989D02*
X56165Y-30189D01*
X56065Y-30089D02*
X53365Y-30089D01*
X47465Y-46689D02*
X47466Y-46697D01*
X47467Y-46706D01*
X47469Y-46714D01*
X47472Y-46723D01*
X47475Y-46731D01*
X47479Y-46738D01*
X47484Y-46746D01*
X47489Y-46753D01*
X47495Y-46759D01*
X47501Y-46765D01*
X47508Y-46770D01*
X47516Y-46775D01*
X47523Y-46779D01*
X47531Y-46782D01*
X47540Y-46785D01*
X47548Y-46787D01*
X47557Y-46788D01*
X47565Y-46789D01*
X48365Y-46789D02*
X48373Y-46788D01*
X48382Y-46787D01*
X48390Y-46785D01*
X48399Y-46782D01*
X48407Y-46779D01*
X48415Y-46775D01*
X48422Y-46770D01*
X48429Y-46765D01*
X48435Y-46759D01*
X48441Y-46753D01*
X48446Y-46746D01*
X48451Y-46738D01*
X48455Y-46731D01*
X48458Y-46723D01*
X48461Y-46714D01*
X48463Y-46706D01*
X48464Y-46697D01*
X48465Y-46689D01*
X48465Y-43989D02*
X48464Y-43981D01*
X48463Y-43972D01*
X48461Y-43964D01*
X48458Y-43955D01*
X48455Y-43947D01*
X48451Y-43940D01*
X48446Y-43932D01*
X48441Y-43925D01*
X48435Y-43919D01*
X48429Y-43913D01*
X48422Y-43908D01*
X48415Y-43903D01*
X48407Y-43899D01*
X48399Y-43896D01*
X48390Y-43893D01*
X48382Y-43891D01*
X48373Y-43890D01*
X48365Y-43889D01*
X47565Y-43889D02*
X47557Y-43890D01*
X47548Y-43891D01*
X47540Y-43893D01*
X47531Y-43896D01*
X47523Y-43899D01*
X47516Y-43903D01*
X47508Y-43908D01*
X47501Y-43913D01*
X47495Y-43919D01*
X47489Y-43925D01*
X47484Y-43932D01*
X47479Y-43940D01*
X47475Y-43947D01*
X47472Y-43955D01*
X47469Y-43964D01*
X47467Y-43972D01*
X47466Y-43981D01*
X47465Y-43989D01*
G54D11*
X48215Y-45219D02*
X47965Y-45219D01*
X47965Y-45219D02*
X47715Y-45219D01*
G54D14*
X47965Y-45219D02*
X47965Y-44739D01*
G54D11*
X48215Y-45469D02*
X47965Y-45469D01*
X47965Y-45469D02*
X47715Y-45469D01*
G54D14*
X47965Y-45469D02*
X47965Y-45939D01*
X48365Y-43889D02*
X47565Y-43889D01*
X47465Y-43989D02*
X47465Y-46689D01*
X47565Y-46789D02*
X48365Y-46789D01*
X48465Y-46689D02*
X48465Y-43989D01*
X70815Y-28339D02*
X70823Y-28338D01*
X70832Y-28337D01*
X70840Y-28335D01*
X70849Y-28332D01*
X70857Y-28329D01*
X70865Y-28325D01*
X70872Y-28320D01*
X70879Y-28315D01*
X70885Y-28309D01*
X70891Y-28303D01*
X70896Y-28296D01*
X70901Y-28288D01*
X70905Y-28281D01*
X70908Y-28273D01*
X70911Y-28264D01*
X70913Y-28256D01*
X70914Y-28247D01*
X70915Y-28239D01*
X70915Y-27439D02*
X70914Y-27431D01*
X70913Y-27422D01*
X70911Y-27414D01*
X70908Y-27405D01*
X70905Y-27397D01*
X70901Y-27390D01*
X70896Y-27382D01*
X70891Y-27375D01*
X70885Y-27369D01*
X70879Y-27363D01*
X70872Y-27358D01*
X70865Y-27353D01*
X70857Y-27349D01*
X70849Y-27346D01*
X70840Y-27343D01*
X70832Y-27341D01*
X70823Y-27340D01*
X70815Y-27339D01*
X68115Y-27339D02*
X68107Y-27340D01*
X68098Y-27341D01*
X68090Y-27343D01*
X68081Y-27346D01*
X68073Y-27349D01*
X68066Y-27353D01*
X68058Y-27358D01*
X68051Y-27363D01*
X68045Y-27369D01*
X68039Y-27375D01*
X68034Y-27382D01*
X68029Y-27390D01*
X68025Y-27397D01*
X68022Y-27405D01*
X68019Y-27414D01*
X68017Y-27422D01*
X68016Y-27431D01*
X68015Y-27439D01*
X68015Y-28239D02*
X68016Y-28247D01*
X68017Y-28256D01*
X68019Y-28264D01*
X68022Y-28273D01*
X68025Y-28281D01*
X68029Y-28288D01*
X68034Y-28296D01*
X68039Y-28303D01*
X68045Y-28309D01*
X68051Y-28315D01*
X68058Y-28320D01*
X68066Y-28325D01*
X68073Y-28329D01*
X68081Y-28332D01*
X68090Y-28335D01*
X68098Y-28337D01*
X68107Y-28338D01*
X68115Y-28339D01*
G54D11*
X69345Y-27589D02*
X69345Y-27839D01*
X69345Y-27839D02*
X69345Y-28089D01*
G54D14*
X69345Y-27839D02*
X68865Y-27839D01*
G54D11*
X69595Y-27589D02*
X69595Y-27839D01*
X69595Y-27839D02*
X69595Y-28089D01*
G54D14*
X69595Y-27839D02*
X70065Y-27839D01*
X68015Y-27439D02*
X68015Y-28239D01*
X68115Y-28339D02*
X70815Y-28339D01*
X70915Y-28239D02*
X70915Y-27439D01*
X70815Y-27339D02*
X68115Y-27339D01*
X63565Y-31089D02*
X63573Y-31088D01*
X63582Y-31087D01*
X63590Y-31085D01*
X63599Y-31082D01*
X63607Y-31079D01*
X63615Y-31075D01*
X63622Y-31070D01*
X63629Y-31065D01*
X63635Y-31059D01*
X63641Y-31053D01*
X63646Y-31046D01*
X63651Y-31038D01*
X63655Y-31031D01*
X63658Y-31023D01*
X63661Y-31014D01*
X63663Y-31006D01*
X63664Y-30997D01*
X63665Y-30989D01*
X63665Y-30189D02*
X63664Y-30181D01*
X63663Y-30172D01*
X63661Y-30164D01*
X63658Y-30155D01*
X63655Y-30147D01*
X63651Y-30140D01*
X63646Y-30132D01*
X63641Y-30125D01*
X63635Y-30119D01*
X63629Y-30113D01*
X63622Y-30108D01*
X63615Y-30103D01*
X63607Y-30099D01*
X63599Y-30096D01*
X63590Y-30093D01*
X63582Y-30091D01*
X63573Y-30090D01*
X63565Y-30089D01*
X60865Y-30089D02*
X60857Y-30090D01*
X60848Y-30091D01*
X60840Y-30093D01*
X60831Y-30096D01*
X60823Y-30099D01*
X60816Y-30103D01*
X60808Y-30108D01*
X60801Y-30113D01*
X60795Y-30119D01*
X60789Y-30125D01*
X60784Y-30132D01*
X60779Y-30140D01*
X60775Y-30147D01*
X60772Y-30155D01*
X60769Y-30164D01*
X60767Y-30172D01*
X60766Y-30181D01*
X60765Y-30189D01*
X60765Y-30989D02*
X60766Y-30997D01*
X60767Y-31006D01*
X60769Y-31014D01*
X60772Y-31023D01*
X60775Y-31031D01*
X60779Y-31038D01*
X60784Y-31046D01*
X60789Y-31053D01*
X60795Y-31059D01*
X60801Y-31065D01*
X60808Y-31070D01*
X60816Y-31075D01*
X60823Y-31079D01*
X60831Y-31082D01*
X60840Y-31085D01*
X60848Y-31087D01*
X60857Y-31088D01*
X60865Y-31089D01*
G54D11*
X62095Y-30339D02*
X62095Y-30589D01*
X62095Y-30589D02*
X62095Y-30839D01*
G54D14*
X62095Y-30589D02*
X61615Y-30589D01*
G54D11*
X62345Y-30339D02*
X62345Y-30589D01*
X62345Y-30589D02*
X62345Y-30839D01*
G54D14*
X62345Y-30589D02*
X62815Y-30589D01*
X60765Y-30189D02*
X60765Y-30989D01*
X60865Y-31089D02*
X63565Y-31089D01*
X63665Y-30989D02*
X63665Y-30189D01*
X63565Y-30089D02*
X60865Y-30089D01*
X48965Y-36989D02*
X48964Y-36981D01*
X48963Y-36972D01*
X48961Y-36964D01*
X48958Y-36955D01*
X48955Y-36947D01*
X48951Y-36940D01*
X48946Y-36932D01*
X48941Y-36925D01*
X48935Y-36919D01*
X48929Y-36913D01*
X48922Y-36908D01*
X48915Y-36903D01*
X48907Y-36899D01*
X48899Y-36896D01*
X48890Y-36893D01*
X48882Y-36891D01*
X48873Y-36890D01*
X48865Y-36889D01*
X48065Y-36889D02*
X48057Y-36890D01*
X48048Y-36891D01*
X48040Y-36893D01*
X48031Y-36896D01*
X48023Y-36899D01*
X48016Y-36903D01*
X48008Y-36908D01*
X48001Y-36913D01*
X47995Y-36919D01*
X47989Y-36925D01*
X47984Y-36932D01*
X47979Y-36940D01*
X47975Y-36947D01*
X47972Y-36955D01*
X47969Y-36964D01*
X47967Y-36972D01*
X47966Y-36981D01*
X47965Y-36989D01*
X47965Y-39689D02*
X47966Y-39697D01*
X47967Y-39706D01*
X47969Y-39714D01*
X47972Y-39723D01*
X47975Y-39731D01*
X47979Y-39738D01*
X47984Y-39746D01*
X47989Y-39753D01*
X47995Y-39759D01*
X48001Y-39765D01*
X48008Y-39770D01*
X48016Y-39775D01*
X48023Y-39779D01*
X48031Y-39782D01*
X48040Y-39785D01*
X48048Y-39787D01*
X48057Y-39788D01*
X48065Y-39789D01*
X48865Y-39789D02*
X48873Y-39788D01*
X48882Y-39787D01*
X48890Y-39785D01*
X48899Y-39782D01*
X48907Y-39779D01*
X48915Y-39775D01*
X48922Y-39770D01*
X48929Y-39765D01*
X48935Y-39759D01*
X48941Y-39753D01*
X48946Y-39746D01*
X48951Y-39738D01*
X48955Y-39731D01*
X48958Y-39723D01*
X48961Y-39714D01*
X48963Y-39706D01*
X48964Y-39697D01*
X48965Y-39689D01*
G54D11*
X48215Y-38459D02*
X48465Y-38459D01*
X48465Y-38459D02*
X48715Y-38459D01*
G54D14*
X48465Y-38459D02*
X48465Y-38939D01*
G54D11*
X48215Y-38209D02*
X48465Y-38209D01*
X48465Y-38209D02*
X48715Y-38209D01*
G54D14*
X48465Y-38209D02*
X48465Y-37739D01*
X48065Y-39789D02*
X48865Y-39789D01*
X48965Y-39689D02*
X48965Y-36989D01*
X48865Y-36889D02*
X48065Y-36889D01*
X47965Y-36989D02*
X47965Y-39689D01*
G54D22*
G36*
X40930Y-52322D02*
X40975Y-52302D01*
X41087Y-52235D01*
X41116Y-52217D01*
X41223Y-52170D01*
X41308Y-52186D01*
X41342Y-52201D01*
X41400Y-52215D01*
X41407Y-52197D01*
X41449Y-52088D01*
X41511Y-51914D01*
X41614Y-51622D01*
X41536Y-51571D01*
X41424Y-51446D01*
X41389Y-51266D01*
X41451Y-51091D01*
X41604Y-50969D01*
X41633Y-50958D01*
X41821Y-50950D01*
X41974Y-51037D01*
X42066Y-51183D01*
X42076Y-51358D01*
X41981Y-51527D01*
X41922Y-51589D01*
X41881Y-51642D01*
X41885Y-51655D01*
X41921Y-51757D01*
X41984Y-51923D01*
X41994Y-51948D01*
X42080Y-52129D01*
X42156Y-52193D01*
X42237Y-52153D01*
X42279Y-52142D01*
X42398Y-52203D01*
X42512Y-52270D01*
X42606Y-52270D01*
X42700Y-52172D01*
X42790Y-52055D01*
X42700Y-51919D01*
X42656Y-51850D01*
X42628Y-51760D01*
X42657Y-51645D01*
X42681Y-51579D01*
X42740Y-51508D01*
X42867Y-51470D01*
X42967Y-51446D01*
X43026Y-51400D01*
X43042Y-51291D01*
X43040Y-51166D01*
X42983Y-51095D01*
X42833Y-51047D01*
X42790Y-51035D01*
X42683Y-50983D01*
X42623Y-50881D01*
X42601Y-50821D01*
X42598Y-50738D01*
X42665Y-50636D01*
X42679Y-50617D01*
X42734Y-50520D01*
X42716Y-50445D01*
X42695Y-50413D01*
X42594Y-50312D01*
X42538Y-50275D01*
X42474Y-50280D01*
X42360Y-50349D01*
X42209Y-50447D01*
X42078Y-50384D01*
X41986Y-50328D01*
X41948Y-50241D01*
X41946Y-50213D01*
X41915Y-50075D01*
X41907Y-50055D01*
X41854Y-50001D01*
X41731Y-49989D01*
X41697Y-49990D01*
X41594Y-50008D01*
X41548Y-50075D01*
X41537Y-50109D01*
X41515Y-50258D01*
X41512Y-50301D01*
X41474Y-50356D01*
X41445Y-50362D01*
X41338Y-50406D01*
X41280Y-50431D01*
X41208Y-50424D01*
X41093Y-50352D01*
X40943Y-50249D01*
X40829Y-50359D01*
X40758Y-50436D01*
X40715Y-50501D01*
X40731Y-50540D01*
X40799Y-50642D01*
X40849Y-50713D01*
X40876Y-50809D01*
X40827Y-50933D01*
X40802Y-50979D01*
X40720Y-51069D01*
X40590Y-51089D01*
X40510Y-51099D01*
X40447Y-51178D01*
X40428Y-51250D01*
X40446Y-51395D01*
X40535Y-51472D01*
X40690Y-51504D01*
X40735Y-51526D01*
X40832Y-51665D01*
X40900Y-51811D01*
X40807Y-51938D01*
X40750Y-52024D01*
X40715Y-52096D01*
X40734Y-52132D01*
X40813Y-52224D01*
X40873Y-52281D01*
X40930Y-52322D01*
X40930Y-52322D01*
G37*
G54D14*
X64436Y-42340D02*
X63636Y-42340D01*
X64436Y-41340D02*
X63636Y-41340D01*
X63636Y-43340D02*
X63536Y-43240D01*
X63536Y-43240D02*
X63536Y-42440D01*
X63536Y-42440D02*
X63636Y-42340D01*
X64436Y-42340D02*
X64536Y-42440D01*
X64536Y-42440D02*
X64536Y-43240D01*
X64536Y-43240D02*
X64436Y-43340D01*
X63636Y-42340D02*
X63536Y-42240D01*
X63536Y-42240D02*
X63536Y-41440D01*
X64536Y-42240D02*
X64436Y-42340D01*
X64436Y-43340D02*
X63636Y-43340D01*
X64436Y-39340D02*
X64536Y-39440D01*
X64536Y-39440D02*
X64536Y-40240D01*
X64536Y-40240D02*
X64436Y-40340D01*
X64436Y-40340D02*
X64536Y-40440D01*
X64536Y-40440D02*
X64536Y-41240D01*
X64536Y-41240D02*
X64436Y-41340D01*
X64436Y-41340D02*
X64536Y-41440D01*
X64536Y-41440D02*
X64536Y-42240D01*
X63536Y-39440D02*
X63636Y-39340D01*
X63636Y-39340D02*
X64436Y-39340D01*
X63536Y-41440D02*
X63636Y-41340D01*
X63636Y-41340D02*
X63536Y-41240D01*
X63536Y-41240D02*
X63536Y-40440D01*
X63536Y-40440D02*
X63636Y-40340D01*
X63636Y-40340D02*
X63536Y-40240D01*
X63536Y-40240D02*
X63536Y-39440D01*
X63436Y-42340D02*
X62636Y-42340D01*
X63436Y-41340D02*
X62636Y-41340D01*
X62636Y-43340D02*
X62536Y-43240D01*
X62536Y-43240D02*
X62536Y-42440D01*
X62536Y-42440D02*
X62636Y-42340D01*
X63436Y-42340D02*
X63536Y-42440D01*
X63536Y-42440D02*
X63536Y-43240D01*
X63536Y-43240D02*
X63436Y-43340D01*
X62636Y-42340D02*
X62536Y-42240D01*
X62536Y-42240D02*
X62536Y-41440D01*
X63536Y-42240D02*
X63436Y-42340D01*
X63436Y-43340D02*
X62636Y-43340D01*
X63436Y-39340D02*
X63536Y-39440D01*
X63536Y-39440D02*
X63536Y-40240D01*
X63536Y-40240D02*
X63436Y-40340D01*
X63436Y-40340D02*
X63536Y-40440D01*
X63536Y-40440D02*
X63536Y-41240D01*
X63536Y-41240D02*
X63436Y-41340D01*
X63436Y-41340D02*
X63536Y-41440D01*
X63536Y-41440D02*
X63536Y-42240D01*
X62536Y-39440D02*
X62636Y-39340D01*
X62636Y-39340D02*
X63436Y-39340D01*
X62536Y-41440D02*
X62636Y-41340D01*
X62636Y-41340D02*
X62536Y-41240D01*
X62536Y-41240D02*
X62536Y-40440D01*
X62536Y-40440D02*
X62636Y-40340D01*
X62636Y-40340D02*
X62536Y-40240D01*
X62536Y-40240D02*
X62536Y-39440D01*
X62365Y-42339D02*
X61565Y-42339D01*
X62365Y-41339D02*
X61565Y-41339D01*
X61565Y-43339D02*
X61465Y-43239D01*
X61465Y-43239D02*
X61465Y-42439D01*
X61465Y-42439D02*
X61565Y-42339D01*
X62365Y-42339D02*
X62465Y-42439D01*
X62465Y-42439D02*
X62465Y-43239D01*
X62465Y-43239D02*
X62365Y-43339D01*
X61565Y-42339D02*
X61465Y-42239D01*
X61465Y-42239D02*
X61465Y-41439D01*
X62465Y-42239D02*
X62365Y-42339D01*
X62365Y-43339D02*
X61565Y-43339D01*
X62365Y-39339D02*
X62465Y-39439D01*
X62465Y-39439D02*
X62465Y-40239D01*
X62465Y-40239D02*
X62365Y-40339D01*
X62365Y-40339D02*
X62465Y-40439D01*
X62465Y-40439D02*
X62465Y-41239D01*
X62465Y-41239D02*
X62365Y-41339D01*
X62365Y-41339D02*
X62465Y-41439D01*
X62465Y-41439D02*
X62465Y-42239D01*
X61465Y-39439D02*
X61565Y-39339D01*
X61565Y-39339D02*
X62365Y-39339D01*
X61465Y-41439D02*
X61565Y-41339D01*
X61565Y-41339D02*
X61465Y-41239D01*
X61465Y-41239D02*
X61465Y-40439D01*
X61465Y-40439D02*
X61565Y-40339D01*
X61565Y-40339D02*
X61465Y-40239D01*
X61465Y-40239D02*
X61465Y-39439D01*
X61365Y-42339D02*
X60565Y-42339D01*
X61365Y-41339D02*
X60565Y-41339D01*
X60565Y-43339D02*
X60465Y-43239D01*
X60465Y-43239D02*
X60465Y-42439D01*
X60465Y-42439D02*
X60565Y-42339D01*
X61365Y-42339D02*
X61465Y-42439D01*
X61465Y-42439D02*
X61465Y-43239D01*
X61465Y-43239D02*
X61365Y-43339D01*
X60565Y-42339D02*
X60465Y-42239D01*
X60465Y-42239D02*
X60465Y-41439D01*
X61465Y-42239D02*
X61365Y-42339D01*
X61365Y-43339D02*
X60565Y-43339D01*
X61365Y-39339D02*
X61465Y-39439D01*
X61465Y-39439D02*
X61465Y-40239D01*
X61465Y-40239D02*
X61365Y-40339D01*
X61365Y-40339D02*
X61465Y-40439D01*
X61465Y-40439D02*
X61465Y-41239D01*
X61465Y-41239D02*
X61365Y-41339D01*
X61365Y-41339D02*
X61465Y-41439D01*
X61465Y-41439D02*
X61465Y-42239D01*
X60465Y-39439D02*
X60565Y-39339D01*
X60565Y-39339D02*
X61365Y-39339D01*
X60465Y-41439D02*
X60565Y-41339D01*
X60565Y-41339D02*
X60465Y-41239D01*
X60465Y-41239D02*
X60465Y-40439D01*
X60465Y-40439D02*
X60565Y-40339D01*
X60565Y-40339D02*
X60465Y-40239D01*
X60465Y-40239D02*
X60465Y-39439D01*
X61965Y-27989D02*
X61965Y-27189D01*
X62965Y-27989D02*
X62965Y-27189D01*
X60965Y-27189D02*
X61065Y-27089D01*
X61065Y-27089D02*
X61865Y-27089D01*
X61865Y-27089D02*
X61965Y-27189D01*
X61965Y-27989D02*
X61865Y-28089D01*
X61865Y-28089D02*
X61065Y-28089D01*
X61065Y-28089D02*
X60965Y-27989D01*
X61965Y-27189D02*
X62065Y-27089D01*
X62065Y-27089D02*
X62865Y-27089D01*
X62065Y-28089D02*
X61965Y-27989D01*
X60965Y-27989D02*
X60965Y-27189D01*
X64965Y-27989D02*
X64865Y-28089D01*
X64865Y-28089D02*
X64065Y-28089D01*
X64065Y-28089D02*
X63965Y-27989D01*
X63965Y-27989D02*
X63865Y-28089D01*
X63865Y-28089D02*
X63065Y-28089D01*
X63065Y-28089D02*
X62965Y-27989D01*
X62965Y-27989D02*
X62865Y-28089D01*
X62865Y-28089D02*
X62065Y-28089D01*
X64865Y-27089D02*
X64965Y-27189D01*
X64965Y-27189D02*
X64965Y-27989D01*
X62865Y-27089D02*
X62965Y-27189D01*
X62965Y-27189D02*
X63065Y-27089D01*
X63065Y-27089D02*
X63865Y-27089D01*
X63865Y-27089D02*
X63965Y-27189D01*
X63965Y-27189D02*
X64065Y-27089D01*
X64065Y-27089D02*
X64865Y-27089D01*
X59565Y-44339D02*
X60365Y-44339D01*
X59565Y-45339D02*
X60365Y-45339D01*
X60365Y-43339D02*
X60465Y-43439D01*
X60465Y-43439D02*
X60465Y-44239D01*
X60465Y-44239D02*
X60365Y-44339D01*
X59565Y-44339D02*
X59465Y-44239D01*
X59465Y-44239D02*
X59465Y-43439D01*
X59465Y-43439D02*
X59565Y-43339D01*
X60365Y-44339D02*
X60465Y-44439D01*
X60465Y-44439D02*
X60465Y-45239D01*
X59465Y-44439D02*
X59565Y-44339D01*
X59565Y-43339D02*
X60365Y-43339D01*
X59565Y-47339D02*
X59465Y-47239D01*
X59465Y-47239D02*
X59465Y-46439D01*
X59465Y-46439D02*
X59565Y-46339D01*
X59565Y-46339D02*
X59465Y-46239D01*
X59465Y-46239D02*
X59465Y-45439D01*
X59465Y-45439D02*
X59565Y-45339D01*
X59565Y-45339D02*
X59465Y-45239D01*
X59465Y-45239D02*
X59465Y-44439D01*
X60465Y-47239D02*
X60365Y-47339D01*
X60365Y-47339D02*
X59565Y-47339D01*
X60465Y-45239D02*
X60365Y-45339D01*
X60365Y-45339D02*
X60465Y-45439D01*
X60465Y-45439D02*
X60465Y-46239D01*
X60465Y-46239D02*
X60365Y-46339D01*
X60365Y-46339D02*
X60465Y-46439D01*
X60465Y-46439D02*
X60465Y-47239D01*
X61565Y-44339D02*
X62365Y-44339D01*
X61565Y-45339D02*
X62365Y-45339D01*
X62365Y-43339D02*
X62465Y-43439D01*
X62465Y-43439D02*
X62465Y-44239D01*
X62465Y-44239D02*
X62365Y-44339D01*
X61565Y-44339D02*
X61465Y-44239D01*
X61465Y-44239D02*
X61465Y-43439D01*
X61465Y-43439D02*
X61565Y-43339D01*
X62365Y-44339D02*
X62465Y-44439D01*
X62465Y-44439D02*
X62465Y-45239D01*
X61465Y-44439D02*
X61565Y-44339D01*
X61565Y-43339D02*
X62365Y-43339D01*
X61565Y-47339D02*
X61465Y-47239D01*
X61465Y-47239D02*
X61465Y-46439D01*
X61465Y-46439D02*
X61565Y-46339D01*
X61565Y-46339D02*
X61465Y-46239D01*
X61465Y-46239D02*
X61465Y-45439D01*
X61465Y-45439D02*
X61565Y-45339D01*
X61565Y-45339D02*
X61465Y-45239D01*
X61465Y-45239D02*
X61465Y-44439D01*
X62465Y-47239D02*
X62365Y-47339D01*
X62365Y-47339D02*
X61565Y-47339D01*
X62465Y-45239D02*
X62365Y-45339D01*
X62365Y-45339D02*
X62465Y-45439D01*
X62465Y-45439D02*
X62465Y-46239D01*
X62465Y-46239D02*
X62365Y-46339D01*
X62365Y-46339D02*
X62465Y-46439D01*
X62465Y-46439D02*
X62465Y-47239D01*
X62565Y-44339D02*
X63365Y-44339D01*
X62565Y-45339D02*
X63365Y-45339D01*
X63365Y-43339D02*
X63465Y-43439D01*
X63465Y-43439D02*
X63465Y-44239D01*
X63465Y-44239D02*
X63365Y-44339D01*
X62565Y-44339D02*
X62465Y-44239D01*
X62465Y-44239D02*
X62465Y-43439D01*
X62465Y-43439D02*
X62565Y-43339D01*
X63365Y-44339D02*
X63465Y-44439D01*
X63465Y-44439D02*
X63465Y-45239D01*
X62465Y-44439D02*
X62565Y-44339D01*
X62565Y-43339D02*
X63365Y-43339D01*
X62565Y-47339D02*
X62465Y-47239D01*
X62465Y-47239D02*
X62465Y-46439D01*
X62465Y-46439D02*
X62565Y-46339D01*
X62565Y-46339D02*
X62465Y-46239D01*
X62465Y-46239D02*
X62465Y-45439D01*
X62465Y-45439D02*
X62565Y-45339D01*
X62565Y-45339D02*
X62465Y-45239D01*
X62465Y-45239D02*
X62465Y-44439D01*
X63465Y-47239D02*
X63365Y-47339D01*
X63365Y-47339D02*
X62565Y-47339D01*
X63465Y-45239D02*
X63365Y-45339D01*
X63365Y-45339D02*
X63465Y-45439D01*
X63465Y-45439D02*
X63465Y-46239D01*
X63465Y-46239D02*
X63365Y-46339D01*
X63365Y-46339D02*
X63465Y-46439D01*
X63465Y-46439D02*
X63465Y-47239D01*
X64565Y-44339D02*
X65365Y-44339D01*
X64565Y-45339D02*
X65365Y-45339D01*
X65365Y-43339D02*
X65465Y-43439D01*
X65465Y-43439D02*
X65465Y-44239D01*
X65465Y-44239D02*
X65365Y-44339D01*
X64565Y-44339D02*
X64465Y-44239D01*
X64465Y-44239D02*
X64465Y-43439D01*
X64465Y-43439D02*
X64565Y-43339D01*
X65365Y-44339D02*
X65465Y-44439D01*
X65465Y-44439D02*
X65465Y-45239D01*
X64465Y-44439D02*
X64565Y-44339D01*
X64565Y-43339D02*
X65365Y-43339D01*
X64565Y-47339D02*
X64465Y-47239D01*
X64465Y-47239D02*
X64465Y-46439D01*
X64465Y-46439D02*
X64565Y-46339D01*
X64565Y-46339D02*
X64465Y-46239D01*
X64465Y-46239D02*
X64465Y-45439D01*
X64465Y-45439D02*
X64565Y-45339D01*
X64565Y-45339D02*
X64465Y-45239D01*
X64465Y-45239D02*
X64465Y-44439D01*
X65465Y-47239D02*
X65365Y-47339D01*
X65365Y-47339D02*
X64565Y-47339D01*
X65465Y-45239D02*
X65365Y-45339D01*
X65365Y-45339D02*
X65465Y-45439D01*
X65465Y-45439D02*
X65465Y-46239D01*
X65465Y-46239D02*
X65365Y-46339D01*
X65365Y-46339D02*
X65465Y-46439D01*
X65465Y-46439D02*
X65465Y-47239D01*
X58565Y-44339D02*
X59365Y-44339D01*
X58565Y-45339D02*
X59365Y-45339D01*
X59365Y-43339D02*
X59465Y-43439D01*
X59465Y-43439D02*
X59465Y-44239D01*
X59465Y-44239D02*
X59365Y-44339D01*
X58565Y-44339D02*
X58465Y-44239D01*
X58465Y-44239D02*
X58465Y-43439D01*
X58465Y-43439D02*
X58565Y-43339D01*
X59365Y-44339D02*
X59465Y-44439D01*
X59465Y-44439D02*
X59465Y-45239D01*
X58465Y-44439D02*
X58565Y-44339D01*
X58565Y-43339D02*
X59365Y-43339D01*
X58565Y-47339D02*
X58465Y-47239D01*
X58465Y-47239D02*
X58465Y-46439D01*
X58465Y-46439D02*
X58565Y-46339D01*
X58565Y-46339D02*
X58465Y-46239D01*
X58465Y-46239D02*
X58465Y-45439D01*
X58465Y-45439D02*
X58565Y-45339D01*
X58565Y-45339D02*
X58465Y-45239D01*
X58465Y-45239D02*
X58465Y-44439D01*
X59465Y-47239D02*
X59365Y-47339D01*
X59365Y-47339D02*
X58565Y-47339D01*
X59465Y-45239D02*
X59365Y-45339D01*
X59365Y-45339D02*
X59465Y-45439D01*
X59465Y-45439D02*
X59465Y-46239D01*
X59465Y-46239D02*
X59365Y-46339D01*
X59365Y-46339D02*
X59465Y-46439D01*
X59465Y-46439D02*
X59465Y-47239D01*
X60565Y-44339D02*
X61365Y-44339D01*
X60565Y-45339D02*
X61365Y-45339D01*
X61365Y-43339D02*
X61465Y-43439D01*
X61465Y-43439D02*
X61465Y-44239D01*
X61465Y-44239D02*
X61365Y-44339D01*
X60565Y-44339D02*
X60465Y-44239D01*
X60465Y-44239D02*
X60465Y-43439D01*
X60465Y-43439D02*
X60565Y-43339D01*
X61365Y-44339D02*
X61465Y-44439D01*
X61465Y-44439D02*
X61465Y-45239D01*
X60465Y-44439D02*
X60565Y-44339D01*
X60565Y-43339D02*
X61365Y-43339D01*
X60565Y-47339D02*
X60465Y-47239D01*
X60465Y-47239D02*
X60465Y-46439D01*
X60465Y-46439D02*
X60565Y-46339D01*
X60565Y-46339D02*
X60465Y-46239D01*
X60465Y-46239D02*
X60465Y-45439D01*
X60465Y-45439D02*
X60565Y-45339D01*
X60565Y-45339D02*
X60465Y-45239D01*
X60465Y-45239D02*
X60465Y-44439D01*
X61465Y-47239D02*
X61365Y-47339D01*
X61365Y-47339D02*
X60565Y-47339D01*
X61465Y-45239D02*
X61365Y-45339D01*
X61365Y-45339D02*
X61465Y-45439D01*
X61465Y-45439D02*
X61465Y-46239D01*
X61465Y-46239D02*
X61365Y-46339D01*
X61365Y-46339D02*
X61465Y-46439D01*
X61465Y-46439D02*
X61465Y-47239D01*
X63565Y-44339D02*
X64365Y-44339D01*
X63565Y-45339D02*
X64365Y-45339D01*
X64365Y-43339D02*
X64465Y-43439D01*
X64465Y-43439D02*
X64465Y-44239D01*
X64465Y-44239D02*
X64365Y-44339D01*
X63565Y-44339D02*
X63465Y-44239D01*
X63465Y-44239D02*
X63465Y-43439D01*
X63465Y-43439D02*
X63565Y-43339D01*
X64365Y-44339D02*
X64465Y-44439D01*
X64465Y-44439D02*
X64465Y-45239D01*
X63465Y-44439D02*
X63565Y-44339D01*
X63565Y-43339D02*
X64365Y-43339D01*
X63565Y-47339D02*
X63465Y-47239D01*
X63465Y-47239D02*
X63465Y-46439D01*
X63465Y-46439D02*
X63565Y-46339D01*
X63565Y-46339D02*
X63465Y-46239D01*
X63465Y-46239D02*
X63465Y-45439D01*
X63465Y-45439D02*
X63565Y-45339D01*
X63565Y-45339D02*
X63465Y-45239D01*
X63465Y-45239D02*
X63465Y-44439D01*
X64465Y-47239D02*
X64365Y-47339D01*
X64365Y-47339D02*
X63565Y-47339D01*
X64465Y-45239D02*
X64365Y-45339D01*
X64365Y-45339D02*
X64465Y-45439D01*
X64465Y-45439D02*
X64465Y-46239D01*
X64465Y-46239D02*
X64365Y-46339D01*
X64365Y-46339D02*
X64465Y-46439D01*
X64465Y-46439D02*
X64465Y-47239D01*
X65565Y-44339D02*
X66365Y-44339D01*
X65565Y-45339D02*
X66365Y-45339D01*
X66365Y-43339D02*
X66465Y-43439D01*
X66465Y-43439D02*
X66465Y-44239D01*
X66465Y-44239D02*
X66365Y-44339D01*
X65565Y-44339D02*
X65465Y-44239D01*
X65465Y-44239D02*
X65465Y-43439D01*
X65465Y-43439D02*
X65565Y-43339D01*
X66365Y-44339D02*
X66465Y-44439D01*
X66465Y-44439D02*
X66465Y-45239D01*
X65465Y-44439D02*
X65565Y-44339D01*
X65565Y-43339D02*
X66365Y-43339D01*
X65565Y-47339D02*
X65465Y-47239D01*
X65465Y-47239D02*
X65465Y-46439D01*
X65465Y-46439D02*
X65565Y-46339D01*
X65565Y-46339D02*
X65465Y-46239D01*
X65465Y-46239D02*
X65465Y-45439D01*
X65465Y-45439D02*
X65565Y-45339D01*
X65565Y-45339D02*
X65465Y-45239D01*
X65465Y-45239D02*
X65465Y-44439D01*
X66465Y-47239D02*
X66365Y-47339D01*
X66365Y-47339D02*
X65565Y-47339D01*
X66465Y-45239D02*
X66365Y-45339D01*
X66365Y-45339D02*
X66465Y-45439D01*
X66465Y-45439D02*
X66465Y-46239D01*
X66465Y-46239D02*
X66365Y-46339D01*
X66365Y-46339D02*
X66465Y-46439D01*
X66465Y-46439D02*
X66465Y-47239D01*
G54D12*
X67339Y-54725D02*
X67319Y-54919D01*
X67263Y-55106D01*
X67171Y-55278D01*
X67048Y-55429D01*
X66898Y-55554D01*
X66726Y-55646D01*
X66540Y-55704D01*
X66345Y-55724D01*
X66152Y-55707D01*
X65965Y-55652D01*
X65792Y-55561D01*
X65640Y-55439D01*
X65514Y-55289D01*
X65420Y-55118D01*
X65361Y-54932D01*
X65340Y-54738D01*
X65356Y-54545D01*
X65410Y-54357D01*
X65499Y-54184D01*
X65620Y-54031D01*
X65769Y-53904D01*
X65939Y-53809D01*
X66125Y-53749D01*
X66319Y-53726D01*
X66512Y-53741D01*
X66700Y-53793D01*
X66874Y-53881D01*
X67028Y-54001D01*
X67156Y-54149D01*
X67252Y-54319D01*
X67314Y-54504D01*
X67338Y-54698D01*
X67339Y-54725D01*
X59465Y-33071D02*
X59445Y-33265D01*
X59389Y-33452D01*
X59297Y-33624D01*
X59174Y-33775D01*
X59024Y-33900D01*
X58852Y-33992D01*
X58666Y-34050D01*
X58471Y-34070D01*
X58278Y-34053D01*
X58091Y-33998D01*
X57918Y-33907D01*
X57766Y-33785D01*
X57640Y-33635D01*
X57546Y-33464D01*
X57487Y-33278D01*
X57466Y-33084D01*
X57482Y-32891D01*
X57536Y-32703D01*
X57625Y-32530D01*
X57746Y-32377D01*
X57895Y-32250D01*
X58065Y-32155D01*
X58251Y-32095D01*
X58445Y-32072D01*
X58638Y-32087D01*
X58826Y-32139D01*
X59000Y-32227D01*
X59154Y-32347D01*
X59282Y-32495D01*
X59378Y-32665D01*
X59440Y-32850D01*
X59464Y-33044D01*
X59465Y-33071D01*
X51591Y-54725D02*
X51571Y-54919D01*
X51515Y-55106D01*
X51423Y-55278D01*
X51300Y-55429D01*
X51150Y-55554D01*
X50978Y-55646D01*
X50792Y-55704D01*
X50597Y-55724D01*
X50404Y-55707D01*
X50217Y-55652D01*
X50044Y-55561D01*
X49892Y-55439D01*
X49766Y-55289D01*
X49672Y-55118D01*
X49613Y-54932D01*
X49592Y-54738D01*
X49608Y-54545D01*
X49662Y-54357D01*
X49751Y-54184D01*
X49872Y-54031D01*
X50021Y-53904D01*
X50191Y-53809D01*
X50377Y-53749D01*
X50571Y-53726D01*
X50764Y-53741D01*
X50952Y-53793D01*
X51126Y-53881D01*
X51280Y-54001D01*
X51408Y-54149D01*
X51504Y-54319D01*
X51566Y-54504D01*
X51590Y-54698D01*
X51591Y-54725D01*
G54D11*
X72715Y-30339D02*
X72515Y-30339D01*
X69715Y-30339D02*
X69915Y-30339D01*
X69915Y-30339D02*
X69915Y-30739D01*
X69915Y-30739D02*
X72515Y-30739D01*
X72515Y-30739D02*
X72515Y-29939D01*
X72515Y-29939D02*
X69915Y-29939D01*
X69915Y-29939D02*
X69915Y-30339D01*
X72515Y-30539D02*
X72315Y-30739D01*
X43965Y-57839D02*
X44165Y-57839D01*
X46965Y-57839D02*
X46765Y-57839D01*
X46765Y-57839D02*
X46765Y-57439D01*
X46765Y-57439D02*
X44165Y-57439D01*
X44165Y-57439D02*
X44165Y-58239D01*
X44165Y-58239D02*
X46765Y-58239D01*
X46765Y-58239D02*
X46765Y-57839D01*
X44165Y-57639D02*
X44365Y-57439D01*
X46965Y-59839D02*
X46765Y-59839D01*
X43965Y-59839D02*
X44165Y-59839D01*
X44165Y-59839D02*
X44165Y-60239D01*
X44165Y-60239D02*
X46765Y-60239D01*
X46765Y-60239D02*
X46765Y-59439D01*
X46765Y-59439D02*
X44165Y-59439D01*
X44165Y-59439D02*
X44165Y-59839D01*
X46765Y-60039D02*
X46565Y-60239D01*
X67715Y-39089D02*
X67915Y-39089D01*
X70715Y-39089D02*
X70515Y-39089D01*
X70515Y-39089D02*
X70515Y-38689D01*
X70515Y-38689D02*
X67915Y-38689D01*
X67915Y-38689D02*
X67915Y-39489D01*
X67915Y-39489D02*
X70515Y-39489D01*
X70515Y-39489D02*
X70515Y-39089D01*
X67915Y-38889D02*
X68115Y-38689D01*
X48465Y-35589D02*
X48265Y-35589D01*
X45465Y-35589D02*
X45665Y-35589D01*
X45665Y-35589D02*
X45665Y-35989D01*
X45665Y-35989D02*
X48265Y-35989D01*
X48265Y-35989D02*
X48265Y-35189D01*
X48265Y-35189D02*
X45665Y-35189D01*
X45665Y-35189D02*
X45665Y-35589D01*
X48265Y-35789D02*
X48065Y-35989D01*
X46965Y-58839D02*
X46765Y-58839D01*
X43965Y-58839D02*
X44165Y-58839D01*
X44165Y-58839D02*
X44165Y-59239D01*
X44165Y-59239D02*
X46765Y-59239D01*
X46765Y-59239D02*
X46765Y-58439D01*
X46765Y-58439D02*
X44165Y-58439D01*
X44165Y-58439D02*
X44165Y-58839D01*
X46765Y-59039D02*
X46565Y-59239D01*
X54465Y-57839D02*
X54665Y-57839D01*
X57465Y-57839D02*
X57265Y-57839D01*
X57265Y-57839D02*
X57265Y-57439D01*
X57265Y-57439D02*
X54665Y-57439D01*
X54665Y-57439D02*
X54665Y-58239D01*
X54665Y-58239D02*
X57265Y-58239D01*
X57265Y-58239D02*
X57265Y-57839D01*
X54665Y-57639D02*
X54865Y-57439D01*
X54965Y-41339D02*
X54965Y-41539D01*
X54965Y-44339D02*
X54965Y-44139D01*
X54965Y-44139D02*
X55365Y-44139D01*
X55365Y-44139D02*
X55365Y-41539D01*
X55365Y-41539D02*
X54565Y-41539D01*
X54565Y-41539D02*
X54565Y-44139D01*
X54565Y-44139D02*
X54965Y-44139D01*
X55165Y-41539D02*
X55365Y-41739D01*
X58465Y-57839D02*
X58665Y-57839D01*
X61465Y-57839D02*
X61265Y-57839D01*
X61265Y-57839D02*
X61265Y-57439D01*
X61265Y-57439D02*
X58665Y-57439D01*
X58665Y-57439D02*
X58665Y-58239D01*
X58665Y-58239D02*
X61265Y-58239D01*
X61265Y-58239D02*
X61265Y-57839D01*
X58665Y-57639D02*
X58865Y-57439D01*
X59965Y-32589D02*
X59965Y-32789D01*
X59965Y-35589D02*
X59965Y-35389D01*
X59965Y-35389D02*
X60365Y-35389D01*
X60365Y-35389D02*
X60365Y-32789D01*
X60365Y-32789D02*
X59565Y-32789D01*
X59565Y-32789D02*
X59565Y-35389D01*
X59565Y-35389D02*
X59965Y-35389D01*
X60165Y-32789D02*
X60365Y-32989D01*
X60965Y-32589D02*
X60965Y-32789D01*
X60965Y-35589D02*
X60965Y-35389D01*
X60965Y-35389D02*
X61365Y-35389D01*
X61365Y-35389D02*
X61365Y-32789D01*
X61365Y-32789D02*
X60565Y-32789D01*
X60565Y-32789D02*
X60565Y-35389D01*
X60565Y-35389D02*
X60965Y-35389D01*
X61165Y-32789D02*
X61365Y-32989D01*
X67215Y-46839D02*
X67215Y-46639D01*
X67215Y-43839D02*
X67215Y-44039D01*
X67215Y-44039D02*
X66815Y-44039D01*
X66815Y-44039D02*
X66815Y-46639D01*
X66815Y-46639D02*
X67615Y-46639D01*
X67615Y-46639D02*
X67615Y-44039D01*
X67615Y-44039D02*
X67215Y-44039D01*
X67015Y-46639D02*
X66815Y-46439D01*
X51965Y-55089D02*
X52165Y-55089D01*
X54965Y-55089D02*
X54765Y-55089D01*
X54765Y-55089D02*
X54765Y-54689D01*
X54765Y-54689D02*
X52165Y-54689D01*
X52165Y-54689D02*
X52165Y-55489D01*
X52165Y-55489D02*
X54765Y-55489D01*
X54765Y-55489D02*
X54765Y-55089D01*
X52165Y-54889D02*
X52365Y-54689D01*
X51965Y-54089D02*
X52165Y-54089D01*
X54965Y-54089D02*
X54765Y-54089D01*
X54765Y-54089D02*
X54765Y-53689D01*
X54765Y-53689D02*
X52165Y-53689D01*
X52165Y-53689D02*
X52165Y-54489D01*
X52165Y-54489D02*
X54765Y-54489D01*
X54765Y-54489D02*
X54765Y-54089D01*
X52165Y-53889D02*
X52365Y-53689D01*
X51965Y-56089D02*
X52165Y-56089D01*
X54965Y-56089D02*
X54765Y-56089D01*
X54765Y-56089D02*
X54765Y-55689D01*
X54765Y-55689D02*
X52165Y-55689D01*
X52165Y-55689D02*
X52165Y-56489D01*
X52165Y-56489D02*
X54765Y-56489D01*
X54765Y-56489D02*
X54765Y-56089D01*
X52165Y-55889D02*
X52365Y-55689D01*
X74215Y-47339D02*
X74215Y-47139D01*
X74215Y-44339D02*
X74215Y-44539D01*
X74215Y-44539D02*
X73815Y-44539D01*
X73815Y-44539D02*
X73815Y-47139D01*
X73815Y-47139D02*
X74615Y-47139D01*
X74615Y-47139D02*
X74615Y-44539D01*
X74615Y-44539D02*
X74215Y-44539D01*
X74015Y-47139D02*
X73815Y-46939D01*
X74215Y-35339D02*
X74215Y-35539D01*
X74215Y-38339D02*
X74215Y-38139D01*
X74215Y-38139D02*
X74615Y-38139D01*
X74615Y-38139D02*
X74615Y-35539D01*
X74615Y-35539D02*
X73815Y-35539D01*
X73815Y-35539D02*
X73815Y-38139D01*
X73815Y-38139D02*
X74215Y-38139D01*
X74415Y-35539D02*
X74615Y-35739D01*
X42715Y-35339D02*
X42715Y-35539D01*
X42715Y-38339D02*
X42715Y-38139D01*
X42715Y-38139D02*
X43115Y-38139D01*
X43115Y-38139D02*
X43115Y-35539D01*
X43115Y-35539D02*
X42315Y-35539D01*
X42315Y-35539D02*
X42315Y-38139D01*
X42315Y-38139D02*
X42715Y-38139D01*
X42915Y-35539D02*
X43115Y-35739D01*
X42715Y-47339D02*
X42715Y-47139D01*
X42715Y-44339D02*
X42715Y-44539D01*
X42715Y-44539D02*
X42315Y-44539D01*
X42315Y-44539D02*
X42315Y-47139D01*
X42315Y-47139D02*
X43115Y-47139D01*
X43115Y-47139D02*
X43115Y-44539D01*
X43115Y-44539D02*
X42715Y-44539D01*
X42515Y-47139D02*
X42315Y-46939D01*
X54965Y-57089D02*
X54765Y-57089D01*
X51965Y-57089D02*
X52165Y-57089D01*
X52165Y-57089D02*
X52165Y-57489D01*
X52165Y-57489D02*
X54765Y-57489D01*
X54765Y-57489D02*
X54765Y-56689D01*
X54765Y-56689D02*
X52165Y-56689D01*
X52165Y-56689D02*
X52165Y-57089D01*
X54765Y-57289D02*
X54565Y-57489D01*
G54D12*
X41965Y-30339D02*
X41965Y-30339D01*
X41965Y-30339D02*
X42465Y-30339D01*
X42465Y-30339D02*
X42465Y-31339D01*
X42465Y-31339D02*
X41965Y-31339D01*
X41965Y-29839D02*
X50965Y-29839D01*
X50965Y-29839D02*
X50965Y-31839D01*
X50965Y-31839D02*
X41965Y-31839D01*
X41965Y-31839D02*
X41965Y-29839D01*
G54D16*
X60120Y-26386D02*
X60144Y-26410D01*
X60167Y-26481D01*
X60167Y-26529D01*
X60144Y-26601D01*
X60096Y-26648D01*
X60048Y-26672D01*
X59953Y-26696D01*
X59882Y-26696D01*
X59786Y-26672D01*
X59739Y-26648D01*
X59691Y-26601D01*
X59667Y-26529D01*
X59667Y-26481D01*
X59691Y-26410D01*
X59715Y-26386D01*
X60025Y-26196D02*
X60025Y-25958D01*
X60167Y-26243D02*
X59667Y-26077D01*
X60167Y-25910D01*
X60167Y-25743D02*
X59667Y-25743D01*
X59667Y-25552D01*
X59691Y-25505D01*
X59715Y-25481D01*
X59763Y-25457D01*
X59834Y-25457D01*
X59882Y-25481D01*
X59905Y-25505D01*
X59929Y-25552D01*
X59929Y-25743D01*
X59715Y-25267D02*
X59691Y-25243D01*
X59667Y-25195D01*
X59667Y-25076D01*
X59691Y-25029D01*
X59715Y-25005D01*
X59763Y-24981D01*
X59810Y-24981D01*
X59882Y-25005D01*
X60167Y-25291D01*
X60167Y-24981D01*
G54D13*
X63332Y-63101D02*
X63332Y-63387D01*
X63312Y-63444D01*
X63274Y-63482D01*
X63217Y-63501D01*
X63179Y-63501D01*
X63503Y-63139D02*
X63522Y-63120D01*
X63560Y-63101D01*
X63656Y-63101D01*
X63694Y-63120D01*
X63713Y-63139D01*
X63732Y-63177D01*
X63732Y-63215D01*
X63713Y-63272D01*
X63484Y-63501D01*
X63732Y-63501D01*
G54D16*
X49202Y-45655D02*
X49702Y-45321D01*
X49202Y-45321D02*
X49702Y-45655D01*
X49702Y-44869D02*
X49702Y-45155D01*
X49702Y-45012D02*
X49202Y-45012D01*
X49274Y-45060D01*
X49321Y-45107D01*
X49345Y-45155D01*
G54D20*
X75746Y-32392D02*
X76070Y-32392D01*
X76108Y-32373D01*
X76127Y-32354D01*
X76146Y-32316D01*
X76146Y-32239D01*
X76127Y-32201D01*
X76108Y-32182D01*
X76070Y-32163D01*
X75746Y-32163D01*
X75784Y-31992D02*
X75765Y-31973D01*
X75746Y-31935D01*
X75746Y-31839D01*
X75765Y-31801D01*
X75784Y-31782D01*
X75822Y-31763D01*
X75860Y-31763D01*
X75917Y-31782D01*
X76146Y-32011D01*
X76146Y-31763D01*
G54D10*
X56365Y-63553D02*
X56265Y-63553D01*
X56265Y-63710D02*
X56265Y-63410D01*
X56408Y-63410D01*
X56680Y-63710D02*
X56508Y-63710D01*
X56594Y-63710D02*
X56594Y-63410D01*
X56565Y-63453D01*
X56537Y-63482D01*
X56508Y-63496D01*
G54D16*
X68682Y-45482D02*
X68739Y-45501D01*
X68835Y-45501D01*
X68873Y-45482D01*
X68892Y-45463D01*
X68911Y-45425D01*
X68911Y-45387D01*
X68892Y-45349D01*
X68873Y-45329D01*
X68835Y-45310D01*
X68758Y-45291D01*
X68720Y-45272D01*
X68701Y-45253D01*
X68682Y-45215D01*
X68682Y-45177D01*
X68701Y-45139D01*
X68720Y-45120D01*
X68758Y-45101D01*
X68854Y-45101D01*
X68911Y-45120D01*
X69044Y-45101D02*
X69139Y-45501D01*
X69216Y-45215D01*
X69292Y-45501D01*
X69387Y-45101D01*
X69711Y-45234D02*
X69711Y-45501D01*
X69615Y-45082D02*
X69520Y-45368D01*
X69768Y-45368D01*
G54D11*
X57258Y-60982D02*
X57258Y-61468D01*
X57286Y-61525D01*
X57315Y-61553D01*
X57372Y-61582D01*
X57486Y-61582D01*
X57544Y-61553D01*
X57572Y-61525D01*
X57601Y-61468D01*
X57601Y-60982D01*
X58173Y-60982D02*
X57887Y-60982D01*
X57858Y-61268D01*
X57887Y-61239D01*
X57944Y-61210D01*
X58087Y-61210D01*
X58144Y-61239D01*
X58173Y-61268D01*
X58201Y-61325D01*
X58201Y-61468D01*
X58173Y-61525D01*
X58144Y-61553D01*
X58087Y-61582D01*
X57944Y-61582D01*
X57887Y-61553D01*
X57858Y-61525D01*
G54D13*
X57932Y-63482D02*
X57989Y-63501D01*
X58085Y-63501D01*
X58123Y-63482D01*
X58142Y-63463D01*
X58161Y-63425D01*
X58161Y-63387D01*
X58142Y-63349D01*
X58123Y-63329D01*
X58085Y-63310D01*
X58008Y-63291D01*
X57970Y-63272D01*
X57951Y-63253D01*
X57932Y-63215D01*
X57932Y-63177D01*
X57951Y-63139D01*
X57970Y-63120D01*
X58008Y-63101D01*
X58104Y-63101D01*
X58161Y-63120D01*
X58294Y-63101D02*
X58389Y-63501D01*
X58466Y-63215D01*
X58542Y-63501D01*
X58637Y-63101D01*
X58770Y-63139D02*
X58789Y-63120D01*
X58827Y-63101D01*
X58923Y-63101D01*
X58961Y-63120D01*
X58980Y-63139D01*
X58999Y-63177D01*
X58999Y-63215D01*
X58980Y-63272D01*
X58751Y-63501D01*
X58999Y-63501D01*
G54D20*
X49417Y-57208D02*
X48917Y-57208D01*
X48917Y-57089D01*
X48941Y-57017D01*
X48989Y-56970D01*
X49036Y-56946D01*
X49132Y-56922D01*
X49203Y-56922D01*
X49298Y-56946D01*
X49346Y-56970D01*
X49394Y-57017D01*
X49417Y-57089D01*
X49417Y-57208D01*
X49132Y-56637D02*
X49108Y-56684D01*
X49084Y-56708D01*
X49036Y-56732D01*
X49013Y-56732D01*
X48965Y-56708D01*
X48941Y-56684D01*
X48917Y-56637D01*
X48917Y-56541D01*
X48941Y-56494D01*
X48965Y-56470D01*
X49013Y-56446D01*
X49036Y-56446D01*
X49084Y-56470D01*
X49108Y-56494D01*
X49132Y-56541D01*
X49132Y-56637D01*
X49155Y-56684D01*
X49179Y-56708D01*
X49227Y-56732D01*
X49322Y-56732D01*
X49370Y-56708D01*
X49394Y-56684D01*
X49417Y-56637D01*
X49417Y-56541D01*
X49394Y-56494D01*
X49370Y-56470D01*
X49322Y-56446D01*
X49227Y-56446D01*
X49179Y-56470D01*
X49155Y-56494D01*
X49132Y-56541D01*
G54D13*
X59449Y-37122D02*
X59449Y-36422D01*
X59615Y-36422D01*
X59715Y-36456D01*
X59782Y-36522D01*
X59815Y-36589D01*
X59849Y-36722D01*
X59849Y-36822D01*
X59815Y-36956D01*
X59782Y-37022D01*
X59715Y-37089D01*
X59615Y-37122D01*
X59449Y-37122D01*
X60182Y-37122D02*
X60315Y-37122D01*
X60382Y-37089D01*
X60415Y-37056D01*
X60482Y-36956D01*
X60515Y-36822D01*
X60515Y-36556D01*
X60482Y-36489D01*
X60449Y-36456D01*
X60382Y-36422D01*
X60249Y-36422D01*
X60182Y-36456D01*
X60149Y-36489D01*
X60115Y-36556D01*
X60115Y-36722D01*
X60149Y-36789D01*
X60182Y-36822D01*
X60249Y-36856D01*
X60382Y-36856D01*
X60449Y-36822D01*
X60482Y-36789D01*
X60515Y-36722D01*
X64998Y-57939D02*
X64298Y-57939D01*
X64298Y-57773D01*
X64332Y-57673D01*
X64398Y-57606D01*
X64465Y-57573D01*
X64598Y-57539D01*
X64698Y-57539D01*
X64832Y-57573D01*
X64898Y-57606D01*
X64965Y-57673D01*
X64998Y-57773D01*
X64998Y-57939D01*
X64998Y-56873D02*
X64998Y-57273D01*
X64998Y-57073D02*
X64298Y-57073D01*
X64398Y-57139D01*
X64465Y-57206D01*
X64498Y-57273D01*
X64298Y-56439D02*
X64298Y-56372D01*
X64332Y-56306D01*
X64365Y-56272D01*
X64432Y-56239D01*
X64565Y-56206D01*
X64732Y-56206D01*
X64865Y-56239D01*
X64932Y-56272D01*
X64965Y-56306D01*
X64998Y-56372D01*
X64998Y-56439D01*
X64965Y-56506D01*
X64932Y-56539D01*
X64865Y-56572D01*
X64732Y-56606D01*
X64565Y-56606D01*
X64432Y-56572D01*
X64365Y-56539D01*
X64332Y-56506D01*
X64298Y-56439D01*
G54D16*
X65920Y-39688D02*
X65920Y-39388D01*
X65992Y-39388D01*
X66035Y-39403D01*
X66063Y-39431D01*
X66078Y-39460D01*
X66092Y-39517D01*
X66092Y-39560D01*
X66078Y-39617D01*
X66063Y-39646D01*
X66035Y-39674D01*
X65992Y-39688D01*
X65920Y-39688D01*
X66378Y-39688D02*
X66206Y-39688D01*
X66292Y-39688D02*
X66292Y-39388D01*
X66263Y-39431D01*
X66235Y-39460D01*
X66206Y-39474D01*
G54D13*
X59149Y-56922D02*
X59149Y-56222D01*
X59315Y-56222D01*
X59415Y-56256D01*
X59482Y-56322D01*
X59515Y-56389D01*
X59549Y-56522D01*
X59549Y-56622D01*
X59515Y-56756D01*
X59482Y-56822D01*
X59415Y-56889D01*
X59315Y-56922D01*
X59149Y-56922D01*
X59782Y-56222D02*
X60215Y-56222D01*
X59982Y-56489D01*
X60082Y-56489D01*
X60149Y-56522D01*
X60182Y-56556D01*
X60215Y-56622D01*
X60215Y-56789D01*
X60182Y-56856D01*
X60149Y-56889D01*
X60082Y-56922D01*
X59882Y-56922D01*
X59815Y-56889D01*
X59782Y-56856D01*
G54D16*
X47493Y-59460D02*
X47493Y-59160D01*
X47565Y-59160D01*
X47608Y-59175D01*
X47636Y-59203D01*
X47651Y-59232D01*
X47665Y-59289D01*
X47665Y-59332D01*
X47651Y-59389D01*
X47636Y-59418D01*
X47608Y-59446D01*
X47565Y-59460D01*
X47493Y-59460D01*
X47779Y-59189D02*
X47793Y-59175D01*
X47822Y-59160D01*
X47893Y-59160D01*
X47922Y-59175D01*
X47936Y-59189D01*
X47951Y-59218D01*
X47951Y-59246D01*
X47936Y-59289D01*
X47765Y-59460D01*
X47951Y-59460D01*
G54D11*
X37958Y-43281D02*
X37358Y-43281D01*
X37358Y-43138D01*
X37386Y-43053D01*
X37444Y-42995D01*
X37501Y-42967D01*
X37615Y-42938D01*
X37701Y-42938D01*
X37815Y-42967D01*
X37872Y-42995D01*
X37929Y-43053D01*
X37958Y-43138D01*
X37958Y-43281D01*
X37358Y-42738D02*
X37358Y-42338D01*
X37958Y-42595D01*
X79458Y-40281D02*
X78858Y-40281D01*
X78858Y-40138D01*
X78886Y-40053D01*
X78944Y-39995D01*
X79001Y-39967D01*
X79115Y-39938D01*
X79201Y-39938D01*
X79315Y-39967D01*
X79372Y-39995D01*
X79429Y-40053D01*
X79458Y-40138D01*
X79458Y-40281D01*
X78858Y-39395D02*
X78858Y-39681D01*
X79144Y-39710D01*
X79115Y-39681D01*
X79086Y-39624D01*
X79086Y-39481D01*
X79115Y-39424D01*
X79144Y-39395D01*
X79201Y-39367D01*
X79344Y-39367D01*
X79401Y-39395D01*
X79429Y-39424D01*
X79458Y-39481D01*
X79458Y-39624D01*
X79429Y-39681D01*
X79401Y-39710D01*
G54D20*
X70127Y-60041D02*
X70127Y-59541D01*
X70317Y-59708D02*
X70317Y-60041D01*
X70317Y-59756D02*
X70336Y-59732D01*
X70374Y-59708D01*
X70432Y-59708D01*
X70470Y-59732D01*
X70489Y-59779D01*
X70489Y-60041D01*
X70641Y-59708D02*
X70736Y-60041D01*
X70832Y-59708D01*
X70984Y-60041D02*
X70984Y-59541D01*
X71137Y-59541D01*
X71175Y-59565D01*
X71194Y-59589D01*
X71213Y-59637D01*
X71213Y-59708D01*
X71194Y-59756D01*
X71175Y-59779D01*
X71137Y-59803D01*
X70984Y-59803D01*
X71441Y-60041D02*
X71403Y-60018D01*
X71384Y-59994D01*
X71365Y-59946D01*
X71365Y-59803D01*
X71384Y-59756D01*
X71403Y-59732D01*
X71441Y-59708D01*
X71499Y-59708D01*
X71537Y-59732D01*
X71556Y-59756D01*
X71575Y-59803D01*
X71575Y-59946D01*
X71556Y-59994D01*
X71537Y-60018D01*
X71499Y-60041D01*
X71441Y-60041D01*
X71803Y-60041D02*
X71765Y-60018D01*
X71746Y-59970D01*
X71746Y-59541D01*
X71956Y-60041D02*
X71956Y-59541D01*
X72051Y-59541D01*
X72109Y-59565D01*
X72147Y-59613D01*
X72166Y-59660D01*
X72185Y-59756D01*
X72185Y-59827D01*
X72166Y-59922D01*
X72147Y-59970D01*
X72109Y-60018D01*
X72051Y-60041D01*
X71956Y-60041D01*
X72356Y-60041D02*
X72356Y-59708D01*
X72356Y-59541D02*
X72337Y-59565D01*
X72356Y-59589D01*
X72375Y-59565D01*
X72356Y-59541D01*
X72356Y-59589D01*
X72603Y-60041D02*
X72565Y-60018D01*
X72546Y-59994D01*
X72527Y-59946D01*
X72527Y-59803D01*
X72546Y-59756D01*
X72565Y-59732D01*
X72603Y-59708D01*
X72661Y-59708D01*
X72699Y-59732D01*
X72718Y-59756D01*
X72737Y-59803D01*
X72737Y-59946D01*
X72718Y-59994D01*
X72699Y-60018D01*
X72661Y-60041D01*
X72603Y-60041D01*
X73080Y-60041D02*
X73080Y-59541D01*
X73080Y-60018D02*
X73042Y-60041D01*
X72965Y-60041D01*
X72927Y-60018D01*
X72908Y-59994D01*
X72889Y-59946D01*
X72889Y-59803D01*
X72908Y-59756D01*
X72927Y-59732D01*
X72965Y-59708D01*
X73042Y-59708D01*
X73080Y-59732D01*
X73423Y-60018D02*
X73385Y-60041D01*
X73308Y-60041D01*
X73270Y-60018D01*
X73251Y-59970D01*
X73251Y-59779D01*
X73270Y-59732D01*
X73308Y-59708D01*
X73385Y-59708D01*
X73423Y-59732D01*
X73442Y-59779D01*
X73442Y-59827D01*
X73251Y-59875D01*
X73823Y-60041D02*
X73594Y-60041D01*
X73708Y-60041D02*
X73708Y-59541D01*
X73670Y-59613D01*
X73632Y-59660D01*
X73594Y-59684D01*
G54D16*
X51620Y-60886D02*
X51644Y-60910D01*
X51667Y-60981D01*
X51667Y-61029D01*
X51644Y-61101D01*
X51596Y-61148D01*
X51548Y-61172D01*
X51453Y-61196D01*
X51382Y-61196D01*
X51286Y-61172D01*
X51239Y-61148D01*
X51191Y-61101D01*
X51167Y-61029D01*
X51167Y-60981D01*
X51191Y-60910D01*
X51215Y-60886D01*
X51525Y-60696D02*
X51525Y-60458D01*
X51667Y-60743D02*
X51167Y-60577D01*
X51667Y-60410D01*
X51667Y-60243D02*
X51167Y-60243D01*
X51167Y-60052D01*
X51191Y-60005D01*
X51215Y-59981D01*
X51263Y-59957D01*
X51334Y-59957D01*
X51382Y-59981D01*
X51405Y-60005D01*
X51429Y-60052D01*
X51429Y-60243D01*
X51667Y-59481D02*
X51667Y-59767D01*
X51667Y-59624D02*
X51167Y-59624D01*
X51239Y-59672D01*
X51286Y-59719D01*
X51310Y-59767D01*
X75668Y-28494D02*
X75644Y-28518D01*
X75573Y-28541D01*
X75525Y-28541D01*
X75453Y-28518D01*
X75406Y-28470D01*
X75382Y-28422D01*
X75358Y-28327D01*
X75358Y-28256D01*
X75382Y-28160D01*
X75406Y-28113D01*
X75453Y-28065D01*
X75525Y-28041D01*
X75573Y-28041D01*
X75644Y-28065D01*
X75668Y-28089D01*
X75858Y-28399D02*
X76096Y-28399D01*
X75811Y-28541D02*
X75977Y-28041D01*
X76144Y-28541D01*
X76311Y-28541D02*
X76311Y-28041D01*
X76502Y-28041D01*
X76549Y-28065D01*
X76573Y-28089D01*
X76597Y-28137D01*
X76597Y-28208D01*
X76573Y-28256D01*
X76549Y-28279D01*
X76502Y-28303D01*
X76311Y-28303D01*
X77049Y-28041D02*
X76811Y-28041D01*
X76787Y-28279D01*
X76811Y-28256D01*
X76859Y-28232D01*
X76978Y-28232D01*
X77025Y-28256D01*
X77049Y-28279D01*
X77073Y-28327D01*
X77073Y-28446D01*
X77049Y-28494D01*
X77025Y-28518D01*
X76978Y-28541D01*
X76859Y-28541D01*
X76811Y-28518D01*
X76787Y-28494D01*
X58120Y-26386D02*
X58144Y-26410D01*
X58167Y-26481D01*
X58167Y-26529D01*
X58144Y-26601D01*
X58096Y-26648D01*
X58048Y-26672D01*
X57953Y-26696D01*
X57882Y-26696D01*
X57786Y-26672D01*
X57739Y-26648D01*
X57691Y-26601D01*
X57667Y-26529D01*
X57667Y-26481D01*
X57691Y-26410D01*
X57715Y-26386D01*
X58025Y-26196D02*
X58025Y-25958D01*
X58167Y-26243D02*
X57667Y-26077D01*
X58167Y-25910D01*
X58167Y-25743D02*
X57667Y-25743D01*
X57667Y-25552D01*
X57691Y-25505D01*
X57715Y-25481D01*
X57763Y-25457D01*
X57834Y-25457D01*
X57882Y-25481D01*
X57905Y-25505D01*
X57929Y-25552D01*
X57929Y-25743D01*
X57834Y-25029D02*
X58167Y-25029D01*
X57644Y-25148D02*
X58001Y-25267D01*
X58001Y-24957D01*
X52370Y-31136D02*
X52394Y-31160D01*
X52417Y-31231D01*
X52417Y-31279D01*
X52394Y-31351D01*
X52346Y-31398D01*
X52298Y-31422D01*
X52203Y-31446D01*
X52132Y-31446D01*
X52036Y-31422D01*
X51989Y-31398D01*
X51941Y-31351D01*
X51917Y-31279D01*
X51917Y-31231D01*
X51941Y-31160D01*
X51965Y-31136D01*
X52275Y-30946D02*
X52275Y-30708D01*
X52417Y-30993D02*
X51917Y-30827D01*
X52417Y-30660D01*
X52417Y-30493D02*
X51917Y-30493D01*
X51917Y-30302D01*
X51941Y-30255D01*
X51965Y-30231D01*
X52013Y-30207D01*
X52084Y-30207D01*
X52132Y-30231D01*
X52155Y-30255D01*
X52179Y-30302D01*
X52179Y-30493D01*
X51917Y-30041D02*
X51917Y-29731D01*
X52108Y-29898D01*
X52108Y-29826D01*
X52132Y-29779D01*
X52155Y-29755D01*
X52203Y-29731D01*
X52322Y-29731D01*
X52370Y-29755D01*
X52394Y-29779D01*
X52417Y-29826D01*
X52417Y-29969D01*
X52394Y-30017D01*
X52370Y-30041D01*
G54D11*
X63905Y-33739D02*
X63933Y-33653D01*
X63962Y-33625D01*
X64019Y-33596D01*
X64105Y-33596D01*
X64162Y-33625D01*
X64190Y-33653D01*
X64219Y-33711D01*
X64219Y-33939D01*
X63619Y-33939D01*
X63619Y-33739D01*
X63647Y-33682D01*
X63676Y-33653D01*
X63733Y-33625D01*
X63790Y-33625D01*
X63847Y-33653D01*
X63876Y-33682D01*
X63905Y-33739D01*
X63905Y-33939D01*
X63619Y-33425D02*
X63619Y-33082D01*
X64219Y-33253D02*
X63619Y-33253D01*
X64219Y-32568D02*
X64219Y-32911D01*
X64219Y-32739D02*
X63619Y-32739D01*
X63705Y-32796D01*
X63762Y-32854D01*
X63790Y-32911D01*
G54D20*
X42160Y-58601D02*
X42160Y-58925D01*
X42179Y-58963D01*
X42198Y-58982D01*
X42236Y-59001D01*
X42313Y-59001D01*
X42351Y-58982D01*
X42370Y-58963D01*
X42389Y-58925D01*
X42389Y-58601D01*
X42751Y-58734D02*
X42751Y-59001D01*
X42655Y-58582D02*
X42560Y-58868D01*
X42808Y-58868D01*
G54D11*
X72464Y-41396D02*
X72435Y-41453D01*
X72378Y-41510D01*
X72293Y-41596D01*
X72264Y-41653D01*
X72264Y-41710D01*
X72407Y-41681D02*
X72378Y-41738D01*
X72321Y-41795D01*
X72207Y-41824D01*
X72008Y-41824D01*
X71894Y-41795D01*
X71836Y-41738D01*
X71808Y-41681D01*
X71808Y-41567D01*
X71836Y-41510D01*
X71894Y-41453D01*
X72008Y-41425D01*
X72207Y-41425D01*
X72321Y-41453D01*
X72378Y-41510D01*
X72407Y-41567D01*
X72407Y-41681D01*
X71808Y-41224D02*
X71808Y-40854D01*
X72036Y-41053D01*
X72036Y-40968D01*
X72065Y-40911D01*
X72093Y-40882D01*
X72150Y-40854D01*
X72293Y-40854D01*
X72350Y-40882D01*
X72378Y-40911D01*
X72407Y-40968D01*
X72407Y-41139D01*
X72378Y-41196D01*
X72350Y-41224D01*
X44064Y-42096D02*
X44035Y-42153D01*
X43978Y-42210D01*
X43893Y-42296D01*
X43864Y-42353D01*
X43864Y-42410D01*
X44007Y-42381D02*
X43978Y-42438D01*
X43921Y-42495D01*
X43807Y-42524D01*
X43608Y-42524D01*
X43494Y-42495D01*
X43436Y-42438D01*
X43408Y-42381D01*
X43408Y-42267D01*
X43436Y-42210D01*
X43494Y-42153D01*
X43608Y-42125D01*
X43807Y-42125D01*
X43921Y-42153D01*
X43978Y-42210D01*
X44007Y-42267D01*
X44007Y-42381D01*
X44007Y-41554D02*
X44007Y-41896D01*
X44007Y-41725D02*
X43408Y-41725D01*
X43494Y-41782D01*
X43551Y-41839D01*
X43579Y-41896D01*
G54D20*
X57048Y-47472D02*
X57048Y-47138D01*
X57248Y-47538D02*
X56548Y-47305D01*
X57248Y-47072D01*
X57248Y-46438D02*
X56915Y-46672D01*
X57248Y-46838D02*
X56548Y-46838D01*
X56548Y-46572D01*
X56582Y-46505D01*
X56615Y-46472D01*
X56682Y-46438D01*
X56782Y-46438D01*
X56848Y-46472D01*
X56882Y-46505D01*
X56915Y-46572D01*
X56915Y-46838D01*
X56882Y-46138D02*
X56882Y-45905D01*
X57248Y-45805D02*
X57248Y-46138D01*
X56548Y-46138D01*
X56548Y-45805D01*
X56882Y-45272D02*
X56882Y-45505D01*
X57248Y-45505D02*
X56548Y-45505D01*
X56548Y-45172D01*
G54D23*
X52708Y-38778D02*
X52108Y-38778D01*
X52651Y-38307D02*
X52679Y-38328D01*
X52708Y-38392D01*
X52708Y-38435D01*
X52679Y-38500D01*
X52622Y-38542D01*
X52565Y-38564D01*
X52451Y-38585D01*
X52365Y-38585D01*
X52251Y-38564D01*
X52194Y-38542D01*
X52136Y-38500D01*
X52108Y-38435D01*
X52108Y-38392D01*
X52136Y-38328D01*
X52165Y-38307D01*
X52708Y-37878D02*
X52708Y-38135D01*
X52708Y-38007D02*
X52108Y-38007D01*
X52194Y-38050D01*
X52251Y-38092D01*
X52279Y-38135D01*
G54D11*
G54D23*
X63526Y-51122D02*
X63526Y-50422D01*
X63997Y-51056D02*
X63976Y-51089D01*
X63912Y-51122D01*
X63869Y-51122D01*
X63804Y-51089D01*
X63762Y-51022D01*
X63740Y-50956D01*
X63719Y-50822D01*
X63719Y-50722D01*
X63740Y-50589D01*
X63762Y-50522D01*
X63804Y-50456D01*
X63869Y-50422D01*
X63912Y-50422D01*
X63976Y-50456D01*
X63997Y-50489D01*
X64169Y-50489D02*
X64190Y-50456D01*
X64233Y-50422D01*
X64340Y-50422D01*
X64383Y-50456D01*
X64404Y-50489D01*
X64426Y-50556D01*
X64426Y-50622D01*
X64404Y-50722D01*
X64147Y-51122D01*
X64426Y-51122D01*
G54D11*
G54D23*
X67372Y-32982D02*
X67372Y-33468D01*
X67394Y-33525D01*
X67415Y-33553D01*
X67458Y-33582D01*
X67544Y-33582D01*
X67586Y-33553D01*
X67608Y-33525D01*
X67629Y-33468D01*
X67629Y-32982D01*
X67800Y-32982D02*
X68079Y-32982D01*
X67929Y-33210D01*
X67993Y-33210D01*
X68036Y-33239D01*
X68057Y-33268D01*
X68079Y-33325D01*
X68079Y-33468D01*
X68057Y-33525D01*
X68036Y-33553D01*
X67993Y-33582D01*
X67865Y-33582D01*
X67822Y-33553D01*
X67800Y-33525D01*
G54D11*
X75644Y-51639D02*
X75667Y-51553D01*
X75667Y-51410D01*
X75644Y-51353D01*
X75620Y-51324D01*
X75572Y-51296D01*
X75525Y-51296D01*
X75477Y-51324D01*
X75453Y-51353D01*
X75429Y-51410D01*
X75405Y-51524D01*
X75382Y-51582D01*
X75358Y-51610D01*
X75310Y-51639D01*
X75263Y-51639D01*
X75215Y-51610D01*
X75191Y-51582D01*
X75167Y-51524D01*
X75167Y-51382D01*
X75191Y-51296D01*
X75167Y-51096D02*
X75667Y-50953D01*
X75310Y-50839D01*
X75667Y-50725D01*
X75167Y-50582D01*
X75167Y-50410D02*
X75167Y-50039D01*
X75358Y-50239D01*
X75358Y-50153D01*
X75382Y-50096D01*
X75405Y-50067D01*
X75453Y-50039D01*
X75572Y-50039D01*
X75620Y-50067D01*
X75644Y-50096D01*
X75667Y-50153D01*
X75667Y-50325D01*
X75644Y-50382D01*
X75620Y-50410D01*
G54D20*
X70854Y-26791D02*
X70911Y-26810D01*
X70930Y-26829D01*
X70949Y-26868D01*
X70949Y-26925D01*
X70930Y-26963D01*
X70911Y-26982D01*
X70873Y-27001D01*
X70720Y-27001D01*
X70720Y-26601D01*
X70854Y-26601D01*
X70892Y-26620D01*
X70911Y-26639D01*
X70930Y-26677D01*
X70930Y-26715D01*
X70911Y-26753D01*
X70892Y-26772D01*
X70854Y-26791D01*
X70720Y-26791D01*
X71349Y-26963D02*
X71330Y-26982D01*
X71273Y-27001D01*
X71235Y-27001D01*
X71177Y-26982D01*
X71139Y-26944D01*
X71120Y-26906D01*
X71101Y-26829D01*
X71101Y-26772D01*
X71120Y-26696D01*
X71139Y-26658D01*
X71177Y-26620D01*
X71235Y-26601D01*
X71273Y-26601D01*
X71330Y-26620D01*
X71349Y-26639D01*
X71730Y-27001D02*
X71501Y-27001D01*
X71615Y-27001D02*
X71615Y-26601D01*
X71577Y-26658D01*
X71539Y-26696D01*
X71501Y-26715D01*
G54D24*
X58148Y-22207D02*
X58148Y-21815D01*
X58279Y-22095D01*
X58410Y-21815D01*
X58410Y-22207D01*
X58652Y-21983D02*
X58615Y-21964D01*
X58596Y-21945D01*
X58578Y-21908D01*
X58578Y-21889D01*
X58596Y-21852D01*
X58615Y-21833D01*
X58652Y-21815D01*
X58727Y-21815D01*
X58764Y-21833D01*
X58783Y-21852D01*
X58802Y-21889D01*
X58802Y-21908D01*
X58783Y-21945D01*
X58764Y-21964D01*
X58727Y-21983D01*
X58652Y-21983D01*
X58615Y-22001D01*
X58596Y-22020D01*
X58578Y-22057D01*
X58578Y-22132D01*
X58596Y-22169D01*
X58615Y-22188D01*
X58652Y-22207D01*
X58727Y-22207D01*
X58764Y-22188D01*
X58783Y-22169D01*
X58802Y-22132D01*
X58802Y-22057D01*
X58783Y-22020D01*
X58764Y-22001D01*
X58727Y-21983D01*
G54D15*
X68870Y-52922D02*
X68894Y-52946D01*
X68917Y-53017D01*
X68917Y-53065D01*
X68894Y-53137D01*
X68846Y-53184D01*
X68798Y-53208D01*
X68703Y-53232D01*
X68632Y-53232D01*
X68536Y-53208D01*
X68489Y-53184D01*
X68441Y-53137D01*
X68417Y-53065D01*
X68417Y-53017D01*
X68441Y-52946D01*
X68465Y-52922D01*
X68417Y-52470D02*
X68417Y-52708D01*
X68655Y-52732D01*
X68632Y-52708D01*
X68608Y-52660D01*
X68608Y-52541D01*
X68632Y-52494D01*
X68655Y-52470D01*
X68703Y-52446D01*
X68822Y-52446D01*
X68870Y-52470D01*
X68894Y-52494D01*
X68917Y-52541D01*
X68917Y-52660D01*
X68894Y-52708D01*
X68870Y-52732D01*
X45620Y-41422D02*
X45644Y-41446D01*
X45667Y-41517D01*
X45667Y-41565D01*
X45644Y-41637D01*
X45596Y-41684D01*
X45548Y-41708D01*
X45453Y-41732D01*
X45382Y-41732D01*
X45286Y-41708D01*
X45239Y-41684D01*
X45191Y-41637D01*
X45167Y-41565D01*
X45167Y-41517D01*
X45191Y-41446D01*
X45215Y-41422D01*
X45167Y-40994D02*
X45167Y-41089D01*
X45191Y-41137D01*
X45215Y-41160D01*
X45286Y-41208D01*
X45382Y-41232D01*
X45572Y-41232D01*
X45620Y-41208D01*
X45644Y-41184D01*
X45667Y-41137D01*
X45667Y-41041D01*
X45644Y-40994D01*
X45620Y-40970D01*
X45572Y-40946D01*
X45453Y-40946D01*
X45405Y-40970D01*
X45382Y-40994D01*
X45358Y-41041D01*
X45358Y-41137D01*
X45382Y-41184D01*
X45405Y-41208D01*
X45453Y-41232D01*
X56120Y-45422D02*
X56144Y-45446D01*
X56167Y-45517D01*
X56167Y-45565D01*
X56144Y-45637D01*
X56096Y-45684D01*
X56048Y-45708D01*
X55953Y-45732D01*
X55882Y-45732D01*
X55786Y-45708D01*
X55739Y-45684D01*
X55691Y-45637D01*
X55667Y-45565D01*
X55667Y-45517D01*
X55691Y-45446D01*
X55715Y-45422D01*
X55667Y-45256D02*
X55667Y-44922D01*
X56167Y-45137D01*
X72882Y-35744D02*
X72858Y-35768D01*
X72787Y-35791D01*
X72739Y-35791D01*
X72667Y-35768D01*
X72620Y-35720D01*
X72596Y-35672D01*
X72572Y-35577D01*
X72572Y-35506D01*
X72596Y-35410D01*
X72620Y-35363D01*
X72667Y-35315D01*
X72739Y-35291D01*
X72787Y-35291D01*
X72858Y-35315D01*
X72882Y-35339D01*
X73167Y-35506D02*
X73120Y-35482D01*
X73096Y-35458D01*
X73072Y-35410D01*
X73072Y-35387D01*
X73096Y-35339D01*
X73120Y-35315D01*
X73167Y-35291D01*
X73263Y-35291D01*
X73310Y-35315D01*
X73334Y-35339D01*
X73358Y-35387D01*
X73358Y-35410D01*
X73334Y-35458D01*
X73310Y-35482D01*
X73263Y-35506D01*
X73167Y-35506D01*
X73120Y-35529D01*
X73096Y-35553D01*
X73072Y-35601D01*
X73072Y-35696D01*
X73096Y-35744D01*
X73120Y-35768D01*
X73167Y-35791D01*
X73263Y-35791D01*
X73310Y-35768D01*
X73334Y-35744D01*
X73358Y-35696D01*
X73358Y-35601D01*
X73334Y-35553D01*
X73310Y-35529D01*
X73263Y-35506D01*
X47120Y-47422D02*
X47144Y-47446D01*
X47167Y-47517D01*
X47167Y-47565D01*
X47144Y-47637D01*
X47096Y-47684D01*
X47048Y-47708D01*
X46953Y-47732D01*
X46882Y-47732D01*
X46786Y-47708D01*
X46739Y-47684D01*
X46691Y-47637D01*
X46667Y-47565D01*
X46667Y-47517D01*
X46691Y-47446D01*
X46715Y-47422D01*
X46715Y-47232D02*
X46691Y-47208D01*
X46667Y-47160D01*
X46667Y-47041D01*
X46691Y-46994D01*
X46715Y-46970D01*
X46763Y-46946D01*
X46810Y-46946D01*
X46882Y-46970D01*
X47167Y-47256D01*
X47167Y-46946D01*
X55632Y-31744D02*
X55608Y-31768D01*
X55537Y-31791D01*
X55489Y-31791D01*
X55417Y-31768D01*
X55370Y-31720D01*
X55346Y-31672D01*
X55322Y-31577D01*
X55322Y-31506D01*
X55346Y-31410D01*
X55370Y-31363D01*
X55417Y-31315D01*
X55489Y-31291D01*
X55537Y-31291D01*
X55608Y-31315D01*
X55632Y-31339D01*
X55870Y-31791D02*
X55965Y-31791D01*
X56013Y-31768D01*
X56037Y-31744D01*
X56084Y-31672D01*
X56108Y-31577D01*
X56108Y-31387D01*
X56084Y-31339D01*
X56060Y-31315D01*
X56013Y-31291D01*
X55917Y-31291D01*
X55870Y-31315D01*
X55846Y-31339D01*
X55822Y-31387D01*
X55822Y-31506D01*
X55846Y-31553D01*
X55870Y-31577D01*
X55917Y-31601D01*
X56013Y-31601D01*
X56060Y-31577D01*
X56084Y-31553D01*
X56108Y-31506D01*
X48120Y-47422D02*
X48144Y-47446D01*
X48167Y-47517D01*
X48167Y-47565D01*
X48144Y-47637D01*
X48096Y-47684D01*
X48048Y-47708D01*
X47953Y-47732D01*
X47882Y-47732D01*
X47786Y-47708D01*
X47739Y-47684D01*
X47691Y-47637D01*
X47667Y-47565D01*
X47667Y-47517D01*
X47691Y-47446D01*
X47715Y-47422D01*
X47834Y-46994D02*
X48167Y-46994D01*
X47644Y-47113D02*
X48001Y-47232D01*
X48001Y-46922D01*
X69382Y-27244D02*
X69358Y-27268D01*
X69287Y-27291D01*
X69239Y-27291D01*
X69167Y-27268D01*
X69120Y-27220D01*
X69096Y-27172D01*
X69072Y-27077D01*
X69072Y-27006D01*
X69096Y-26910D01*
X69120Y-26863D01*
X69167Y-26815D01*
X69239Y-26791D01*
X69287Y-26791D01*
X69358Y-26815D01*
X69382Y-26839D01*
X69548Y-26791D02*
X69858Y-26791D01*
X69691Y-26982D01*
X69763Y-26982D01*
X69810Y-27006D01*
X69834Y-27029D01*
X69858Y-27077D01*
X69858Y-27196D01*
X69834Y-27244D01*
X69810Y-27268D01*
X69763Y-27291D01*
X69620Y-27291D01*
X69572Y-27268D01*
X69548Y-27244D01*
X61144Y-31744D02*
X61120Y-31768D01*
X61049Y-31791D01*
X61001Y-31791D01*
X60929Y-31768D01*
X60882Y-31720D01*
X60858Y-31672D01*
X60834Y-31577D01*
X60834Y-31506D01*
X60858Y-31410D01*
X60882Y-31363D01*
X60929Y-31315D01*
X61001Y-31291D01*
X61049Y-31291D01*
X61120Y-31315D01*
X61144Y-31339D01*
X61620Y-31791D02*
X61334Y-31791D01*
X61477Y-31791D02*
X61477Y-31291D01*
X61429Y-31363D01*
X61382Y-31410D01*
X61334Y-31434D01*
X61929Y-31291D02*
X61977Y-31291D01*
X62025Y-31315D01*
X62048Y-31339D01*
X62072Y-31387D01*
X62096Y-31482D01*
X62096Y-31601D01*
X62072Y-31696D01*
X62048Y-31744D01*
X62025Y-31768D01*
X61977Y-31791D01*
X61929Y-31791D01*
X61882Y-31768D01*
X61858Y-31744D01*
X61834Y-31696D01*
X61810Y-31601D01*
X61810Y-31482D01*
X61834Y-31387D01*
X61858Y-31339D01*
X61882Y-31315D01*
X61929Y-31291D01*
X48620Y-36672D02*
X48644Y-36696D01*
X48667Y-36767D01*
X48667Y-36815D01*
X48644Y-36887D01*
X48596Y-36934D01*
X48548Y-36958D01*
X48453Y-36982D01*
X48382Y-36982D01*
X48286Y-36958D01*
X48239Y-36934D01*
X48191Y-36887D01*
X48167Y-36815D01*
X48167Y-36767D01*
X48191Y-36696D01*
X48215Y-36672D01*
X48667Y-36196D02*
X48667Y-36482D01*
X48667Y-36339D02*
X48167Y-36339D01*
X48239Y-36387D01*
X48286Y-36434D01*
X48310Y-36482D01*
G54D11*
X64958Y-55260D02*
X64958Y-55546D01*
X64358Y-55546D01*
X64644Y-55060D02*
X64644Y-54860D01*
X64958Y-54774D02*
X64958Y-55060D01*
X64358Y-55060D01*
X64358Y-54774D01*
X64958Y-54517D02*
X64358Y-54517D01*
X64358Y-54374D01*
X64386Y-54289D01*
X64444Y-54231D01*
X64501Y-54203D01*
X64615Y-54174D01*
X64701Y-54174D01*
X64815Y-54203D01*
X64872Y-54231D01*
X64929Y-54289D01*
X64958Y-54374D01*
X64958Y-54517D01*
X64358Y-53974D02*
X64358Y-53603D01*
X64586Y-53803D01*
X64586Y-53717D01*
X64615Y-53660D01*
X64644Y-53631D01*
X64701Y-53603D01*
X64844Y-53603D01*
X64901Y-53631D01*
X64929Y-53660D01*
X64958Y-53717D01*
X64958Y-53889D01*
X64929Y-53946D01*
X64901Y-53974D01*
X55644Y-33264D02*
X55358Y-33264D01*
X55358Y-32664D01*
X55844Y-32950D02*
X56044Y-32950D01*
X56130Y-33264D02*
X55844Y-33264D01*
X55844Y-32664D01*
X56130Y-32664D01*
X56387Y-33264D02*
X56387Y-32664D01*
X56530Y-32664D01*
X56615Y-32692D01*
X56673Y-32750D01*
X56701Y-32807D01*
X56730Y-32921D01*
X56730Y-33007D01*
X56701Y-33121D01*
X56673Y-33178D01*
X56615Y-33235D01*
X56530Y-33264D01*
X56387Y-33264D01*
X57301Y-33264D02*
X56958Y-33264D01*
X57130Y-33264D02*
X57130Y-32664D01*
X57073Y-32750D01*
X57015Y-32807D01*
X56958Y-32835D01*
X49458Y-55260D02*
X49458Y-55546D01*
X48858Y-55546D01*
X49144Y-55060D02*
X49144Y-54860D01*
X49458Y-54774D02*
X49458Y-55060D01*
X48858Y-55060D01*
X48858Y-54774D01*
X49458Y-54517D02*
X48858Y-54517D01*
X48858Y-54374D01*
X48886Y-54289D01*
X48944Y-54231D01*
X49001Y-54203D01*
X49115Y-54174D01*
X49201Y-54174D01*
X49315Y-54203D01*
X49372Y-54231D01*
X49429Y-54289D01*
X49458Y-54374D01*
X49458Y-54517D01*
X48915Y-53946D02*
X48886Y-53917D01*
X48858Y-53860D01*
X48858Y-53717D01*
X48886Y-53660D01*
X48915Y-53631D01*
X48972Y-53603D01*
X49029Y-53603D01*
X49115Y-53631D01*
X49458Y-53974D01*
X49458Y-53603D01*
G54D20*
X71132Y-30562D02*
X70965Y-30300D01*
X70846Y-30562D02*
X70846Y-30012D01*
X71037Y-30012D01*
X71084Y-30038D01*
X71108Y-30064D01*
X71132Y-30116D01*
X71132Y-30195D01*
X71108Y-30247D01*
X71084Y-30274D01*
X71037Y-30300D01*
X70846Y-30300D01*
X71370Y-30562D02*
X71465Y-30562D01*
X71513Y-30535D01*
X71537Y-30509D01*
X71584Y-30431D01*
X71608Y-30326D01*
X71608Y-30116D01*
X71584Y-30064D01*
X71560Y-30038D01*
X71513Y-30012D01*
X71417Y-30012D01*
X71370Y-30038D01*
X71346Y-30064D01*
X71322Y-30116D01*
X71322Y-30247D01*
X71346Y-30300D01*
X71370Y-30326D01*
X71417Y-30352D01*
X71513Y-30352D01*
X71560Y-30326D01*
X71584Y-30300D01*
X71608Y-30247D01*
X45382Y-58062D02*
X45215Y-57800D01*
X45096Y-58062D02*
X45096Y-57512D01*
X45287Y-57512D01*
X45334Y-57538D01*
X45358Y-57564D01*
X45382Y-57616D01*
X45382Y-57695D01*
X45358Y-57747D01*
X45334Y-57774D01*
X45287Y-57800D01*
X45096Y-57800D01*
X45834Y-57512D02*
X45596Y-57512D01*
X45572Y-57774D01*
X45596Y-57747D01*
X45644Y-57721D01*
X45763Y-57721D01*
X45810Y-57747D01*
X45834Y-57774D01*
X45858Y-57826D01*
X45858Y-57957D01*
X45834Y-58009D01*
X45810Y-58035D01*
X45763Y-58062D01*
X45644Y-58062D01*
X45596Y-58035D01*
X45572Y-58009D01*
X45382Y-60062D02*
X45215Y-59800D01*
X45096Y-60062D02*
X45096Y-59512D01*
X45287Y-59512D01*
X45334Y-59538D01*
X45358Y-59564D01*
X45382Y-59616D01*
X45382Y-59695D01*
X45358Y-59747D01*
X45334Y-59774D01*
X45287Y-59800D01*
X45096Y-59800D01*
X45548Y-59512D02*
X45882Y-59512D01*
X45667Y-60062D01*
X69132Y-39312D02*
X68965Y-39050D01*
X68846Y-39312D02*
X68846Y-38762D01*
X69037Y-38762D01*
X69084Y-38788D01*
X69108Y-38814D01*
X69132Y-38866D01*
X69132Y-38945D01*
X69108Y-38997D01*
X69084Y-39024D01*
X69037Y-39050D01*
X68846Y-39050D01*
X69560Y-38762D02*
X69465Y-38762D01*
X69417Y-38788D01*
X69394Y-38814D01*
X69346Y-38893D01*
X69322Y-38997D01*
X69322Y-39207D01*
X69346Y-39259D01*
X69370Y-39285D01*
X69417Y-39312D01*
X69513Y-39312D01*
X69560Y-39285D01*
X69584Y-39259D01*
X69608Y-39207D01*
X69608Y-39076D01*
X69584Y-39024D01*
X69560Y-38997D01*
X69513Y-38971D01*
X69417Y-38971D01*
X69370Y-38997D01*
X69346Y-39024D01*
X69322Y-39076D01*
X46882Y-35812D02*
X46715Y-35550D01*
X46596Y-35812D02*
X46596Y-35262D01*
X46787Y-35262D01*
X46834Y-35288D01*
X46858Y-35314D01*
X46882Y-35366D01*
X46882Y-35445D01*
X46858Y-35497D01*
X46834Y-35524D01*
X46787Y-35550D01*
X46596Y-35550D01*
X47048Y-35262D02*
X47358Y-35262D01*
X47191Y-35471D01*
X47263Y-35471D01*
X47310Y-35497D01*
X47334Y-35524D01*
X47358Y-35576D01*
X47358Y-35707D01*
X47334Y-35759D01*
X47310Y-35785D01*
X47263Y-35812D01*
X47120Y-35812D01*
X47072Y-35785D01*
X47048Y-35759D01*
X45382Y-59062D02*
X45215Y-58800D01*
X45096Y-59062D02*
X45096Y-58512D01*
X45287Y-58512D01*
X45334Y-58538D01*
X45358Y-58564D01*
X45382Y-58616D01*
X45382Y-58695D01*
X45358Y-58747D01*
X45334Y-58774D01*
X45287Y-58800D01*
X45096Y-58800D01*
X45810Y-58695D02*
X45810Y-59062D01*
X45691Y-58485D02*
X45572Y-58878D01*
X45882Y-58878D01*
X55882Y-58062D02*
X55715Y-57800D01*
X55596Y-58062D02*
X55596Y-57512D01*
X55787Y-57512D01*
X55834Y-57538D01*
X55858Y-57564D01*
X55882Y-57616D01*
X55882Y-57695D01*
X55858Y-57747D01*
X55834Y-57774D01*
X55787Y-57800D01*
X55596Y-57800D01*
X56167Y-57747D02*
X56120Y-57721D01*
X56096Y-57695D01*
X56072Y-57643D01*
X56072Y-57616D01*
X56096Y-57564D01*
X56120Y-57538D01*
X56167Y-57512D01*
X56263Y-57512D01*
X56310Y-57538D01*
X56334Y-57564D01*
X56358Y-57616D01*
X56358Y-57643D01*
X56334Y-57695D01*
X56310Y-57721D01*
X56263Y-57747D01*
X56167Y-57747D01*
X56120Y-57774D01*
X56096Y-57800D01*
X56072Y-57852D01*
X56072Y-57957D01*
X56096Y-58009D01*
X56120Y-58035D01*
X56167Y-58062D01*
X56263Y-58062D01*
X56310Y-58035D01*
X56334Y-58009D01*
X56358Y-57957D01*
X56358Y-57852D01*
X56334Y-57800D01*
X56310Y-57774D01*
X56263Y-57747D01*
X55188Y-42922D02*
X55188Y-43160D01*
X54638Y-43160D01*
X55188Y-42493D02*
X55188Y-42779D01*
X55188Y-42636D02*
X54638Y-42636D01*
X54716Y-42684D01*
X54769Y-42731D01*
X54795Y-42779D01*
X59644Y-58062D02*
X59477Y-57800D01*
X59358Y-58062D02*
X59358Y-57512D01*
X59549Y-57512D01*
X59596Y-57538D01*
X59620Y-57564D01*
X59644Y-57616D01*
X59644Y-57695D01*
X59620Y-57747D01*
X59596Y-57774D01*
X59549Y-57800D01*
X59358Y-57800D01*
X60120Y-58062D02*
X59834Y-58062D01*
X59977Y-58062D02*
X59977Y-57512D01*
X59929Y-57590D01*
X59882Y-57643D01*
X59834Y-57669D01*
X60429Y-57512D02*
X60477Y-57512D01*
X60525Y-57538D01*
X60548Y-57564D01*
X60572Y-57616D01*
X60596Y-57721D01*
X60596Y-57852D01*
X60572Y-57957D01*
X60548Y-58009D01*
X60525Y-58035D01*
X60477Y-58062D01*
X60429Y-58062D01*
X60382Y-58035D01*
X60358Y-58009D01*
X60334Y-57957D01*
X60310Y-57852D01*
X60310Y-57721D01*
X60334Y-57616D01*
X60358Y-57564D01*
X60382Y-57538D01*
X60429Y-57512D01*
X60188Y-34172D02*
X59926Y-34339D01*
X60188Y-34458D02*
X59638Y-34458D01*
X59638Y-34267D01*
X59664Y-34220D01*
X59690Y-34196D01*
X59742Y-34172D01*
X59821Y-34172D01*
X59873Y-34196D01*
X59900Y-34220D01*
X59926Y-34267D01*
X59926Y-34458D01*
X59690Y-33982D02*
X59664Y-33958D01*
X59638Y-33910D01*
X59638Y-33791D01*
X59664Y-33744D01*
X59690Y-33720D01*
X59742Y-33696D01*
X59795Y-33696D01*
X59873Y-33720D01*
X60188Y-34006D01*
X60188Y-33696D01*
X61188Y-34172D02*
X60926Y-34339D01*
X61188Y-34458D02*
X60638Y-34458D01*
X60638Y-34267D01*
X60664Y-34220D01*
X60690Y-34196D01*
X60742Y-34172D01*
X60821Y-34172D01*
X60873Y-34196D01*
X60900Y-34220D01*
X60926Y-34267D01*
X60926Y-34458D01*
X61188Y-33696D02*
X61188Y-33982D01*
X61188Y-33839D02*
X60638Y-33839D01*
X60716Y-33887D01*
X60769Y-33934D01*
X60795Y-33982D01*
X67438Y-45660D02*
X67176Y-45827D01*
X67438Y-45946D02*
X66888Y-45946D01*
X66888Y-45755D01*
X66914Y-45708D01*
X66940Y-45684D01*
X66992Y-45660D01*
X67071Y-45660D01*
X67123Y-45684D01*
X67150Y-45708D01*
X67176Y-45755D01*
X67176Y-45946D01*
X67438Y-45184D02*
X67438Y-45470D01*
X67438Y-45327D02*
X66888Y-45327D01*
X66966Y-45375D01*
X67019Y-45422D01*
X67045Y-45470D01*
X66940Y-44994D02*
X66914Y-44970D01*
X66888Y-44922D01*
X66888Y-44803D01*
X66914Y-44756D01*
X66940Y-44732D01*
X66992Y-44708D01*
X67045Y-44708D01*
X67123Y-44732D01*
X67438Y-45018D01*
X67438Y-44708D01*
X53144Y-55312D02*
X52977Y-55050D01*
X52858Y-55312D02*
X52858Y-54762D01*
X53049Y-54762D01*
X53096Y-54788D01*
X53120Y-54814D01*
X53144Y-54866D01*
X53144Y-54945D01*
X53120Y-54997D01*
X53096Y-55024D01*
X53049Y-55050D01*
X52858Y-55050D01*
X53620Y-55312D02*
X53334Y-55312D01*
X53477Y-55312D02*
X53477Y-54762D01*
X53429Y-54840D01*
X53382Y-54893D01*
X53334Y-54919D01*
X53786Y-54762D02*
X54120Y-54762D01*
X53905Y-55312D01*
X53144Y-54312D02*
X52977Y-54050D01*
X52858Y-54312D02*
X52858Y-53762D01*
X53049Y-53762D01*
X53096Y-53788D01*
X53120Y-53814D01*
X53144Y-53866D01*
X53144Y-53945D01*
X53120Y-53997D01*
X53096Y-54024D01*
X53049Y-54050D01*
X52858Y-54050D01*
X53620Y-54312D02*
X53334Y-54312D01*
X53477Y-54312D02*
X53477Y-53762D01*
X53429Y-53840D01*
X53382Y-53893D01*
X53334Y-53919D01*
X54048Y-53762D02*
X53953Y-53762D01*
X53905Y-53788D01*
X53882Y-53814D01*
X53834Y-53893D01*
X53810Y-53997D01*
X53810Y-54207D01*
X53834Y-54259D01*
X53858Y-54285D01*
X53905Y-54312D01*
X54001Y-54312D01*
X54048Y-54285D01*
X54072Y-54259D01*
X54096Y-54207D01*
X54096Y-54076D01*
X54072Y-54024D01*
X54048Y-53997D01*
X54001Y-53971D01*
X53905Y-53971D01*
X53858Y-53997D01*
X53834Y-54024D01*
X53810Y-54076D01*
X53144Y-56312D02*
X52977Y-56050D01*
X52858Y-56312D02*
X52858Y-55762D01*
X53049Y-55762D01*
X53096Y-55788D01*
X53120Y-55814D01*
X53144Y-55866D01*
X53144Y-55945D01*
X53120Y-55997D01*
X53096Y-56024D01*
X53049Y-56050D01*
X52858Y-56050D01*
X53620Y-56312D02*
X53334Y-56312D01*
X53477Y-56312D02*
X53477Y-55762D01*
X53429Y-55840D01*
X53382Y-55893D01*
X53334Y-55919D01*
X53905Y-55997D02*
X53858Y-55971D01*
X53834Y-55945D01*
X53810Y-55893D01*
X53810Y-55866D01*
X53834Y-55814D01*
X53858Y-55788D01*
X53905Y-55762D01*
X54001Y-55762D01*
X54048Y-55788D01*
X54072Y-55814D01*
X54096Y-55866D01*
X54096Y-55893D01*
X54072Y-55945D01*
X54048Y-55971D01*
X54001Y-55997D01*
X53905Y-55997D01*
X53858Y-56024D01*
X53834Y-56050D01*
X53810Y-56102D01*
X53810Y-56207D01*
X53834Y-56259D01*
X53858Y-56285D01*
X53905Y-56312D01*
X54001Y-56312D01*
X54048Y-56285D01*
X54072Y-56259D01*
X54096Y-56207D01*
X54096Y-56102D01*
X54072Y-56050D01*
X54048Y-56024D01*
X54001Y-55997D01*
X74438Y-46160D02*
X74176Y-46327D01*
X74438Y-46446D02*
X73888Y-46446D01*
X73888Y-46255D01*
X73914Y-46208D01*
X73940Y-46184D01*
X73992Y-46160D01*
X74071Y-46160D01*
X74123Y-46184D01*
X74150Y-46208D01*
X74176Y-46255D01*
X74176Y-46446D01*
X74438Y-45684D02*
X74438Y-45970D01*
X74438Y-45827D02*
X73888Y-45827D01*
X73966Y-45875D01*
X74019Y-45922D01*
X74045Y-45970D01*
X73888Y-45232D02*
X73888Y-45470D01*
X74150Y-45494D01*
X74123Y-45470D01*
X74097Y-45422D01*
X74097Y-45303D01*
X74123Y-45256D01*
X74150Y-45232D01*
X74202Y-45208D01*
X74333Y-45208D01*
X74385Y-45232D01*
X74411Y-45256D01*
X74438Y-45303D01*
X74438Y-45422D01*
X74411Y-45470D01*
X74385Y-45494D01*
X74438Y-37160D02*
X74176Y-37327D01*
X74438Y-37446D02*
X73888Y-37446D01*
X73888Y-37255D01*
X73914Y-37208D01*
X73940Y-37184D01*
X73992Y-37160D01*
X74071Y-37160D01*
X74123Y-37184D01*
X74150Y-37208D01*
X74176Y-37255D01*
X74176Y-37446D01*
X74438Y-36684D02*
X74438Y-36970D01*
X74438Y-36827D02*
X73888Y-36827D01*
X73966Y-36875D01*
X74019Y-36922D01*
X74045Y-36970D01*
X74071Y-36256D02*
X74438Y-36256D01*
X73861Y-36375D02*
X74254Y-36494D01*
X74254Y-36184D01*
X42938Y-37160D02*
X42676Y-37327D01*
X42938Y-37446D02*
X42388Y-37446D01*
X42388Y-37255D01*
X42414Y-37208D01*
X42440Y-37184D01*
X42492Y-37160D01*
X42571Y-37160D01*
X42623Y-37184D01*
X42650Y-37208D01*
X42676Y-37255D01*
X42676Y-37446D01*
X42938Y-36684D02*
X42938Y-36970D01*
X42938Y-36827D02*
X42388Y-36827D01*
X42466Y-36875D01*
X42519Y-36922D01*
X42545Y-36970D01*
X42388Y-36518D02*
X42388Y-36208D01*
X42597Y-36375D01*
X42597Y-36303D01*
X42623Y-36256D01*
X42650Y-36232D01*
X42702Y-36208D01*
X42833Y-36208D01*
X42885Y-36232D01*
X42911Y-36256D01*
X42938Y-36303D01*
X42938Y-36446D01*
X42911Y-36494D01*
X42885Y-36518D01*
X42938Y-46160D02*
X42676Y-46327D01*
X42938Y-46446D02*
X42388Y-46446D01*
X42388Y-46255D01*
X42414Y-46208D01*
X42440Y-46184D01*
X42492Y-46160D01*
X42571Y-46160D01*
X42623Y-46184D01*
X42650Y-46208D01*
X42676Y-46255D01*
X42676Y-46446D01*
X42938Y-45684D02*
X42938Y-45970D01*
X42938Y-45827D02*
X42388Y-45827D01*
X42466Y-45875D01*
X42519Y-45922D01*
X42545Y-45970D01*
X42938Y-45208D02*
X42938Y-45494D01*
X42938Y-45351D02*
X42388Y-45351D01*
X42466Y-45399D01*
X42519Y-45446D01*
X42545Y-45494D01*
X53144Y-57312D02*
X52977Y-57050D01*
X52858Y-57312D02*
X52858Y-56762D01*
X53049Y-56762D01*
X53096Y-56788D01*
X53120Y-56814D01*
X53144Y-56866D01*
X53144Y-56945D01*
X53120Y-56997D01*
X53096Y-57024D01*
X53049Y-57050D01*
X52858Y-57050D01*
X53620Y-57312D02*
X53334Y-57312D01*
X53477Y-57312D02*
X53477Y-56762D01*
X53429Y-56840D01*
X53382Y-56893D01*
X53334Y-56919D01*
X53858Y-57312D02*
X53953Y-57312D01*
X54001Y-57285D01*
X54025Y-57259D01*
X54072Y-57181D01*
X54096Y-57076D01*
X54096Y-56866D01*
X54072Y-56814D01*
X54048Y-56788D01*
X54001Y-56762D01*
X53905Y-56762D01*
X53858Y-56788D01*
X53834Y-56814D01*
X53810Y-56866D01*
X53810Y-56997D01*
X53834Y-57050D01*
X53858Y-57076D01*
X53905Y-57102D01*
X54001Y-57102D01*
X54048Y-57076D01*
X54072Y-57050D01*
X54096Y-56997D01*
G54D23*
X43776Y-31082D02*
X43776Y-30482D01*
X44247Y-31025D02*
X44226Y-31053D01*
X44162Y-31082D01*
X44119Y-31082D01*
X44054Y-31053D01*
X44012Y-30996D01*
X43990Y-30939D01*
X43969Y-30825D01*
X43969Y-30739D01*
X43990Y-30625D01*
X44012Y-30568D01*
X44054Y-30510D01*
X44119Y-30482D01*
X44162Y-30482D01*
X44226Y-30510D01*
X44247Y-30539D01*
X44397Y-30482D02*
X44676Y-30482D01*
X44526Y-30710D01*
X44590Y-30710D01*
X44633Y-30739D01*
X44654Y-30768D01*
X44676Y-30825D01*
X44676Y-30968D01*
X44654Y-31025D01*
X44633Y-31053D01*
X44590Y-31082D01*
X44462Y-31082D01*
X44419Y-31053D01*
X44397Y-31025D01*
G54D11*
M02*
