<?xml version="1.0" standalone="no"?>
<!DOCTYPE svg PUBLIC "-//W3C//DTD SVG 1.1//EN" 
"http://www.w3.org/Graphics/SVG/1.1/DTD/svg11.dtd"> 
<svg
  xmlns="http://www.w3.org/2000/svg"
  version="1.1"
  width="11.693in" height="8.268in" viewBox="0 0 116930 82680 "
>
  <title>SVG Picture created as kom-brd.svg </title>
  <desc>Picture generated by wxSVG v0101 </desc>
  <g style="fill:black; stroke:black; stroke-width:1">
</g>
<g style="fill:#000000; fill-opacity:0.0; 
  stroke:#A00000; stroke-linecap:round; stroke-linejoin:round; stroke-opacity:1.0; stroke-opacity:1.0; stroke-width:60" 
   transform="translate(0 0) scale(1 1)">
<polygon style="fill-rule:evenodd; " 
points="4000,4000
4000,4000
4000,78680
112930,78680
112930,4000
" /> 
<polygon style="fill-rule:evenodd; " 
points="4700,4700
4700,4700
4700,77980
112230,77980
112230,4700
" /> 
<path d="M25780 4000 L25780 4700" /> 
</g>
<g style="fill:#A00000; fill-opacity:0.0; 
  stroke:#A00000; stroke-linecap:round; stroke-linejoin:round; stroke-opacity:1.0; stroke-opacity:1.0; stroke-width:60" 
   transform="translate(0 0) scale(1 1)">
<path d="M15033 4552 L14747 4552" /> 
<g style = "stroke-linecap:round;" > 
<path d="M14747 4552 L14747 4552" /> 
</g><path d="M14890 4552 L14890 4052" /> 
<path d="M14890 4052 L14842 4124" /> 
<path d="M14842 4124 L14795 4171" /> 
<path d="M14795 4171 L14747 4195" /> 
<g style = "stroke-linecap:round;" > 
<path d="M14747 4195 L14747 4195" /> 
</g><path d="M25780 78680 L25780 77980" /> 
<path d="M15033 78532 L14747 78532" /> 
<g style = "stroke-linecap:round;" > 
<path d="M14747 78532 L14747 78532" /> 
</g><path d="M14890 78532 L14890 78032" /> 
<path d="M14890 78032 L14842 78104" /> 
<path d="M14842 78104 L14795 78151" /> 
<path d="M14795 78151 L14747 78175" /> 
<g style = "stroke-linecap:round;" > 
<path d="M14747 78175 L14747 78175" /> 
</g><path d="M47560 4000 L47560 4700" /> 
<path d="M36527 4100 L36551 4076" /> 
<path d="M36551 4076 L36599 4052" /> 
<path d="M36599 4052 L36718 4052" /> 
<path d="M36718 4052 L36765 4076" /> 
<path d="M36765 4076 L36789 4100" /> 
<path d="M36789 4100 L36813 4148" /> 
<path d="M36813 4148 L36813 4195" /> 
<path d="M36813 4195 L36789 4267" /> 
<path d="M36789 4267 L36503 4552" /> 
<path d="M36503 4552 L36813 4552" /> 
<g style = "stroke-linecap:round;" > 
<path d="M36813 4552 L36813 4552" /> 
</g><path d="M47560 78680 L47560 77980" /> 
<path d="M36527 78080 L36551 78056" /> 
<path d="M36551 78056 L36599 78032" /> 
<path d="M36599 78032 L36718 78032" /> 
<path d="M36718 78032 L36765 78056" /> 
<path d="M36765 78056 L36789 78080" /> 
<path d="M36789 78080 L36813 78128" /> 
<path d="M36813 78128 L36813 78175" /> 
<path d="M36813 78175 L36789 78247" /> 
<path d="M36789 78247 L36503 78532" /> 
<path d="M36503 78532 L36813 78532" /> 
<g style = "stroke-linecap:round;" > 
<path d="M36813 78532 L36813 78532" /> 
</g><path d="M69340 4000 L69340 4700" /> 
<path d="M58283 4052 L58593 4052" /> 
<path d="M58593 4052 L58426 4243" /> 
<path d="M58426 4243 L58498 4243" /> 
<path d="M58498 4243 L58545 4267" /> 
<path d="M58545 4267 L58569 4290" /> 
<path d="M58569 4290 L58593 4338" /> 
<path d="M58593 4338 L58593 4457" /> 
<path d="M58593 4457 L58569 4505" /> 
<path d="M58569 4505 L58545 4529" /> 
<path d="M58545 4529 L58498 4552" /> 
<path d="M58498 4552 L58355 4552" /> 
<path d="M58355 4552 L58307 4529" /> 
<path d="M58307 4529 L58283 4505" /> 
<g style = "stroke-linecap:round;" > 
<path d="M58283 4505 L58283 4505" /> 
</g><path d="M69340 78680 L69340 77980" /> 
<path d="M58283 78032 L58593 78032" /> 
<path d="M58593 78032 L58426 78223" /> 
<path d="M58426 78223 L58498 78223" /> 
<path d="M58498 78223 L58545 78247" /> 
<path d="M58545 78247 L58569 78270" /> 
<path d="M58569 78270 L58593 78318" /> 
<path d="M58593 78318 L58593 78437" /> 
<path d="M58593 78437 L58569 78485" /> 
<path d="M58569 78485 L58545 78509" /> 
<path d="M58545 78509 L58498 78532" /> 
<path d="M58498 78532 L58355 78532" /> 
<path d="M58355 78532 L58307 78509" /> 
<path d="M58307 78509 L58283 78485" /> 
<g style = "stroke-linecap:round;" > 
<path d="M58283 78485 L58283 78485" /> 
</g><path d="M91120 4000 L91120 4700" /> 
<path d="M80325 4219 L80325 4552" /> 
<g style = "stroke-linecap:round;" > 
<path d="M80325 4552 L80325 4552" /> 
</g><path d="M80206 4029 L80087 4386" /> 
<path d="M80087 4386 L80397 4386" /> 
<g style = "stroke-linecap:round;" > 
<path d="M80397 4386 L80397 4386" /> 
</g><path d="M91120 78680 L91120 77980" /> 
<path d="M80325 78199 L80325 78532" /> 
<g style = "stroke-linecap:round;" > 
<path d="M80325 78532 L80325 78532" /> 
</g><path d="M80206 78009 L80087 78366" /> 
<path d="M80087 78366 L80397 78366" /> 
<g style = "stroke-linecap:round;" > 
<path d="M80397 78366 L80397 78366" /> 
</g><path d="M102129 4052 L101891 4052" /> 
<path d="M101891 4052 L101867 4290" /> 
<path d="M101867 4290 L101891 4267" /> 
<path d="M101891 4267 L101939 4243" /> 
<path d="M101939 4243 L102058 4243" /> 
<path d="M102058 4243 L102105 4267" /> 
<path d="M102105 4267 L102129 4290" /> 
<path d="M102129 4290 L102153 4338" /> 
<path d="M102153 4338 L102153 4457" /> 
<path d="M102153 4457 L102129 4505" /> 
<path d="M102129 4505 L102105 4529" /> 
<path d="M102105 4529 L102058 4552" /> 
<path d="M102058 4552 L101939 4552" /> 
<path d="M101939 4552 L101891 4529" /> 
<path d="M101891 4529 L101867 4505" /> 
<g style = "stroke-linecap:round;" > 
<path d="M101867 4505 L101867 4505" /> 
</g><path d="M102129 78032 L101891 78032" /> 
<path d="M101891 78032 L101867 78270" /> 
<path d="M101867 78270 L101891 78247" /> 
<path d="M101891 78247 L101939 78223" /> 
<path d="M101939 78223 L102058 78223" /> 
<path d="M102058 78223 L102105 78247" /> 
<path d="M102105 78247 L102129 78270" /> 
<path d="M102129 78270 L102153 78318" /> 
<path d="M102153 78318 L102153 78437" /> 
<path d="M102153 78437 L102129 78485" /> 
<path d="M102129 78485 L102105 78509" /> 
<path d="M102105 78509 L102058 78532" /> 
<path d="M102058 78532 L101939 78532" /> 
<path d="M101939 78532 L101891 78509" /> 
<path d="M101891 78509 L101867 78485" /> 
<g style = "stroke-linecap:round;" > 
<path d="M101867 78485 L101867 78485" /> 
</g><path d="M4000 28890 L4700 28890" /> 
<path d="M4231 16510 L4469 16510" /> 
<g style = "stroke-linecap:round;" > 
<path d="M4469 16510 L4469 16510" /> 
</g><path d="M4184 16652 L4350 16152" /> 
<path d="M4350 16152 L4517 16652" /> 
<g style = "stroke-linecap:round;" > 
<path d="M4517 16652 L4517 16652" /> 
</g><path d="M112930 28890 L112230 28890" /> 
<path d="M112461 18060 L112699 18060" /> 
<g style = "stroke-linecap:round;" > 
<path d="M112699 18060 L112699 18060" /> 
</g><path d="M112414 18202 L112580 17702" /> 
<path d="M112580 17702 L112747 18202" /> 
<g style = "stroke-linecap:round;" > 
<path d="M112747 18202 L112747 18202" /> 
</g><path d="M4000 53780 L4700 53780" /> 
<path d="M4386 41280 L4457 41304" /> 
<path d="M4457 41304 L4481 41328" /> 
<path d="M4481 41328 L4505 41376" /> 
<path d="M4505 41376 L4505 41447" /> 
<path d="M4505 41447 L4481 41495" /> 
<path d="M4481 41495 L4457 41519" /> 
<path d="M4457 41519 L4410 41542" /> 
<path d="M4410 41542 L4219 41542" /> 
<path d="M4219 41542 L4219 41042" /> 
<path d="M4219 41042 L4386 41042" /> 
<path d="M4386 41042 L4433 41066" /> 
<path d="M4433 41066 L4457 41090" /> 
<path d="M4457 41090 L4481 41138" /> 
<path d="M4481 41138 L4481 41185" /> 
<path d="M4481 41185 L4457 41233" /> 
<path d="M4457 41233 L4433 41257" /> 
<path d="M4433 41257 L4386 41280" /> 
<path d="M4386 41280 L4219 41280" /> 
<g style = "stroke-linecap:round;" > 
<path d="M4219 41280 L4219 41280" /> 
</g><path d="M112930 53780 L112230 53780" /> 
<path d="M112616 42830 L112687 42854" /> 
<path d="M112687 42854 L112711 42878" /> 
<path d="M112711 42878 L112735 42926" /> 
<path d="M112735 42926 L112735 42997" /> 
<path d="M112735 42997 L112711 43045" /> 
<path d="M112711 43045 L112687 43069" /> 
<path d="M112687 43069 L112640 43092" /> 
<path d="M112640 43092 L112449 43092" /> 
<path d="M112449 43092 L112449 42592" /> 
<path d="M112449 42592 L112616 42592" /> 
<path d="M112616 42592 L112663 42616" /> 
<path d="M112663 42616 L112687 42640" /> 
<path d="M112687 42640 L112711 42688" /> 
<path d="M112711 42688 L112711 42735" /> 
<path d="M112711 42735 L112687 42783" /> 
<path d="M112687 42783 L112663 42807" /> 
<path d="M112663 42807 L112616 42830" /> 
<path d="M112616 42830 L112449 42830" /> 
<g style = "stroke-linecap:round;" > 
<path d="M112449 42830 L112449 42830" /> 
</g><path d="M4505 66385 L4481 66409" /> 
<path d="M4481 66409 L4410 66432" /> 
<path d="M4410 66432 L4362 66432" /> 
<path d="M4362 66432 L4290 66409" /> 
<path d="M4290 66409 L4243 66361" /> 
<path d="M4243 66361 L4219 66313" /> 
<path d="M4219 66313 L4195 66218" /> 
<path d="M4195 66218 L4195 66147" /> 
<path d="M4195 66147 L4219 66051" /> 
<path d="M4219 66051 L4243 66004" /> 
<path d="M4243 66004 L4290 65956" /> 
<path d="M4290 65956 L4362 65932" /> 
<path d="M4362 65932 L4410 65932" /> 
<path d="M4410 65932 L4481 65956" /> 
<path d="M4481 65956 L4505 65980" /> 
<g style = "stroke-linecap:round;" > 
<path d="M4505 65980 L4505 65980" /> 
</g><path d="M112735 67935 L112711 67959" /> 
<path d="M112711 67959 L112640 67982" /> 
<path d="M112640 67982 L112592 67982" /> 
<path d="M112592 67982 L112520 67959" /> 
<path d="M112520 67959 L112473 67911" /> 
<path d="M112473 67911 L112449 67863" /> 
<path d="M112449 67863 L112425 67768" /> 
<path d="M112425 67768 L112425 67697" /> 
<path d="M112425 67697 L112449 67601" /> 
<path d="M112449 67601 L112473 67554" /> 
<path d="M112473 67554 L112520 67506" /> 
<path d="M112520 67506 L112592 67482" /> 
<path d="M112592 67482 L112640 67482" /> 
<path d="M112640 67482 L112711 67506" /> 
<path d="M112711 67506 L112735 67530" /> 
<g style = "stroke-linecap:round;" > 
<path d="M112735 67530 L112735 67530" /> 
</g><path d="M79373 76423 L79373 75823" /> 
<path d="M79373 75823 L79516 75823" /> 
<path d="M79516 75823 L79601 75851" /> 
<path d="M79601 75851 L79659 75909" /> 
<path d="M79659 75909 L79687 75966" /> 
<path d="M79687 75966 L79716 76080" /> 
<path d="M79716 76080 L79716 76166" /> 
<path d="M79716 76166 L79687 76280" /> 
<path d="M79687 76280 L79659 76337" /> 
<path d="M79659 76337 L79601 76394" /> 
<path d="M79601 76394 L79516 76423" /> 
<path d="M79516 76423 L79373 76423" /> 
<path d="M80230 76423 L80230 76109" /> 
<path d="M80230 76109 L80201 76051" /> 
<path d="M80201 76051 L80144 76023" /> 
<path d="M80144 76023 L80030 76023" /> 
<path d="M80030 76023 L79973 76051" /> 
<g style = "stroke-linecap:round;" > 
<path d="M79973 76051 L79973 76051" /> 
</g><path d="M80230 76394 L80173 76423" /> 
<path d="M80173 76423 L80030 76423" /> 
<path d="M80030 76423 L79973 76394" /> 
<path d="M79973 76394 L79944 76337" /> 
<path d="M79944 76337 L79944 76280" /> 
<path d="M79944 76280 L79973 76223" /> 
<path d="M79973 76223 L80030 76194" /> 
<path d="M80030 76194 L80173 76194" /> 
<path d="M80173 76194 L80230 76166" /> 
<g style = "stroke-linecap:round;" > 
<path d="M80230 76166 L80230 76166" /> 
</g><path d="M80430 76023 L80659 76023" /> 
<g style = "stroke-linecap:round;" > 
<path d="M80659 76023 L80659 76023" /> 
</g><path d="M80516 75823 L80516 76337" /> 
<path d="M80516 76337 L80544 76394" /> 
<path d="M80544 76394 L80602 76423" /> 
<path d="M80602 76423 L80659 76423" /> 
<g style = "stroke-linecap:round;" > 
<path d="M80659 76423 L80659 76423" /> 
</g><path d="M81087 76394 L81030 76423" /> 
<path d="M81030 76423 L80916 76423" /> 
<path d="M80916 76423 L80859 76394" /> 
<path d="M80859 76394 L80830 76337" /> 
<path d="M80830 76337 L80830 76109" /> 
<path d="M80830 76109 L80859 76051" /> 
<path d="M80859 76051 L80916 76023" /> 
<path d="M80916 76023 L81030 76023" /> 
<path d="M81030 76023 L81087 76051" /> 
<path d="M81087 76051 L81116 76109" /> 
<path d="M81116 76109 L81116 76166" /> 
<path d="M81116 76166 L80830 76223" /> 
<g style = "stroke-linecap:round;" > 
<path d="M80830 76223 L80830 76223" /> 
</g><path d="M81373 76366 L81401 76394" /> 
<path d="M81401 76394 L81373 76423" /> 
<path d="M81373 76423 L81344 76394" /> 
<path d="M81344 76394 L81373 76366" /> 
<path d="M81373 76366 L81373 76423" /> 
<g style = "stroke-linecap:round;" > 
<path d="M81373 76423 L81373 76423" /> 
</g><path d="M81373 76051 L81401 76080" /> 
<path d="M81401 76080 L81373 76109" /> 
<path d="M81373 76109 L81344 76080" /> 
<path d="M81344 76080 L81373 76051" /> 
<path d="M81373 76051 L81373 76109" /> 
<g style = "stroke-linecap:round;" > 
<path d="M81373 76109 L81373 76109" /> 
</g><path d="M82087 75880 L82116 75851" /> 
<path d="M82116 75851 L82173 75823" /> 
<path d="M82173 75823 L82316 75823" /> 
<path d="M82316 75823 L82373 75851" /> 
<path d="M82373 75851 L82402 75880" /> 
<path d="M82402 75880 L82430 75937" /> 
<path d="M82430 75937 L82430 75994" /> 
<path d="M82430 75994 L82402 76080" /> 
<path d="M82402 76080 L82059 76423" /> 
<path d="M82059 76423 L82430 76423" /> 
<g style = "stroke-linecap:round;" > 
<path d="M82430 76423 L82430 76423" /> 
</g><path d="M82944 75823 L82830 75823" /> 
<path d="M82830 75823 L82773 75851" /> 
<path d="M82773 75851 L82744 75880" /> 
<path d="M82744 75880 L82687 75966" /> 
<path d="M82687 75966 L82658 76080" /> 
<path d="M82658 76080 L82658 76309" /> 
<path d="M82658 76309 L82687 76366" /> 
<path d="M82687 76366 L82715 76394" /> 
<path d="M82715 76394 L82773 76423" /> 
<path d="M82773 76423 L82887 76423" /> 
<path d="M82887 76423 L82944 76394" /> 
<path d="M82944 76394 L82973 76366" /> 
<path d="M82973 76366 L83001 76309" /> 
<path d="M83001 76309 L83001 76166" /> 
<path d="M83001 76166 L82973 76109" /> 
<path d="M82973 76109 L82944 76080" /> 
<path d="M82944 76080 L82887 76051" /> 
<path d="M82887 76051 L82773 76051" /> 
<path d="M82773 76051 L82715 76080" /> 
<path d="M82715 76080 L82687 76109" /> 
<path d="M82687 76109 L82658 76166" /> 
<g style = "stroke-linecap:round;" > 
<path d="M82658 76166 L82658 76166" /> 
</g><path d="M83715 76023 L83715 76537" /> 
<path d="M83715 76537 L83686 76594" /> 
<path d="M83686 76594 L83629 76623" /> 
<path d="M83629 76623 L83601 76623" /> 
<g style = "stroke-linecap:round;" > 
<path d="M83601 76623 L83601 76623" /> 
</g><path d="M83715 75823 L83686 75851" /> 
<path d="M83686 75851 L83715 75880" /> 
<path d="M83715 75880 L83743 75851" /> 
<path d="M83743 75851 L83715 75823" /> 
<path d="M83715 75823 L83715 75880" /> 
<g style = "stroke-linecap:round;" > 
<path d="M83715 75880 L83715 75880" /> 
</g><path d="M84258 76023 L84258 76423" /> 
<g style = "stroke-linecap:round;" > 
<path d="M84258 76423 L84258 76423" /> 
</g><path d="M84001 76023 L84001 76337" /> 
<path d="M84001 76337 L84029 76394" /> 
<path d="M84029 76394 L84087 76423" /> 
<path d="M84087 76423 L84172 76423" /> 
<path d="M84172 76423 L84229 76394" /> 
<path d="M84229 76394 L84258 76366" /> 
<g style = "stroke-linecap:round;" > 
<path d="M84258 76366 L84258 76366" /> 
</g><path d="M84544 76023 L84544 76423" /> 
<g style = "stroke-linecap:round;" > 
<path d="M84544 76423 L84544 76423" /> 
</g><path d="M84544 76080 L84572 76051" /> 
<path d="M84572 76051 L84630 76023" /> 
<path d="M84630 76023 L84715 76023" /> 
<path d="M84715 76023 L84772 76051" /> 
<path d="M84772 76051 L84801 76109" /> 
<path d="M84801 76109 L84801 76423" /> 
<g style = "stroke-linecap:round;" > 
<path d="M84801 76423 L84801 76423" /> 
</g><path d="M85515 75880 L85544 75851" /> 
<path d="M85544 75851 L85601 75823" /> 
<path d="M85601 75823 L85744 75823" /> 
<path d="M85744 75823 L85801 75851" /> 
<path d="M85801 75851 L85830 75880" /> 
<path d="M85830 75880 L85858 75937" /> 
<path d="M85858 75937 L85858 75994" /> 
<path d="M85858 75994 L85830 76080" /> 
<path d="M85830 76080 L85487 76423" /> 
<path d="M85487 76423 L85858 76423" /> 
<g style = "stroke-linecap:round;" > 
<path d="M85858 76423 L85858 76423" /> 
</g><path d="M86229 75823 L86286 75823" /> 
<path d="M86286 75823 L86343 75851" /> 
<path d="M86343 75851 L86372 75880" /> 
<path d="M86372 75880 L86401 75937" /> 
<path d="M86401 75937 L86429 76051" /> 
<path d="M86429 76051 L86429 76194" /> 
<path d="M86429 76194 L86401 76309" /> 
<path d="M86401 76309 L86372 76366" /> 
<path d="M86372 76366 L86343 76394" /> 
<path d="M86343 76394 L86286 76423" /> 
<path d="M86286 76423 L86229 76423" /> 
<path d="M86229 76423 L86172 76394" /> 
<path d="M86172 76394 L86143 76366" /> 
<path d="M86143 76366 L86115 76309" /> 
<path d="M86115 76309 L86086 76194" /> 
<path d="M86086 76194 L86086 76051" /> 
<path d="M86086 76051 L86115 75937" /> 
<path d="M86115 75937 L86143 75880" /> 
<path d="M86143 75880 L86172 75851" /> 
<path d="M86172 75851 L86229 75823" /> 
<path d="M87000 76423 L86657 76423" /> 
<g style = "stroke-linecap:round;" > 
<path d="M86657 76423 L86657 76423" /> 
</g><path d="M86829 76423 L86829 75823" /> 
<path d="M86829 75823 L86772 75909" /> 
<path d="M86772 75909 L86714 75966" /> 
<path d="M86714 75966 L86657 75994" /> 
<g style = "stroke-linecap:round;" > 
<path d="M86657 75994 L86657 75994" /> 
</g><path d="M87228 75880 L87257 75851" /> 
<path d="M87257 75851 L87314 75823" /> 
<path d="M87314 75823 L87457 75823" /> 
<path d="M87457 75823 L87514 75851" /> 
<path d="M87514 75851 L87543 75880" /> 
<path d="M87543 75880 L87571 75937" /> 
<path d="M87571 75937 L87571 75994" /> 
<path d="M87571 75994 L87543 76080" /> 
<path d="M87543 76080 L87200 76423" /> 
<path d="M87200 76423 L87571 76423" /> 
<g style = "stroke-linecap:round;" > 
<path d="M87571 76423 L87571 76423" /> 
</g><path d="M70973 77623 L70973 77023" /> 
<g style = "stroke-linecap:round;" > 
<path d="M70973 77023 L70973 77023" /> 
</g><path d="M71316 77623 L71059 77280" /> 
<g style = "stroke-linecap:round;" > 
<path d="M71059 77280 L71059 77280" /> 
</g><path d="M71316 77023 L70973 77366" /> 
<g style = "stroke-linecap:round;" > 
<path d="M70973 77366 L70973 77366" /> 
</g><path d="M71573 77623 L71573 77223" /> 
<g style = "stroke-linecap:round;" > 
<path d="M71573 77223 L71573 77223" /> 
</g><path d="M71573 77023 L71544 77051" /> 
<path d="M71544 77051 L71573 77080" /> 
<path d="M71573 77080 L71601 77051" /> 
<path d="M71601 77051 L71573 77023" /> 
<path d="M71573 77023 L71573 77080" /> 
<g style = "stroke-linecap:round;" > 
<path d="M71573 77080 L71573 77080" /> 
</g><path d="M72202 77566 L72173 77594" /> 
<path d="M72173 77594 L72087 77623" /> 
<path d="M72087 77623 L72030 77623" /> 
<path d="M72030 77623 L71945 77594" /> 
<path d="M71945 77594 L71887 77537" /> 
<path d="M71887 77537 L71859 77480" /> 
<path d="M71859 77480 L71830 77366" /> 
<path d="M71830 77366 L71830 77280" /> 
<path d="M71830 77280 L71859 77166" /> 
<path d="M71859 77166 L71887 77109" /> 
<path d="M71887 77109 L71945 77051" /> 
<path d="M71945 77051 L72030 77023" /> 
<path d="M72030 77023 L72087 77023" /> 
<path d="M72087 77023 L72173 77051" /> 
<path d="M72173 77051 L72202 77080" /> 
<g style = "stroke-linecap:round;" > 
<path d="M72202 77080 L72202 77080" /> 
</g><path d="M72716 77623 L72716 77309" /> 
<path d="M72716 77309 L72687 77251" /> 
<path d="M72687 77251 L72630 77223" /> 
<path d="M72630 77223 L72516 77223" /> 
<path d="M72516 77223 L72459 77251" /> 
<g style = "stroke-linecap:round;" > 
<path d="M72459 77251 L72459 77251" /> 
</g><path d="M72716 77594 L72659 77623" /> 
<path d="M72659 77623 L72516 77623" /> 
<path d="M72516 77623 L72459 77594" /> 
<path d="M72459 77594 L72430 77537" /> 
<path d="M72430 77537 L72430 77480" /> 
<path d="M72430 77480 L72459 77423" /> 
<path d="M72459 77423 L72516 77394" /> 
<path d="M72516 77394 L72659 77394" /> 
<path d="M72659 77394 L72716 77366" /> 
<g style = "stroke-linecap:round;" > 
<path d="M72716 77366 L72716 77366" /> 
</g><path d="M73259 77623 L73259 77023" /> 
<g style = "stroke-linecap:round;" > 
<path d="M73259 77023 L73259 77023" /> 
</g><path d="M73259 77594 L73202 77623" /> 
<path d="M73202 77623 L73088 77623" /> 
<path d="M73088 77623 L73030 77594" /> 
<path d="M73030 77594 L73002 77566" /> 
<path d="M73002 77566 L72973 77509" /> 
<path d="M72973 77509 L72973 77337" /> 
<path d="M72973 77337 L73002 77280" /> 
<path d="M73002 77280 L73030 77251" /> 
<path d="M73030 77251 L73088 77223" /> 
<path d="M73088 77223 L73202 77223" /> 
<path d="M73202 77223 L73259 77251" /> 
<g style = "stroke-linecap:round;" > 
<path d="M73259 77251 L73259 77251" /> 
</g><path d="M74002 77309 L74202 77309" /> 
<g style = "stroke-linecap:round;" > 
<path d="M74202 77309 L74202 77309" /> 
</g><path d="M74288 77623 L74002 77623" /> 
<path d="M74002 77623 L74002 77023" /> 
<path d="M74002 77023 L74288 77023" /> 
<g style = "stroke-linecap:round;" > 
<path d="M74288 77023 L74288 77023" /> 
</g><path d="M74545 77566 L74573 77594" /> 
<path d="M74573 77594 L74545 77623" /> 
<path d="M74545 77623 L74516 77594" /> 
<path d="M74516 77594 L74545 77566" /> 
<path d="M74545 77566 L74545 77623" /> 
<g style = "stroke-linecap:round;" > 
<path d="M74545 77623 L74545 77623" /> 
</g><path d="M74831 77623 L74831 77023" /> 
<path d="M74831 77023 L74974 77023" /> 
<path d="M74974 77023 L75059 77051" /> 
<path d="M75059 77051 L75117 77109" /> 
<path d="M75117 77109 L75145 77166" /> 
<path d="M75145 77166 L75174 77280" /> 
<path d="M75174 77280 L75174 77366" /> 
<path d="M75174 77366 L75145 77480" /> 
<path d="M75145 77480 L75117 77537" /> 
<path d="M75117 77537 L75059 77594" /> 
<path d="M75059 77594 L74974 77623" /> 
<path d="M74974 77623 L74831 77623" /> 
<path d="M75431 77566 L75459 77594" /> 
<path d="M75459 77594 L75431 77623" /> 
<path d="M75431 77623 L75402 77594" /> 
<path d="M75402 77594 L75431 77566" /> 
<path d="M75431 77566 L75431 77623" /> 
<g style = "stroke-linecap:round;" > 
<path d="M75431 77623 L75431 77623" /> 
</g><path d="M75688 77451 L75974 77451" /> 
<g style = "stroke-linecap:round;" > 
<path d="M75974 77451 L75974 77451" /> 
</g><path d="M75631 77623 L75831 77023" /> 
<path d="M75831 77023 L76031 77623" /> 
<g style = "stroke-linecap:round;" > 
<path d="M76031 77623 L76031 77623" /> 
</g><path d="M76231 77566 L76259 77594" /> 
<path d="M76259 77594 L76231 77623" /> 
<path d="M76231 77623 L76202 77594" /> 
<path d="M76202 77594 L76231 77566" /> 
<path d="M76231 77566 L76231 77623" /> 
<g style = "stroke-linecap:round;" > 
<path d="M76231 77623 L76231 77623" /> 
</g><path d="M77431 77223 L77431 77823" /> 
<g style = "stroke-linecap:round;" > 
<path d="M77431 77823 L77431 77823" /> 
</g><path d="M77431 77251 L77488 77223" /> 
<path d="M77488 77223 L77602 77223" /> 
<path d="M77602 77223 L77659 77251" /> 
<path d="M77659 77251 L77688 77280" /> 
<path d="M77688 77280 L77717 77337" /> 
<path d="M77717 77337 L77717 77509" /> 
<path d="M77717 77509 L77688 77566" /> 
<path d="M77688 77566 L77659 77594" /> 
<path d="M77659 77594 L77602 77623" /> 
<path d="M77602 77623 L77488 77623" /> 
<path d="M77488 77623 L77431 77594" /> 
<g style = "stroke-linecap:round;" > 
<path d="M77431 77594 L77431 77594" /> 
</g><path d="M78231 77594 L78174 77623" /> 
<path d="M78174 77623 L78060 77623" /> 
<path d="M78060 77623 L78002 77594" /> 
<path d="M78002 77594 L77974 77566" /> 
<path d="M77974 77566 L77945 77509" /> 
<path d="M77945 77509 L77945 77337" /> 
<path d="M77945 77337 L77974 77280" /> 
<path d="M77974 77280 L78002 77251" /> 
<path d="M78002 77251 L78060 77223" /> 
<path d="M78060 77223 L78174 77223" /> 
<path d="M78174 77223 L78231 77251" /> 
<g style = "stroke-linecap:round;" > 
<path d="M78231 77251 L78231 77251" /> 
</g><path d="M78488 77623 L78488 77023" /> 
<g style = "stroke-linecap:round;" > 
<path d="M78488 77023 L78488 77023" /> 
</g><path d="M78488 77251 L78545 77223" /> 
<path d="M78545 77223 L78659 77223" /> 
<path d="M78659 77223 L78716 77251" /> 
<path d="M78716 77251 L78745 77280" /> 
<path d="M78745 77280 L78774 77337" /> 
<path d="M78774 77337 L78774 77509" /> 
<path d="M78774 77509 L78745 77566" /> 
<path d="M78745 77566 L78716 77594" /> 
<path d="M78716 77594 L78659 77623" /> 
<path d="M78659 77623 L78545 77623" /> 
<path d="M78545 77623 L78488 77594" /> 
<g style = "stroke-linecap:round;" > 
<path d="M78488 77594 L78488 77594" /> 
</g><path d="M79031 77223 L79031 77623" /> 
<g style = "stroke-linecap:round;" > 
<path d="M79031 77623 L79031 77623" /> 
</g><path d="M79031 77280 L79059 77251" /> 
<path d="M79059 77251 L79117 77223" /> 
<path d="M79117 77223 L79202 77223" /> 
<path d="M79202 77223 L79259 77251" /> 
<path d="M79259 77251 L79288 77309" /> 
<path d="M79288 77309 L79288 77623" /> 
<g style = "stroke-linecap:round;" > 
<path d="M79288 77623 L79288 77623" /> 
</g><path d="M79802 77594 L79745 77623" /> 
<path d="M79745 77623 L79631 77623" /> 
<path d="M79631 77623 L79574 77594" /> 
<path d="M79574 77594 L79545 77537" /> 
<path d="M79545 77537 L79545 77309" /> 
<path d="M79545 77309 L79574 77251" /> 
<path d="M79574 77251 L79631 77223" /> 
<path d="M79631 77223 L79745 77223" /> 
<path d="M79745 77223 L79802 77251" /> 
<path d="M79802 77251 L79831 77309" /> 
<path d="M79831 77309 L79831 77366" /> 
<path d="M79831 77366 L79545 77423" /> 
<g style = "stroke-linecap:round;" > 
<path d="M79545 77423 L79545 77423" /> 
</g><path d="M80031 77223 L80145 77623" /> 
<path d="M80145 77623 L80259 77337" /> 
<path d="M80259 77337 L80374 77623" /> 
<path d="M80374 77623 L80488 77223" /> 
<g style = "stroke-linecap:round;" > 
<path d="M80488 77223 L80488 77223" /> 
</g><path d="M81345 77851 L81317 77823" /> 
<path d="M81317 77823 L81260 77737" /> 
<path d="M81260 77737 L81231 77680" /> 
<path d="M81231 77680 L81202 77594" /> 
<path d="M81202 77594 L81174 77451" /> 
<path d="M81174 77451 L81174 77337" /> 
<path d="M81174 77337 L81202 77194" /> 
<path d="M81202 77194 L81231 77109" /> 
<path d="M81231 77109 L81260 77051" /> 
<path d="M81260 77051 L81317 76966" /> 
<path d="M81317 76966 L81345 76937" /> 
<g style = "stroke-linecap:round;" > 
<path d="M81345 76937 L81345 76937" /> 
</g><path d="M81545 77080 L81574 77051" /> 
<path d="M81574 77051 L81631 77023" /> 
<path d="M81631 77023 L81774 77023" /> 
<path d="M81774 77023 L81831 77051" /> 
<path d="M81831 77051 L81860 77080" /> 
<path d="M81860 77080 L81888 77137" /> 
<path d="M81888 77137 L81888 77194" /> 
<path d="M81888 77194 L81860 77280" /> 
<path d="M81860 77280 L81517 77623" /> 
<path d="M81517 77623 L81888 77623" /> 
<g style = "stroke-linecap:round;" > 
<path d="M81888 77623 L81888 77623" /> 
</g><path d="M82259 77023 L82316 77023" /> 
<path d="M82316 77023 L82373 77051" /> 
<path d="M82373 77051 L82402 77080" /> 
<path d="M82402 77080 L82431 77137" /> 
<path d="M82431 77137 L82459 77251" /> 
<path d="M82459 77251 L82459 77394" /> 
<path d="M82459 77394 L82431 77509" /> 
<path d="M82431 77509 L82402 77566" /> 
<path d="M82402 77566 L82373 77594" /> 
<path d="M82373 77594 L82316 77623" /> 
<path d="M82316 77623 L82259 77623" /> 
<path d="M82259 77623 L82202 77594" /> 
<path d="M82202 77594 L82173 77566" /> 
<path d="M82173 77566 L82145 77509" /> 
<path d="M82145 77509 L82116 77394" /> 
<path d="M82116 77394 L82116 77251" /> 
<path d="M82116 77251 L82145 77137" /> 
<path d="M82145 77137 L82173 77080" /> 
<path d="M82173 77080 L82202 77051" /> 
<path d="M82202 77051 L82259 77023" /> 
<path d="M83030 77623 L82687 77623" /> 
<g style = "stroke-linecap:round;" > 
<path d="M82687 77623 L82687 77623" /> 
</g><path d="M82859 77623 L82859 77023" /> 
<path d="M82859 77023 L82802 77109" /> 
<path d="M82802 77109 L82744 77166" /> 
<path d="M82744 77166 L82687 77194" /> 
<g style = "stroke-linecap:round;" > 
<path d="M82687 77194 L82687 77194" /> 
</g><path d="M83601 77623 L83258 77623" /> 
<g style = "stroke-linecap:round;" > 
<path d="M83258 77623 L83258 77623" /> 
</g><path d="M83430 77623 L83430 77023" /> 
<path d="M83430 77023 L83373 77109" /> 
<path d="M83373 77109 L83315 77166" /> 
<path d="M83315 77166 L83258 77194" /> 
<g style = "stroke-linecap:round;" > 
<path d="M83258 77194 L83258 77194" /> 
</g><path d="M83858 77394 L84315 77394" /> 
<g style = "stroke-linecap:round;" > 
<path d="M84315 77394 L84315 77394" /> 
</g><path d="M84601 77223 L84601 77623" /> 
<g style = "stroke-linecap:round;" > 
<path d="M84601 77623 L84601 77623" /> 
</g><path d="M84601 77280 L84629 77251" /> 
<path d="M84629 77251 L84687 77223" /> 
<path d="M84687 77223 L84772 77223" /> 
<path d="M84772 77223 L84829 77251" /> 
<path d="M84829 77251 L84858 77309" /> 
<path d="M84858 77309 L84858 77623" /> 
<g style = "stroke-linecap:round;" > 
<path d="M84858 77623 L84858 77623" /> 
</g><path d="M85230 77623 L85172 77594" /> 
<path d="M85172 77594 L85144 77566" /> 
<path d="M85144 77566 L85115 77509" /> 
<path d="M85115 77509 L85115 77337" /> 
<path d="M85115 77337 L85144 77280" /> 
<path d="M85144 77280 L85172 77251" /> 
<path d="M85172 77251 L85230 77223" /> 
<path d="M85230 77223 L85315 77223" /> 
<path d="M85315 77223 L85372 77251" /> 
<path d="M85372 77251 L85401 77280" /> 
<path d="M85401 77280 L85430 77337" /> 
<path d="M85430 77337 L85430 77509" /> 
<path d="M85430 77509 L85401 77566" /> 
<path d="M85401 77566 L85372 77594" /> 
<path d="M85372 77594 L85315 77623" /> 
<path d="M85315 77623 L85230 77623" /> 
<path d="M85630 77223 L85773 77623" /> 
<path d="M85773 77623 L85915 77223" /> 
<g style = "stroke-linecap:round;" > 
<path d="M85915 77223 L85915 77223" /> 
</g><path d="M86144 77394 L86601 77394" /> 
<g style = "stroke-linecap:round;" > 
<path d="M86601 77394 L86601 77394" /> 
</g><path d="M86830 77023 L87201 77023" /> 
<path d="M87201 77023 L87001 77251" /> 
<path d="M87001 77251 L87087 77251" /> 
<path d="M87087 77251 L87144 77280" /> 
<path d="M87144 77280 L87173 77309" /> 
<path d="M87173 77309 L87201 77366" /> 
<path d="M87201 77366 L87201 77509" /> 
<path d="M87201 77509 L87173 77566" /> 
<path d="M87173 77566 L87144 77594" /> 
<path d="M87144 77594 L87087 77623" /> 
<path d="M87087 77623 L86915 77623" /> 
<path d="M86915 77623 L86858 77594" /> 
<path d="M86858 77594 L86830 77566" /> 
<g style = "stroke-linecap:round;" > 
<path d="M86830 77566 L86830 77566" /> 
</g><path d="M87572 77023 L87629 77023" /> 
<path d="M87629 77023 L87686 77051" /> 
<path d="M87686 77051 L87715 77080" /> 
<path d="M87715 77080 L87744 77137" /> 
<path d="M87744 77137 L87772 77251" /> 
<path d="M87772 77251 L87772 77394" /> 
<path d="M87772 77394 L87744 77509" /> 
<path d="M87744 77509 L87715 77566" /> 
<path d="M87715 77566 L87686 77594" /> 
<path d="M87686 77594 L87629 77623" /> 
<path d="M87629 77623 L87572 77623" /> 
<path d="M87572 77623 L87515 77594" /> 
<path d="M87515 77594 L87486 77566" /> 
<path d="M87486 77566 L87458 77509" /> 
<path d="M87458 77509 L87429 77394" /> 
<path d="M87429 77394 L87429 77251" /> 
<path d="M87429 77251 L87458 77137" /> 
<path d="M87458 77137 L87486 77080" /> 
<path d="M87486 77080 L87515 77051" /> 
<path d="M87515 77051 L87572 77023" /> 
<path d="M87972 77851 L88000 77823" /> 
<path d="M88000 77823 L88057 77737" /> 
<path d="M88057 77737 L88086 77680" /> 
<path d="M88086 77680 L88115 77594" /> 
<path d="M88115 77594 L88143 77451" /> 
<path d="M88143 77451 L88143 77337" /> 
<path d="M88143 77337 L88115 77194" /> 
<path d="M88115 77194 L88086 77109" /> 
<path d="M88086 77109 L88057 77051" /> 
<path d="M88057 77051 L88000 76966" /> 
<path d="M88000 76966 L87972 76937" /> 
<g style = "stroke-linecap:round;" > 
<path d="M87972 76937 L87972 76937" /> 
</g><path d="M88429 77394 L88886 77394" /> 
<g style = "stroke-linecap:round;" > 
<path d="M88886 77394 L88886 77394" /> 
</g><path d="M89086 77223 L89315 77223" /> 
<g style = "stroke-linecap:round;" > 
<path d="M89315 77223 L89315 77223" /> 
</g><path d="M89172 77023 L89172 77537" /> 
<path d="M89172 77537 L89200 77594" /> 
<path d="M89200 77594 L89258 77623" /> 
<path d="M89258 77623 L89315 77623" /> 
<g style = "stroke-linecap:round;" > 
<path d="M89315 77623 L89315 77623" /> 
</g><path d="M89743 77594 L89686 77623" /> 
<path d="M89686 77623 L89572 77623" /> 
<path d="M89572 77623 L89515 77594" /> 
<path d="M89515 77594 L89486 77537" /> 
<path d="M89486 77537 L89486 77309" /> 
<path d="M89486 77309 L89515 77251" /> 
<path d="M89515 77251 L89572 77223" /> 
<path d="M89572 77223 L89686 77223" /> 
<path d="M89686 77223 L89743 77251" /> 
<path d="M89743 77251 L89772 77309" /> 
<path d="M89772 77309 L89772 77366" /> 
<path d="M89772 77366 L89486 77423" /> 
<g style = "stroke-linecap:round;" > 
<path d="M89486 77423 L89486 77423" /> 
</g><path d="M90000 77594 L90057 77623" /> 
<path d="M90057 77623 L90172 77623" /> 
<path d="M90172 77623 L90229 77594" /> 
<path d="M90229 77594 L90257 77537" /> 
<path d="M90257 77537 L90257 77509" /> 
<path d="M90257 77509 L90229 77451" /> 
<path d="M90229 77451 L90172 77423" /> 
<path d="M90172 77423 L90086 77423" /> 
<path d="M90086 77423 L90029 77394" /> 
<path d="M90029 77394 L90000 77337" /> 
<path d="M90000 77337 L90000 77309" /> 
<path d="M90000 77309 L90029 77251" /> 
<path d="M90029 77251 L90086 77223" /> 
<path d="M90086 77223 L90172 77223" /> 
<path d="M90172 77223 L90229 77251" /> 
<g style = "stroke-linecap:round;" > 
<path d="M90229 77251 L90229 77251" /> 
</g><path d="M90429 77223 L90658 77223" /> 
<g style = "stroke-linecap:round;" > 
<path d="M90658 77223 L90658 77223" /> 
</g><path d="M90515 77023 L90515 77537" /> 
<path d="M90515 77537 L90543 77594" /> 
<path d="M90543 77594 L90601 77623" /> 
<path d="M90601 77623 L90658 77623" /> 
<g style = "stroke-linecap:round;" > 
<path d="M90658 77623 L90658 77623" /> 
</g><path d="M90858 77623 L90858 77223" /> 
<g style = "stroke-linecap:round;" > 
<path d="M90858 77223 L90858 77223" /> 
</g><path d="M90858 77023 L90829 77051" /> 
<path d="M90829 77051 L90858 77080" /> 
<path d="M90858 77080 L90886 77051" /> 
<path d="M90886 77051 L90858 77023" /> 
<path d="M90858 77023 L90858 77080" /> 
<g style = "stroke-linecap:round;" > 
<path d="M90858 77080 L90858 77080" /> 
</g><path d="M91144 77223 L91144 77623" /> 
<g style = "stroke-linecap:round;" > 
<path d="M91144 77623 L91144 77623" /> 
</g><path d="M91144 77280 L91172 77251" /> 
<path d="M91172 77251 L91230 77223" /> 
<path d="M91230 77223 L91315 77223" /> 
<path d="M91315 77223 L91372 77251" /> 
<path d="M91372 77251 L91401 77309" /> 
<path d="M91401 77309 L91401 77623" /> 
<g style = "stroke-linecap:round;" > 
<path d="M91401 77623 L91401 77623" /> 
</g><path d="M91944 77223 L91944 77709" /> 
<path d="M91944 77709 L91915 77766" /> 
<path d="M91915 77766 L91887 77794" /> 
<path d="M91887 77794 L91830 77823" /> 
<path d="M91830 77823 L91744 77823" /> 
<path d="M91744 77823 L91687 77794" /> 
<g style = "stroke-linecap:round;" > 
<path d="M91687 77794 L91687 77794" /> 
</g><path d="M91944 77594 L91887 77623" /> 
<path d="M91887 77623 L91773 77623" /> 
<path d="M91773 77623 L91715 77594" /> 
<path d="M91715 77594 L91687 77566" /> 
<path d="M91687 77566 L91658 77509" /> 
<path d="M91658 77509 L91658 77337" /> 
<path d="M91658 77337 L91687 77280" /> 
<path d="M91687 77280 L91715 77251" /> 
<path d="M91715 77251 L91773 77223" /> 
<path d="M91773 77223 L91887 77223" /> 
<path d="M91887 77223 L91944 77251" /> 
<g style = "stroke-linecap:round;" > 
<path d="M91944 77251 L91944 77251" /> 
</g></g>
<g style="fill:#A00000; fill-opacity:0.0; 
  stroke:#A00000; stroke-linecap:round; stroke-linejoin:round; stroke-opacity:1.0; stroke-opacity:1.0; stroke-width:120" 
   transform="translate(0 0) scale(1 1)">
<path d="M104516 76423 L104316 76137" /> 
<g style = "stroke-linecap:round;" > 
<path d="M104316 76137 L104316 76137" /> 
</g><path d="M104173 76423 L104173 75823" /> 
<path d="M104173 75823 L104401 75823" /> 
<path d="M104401 75823 L104459 75851" /> 
<path d="M104459 75851 L104487 75880" /> 
<path d="M104487 75880 L104516 75937" /> 
<path d="M104516 75937 L104516 76023" /> 
<path d="M104516 76023 L104487 76080" /> 
<path d="M104487 76080 L104459 76109" /> 
<path d="M104459 76109 L104401 76137" /> 
<path d="M104401 76137 L104173 76137" /> 
<g style = "stroke-linecap:round;" > 
<path d="M104173 76137 L104173 76137" /> 
</g><path d="M105001 76394 L104944 76423" /> 
<path d="M104944 76423 L104830 76423" /> 
<path d="M104830 76423 L104773 76394" /> 
<path d="M104773 76394 L104744 76337" /> 
<path d="M104744 76337 L104744 76109" /> 
<path d="M104744 76109 L104773 76051" /> 
<path d="M104773 76051 L104830 76023" /> 
<path d="M104830 76023 L104944 76023" /> 
<path d="M104944 76023 L105001 76051" /> 
<path d="M105001 76051 L105030 76109" /> 
<path d="M105030 76109 L105030 76166" /> 
<path d="M105030 76166 L104744 76223" /> 
<g style = "stroke-linecap:round;" > 
<path d="M104744 76223 L104744 76223" /> 
</g><path d="M105230 76023 L105373 76423" /> 
<path d="M105373 76423 L105515 76023" /> 
<g style = "stroke-linecap:round;" > 
<path d="M105515 76023 L105515 76023" /> 
</g><path d="M105744 76366 L105772 76394" /> 
<path d="M105772 76394 L105744 76423" /> 
<path d="M105744 76423 L105715 76394" /> 
<path d="M105715 76394 L105744 76366" /> 
<path d="M105744 76366 L105744 76423" /> 
<g style = "stroke-linecap:round;" > 
<path d="M105744 76423 L105744 76423" /> 
</g><path d="M105744 76051 L105772 76080" /> 
<path d="M105772 76080 L105744 76109" /> 
<path d="M105744 76109 L105715 76080" /> 
<path d="M105715 76080 L105744 76051" /> 
<path d="M105744 76051 L105744 76109" /> 
<g style = "stroke-linecap:round;" > 
<path d="M105744 76109 L105744 76109" /> 
</g></g>
<g style="fill:#A00000; fill-opacity:0.0; 
  stroke:#A00000; stroke-linecap:round; stroke-linejoin:round; stroke-opacity:1.0; stroke-opacity:1.0; stroke-width:60" 
   transform="translate(0 0) scale(1 1)">
<path d="M70944 76394 L71030 76423" /> 
<path d="M71030 76423 L71173 76423" /> 
<path d="M71173 76423 L71230 76394" /> 
<path d="M71230 76394 L71259 76366" /> 
<path d="M71259 76366 L71287 76309" /> 
<path d="M71287 76309 L71287 76251" /> 
<path d="M71287 76251 L71259 76194" /> 
<path d="M71259 76194 L71230 76166" /> 
<path d="M71230 76166 L71173 76137" /> 
<path d="M71173 76137 L71059 76109" /> 
<path d="M71059 76109 L71001 76080" /> 
<path d="M71001 76080 L70973 76051" /> 
<path d="M70973 76051 L70944 75994" /> 
<path d="M70944 75994 L70944 75937" /> 
<path d="M70944 75937 L70973 75880" /> 
<path d="M70973 75880 L71001 75851" /> 
<path d="M71001 75851 L71059 75823" /> 
<path d="M71059 75823 L71201 75823" /> 
<path d="M71201 75823 L71287 75851" /> 
<g style = "stroke-linecap:round;" > 
<path d="M71287 75851 L71287 75851" /> 
</g><path d="M71544 76423 L71544 76023" /> 
<g style = "stroke-linecap:round;" > 
<path d="M71544 76023 L71544 76023" /> 
</g><path d="M71544 75823 L71515 75851" /> 
<path d="M71515 75851 L71544 75880" /> 
<path d="M71544 75880 L71572 75851" /> 
<path d="M71572 75851 L71544 75823" /> 
<path d="M71544 75823 L71544 75880" /> 
<g style = "stroke-linecap:round;" > 
<path d="M71544 75880 L71544 75880" /> 
</g><path d="M71773 76023 L72087 76023" /> 
<path d="M72087 76023 L71773 76423" /> 
<path d="M71773 76423 L72087 76423" /> 
<g style = "stroke-linecap:round;" > 
<path d="M72087 76423 L72087 76423" /> 
</g><path d="M72544 76394 L72487 76423" /> 
<path d="M72487 76423 L72373 76423" /> 
<path d="M72373 76423 L72316 76394" /> 
<path d="M72316 76394 L72287 76337" /> 
<path d="M72287 76337 L72287 76109" /> 
<path d="M72287 76109 L72316 76051" /> 
<path d="M72316 76051 L72373 76023" /> 
<path d="M72373 76023 L72487 76023" /> 
<path d="M72487 76023 L72544 76051" /> 
<path d="M72544 76051 L72573 76109" /> 
<path d="M72573 76109 L72573 76166" /> 
<path d="M72573 76166 L72287 76223" /> 
<g style = "stroke-linecap:round;" > 
<path d="M72287 76223 L72287 76223" /> 
</g><path d="M72830 76366 L72858 76394" /> 
<path d="M72858 76394 L72830 76423" /> 
<path d="M72830 76423 L72801 76394" /> 
<path d="M72801 76394 L72830 76366" /> 
<path d="M72830 76366 L72830 76423" /> 
<g style = "stroke-linecap:round;" > 
<path d="M72830 76423 L72830 76423" /> 
</g><path d="M72830 76051 L72858 76080" /> 
<path d="M72858 76080 L72830 76109" /> 
<path d="M72830 76109 L72801 76080" /> 
<path d="M72801 76080 L72830 76051" /> 
<path d="M72830 76051 L72830 76109" /> 
<g style = "stroke-linecap:round;" > 
<path d="M72830 76109 L72830 76109" /> 
</g><path d="M73544 76251 L73830 76251" /> 
<g style = "stroke-linecap:round;" > 
<path d="M73830 76251 L73830 76251" /> 
</g><path d="M73487 76423 L73687 75823" /> 
<path d="M73687 75823 L73887 76423" /> 
<g style = "stroke-linecap:round;" > 
<path d="M73887 76423 L73887 76423" /> 
</g><path d="M74344 76023 L74344 76423" /> 
<g style = "stroke-linecap:round;" > 
<path d="M74344 76423 L74344 76423" /> 
</g><path d="M74201 75794 L74058 76223" /> 
<path d="M74058 76223 L74430 76223" /> 
<g style = "stroke-linecap:round;" > 
<path d="M74430 76223 L74430 76223" /> 
</g><path d="M104173 77623 L104173 77023" /> 
<g style = "stroke-linecap:round;" > 
<path d="M104173 77023 L104173 77023" /> 
</g><path d="M104716 77623 L104716 77023" /> 
<g style = "stroke-linecap:round;" > 
<path d="M104716 77023 L104716 77023" /> 
</g><path d="M104716 77594 L104659 77623" /> 
<path d="M104659 77623 L104545 77623" /> 
<path d="M104545 77623 L104487 77594" /> 
<path d="M104487 77594 L104459 77566" /> 
<path d="M104459 77566 L104430 77509" /> 
<path d="M104430 77509 L104430 77337" /> 
<path d="M104430 77337 L104459 77280" /> 
<path d="M104459 77280 L104487 77251" /> 
<path d="M104487 77251 L104545 77223" /> 
<path d="M104545 77223 L104659 77223" /> 
<path d="M104659 77223 L104716 77251" /> 
<g style = "stroke-linecap:round;" > 
<path d="M104716 77251 L104716 77251" /> 
</g><path d="M105002 77566 L105030 77594" /> 
<path d="M105030 77594 L105002 77623" /> 
<path d="M105002 77623 L104973 77594" /> 
<path d="M104973 77594 L105002 77566" /> 
<path d="M105002 77566 L105002 77623" /> 
<g style = "stroke-linecap:round;" > 
<path d="M105002 77623 L105002 77623" /> 
</g><path d="M105002 77251 L105030 77280" /> 
<path d="M105030 77280 L105002 77309" /> 
<path d="M105002 77309 L104973 77280" /> 
<path d="M104973 77280 L105002 77251" /> 
<path d="M105002 77251 L105002 77309" /> 
<g style = "stroke-linecap:round;" > 
<path d="M105002 77309 L105002 77309" /> 
</g><path d="M106059 77623 L105716 77623" /> 
<g style = "stroke-linecap:round;" > 
<path d="M105716 77623 L105716 77623" /> 
</g><path d="M105888 77623 L105888 77023" /> 
<path d="M105888 77023 L105831 77109" /> 
<path d="M105831 77109 L105773 77166" /> 
<path d="M105773 77166 L105716 77194" /> 
<g style = "stroke-linecap:round;" > 
<path d="M105716 77194 L105716 77194" /> 
</g><path d="M106744 76994 L106230 77766" /> 
<g style = "stroke-linecap:round;" > 
<path d="M106230 77766 L106230 77766" /> 
</g><path d="M107259 77623 L106916 77623" /> 
<g style = "stroke-linecap:round;" > 
<path d="M106916 77623 L106916 77623" /> 
</g><path d="M107088 77623 L107088 77023" /> 
<path d="M107088 77023 L107031 77109" /> 
<path d="M107031 77109 L106973 77166" /> 
<path d="M106973 77166 L106916 77194" /> 
<g style = "stroke-linecap:round;" > 
<path d="M106916 77194 L106916 77194" /> 
</g></g>
<g style="fill:#A00000; fill-opacity:0.0; 
  stroke:#A00000; stroke-linecap:round; stroke-linejoin:round; stroke-opacity:1.0; stroke-opacity:1.0; stroke-width:120" 
   transform="translate(0 0) scale(1 1)">
<path d="M70887 74623 L71230 74623" /> 
<g style = "stroke-linecap:round;" > 
<path d="M71230 74623 L71230 74623" /> 
</g><path d="M71059 75223 L71059 74623" /> 
<g style = "stroke-linecap:round;" > 
<path d="M71059 74623 L71059 74623" /> 
</g><path d="M71430 75223 L71430 74823" /> 
<g style = "stroke-linecap:round;" > 
<path d="M71430 74823 L71430 74823" /> 
</g><path d="M71430 74623 L71401 74651" /> 
<path d="M71401 74651 L71430 74680" /> 
<path d="M71430 74680 L71458 74651" /> 
<path d="M71458 74651 L71430 74623" /> 
<path d="M71430 74623 L71430 74680" /> 
<g style = "stroke-linecap:round;" > 
<path d="M71430 74680 L71430 74680" /> 
</g><path d="M71630 74823 L71859 74823" /> 
<g style = "stroke-linecap:round;" > 
<path d="M71859 74823 L71859 74823" /> 
</g><path d="M71716 74623 L71716 75137" /> 
<path d="M71716 75137 L71744 75194" /> 
<path d="M71744 75194 L71802 75223" /> 
<path d="M71802 75223 L71859 75223" /> 
<g style = "stroke-linecap:round;" > 
<path d="M71859 75223 L71859 75223" /> 
</g><path d="M72145 75223 L72087 75194" /> 
<path d="M72087 75194 L72059 75137" /> 
<path d="M72059 75137 L72059 74623" /> 
<g style = "stroke-linecap:round;" > 
<path d="M72059 74623 L72059 74623" /> 
</g><path d="M72601 75194 L72544 75223" /> 
<path d="M72544 75223 L72430 75223" /> 
<path d="M72430 75223 L72373 75194" /> 
<path d="M72373 75194 L72344 75137" /> 
<path d="M72344 75137 L72344 74909" /> 
<path d="M72344 74909 L72373 74851" /> 
<path d="M72373 74851 L72430 74823" /> 
<path d="M72430 74823 L72544 74823" /> 
<path d="M72544 74823 L72601 74851" /> 
<path d="M72601 74851 L72630 74909" /> 
<path d="M72630 74909 L72630 74966" /> 
<path d="M72630 74966 L72344 75023" /> 
<g style = "stroke-linecap:round;" > 
<path d="M72344 75023 L72344 75023" /> 
</g><path d="M72887 75166 L72915 75194" /> 
<path d="M72915 75194 L72887 75223" /> 
<path d="M72887 75223 L72858 75194" /> 
<path d="M72858 75194 L72887 75166" /> 
<path d="M72887 75166 L72887 75223" /> 
<g style = "stroke-linecap:round;" > 
<path d="M72887 75223 L72887 75223" /> 
</g><path d="M72887 74851 L72915 74880" /> 
<path d="M72915 74880 L72887 74909" /> 
<path d="M72887 74909 L72858 74880" /> 
<path d="M72858 74880 L72887 74851" /> 
<path d="M72887 74851 L72887 74909" /> 
<g style = "stroke-linecap:round;" > 
<path d="M72887 74909 L72887 74909" /> 
</g><path d="M73630 75223 L73630 74623" /> 
<g style = "stroke-linecap:round;" > 
<path d="M73630 74623 L73630 74623" /> 
</g><path d="M73687 74994 L73858 75223" /> 
<g style = "stroke-linecap:round;" > 
<path d="M73858 75223 L73858 75223" /> 
</g><path d="M73858 74823 L73630 75051" /> 
<g style = "stroke-linecap:round;" > 
<path d="M73630 75051 L73630 75051" /> 
</g><path d="M74202 75223 L74144 75194" /> 
<path d="M74144 75194 L74116 75166" /> 
<path d="M74116 75166 L74087 75109" /> 
<path d="M74087 75109 L74087 74937" /> 
<path d="M74087 74937 L74116 74880" /> 
<path d="M74116 74880 L74144 74851" /> 
<path d="M74144 74851 L74202 74823" /> 
<path d="M74202 74823 L74287 74823" /> 
<path d="M74287 74823 L74344 74851" /> 
<path d="M74344 74851 L74373 74880" /> 
<path d="M74373 74880 L74402 74937" /> 
<path d="M74402 74937 L74402 75109" /> 
<path d="M74402 75109 L74373 75166" /> 
<path d="M74373 75166 L74344 75194" /> 
<path d="M74344 75194 L74287 75223" /> 
<path d="M74287 75223 L74202 75223" /> 
<path d="M74659 75223 L74659 74823" /> 
<g style = "stroke-linecap:round;" > 
<path d="M74659 74823 L74659 74823" /> 
</g><path d="M74659 74880 L74687 74851" /> 
<path d="M74687 74851 L74745 74823" /> 
<path d="M74745 74823 L74830 74823" /> 
<path d="M74830 74823 L74887 74851" /> 
<path d="M74887 74851 L74916 74909" /> 
<path d="M74916 74909 L74916 75223" /> 
<g style = "stroke-linecap:round;" > 
<path d="M74916 75223 L74916 75223" /> 
</g><path d="M74916 74909 L74945 74851" /> 
<path d="M74945 74851 L75002 74823" /> 
<path d="M75002 74823 L75087 74823" /> 
<path d="M75087 74823 L75145 74851" /> 
<path d="M75145 74851 L75173 74909" /> 
<path d="M75173 74909 L75173 75223" /> 
<g style = "stroke-linecap:round;" > 
<path d="M75173 75223 L75173 75223" /> 
</g><path d="M75659 74909 L75745 74937" /> 
<path d="M75745 74937 L75773 74966" /> 
<path d="M75773 74966 L75802 75023" /> 
<path d="M75802 75023 L75802 75109" /> 
<path d="M75802 75109 L75773 75166" /> 
<path d="M75773 75166 L75745 75194" /> 
<path d="M75745 75194 L75687 75223" /> 
<path d="M75687 75223 L75459 75223" /> 
<path d="M75459 75223 L75459 74623" /> 
<path d="M75459 74623 L75659 74623" /> 
<path d="M75659 74623 L75716 74651" /> 
<path d="M75716 74651 L75745 74680" /> 
<path d="M75745 74680 L75773 74737" /> 
<path d="M75773 74737 L75773 74794" /> 
<path d="M75773 74794 L75745 74851" /> 
<path d="M75745 74851 L75716 74880" /> 
<path d="M75716 74880 L75659 74909" /> 
<path d="M75659 74909 L75459 74909" /> 
<g style = "stroke-linecap:round;" > 
<path d="M75459 74909 L75459 74909" /> 
</g><path d="M76173 74623 L76287 74623" /> 
<path d="M76287 74623 L76345 74651" /> 
<path d="M76345 74651 L76402 74709" /> 
<path d="M76402 74709 L76430 74823" /> 
<path d="M76430 74823 L76430 75023" /> 
<path d="M76430 75023 L76402 75137" /> 
<path d="M76402 75137 L76345 75194" /> 
<path d="M76345 75194 L76287 75223" /> 
<path d="M76287 75223 L76173 75223" /> 
<path d="M76173 75223 L76116 75194" /> 
<path d="M76116 75194 L76059 75137" /> 
<path d="M76059 75137 L76030 75023" /> 
<path d="M76030 75023 L76030 74823" /> 
<path d="M76030 74823 L76059 74709" /> 
<path d="M76059 74709 L76116 74651" /> 
<path d="M76116 74651 L76173 74623" /> 
<path d="M76602 74623 L76945 74623" /> 
<g style = "stroke-linecap:round;" > 
<path d="M76945 74623 L76945 74623" /> 
</g><path d="M76774 75223 L76774 74623" /> 
<g style = "stroke-linecap:round;" > 
<path d="M76774 74623 L76774 74623" /> 
</g></g>
<g style="fill:#A00000; fill-opacity:0.0; 
  stroke:#A00000; stroke-linecap:round; stroke-linejoin:round; stroke-opacity:1.0; stroke-opacity:1.0; stroke-width:60" 
   transform="translate(0 0) scale(1 1)">
<path d="M71173 72509 L70973 72509" /> 
<g style = "stroke-linecap:round;" > 
<path d="M70973 72509 L70973 72509" /> 
</g><path d="M70973 72823 L70973 72223" /> 
<path d="M70973 72223 L71259 72223" /> 
<g style = "stroke-linecap:round;" > 
<path d="M71259 72223 L71259 72223" /> 
</g><path d="M71487 72823 L71487 72423" /> 
<g style = "stroke-linecap:round;" > 
<path d="M71487 72423 L71487 72423" /> 
</g><path d="M71487 72223 L71458 72251" /> 
<path d="M71458 72251 L71487 72280" /> 
<path d="M71487 72280 L71515 72251" /> 
<path d="M71515 72251 L71487 72223" /> 
<path d="M71487 72223 L71487 72280" /> 
<g style = "stroke-linecap:round;" > 
<path d="M71487 72280 L71487 72280" /> 
</g><path d="M71859 72823 L71801 72794" /> 
<path d="M71801 72794 L71773 72737" /> 
<path d="M71773 72737 L71773 72223" /> 
<g style = "stroke-linecap:round;" > 
<path d="M71773 72223 L71773 72223" /> 
</g><path d="M72315 72794 L72258 72823" /> 
<path d="M72258 72823 L72144 72823" /> 
<path d="M72144 72823 L72087 72794" /> 
<path d="M72087 72794 L72058 72737" /> 
<path d="M72058 72737 L72058 72509" /> 
<path d="M72058 72509 L72087 72451" /> 
<path d="M72087 72451 L72144 72423" /> 
<path d="M72144 72423 L72258 72423" /> 
<path d="M72258 72423 L72315 72451" /> 
<path d="M72315 72451 L72344 72509" /> 
<path d="M72344 72509 L72344 72566" /> 
<path d="M72344 72566 L72058 72623" /> 
<g style = "stroke-linecap:round;" > 
<path d="M72058 72623 L72058 72623" /> 
</g><path d="M72601 72766 L72629 72794" /> 
<path d="M72629 72794 L72601 72823" /> 
<path d="M72601 72823 L72572 72794" /> 
<path d="M72572 72794 L72601 72766" /> 
<path d="M72601 72766 L72601 72823" /> 
<g style = "stroke-linecap:round;" > 
<path d="M72601 72823 L72601 72823" /> 
</g><path d="M72601 72451 L72629 72480" /> 
<path d="M72629 72480 L72601 72509" /> 
<path d="M72601 72509 L72572 72480" /> 
<path d="M72572 72480 L72601 72451" /> 
<path d="M72601 72451 L72601 72509" /> 
<g style = "stroke-linecap:round;" > 
<path d="M72601 72509 L72601 72509" /> 
</g><path d="M73344 72823 L73344 72223" /> 
<g style = "stroke-linecap:round;" > 
<path d="M73344 72223 L73344 72223" /> 
</g><path d="M73401 72594 L73572 72823" /> 
<g style = "stroke-linecap:round;" > 
<path d="M73572 72823 L73572 72823" /> 
</g><path d="M73572 72423 L73344 72651" /> 
<g style = "stroke-linecap:round;" > 
<path d="M73344 72651 L73344 72651" /> 
</g><path d="M73916 72823 L73858 72794" /> 
<path d="M73858 72794 L73830 72766" /> 
<path d="M73830 72766 L73801 72709" /> 
<path d="M73801 72709 L73801 72537" /> 
<path d="M73801 72537 L73830 72480" /> 
<path d="M73830 72480 L73858 72451" /> 
<path d="M73858 72451 L73916 72423" /> 
<path d="M73916 72423 L74001 72423" /> 
<path d="M74001 72423 L74058 72451" /> 
<path d="M74058 72451 L74087 72480" /> 
<path d="M74087 72480 L74116 72537" /> 
<path d="M74116 72537 L74116 72709" /> 
<path d="M74116 72709 L74087 72766" /> 
<path d="M74087 72766 L74058 72794" /> 
<path d="M74058 72794 L74001 72823" /> 
<path d="M74001 72823 L73916 72823" /> 
<path d="M74373 72823 L74373 72423" /> 
<g style = "stroke-linecap:round;" > 
<path d="M74373 72423 L74373 72423" /> 
</g><path d="M74373 72480 L74401 72451" /> 
<path d="M74401 72451 L74459 72423" /> 
<path d="M74459 72423 L74544 72423" /> 
<path d="M74544 72423 L74601 72451" /> 
<path d="M74601 72451 L74630 72509" /> 
<path d="M74630 72509 L74630 72823" /> 
<g style = "stroke-linecap:round;" > 
<path d="M74630 72823 L74630 72823" /> 
</g><path d="M74630 72509 L74659 72451" /> 
<path d="M74659 72451 L74716 72423" /> 
<path d="M74716 72423 L74801 72423" /> 
<path d="M74801 72423 L74859 72451" /> 
<path d="M74859 72451 L74887 72509" /> 
<path d="M74887 72509 L74887 72823" /> 
<g style = "stroke-linecap:round;" > 
<path d="M74887 72823 L74887 72823" /> 
</g><path d="M75173 72766 L75201 72794" /> 
<path d="M75201 72794 L75173 72823" /> 
<path d="M75173 72823 L75144 72794" /> 
<path d="M75144 72794 L75173 72766" /> 
<path d="M75173 72766 L75173 72823" /> 
<g style = "stroke-linecap:round;" > 
<path d="M75173 72823 L75173 72823" /> 
</g><path d="M75459 72823 L75459 72223" /> 
<g style = "stroke-linecap:round;" > 
<path d="M75459 72223 L75459 72223" /> 
</g><path d="M75459 72451 L75516 72423" /> 
<path d="M75516 72423 L75630 72423" /> 
<path d="M75630 72423 L75687 72451" /> 
<path d="M75687 72451 L75716 72480" /> 
<path d="M75716 72480 L75745 72537" /> 
<path d="M75745 72537 L75745 72709" /> 
<path d="M75745 72709 L75716 72766" /> 
<path d="M75716 72766 L75687 72794" /> 
<path d="M75687 72794 L75630 72823" /> 
<path d="M75630 72823 L75516 72823" /> 
<path d="M75516 72823 L75459 72794" /> 
<g style = "stroke-linecap:round;" > 
<path d="M75459 72794 L75459 72794" /> 
</g><path d="M76002 72823 L76002 72423" /> 
<g style = "stroke-linecap:round;" > 
<path d="M76002 72423 L76002 72423" /> 
</g><path d="M76002 72537 L76030 72480" /> 
<path d="M76030 72480 L76059 72451" /> 
<path d="M76059 72451 L76116 72423" /> 
<path d="M76116 72423 L76173 72423" /> 
<g style = "stroke-linecap:round;" > 
<path d="M76173 72423 L76173 72423" /> 
</g><path d="M76630 72823 L76630 72223" /> 
<g style = "stroke-linecap:round;" > 
<path d="M76630 72223 L76630 72223" /> 
</g><path d="M76630 72794 L76573 72823" /> 
<path d="M76573 72823 L76459 72823" /> 
<path d="M76459 72823 L76401 72794" /> 
<path d="M76401 72794 L76373 72766" /> 
<path d="M76373 72766 L76344 72709" /> 
<path d="M76344 72709 L76344 72537" /> 
<path d="M76344 72537 L76373 72480" /> 
<path d="M76373 72480 L76401 72451" /> 
<path d="M76401 72451 L76459 72423" /> 
<path d="M76459 72423 L76573 72423" /> 
<path d="M76573 72423 L76630 72451" /> 
<g style = "stroke-linecap:round;" > 
<path d="M76630 72451 L76630 72451" /> 
</g><path d="M70944 73994 L71030 74023" /> 
<path d="M71030 74023 L71173 74023" /> 
<path d="M71173 74023 L71230 73994" /> 
<path d="M71230 73994 L71259 73966" /> 
<path d="M71259 73966 L71287 73909" /> 
<path d="M71287 73909 L71287 73851" /> 
<path d="M71287 73851 L71259 73794" /> 
<path d="M71259 73794 L71230 73766" /> 
<path d="M71230 73766 L71173 73737" /> 
<path d="M71173 73737 L71059 73709" /> 
<path d="M71059 73709 L71001 73680" /> 
<path d="M71001 73680 L70973 73651" /> 
<path d="M70973 73651 L70944 73594" /> 
<path d="M70944 73594 L70944 73537" /> 
<path d="M70944 73537 L70973 73480" /> 
<path d="M70973 73480 L71001 73451" /> 
<path d="M71001 73451 L71059 73423" /> 
<path d="M71059 73423 L71201 73423" /> 
<path d="M71201 73423 L71287 73451" /> 
<g style = "stroke-linecap:round;" > 
<path d="M71287 73451 L71287 73451" /> 
</g><path d="M71544 74023 L71544 73423" /> 
<g style = "stroke-linecap:round;" > 
<path d="M71544 73423 L71544 73423" /> 
</g><path d="M71801 74023 L71801 73709" /> 
<path d="M71801 73709 L71772 73651" /> 
<path d="M71772 73651 L71715 73623" /> 
<path d="M71715 73623 L71630 73623" /> 
<path d="M71630 73623 L71572 73651" /> 
<path d="M71572 73651 L71544 73680" /> 
<g style = "stroke-linecap:round;" > 
<path d="M71544 73680 L71544 73680" /> 
</g><path d="M72315 73994 L72258 74023" /> 
<path d="M72258 74023 L72144 74023" /> 
<path d="M72144 74023 L72087 73994" /> 
<path d="M72087 73994 L72058 73937" /> 
<path d="M72058 73937 L72058 73709" /> 
<path d="M72058 73709 L72087 73651" /> 
<path d="M72087 73651 L72144 73623" /> 
<path d="M72144 73623 L72258 73623" /> 
<path d="M72258 73623 L72315 73651" /> 
<path d="M72315 73651 L72344 73709" /> 
<path d="M72344 73709 L72344 73766" /> 
<path d="M72344 73766 L72058 73823" /> 
<g style = "stroke-linecap:round;" > 
<path d="M72058 73823 L72058 73823" /> 
</g><path d="M72829 73994 L72772 74023" /> 
<path d="M72772 74023 L72658 74023" /> 
<path d="M72658 74023 L72601 73994" /> 
<path d="M72601 73994 L72572 73937" /> 
<path d="M72572 73937 L72572 73709" /> 
<path d="M72572 73709 L72601 73651" /> 
<path d="M72601 73651 L72658 73623" /> 
<path d="M72658 73623 L72772 73623" /> 
<path d="M72772 73623 L72829 73651" /> 
<path d="M72829 73651 L72858 73709" /> 
<path d="M72858 73709 L72858 73766" /> 
<path d="M72858 73766 L72572 73823" /> 
<g style = "stroke-linecap:round;" > 
<path d="M72572 73823 L72572 73823" /> 
</g><path d="M73029 73623 L73258 73623" /> 
<g style = "stroke-linecap:round;" > 
<path d="M73258 73623 L73258 73623" /> 
</g><path d="M73115 73423 L73115 73937" /> 
<path d="M73115 73937 L73143 73994" /> 
<path d="M73143 73994 L73201 74023" /> 
<path d="M73201 74023 L73258 74023" /> 
<g style = "stroke-linecap:round;" > 
<path d="M73258 74023 L73258 74023" /> 
</g><path d="M73458 73966 L73486 73994" /> 
<path d="M73486 73994 L73458 74023" /> 
<path d="M73458 74023 L73429 73994" /> 
<path d="M73429 73994 L73458 73966" /> 
<path d="M73458 73966 L73458 74023" /> 
<g style = "stroke-linecap:round;" > 
<path d="M73458 74023 L73458 74023" /> 
</g><path d="M73458 73651 L73486 73680" /> 
<path d="M73486 73680 L73458 73709" /> 
<path d="M73458 73709 L73429 73680" /> 
<path d="M73429 73680 L73458 73651" /> 
<path d="M73458 73651 L73458 73709" /> 
<g style = "stroke-linecap:round;" > 
<path d="M73458 73709 L73458 73709" /> 
</g><path d="M74515 74023 L74172 74023" /> 
<g style = "stroke-linecap:round;" > 
<path d="M74172 74023 L74172 74023" /> 
</g><path d="M74344 74023 L74344 73423" /> 
<path d="M74344 73423 L74287 73509" /> 
<path d="M74287 73509 L74229 73566" /> 
<path d="M74229 73566 L74172 73594" /> 
<g style = "stroke-linecap:round;" > 
<path d="M74172 73594 L74172 73594" /> 
</g><path d="M75200 73394 L74686 74166" /> 
<g style = "stroke-linecap:round;" > 
<path d="M74686 74166 L74686 74166" /> 
</g><path d="M75715 74023 L75372 74023" /> 
<g style = "stroke-linecap:round;" > 
<path d="M75372 74023 L75372 74023" /> 
</g><path d="M75544 74023 L75544 73423" /> 
<path d="M75544 73423 L75487 73509" /> 
<path d="M75487 73509 L75429 73566" /> 
<path d="M75429 73566 L75372 73594" /> 
<g style = "stroke-linecap:round;" > 
<path d="M75372 73594 L75372 73594" /> 
</g></g>
<g style="fill:#A00000; fill-opacity:0.0; 
  stroke:#A00000; stroke-linecap:round; stroke-linejoin:round; stroke-opacity:1.0; stroke-opacity:1.0; stroke-width:120" 
   transform="translate(0 0) scale(1 1)">
<path d="M70973 71023 L70973 71509" /> 
<path d="M70973 71509 L71001 71566" /> 
<path d="M71001 71566 L71030 71594" /> 
<path d="M71030 71594 L71087 71623" /> 
<path d="M71087 71623 L71201 71623" /> 
<path d="M71201 71623 L71259 71594" /> 
<path d="M71259 71594 L71287 71566" /> 
<path d="M71287 71566 L71316 71509" /> 
<path d="M71316 71509 L71316 71023" /> 
<g style = "stroke-linecap:round;" > 
<path d="M71316 71023 L71316 71023" /> 
</g><path d="M71602 71223 L71602 71623" /> 
<g style = "stroke-linecap:round;" > 
<path d="M71602 71623 L71602 71623" /> 
</g><path d="M71602 71280 L71630 71251" /> 
<path d="M71630 71251 L71688 71223" /> 
<path d="M71688 71223 L71773 71223" /> 
<path d="M71773 71223 L71830 71251" /> 
<path d="M71830 71251 L71859 71309" /> 
<path d="M71859 71309 L71859 71623" /> 
<g style = "stroke-linecap:round;" > 
<path d="M71859 71623 L71859 71623" /> 
</g><path d="M72145 71623 L72145 71223" /> 
<g style = "stroke-linecap:round;" > 
<path d="M72145 71223 L72145 71223" /> 
</g><path d="M72145 71023 L72116 71051" /> 
<path d="M72116 71051 L72145 71080" /> 
<path d="M72145 71080 L72173 71051" /> 
<path d="M72173 71051 L72145 71023" /> 
<path d="M72145 71023 L72145 71080" /> 
<g style = "stroke-linecap:round;" > 
<path d="M72145 71080 L72145 71080" /> 
</g><path d="M72374 71223 L72517 71623" /> 
<path d="M72517 71623 L72659 71223" /> 
<g style = "stroke-linecap:round;" > 
<path d="M72659 71223 L72659 71223" /> 
</g><path d="M73116 71594 L73059 71623" /> 
<path d="M73059 71623 L72945 71623" /> 
<path d="M72945 71623 L72888 71594" /> 
<path d="M72888 71594 L72859 71537" /> 
<path d="M72859 71537 L72859 71309" /> 
<path d="M72859 71309 L72888 71251" /> 
<path d="M72888 71251 L72945 71223" /> 
<path d="M72945 71223 L73059 71223" /> 
<path d="M73059 71223 L73116 71251" /> 
<path d="M73116 71251 L73145 71309" /> 
<path d="M73145 71309 L73145 71366" /> 
<path d="M73145 71366 L72859 71423" /> 
<g style = "stroke-linecap:round;" > 
<path d="M72859 71423 L72859 71423" /> 
</g><path d="M73402 71623 L73402 71223" /> 
<g style = "stroke-linecap:round;" > 
<path d="M73402 71223 L73402 71223" /> 
</g><path d="M73402 71337 L73430 71280" /> 
<path d="M73430 71280 L73459 71251" /> 
<path d="M73459 71251 L73516 71223" /> 
<path d="M73516 71223 L73573 71223" /> 
<g style = "stroke-linecap:round;" > 
<path d="M73573 71223 L73573 71223" /> 
</g><path d="M73744 71594 L73801 71623" /> 
<path d="M73801 71623 L73916 71623" /> 
<path d="M73916 71623 L73973 71594" /> 
<path d="M73973 71594 L74001 71537" /> 
<path d="M74001 71537 L74001 71509" /> 
<path d="M74001 71509 L73973 71451" /> 
<path d="M73973 71451 L73916 71423" /> 
<path d="M73916 71423 L73830 71423" /> 
<path d="M73830 71423 L73773 71394" /> 
<path d="M73773 71394 L73744 71337" /> 
<path d="M73744 71337 L73744 71309" /> 
<path d="M73744 71309 L73773 71251" /> 
<path d="M73773 71251 L73830 71223" /> 
<path d="M73830 71223 L73916 71223" /> 
<path d="M73916 71223 L73973 71251" /> 
<g style = "stroke-linecap:round;" > 
<path d="M73973 71251 L73973 71251" /> 
</g><path d="M74259 71623 L74259 71223" /> 
<g style = "stroke-linecap:round;" > 
<path d="M74259 71223 L74259 71223" /> 
</g><path d="M74259 71023 L74230 71051" /> 
<path d="M74230 71051 L74259 71080" /> 
<path d="M74259 71080 L74287 71051" /> 
<path d="M74287 71051 L74259 71023" /> 
<path d="M74259 71023 L74259 71080" /> 
<g style = "stroke-linecap:round;" > 
<path d="M74259 71080 L74259 71080" /> 
</g><path d="M74802 71623 L74802 71023" /> 
<g style = "stroke-linecap:round;" > 
<path d="M74802 71023 L74802 71023" /> 
</g><path d="M74802 71594 L74745 71623" /> 
<path d="M74745 71623 L74631 71623" /> 
<path d="M74631 71623 L74573 71594" /> 
<path d="M74573 71594 L74545 71566" /> 
<path d="M74545 71566 L74516 71509" /> 
<path d="M74516 71509 L74516 71337" /> 
<path d="M74516 71337 L74545 71280" /> 
<path d="M74545 71280 L74573 71251" /> 
<path d="M74573 71251 L74631 71223" /> 
<path d="M74631 71223 L74745 71223" /> 
<path d="M74745 71223 L74802 71251" /> 
<g style = "stroke-linecap:round;" > 
<path d="M74802 71251 L74802 71251" /> 
</g><path d="M75345 71623 L75345 71309" /> 
<path d="M75345 71309 L75316 71251" /> 
<path d="M75316 71251 L75259 71223" /> 
<path d="M75259 71223 L75145 71223" /> 
<path d="M75145 71223 L75088 71251" /> 
<g style = "stroke-linecap:round;" > 
<path d="M75088 71251 L75088 71251" /> 
</g><path d="M75345 71594 L75288 71623" /> 
<path d="M75288 71623 L75145 71623" /> 
<path d="M75145 71623 L75088 71594" /> 
<path d="M75088 71594 L75059 71537" /> 
<path d="M75059 71537 L75059 71480" /> 
<path d="M75059 71480 L75088 71423" /> 
<path d="M75088 71423 L75145 71394" /> 
<path d="M75145 71394 L75288 71394" /> 
<path d="M75288 71394 L75345 71366" /> 
<g style = "stroke-linecap:round;" > 
<path d="M75345 71366 L75345 71366" /> 
</g><path d="M75888 71623 L75888 71023" /> 
<g style = "stroke-linecap:round;" > 
<path d="M75888 71023 L75888 71023" /> 
</g><path d="M75888 71594 L75831 71623" /> 
<path d="M75831 71623 L75717 71623" /> 
<path d="M75717 71623 L75659 71594" /> 
<path d="M75659 71594 L75631 71566" /> 
<path d="M75631 71566 L75602 71509" /> 
<path d="M75602 71509 L75602 71337" /> 
<path d="M75602 71337 L75631 71280" /> 
<path d="M75631 71280 L75659 71251" /> 
<path d="M75659 71251 L75717 71223" /> 
<path d="M75717 71223 L75831 71223" /> 
<path d="M75831 71223 L75888 71251" /> 
<g style = "stroke-linecap:round;" > 
<path d="M75888 71251 L75888 71251" /> 
</g><path d="M76974 71566 L76945 71594" /> 
<path d="M76945 71594 L76859 71623" /> 
<path d="M76859 71623 L76802 71623" /> 
<path d="M76802 71623 L76717 71594" /> 
<path d="M76717 71594 L76659 71537" /> 
<path d="M76659 71537 L76631 71480" /> 
<path d="M76631 71480 L76602 71366" /> 
<path d="M76602 71366 L76602 71280" /> 
<path d="M76602 71280 L76631 71166" /> 
<path d="M76631 71166 L76659 71109" /> 
<path d="M76659 71109 L76717 71051" /> 
<path d="M76717 71051 L76802 71023" /> 
<path d="M76802 71023 L76859 71023" /> 
<path d="M76859 71023 L76945 71051" /> 
<path d="M76945 71051 L76974 71080" /> 
<g style = "stroke-linecap:round;" > 
<path d="M76974 71080 L76974 71080" /> 
</g><path d="M77488 71623 L77488 71309" /> 
<path d="M77488 71309 L77459 71251" /> 
<path d="M77459 71251 L77402 71223" /> 
<path d="M77402 71223 L77288 71223" /> 
<path d="M77288 71223 L77231 71251" /> 
<g style = "stroke-linecap:round;" > 
<path d="M77231 71251 L77231 71251" /> 
</g><path d="M77488 71594 L77431 71623" /> 
<path d="M77431 71623 L77288 71623" /> 
<path d="M77288 71623 L77231 71594" /> 
<path d="M77231 71594 L77202 71537" /> 
<path d="M77202 71537 L77202 71480" /> 
<path d="M77202 71480 L77231 71423" /> 
<path d="M77231 71423 L77288 71394" /> 
<path d="M77288 71394 L77431 71394" /> 
<path d="M77431 71394 L77488 71366" /> 
<g style = "stroke-linecap:round;" > 
<path d="M77488 71366 L77488 71366" /> 
</g><path d="M77774 71623 L77774 71223" /> 
<g style = "stroke-linecap:round;" > 
<path d="M77774 71223 L77774 71223" /> 
</g><path d="M77774 71337 L77802 71280" /> 
<path d="M77802 71280 L77831 71251" /> 
<path d="M77831 71251 L77888 71223" /> 
<path d="M77888 71223 L77945 71223" /> 
<g style = "stroke-linecap:round;" > 
<path d="M77945 71223 L77945 71223" /> 
</g><path d="M78231 71623 L78173 71594" /> 
<path d="M78173 71594 L78145 71537" /> 
<path d="M78145 71537 L78145 71023" /> 
<g style = "stroke-linecap:round;" > 
<path d="M78145 71023 L78145 71023" /> 
</g><path d="M78545 71623 L78487 71594" /> 
<path d="M78487 71594 L78459 71566" /> 
<path d="M78459 71566 L78430 71509" /> 
<path d="M78430 71509 L78430 71337" /> 
<path d="M78430 71337 L78459 71280" /> 
<path d="M78459 71280 L78487 71251" /> 
<path d="M78487 71251 L78545 71223" /> 
<path d="M78545 71223 L78630 71223" /> 
<path d="M78630 71223 L78687 71251" /> 
<path d="M78687 71251 L78716 71280" /> 
<path d="M78716 71280 L78745 71337" /> 
<path d="M78745 71337 L78745 71509" /> 
<path d="M78745 71509 L78716 71566" /> 
<path d="M78716 71566 L78687 71594" /> 
<path d="M78687 71594 L78630 71623" /> 
<path d="M78630 71623 L78545 71623" /> 
<path d="M78973 71594 L79030 71623" /> 
<path d="M79030 71623 L79145 71623" /> 
<path d="M79145 71623 L79202 71594" /> 
<path d="M79202 71594 L79230 71537" /> 
<path d="M79230 71537 L79230 71509" /> 
<path d="M79230 71509 L79202 71451" /> 
<path d="M79202 71451 L79145 71423" /> 
<path d="M79145 71423 L79059 71423" /> 
<path d="M79059 71423 L79002 71394" /> 
<path d="M79002 71394 L78973 71337" /> 
<path d="M78973 71337 L78973 71309" /> 
<path d="M78973 71309 L79002 71251" /> 
<path d="M79002 71251 L79059 71223" /> 
<path d="M79059 71223 L79145 71223" /> 
<path d="M79145 71223 L79202 71251" /> 
<g style = "stroke-linecap:round;" > 
<path d="M79202 71251 L79202 71251" /> 
</g><path d="M79945 71623 L79945 71023" /> 
<g style = "stroke-linecap:round;" > 
<path d="M79945 71023 L79945 71023" /> 
</g><path d="M80231 71623 L80231 71023" /> 
<g style = "stroke-linecap:round;" > 
<path d="M80231 71023 L80231 71023" /> 
</g><path d="M80517 71623 L80517 71023" /> 
<g style = "stroke-linecap:round;" > 
<path d="M80517 71023 L80517 71023" /> 
</g></g>
<g style="fill:#A00000; fill-opacity:0.0; 
  stroke:#A00000; stroke-linecap:round; stroke-linejoin:round; stroke-opacity:1.0; stroke-opacity:1.0; stroke-width:60" 
   transform="translate(0 0) scale(1 1)">
<path d="M70230 70780 L70230 77980" /> 
<path d="M70230 71980 L112230 71980" /> 
<path d="M70230 70780 L112230 70780" /> 
<path d="M70230 74380 L112230 74380" /> 
<path d="M103430 75580 L103430 77980" /> 
<path d="M70230 76780 L112230 76780" /> 
<path d="M70230 75580 L112230 75580" /> 
<path d="M76830 75580 L76830 76780" /> 
</g>
<g style="fill:#FFFF00; fill-opacity:0.0; 
  stroke:#FFFF00; stroke-linecap:round; stroke-linejoin:round; stroke-opacity:1.0; stroke-opacity:1.0; stroke-width:150" 
   transform="translate(0 0) scale(1 1)">
<ellipse cx="58465" cy="29724" rx="1250" ry="1250"  /> 
<path d="M55965 29724 L60965 29724" /> 
<path d="M58465 27224 L58465 32224" /> 
<ellipse cx="58465" cy="18701" rx="1250" ry="1250"  /> 
<path d="M55965 18701 L60965 18701" /> 
<path d="M58465 16201 L58465 21201" /> 
<ellipse cx="58465" cy="22047" rx="1250" ry="1250"  /> 
<path d="M55965 22047 L60965 22047" /> 
<path d="M58465 19547 L58465 24547" /> 
<ellipse cx="48622" cy="61024" rx="1250" ry="1250"  /> 
<path d="M46122 61024 L51122 61024" /> 
<path d="M48622 58524 L48622 63524" /> 
<ellipse cx="68307" cy="61024" rx="1250" ry="1250"  /> 
<path d="M65807 61024 L70807 61024" /> 
<path d="M68307 58524 L68307 63524" /> 
<ellipse cx="68307" cy="41339" rx="1250" ry="1250"  /> 
<path d="M65807 41339 L70807 41339" /> 
<path d="M68307 38839 L68307 43839" /> 
<ellipse cx="48622" cy="41339" rx="1250" ry="1250"  /> 
<path d="M46122 41339 L51122 41339" /> 
<path d="M48622 38839 L48622 43839" /> 
<ellipse cx="48622" cy="31496" rx="1250" ry="1250"  /> 
<path d="M46122 31496 L51122 31496" /> 
<path d="M48622 28996 L48622 33996" /> 
<ellipse cx="68307" cy="31496" rx="1250" ry="1250"  /> 
<path d="M65807 31496 L70807 31496" /> 
<path d="M68307 28996 L68307 33996" /> 
</g>
<g style="fill:#FFFF00; fill-opacity:0.0; 
  stroke:#C0C0C0; stroke-linecap:round; stroke-linejoin:round; stroke-opacity:1.0; stroke-opacity:1.0; stroke-width:150" 
   transform="translate(0 0) scale(1 1)">
<path d="M39567 27166 L77363 27166" /> 
</g>
<g style="fill:#C0C0C0; fill-opacity:0.0; 
  stroke:#C0C0C0; stroke-linecap:round; stroke-linejoin:round; stroke-opacity:1.0; stroke-opacity:1.0; stroke-width:150" 
   transform="translate(0 0) scale(1 1)">
<ellipse cx="58465" cy="41339" rx="19685" ry="19685"  /> 
</g>
<g style="fill:#C0C0C0; fill-opacity:0.0; 
  stroke:#C0C0C0; stroke-linecap:round; stroke-linejoin:round; stroke-opacity:1.0; stroke-opacity:1.0; stroke-width:120" 
   transform="translate(0 0) scale(1 1)">
<path d="M45018 57386 L45104 57424" /> 
<path d="M45104 57424 L45132 57462" /> 
<path d="M45132 57462 L45161 57538" /> 
<path d="M45161 57538 L45161 57652" /> 
<path d="M45161 57652 L45132 57729" /> 
<path d="M45132 57729 L45104 57767" /> 
<path d="M45104 57767 L45046 57805" /> 
<path d="M45046 57805 L44818 57805" /> 
<path d="M44818 57805 L44818 57005" /> 
<path d="M44818 57005 L45018 57005" /> 
<path d="M45018 57005 L45075 57043" /> 
<path d="M45075 57043 L45104 57081" /> 
<path d="M45104 57081 L45132 57157" /> 
<path d="M45132 57157 L45132 57233" /> 
<path d="M45132 57233 L45104 57310" /> 
<path d="M45104 57310 L45075 57348" /> 
<path d="M45075 57348 L45018 57386" /> 
<path d="M45018 57386 L44818 57386" /> 
<g style = "stroke-linecap:round;" > 
<path d="M44818 57386 L44818 57386" /> 
</g><path d="M45675 57805 L45675 57386" /> 
<path d="M45675 57386 L45646 57310" /> 
<path d="M45646 57310 L45589 57271" /> 
<path d="M45589 57271 L45475 57271" /> 
<path d="M45475 57271 L45418 57310" /> 
<g style = "stroke-linecap:round;" > 
<path d="M45418 57310 L45418 57310" /> 
</g><path d="M45675 57767 L45618 57805" /> 
<path d="M45618 57805 L45475 57805" /> 
<path d="M45475 57805 L45418 57767" /> 
<path d="M45418 57767 L45389 57691" /> 
<path d="M45389 57691 L45389 57614" /> 
<path d="M45389 57614 L45418 57538" /> 
<path d="M45418 57538 L45475 57500" /> 
<path d="M45475 57500 L45618 57500" /> 
<path d="M45618 57500 L45675 57462" /> 
<g style = "stroke-linecap:round;" > 
<path d="M45675 57462 L45675 57462" /> 
</g><path d="M45875 57271 L46104 57271" /> 
<g style = "stroke-linecap:round;" > 
<path d="M46104 57271 L46104 57271" /> 
</g><path d="M45961 57005 L45961 57691" /> 
<path d="M45961 57691 L45989 57767" /> 
<path d="M45989 57767 L46047 57805" /> 
<path d="M46047 57805 L46104 57805" /> 
<g style = "stroke-linecap:round;" > 
<path d="M46104 57805 L46104 57805" /> 
</g><path d="M46218 57271 L46447 57271" /> 
<g style = "stroke-linecap:round;" > 
<path d="M46447 57271 L46447 57271" /> 
</g><path d="M46304 57005 L46304 57691" /> 
<path d="M46304 57691 L46332 57767" /> 
<path d="M46332 57767 L46390 57805" /> 
<path d="M46390 57805 L46447 57805" /> 
<g style = "stroke-linecap:round;" > 
<path d="M46447 57805 L46447 57805" /> 
</g><path d="M46875 57767 L46818 57805" /> 
<path d="M46818 57805 L46704 57805" /> 
<path d="M46704 57805 L46647 57767" /> 
<path d="M46647 57767 L46618 57691" /> 
<path d="M46618 57691 L46618 57386" /> 
<path d="M46618 57386 L46647 57310" /> 
<path d="M46647 57310 L46704 57271" /> 
<path d="M46704 57271 L46818 57271" /> 
<path d="M46818 57271 L46875 57310" /> 
<path d="M46875 57310 L46904 57386" /> 
<path d="M46904 57386 L46904 57462" /> 
<path d="M46904 57462 L46618 57538" /> 
<g style = "stroke-linecap:round;" > 
<path d="M46618 57538 L46618 57538" /> 
</g><path d="M47161 57805 L47161 57271" /> 
<g style = "stroke-linecap:round;" > 
<path d="M47161 57271 L47161 57271" /> 
</g><path d="M47161 57424 L47189 57348" /> 
<path d="M47189 57348 L47218 57310" /> 
<path d="M47218 57310 L47275 57271" /> 
<path d="M47275 57271 L47332 57271" /> 
<g style = "stroke-linecap:round;" > 
<path d="M47332 57271 L47332 57271" /> 
</g><path d="M47475 57271 L47618 57805" /> 
<g style = "stroke-linecap:round;" > 
<path d="M47618 57805 L47618 57805" /> 
</g><path d="M47760 57271 L47618 57805" /> 
<path d="M47618 57805 L47560 57995" /> 
<path d="M47560 57995 L47532 58033" /> 
<path d="M47532 58033 L47475 58071" /> 
<g style = "stroke-linecap:round;" > 
<path d="M47475 58071 L47475 58071" /> 
</g></g>
<g style="fill:#C0C0C0; fill-opacity:0.0; 
  stroke:#C0C0C0; stroke-linecap:round; stroke-linejoin:round; stroke-opacity:1.0; stroke-opacity:1.0; stroke-width:150" 
   transform="translate(0 0) scale(1 1)">
<path d="M72638 44882 L44292 44882" /> 
<path d="M72638 58268 L72638 44882" /> 
<path d="M44292 58268 L72638 58268" /> 
<path d="M44292 53937 L44292 58268" /> 
<path d="M44292 44882 L44292 53937" /> 
<path d="M41142 41339 L41142 33859" /> 
<path d="M40355 33859 L40355 48819" /> 
<path d="M41142 48819 L41142 41339" /> 
<path d="M40749 33465 A3.9e+02 3.9e+02 0 0 0 40355 33859 " /> 
<path d="M41143 33859 A3.9e+02 3.9e+02 0 0 0 40749 33465 " /> 
<path d="M40355 48819 A3.9e+02 3.9e+02 0 0 0 40749 49213 " /> 
<path d="M40749 49212 A3.9e+02 3.9e+02 0 0 0 41142 48819 " /> 
<path d="M40355 33859 L39961 33859" /> 
<path d="M39961 33859 L39961 48819" /> 
<path d="M39961 48819 L40355 48819" /> 
<path d="M41142 33859 L41536 33859" /> 
<path d="M41536 33859 L41536 48819" /> 
<path d="M41536 48819 L41142 48819" /> 
</g>
<g style="fill:#C0C0C0; fill-opacity:0.0; 
  stroke:#FFFF00; stroke-linecap:round; stroke-linejoin:round; stroke-opacity:1.0; stroke-opacity:1.0; stroke-width:150" 
   transform="translate(0 0) scale(1 1)">
<path d="M39371 41339 L39371 35237" /> 
<path d="M39371 41339 L39371 47441" /> 
<path d="M42126 47441 L42126 35237" /> 
</g>
<g style="fill:#FFFF00; fill-opacity:0.0; 
  stroke:#FFFF00; stroke-linecap:round; stroke-linejoin:round; stroke-opacity:1.0; stroke-opacity:1.0; stroke-width:150" 
   transform="translate(0 0) scale(1 1)">
<path d="M40749 33859 A1.4e+03 1.4e+03 0 0 0 39371 35237 " /> 
<path d="M42127 35237 A1.4e+03 1.4e+03 0 0 0 40749 33859 " /> 
<path d="M39371 47441 A1.4e+03 1.4e+03 0 0 0 40749 48819 " /> 
<path d="M40749 48818 A1.4e+03 1.4e+03 0 0 0 42126 47441 " /> 
<ellipse cx="58465" cy="41339" rx="23622" ry="23622"  /> 
<path d="M76182 48818 A1.4e+03 1.4e+03 0 0 0 77559 47441 " /> 
<path d="M74804 47441 A1.4e+03 1.4e+03 0 0 0 76182 48819 " /> 
<path d="M77560 35237 A1.4e+03 1.4e+03 0 0 0 76182 33859 " /> 
<path d="M76182 33859 A1.4e+03 1.4e+03 0 0 0 74804 35237 " /> 
<path d="M77559 47441 L77559 35237" /> 
<path d="M74804 41339 L74804 47441" /> 
<path d="M74804 41339 L74804 35237" /> 
</g>
<g style="fill:#FFFF00; fill-opacity:0.0; 
  stroke:#C0C0C0; stroke-linecap:round; stroke-linejoin:round; stroke-opacity:1.0; stroke-opacity:1.0; stroke-width:150" 
   transform="translate(0 0) scale(1 1)">
<path d="M76969 48819 L76575 48819" /> 
<path d="M76969 33859 L76969 48819" /> 
<path d="M76575 33859 L76969 33859" /> 
<path d="M75394 48819 L75788 48819" /> 
<path d="M75394 33859 L75394 48819" /> 
<path d="M75788 33859 L75394 33859" /> 
</g>
<g style="fill:#C0C0C0; fill-opacity:0.0; 
  stroke:#C0C0C0; stroke-linecap:round; stroke-linejoin:round; stroke-opacity:1.0; stroke-opacity:1.0; stroke-width:150" 
   transform="translate(0 0) scale(1 1)">
<path d="M76182 49212 A3.9e+02 3.9e+02 0 0 0 76575 48819 " /> 
<path d="M75788 48819 A3.9e+02 3.9e+02 0 0 0 76182 49213 " /> 
<path d="M76576 33859 A3.9e+02 3.9e+02 0 0 0 76182 33465 " /> 
<path d="M76182 33465 A3.9e+02 3.9e+02 0 0 0 75788 33859 " /> 
<path d="M76575 48819 L76575 41339" /> 
<path d="M75788 33859 L75788 48819" /> 
<path d="M76575 41339 L76575 33859" /> 
</g>
<g style="fill:#A000A0; fill-opacity:0.0; 
  stroke:#A000A0; stroke-linecap:round; stroke-linejoin:round; stroke-opacity:1.0; stroke-opacity:1.0; stroke-width:150" 
   transform="translate(0 0) scale(1 1)">
<path d="M57481 24212 A1e+03 1e+03 0 0 0 58268 25393 " /> 
<path d="M58662 25393 A1e+03 1e+03 0 0 0 59449 24212 " /> 
<path d="M58465 25393 A9.8e+02 9.8e+02 0 0 0 59449 24409 " /> 
<path d="M57481 24409 A9.8e+02 9.8e+02 0 0 0 58465 25393 " /> 
<path d="M60827 19685 L60827 17913" /> 
<path d="M56103 19685 L56103 17913" /> 
<path d="M60827 29133 L60827 30511" /> 
<path d="M56103 29133 L56103 30511" /> 
<path d="M60827 28740 L56103 28740" /> 
<path d="M60827 30511 L56103 30511" /> 
<path d="M60827 17913 L56103 17913" /> 
<ellipse cx="58465" cy="29724" rx="591" ry="591"  /> 
<ellipse cx="58465" cy="18700" rx="591" ry="591"  /> 
<path d="M58465 19685 L56103 19685" /> 
<path d="M56103 19685 L56103 29133" /> 
<path d="M60827 29133 L60827 19685" /> 
<path d="M60827 19685 L58465 19685" /> 
<ellipse cx="58465" cy="22047" rx="2362" ry="2362"  /> 
<ellipse cx="58465" cy="22047" rx="886" ry="886"  /> 
<path d="M65973 26193 L65723 26626" /> 
<path d="M66839 26693 L66589 27126" /> 
<path d="M67705 27193 L67455 27626" /> 
<path d="M67272 26943 L67772 26077" /> 
<path d="M66406 26443 L66906 25577" /> 
<path d="M65540 25943 L66040 25077" /> 
<path d="M65540 25943 L68138 27443" /> 
<path d="M68138 27443 L68638 26577" /> 
<path d="M73651 28894 L75901 24997" /> 
<path d="M75901 24997 L70705 21997" /> 
<path d="M70705 21997 L68455 25894" /> 
<path d="M73651 28894 L74084 29144" /> 
<path d="M74084 29144 L73834 29577" /> 
<path d="M73834 29577 L73401 29327" /> 
<path d="M61527 21894 L61094 21644" /> 
<path d="M61094 21644 L60844 22077" /> 
<path d="M60844 22077 L61277 22327" /> 
<path d="M63777 17997 L61527 21894" /> 
<path d="M63777 17997 L68973 20997" /> 
<path d="M68973 20997 L66723 24894" /> 
<path d="M61527 21894 L73651 28894" /> 
<path d="M73401 29327 L67339 25827" /> 
<path d="M67339 25827 L61277 22327" /> 
<path d="M49225 27193 L49475 27626" /> 
<path d="M50091 26693 L50341 27126" /> 
<path d="M50957 26193 L51207 26626" /> 
<path d="M50524 26443 L50024 25577" /> 
<path d="M49658 26943 L49158 26077" /> 
<path d="M48792 27443 L48292 26577" /> 
<path d="M48792 27443 L51390 25943" /> 
<path d="M51390 25943 L50890 25077" /> 
<path d="M55403 21894 L53153 17997" /> 
<path d="M53153 17997 L47957 20997" /> 
<path d="M47957 20997 L50207 24894" /> 
<path d="M55403 21894 L55836 21644" /> 
<path d="M55836 21644 L56086 22077" /> 
<path d="M56086 22077 L55653 22327" /> 
<path d="M43279 28894 L42846 29144" /> 
<path d="M42846 29144 L43096 29577" /> 
<path d="M43096 29577 L43529 29327" /> 
<path d="M41029 24997 L43279 28894" /> 
<path d="M41029 24997 L46225 21997" /> 
<path d="M46225 21997 L48475 25894" /> 
<path d="M43279 28894 L55403 21894" /> 
<path d="M55653 22327 L49591 25827" /> 
<path d="M49591 25827 L43529 29327" /> 
<path d="M52500 63969 L52303 63575" /> 
<path d="M52303 63575 L52106 63969" /> 
<path d="M53681 61409 L53287 61409" /> 
<path d="M53681 62591 L53287 62591" /> 
<path d="M53287 60819 L53681 60819" /> 
<path d="M53681 60819 L53681 63181" /> 
<path d="M53681 63181 L53287 63181" /> 
<path d="M51516 63969 L51319 63969" /> 
<path d="M51319 63969 L51319 60031" /> 
<path d="M51319 60031 L51516 60031" /> 
<path d="M52500 63969 L51516 63969" /> 
<path d="M51516 63969 L51516 60031" /> 
<path d="M51516 60031 L53287 60031" /> 
<path d="M53287 60031 L53287 63969" /> 
<path d="M53287 63969 L52500 63969" /> 
<path d="M74500 41750 L74250 42000" /> 
<path d="M74500 41250 L74000 41750" /> 
<path d="M74500 40750 L74000 41250" /> 
<path d="M74750 41000 L74500 41000" /> 
<path d="M74750 41000 L74750 41500" /> 
<path d="M74500 41500 L74750 41500" /> 
<path d="M74500 42000 L74500 40750" /> 
<path d="M74500 40750 L74000 40750" /> 
<path d="M74000 40750 L74000 42000" /> 
<path d="M74250 42000 L74250 43250" /> 
<path d="M74500 42000 L74000 42000" /> 
<path d="M42500 40750 L42750 40500" /> 
<path d="M42500 41250 L43000 40750" /> 
<path d="M42500 41750 L43000 41250" /> 
<path d="M42250 41500 L42500 41500" /> 
<path d="M42250 41500 L42250 41000" /> 
<path d="M42500 41000 L42250 41000" /> 
<path d="M42500 40500 L42500 41750" /> 
<path d="M42500 41750 L43000 41750" /> 
<path d="M43000 41750 L43000 40500" /> 
<path d="M42750 40500 L42750 39250" /> 
<path d="M42500 40500 L43000 40500" /> 
<path d="M78000 41000 L77750 41000" /> 
<path d="M77750 41000 L77750 41500" /> 
<path d="M77750 41500 L78000 41500" /> 
<path d="M78500 42000 L78500 40750" /> 
<path d="M78500 40750 L78000 40750" /> 
<path d="M78000 40750 L78000 42000" /> 
<path d="M78250 42000 L78250 43250" /> 
<path d="M78500 42000 L78000 42000" /> 
<path d="M39000 41500 L39250 41500" /> 
<path d="M39250 41500 L39250 41000" /> 
<path d="M39250 41000 L39000 41000" /> 
<path d="M38500 40500 L38500 41750" /> 
<path d="M38500 41750 L39000 41750" /> 
<path d="M39000 41750 L39000 40500" /> 
<path d="M38750 40500 L38750 39250" /> 
<path d="M38500 40500 L39000 40500" /> 
</g> 
</svg> 
