M48
;DRILL file {Pcbnew (2011-nov-30)-testing} date Mon 09 Jul 2012 07:19:31 PM CEST
;FORMAT={2:4/ absolute / inch / keep zeros}
FMAT,2
INCH,TZ
T1C0.020
T2C0.025
T3C0.026
T4C0.028
T5C0.032
T6C0.035
T7C0.040
T8C0.086
T9C0.126
T10C0.315
%
G90
G05
M72
T1
X041465Y-028089
X043465Y-049339
X043965Y-037839
X044715Y-049339
X045465Y-061339
X047965Y-026089
X048965Y-030839
X049465Y-047839
X049965Y-053089
X051465Y-023089
X051715Y-032339
X051715Y-033039
X051715Y-045339
X051965Y-047339
X052215Y-032289
X052715Y-055589
X053715Y-051589
X053965Y-023839
X054215Y-052089
X054465Y-021589
X054715Y-045089
X054715Y-045839
X054715Y-052589
X055215Y-019339
X055465Y-055589
X055715Y-025339
X055965Y-051339
X056215Y-018339
X056215Y-026739
X056715Y-023839
X056715Y-024839
X056715Y-054089
X056715Y-055089
X056965Y-040089
X057215Y-019339
X057215Y-024339
X057465Y-040089
X057465Y-047839
X058435Y-042309
X058465Y-026839
X058565Y-047839
X058715Y-034539
X059715Y-019339
X060715Y-018339
X061715Y-019339
X062465Y-021589
X062465Y-025839
X065465Y-018839
X065465Y-020589
X065465Y-053589
X067215Y-023089
X069465Y-050589
X070465Y-050589
X071965Y-050589
X072465Y-047339
X076215Y-053089
X078715Y-031839
X078715Y-032839
T2
X056715Y-043339
T3
X065922Y-029009
X065923Y-037669
X066710Y-029009
X066710Y-037669
X067497Y-029009
X067497Y-037669
X068284Y-029009
X068284Y-037669
X069072Y-029009
X069072Y-037669
X069858Y-029009
X069858Y-037669
X070646Y-029009
X070646Y-037669
X071433Y-029009
X071433Y-037669
X072220Y-029009
X072220Y-037669
X073008Y-029009
X073008Y-037669
T4
X050591Y-053975
X050591Y-054475
X050591Y-054975
X050591Y-055475
X057715Y-033071
X058215Y-033071
X058715Y-033071
X059215Y-033071
X066339Y-053975
X066339Y-054475
X066339Y-054975
X066339Y-055475
T5
X041965Y-057339
X042715Y-035339
X042715Y-038339
X042715Y-044339
X042715Y-047339
X042965Y-029339
X042965Y-032339
X042965Y-056339
X042965Y-057339
X043965Y-029339
X043965Y-032339
X043965Y-057839
X043965Y-058839
X043965Y-059839
X044965Y-029339
X044965Y-032339
X045465Y-035589
X045965Y-029339
X045965Y-032339
X046465Y-040339
X046465Y-042339
X046965Y-029339
X046965Y-032339
X046965Y-044339
X046965Y-046339
X046965Y-057839
X046965Y-058839
X046965Y-059839
X047965Y-029339
X047965Y-032339
X047965Y-044339
X047965Y-046339
X048215Y-057839
X048215Y-058839
X048465Y-035589
X048465Y-037339
X048465Y-039339
X048965Y-029339
X048965Y-032339
X049465Y-035339
X049465Y-036339
X049465Y-037339
X049465Y-038339
X049465Y-039339
X049465Y-044339
X049465Y-046339
X049965Y-029339
X049965Y-032339
X050091Y-057087
X050965Y-036339
X050965Y-037339
X050965Y-038339
X050965Y-039339
X050965Y-040339
X050965Y-041339
X050965Y-042339
X050965Y-043339
X050965Y-044339
X050965Y-045339
X050965Y-046339
X050965Y-047339
X050965Y-048339
X050965Y-049339
X051091Y-057087
X051465Y-028339
X051465Y-029339
X051965Y-054089
X051965Y-055089
X051965Y-056089
X051965Y-057089
X052465Y-058339
X052465Y-059339
X053715Y-030589
X053965Y-036339
X053965Y-037339
X053965Y-038339
X053965Y-039339
X053965Y-040339
X053965Y-041339
X053965Y-042339
X053965Y-043339
X053965Y-044339
X053965Y-045339
X053965Y-046339
X053965Y-047339
X053965Y-048339
X053965Y-049339
X054465Y-057839
X054965Y-041339
X054965Y-044339
X054965Y-054089
X054965Y-055089
X054965Y-056089
X054965Y-057089
X054965Y-064089
X055715Y-030589
X055965Y-042339
X055965Y-044339
X055965Y-049339
X055965Y-052339
X055965Y-064089
X056965Y-049339
X056965Y-052339
X057465Y-027339
X057465Y-028339
X057465Y-057839
X057465Y-064089
X057965Y-035433
X057965Y-049339
X057965Y-052339
X057965Y-055589
X058465Y-057839
X058465Y-064089
X058965Y-035433
X058965Y-049339
X058965Y-052339
X058965Y-055589
X059465Y-027339
X059465Y-028339
X059465Y-064089
X059965Y-032589
X059965Y-035589
X059965Y-049339
X059965Y-052339
X060965Y-032589
X060965Y-035589
X060965Y-049339
X060965Y-052339
X061215Y-030589
X061465Y-057839
X061965Y-049339
X061965Y-052339
X062965Y-049339
X062965Y-052339
X063215Y-030589
X063965Y-049339
X063965Y-052339
X064965Y-049339
X064965Y-052339
X065715Y-039089
X065965Y-049339
X065965Y-052339
X066339Y-056587
X066339Y-057587
X066715Y-031839
X066715Y-034839
X066715Y-039089
X066965Y-049339
X066965Y-052339
X067215Y-043839
X067215Y-046839
X067715Y-031839
X067715Y-034839
X067715Y-039089
X068465Y-027839
X068715Y-031839
X068715Y-034839
X068715Y-049839
X068715Y-051839
X069715Y-030339
X069715Y-031839
X069715Y-034839
X070465Y-027839
X070715Y-031839
X070715Y-034839
X070715Y-039089
X070965Y-036339
X070965Y-049339
X070965Y-052339
X071715Y-027839
X071715Y-031839
X071715Y-034839
X071965Y-049339
X071965Y-052339
X072715Y-026839
X072715Y-027839
X072715Y-030339
X072715Y-031839
X072715Y-034839
X072965Y-036339
X072965Y-049339
X072965Y-052339
X073965Y-049339
X073965Y-052339
X074215Y-029339
X074215Y-031589
X074215Y-035339
X074215Y-038339
X074215Y-044339
X074215Y-047339
X075215Y-029339
X075215Y-031589
X075215Y-032589
T6
X038715Y-039339
X038715Y-040339
X038715Y-042339
X038715Y-043339
X042715Y-039339
X042715Y-040339
X042715Y-042339
X042715Y-043339
X049725Y-028059
X050591Y-027559
X051457Y-027059
X052465Y-060839
X052465Y-061839
X052465Y-062839
X054465Y-058839
X054465Y-060089
X054465Y-061339
X054465Y-062589
X060715Y-058839
X060715Y-062589
X064965Y-030840
X064965Y-031839
X064965Y-032839
X064965Y-033839
X064965Y-034839
X064965Y-035839
X065473Y-027059
X066339Y-027559
X067205Y-028059
X074215Y-039339
X074215Y-040339
X074215Y-042339
X074215Y-043339
X078215Y-039339
X078215Y-040339
X078215Y-042339
X078215Y-043339
T7
X045465Y-036839
X045465Y-039339
X047215Y-036839
X047215Y-039339
X053465Y-027589
X054465Y-027589
X054965Y-028589
X054965Y-029589
X054965Y-035339
X054965Y-036339
X054965Y-037339
X054965Y-038339
X055465Y-027589
X055965Y-035339
X055965Y-036339
X055965Y-037339
X055965Y-038339
X058965Y-039839
X058965Y-040839
X058965Y-041839
X058965Y-042839
X058965Y-043839
X058965Y-044839
X058965Y-045839
X058965Y-046839
X059965Y-039839
X059965Y-040839
X059965Y-041839
X059965Y-042839
X059965Y-043839
X059965Y-044839
X059965Y-045839
X059965Y-046839
X060965Y-039839
X060965Y-040839
X060965Y-041839
X060965Y-042839
X060965Y-043839
X060965Y-044839
X060965Y-045839
X060965Y-046839
X061465Y-027589
X061965Y-028589
X061965Y-029589
X061965Y-039839
X061965Y-040839
X061965Y-041839
X061965Y-042839
X061965Y-043839
X061965Y-044839
X061965Y-045839
X061965Y-046839
X062465Y-027589
X062965Y-043839
X062965Y-044839
X062965Y-045839
X062965Y-046839
X063036Y-039840
X063036Y-040840
X063036Y-041840
X063036Y-042840
X063465Y-027589
X063965Y-043839
X063965Y-044839
X063965Y-045839
X063965Y-046839
X064036Y-039840
X064036Y-040840
X064036Y-041840
X064036Y-042840
X064465Y-027589
X064965Y-043839
X064965Y-044839
X064965Y-045839
X064965Y-046839
X065965Y-043839
X065965Y-044839
X065965Y-045839
X065965Y-046839
X067465Y-058839
X068215Y-044089
X068215Y-046589
X069965Y-044089
X069965Y-046589
X071465Y-058839
T8
X033859Y-041339
X041044Y-023918
X041044Y-058760
X058465Y-016733
X058465Y-018701
X058465Y-029725
X058465Y-065945
X075886Y-023918
X075886Y-058760
X083071Y-041339
T9
X048620Y-041337
X048621Y-061024
X068307Y-041338
X068307Y-061024
T10
X058465Y-022048
T7
X063165Y-058939G85X063765Y-058939
G05
X063165Y-061339G85X063765Y-061339
G05
X065465Y-060739G85X065465Y-060139
G05
T0
M30
