M48
;DRILL file {Pcbnew (2011-nov-30)-testing} date Mon 09 Jul 2012 12:54:04 AM CEST
;FORMAT={-:-/ absolute / inch / decimal}
FMAT,2
INCH,TZ
T1C0.025
T2C0.026
T3C0.028
T4C0.032
T5C0.035
T6C0.040
T7C0.086
T8C0.126
T9C0.315
%
G90
G05
M72
T1
X4.147Y2.809
X4.346Y4.934
X4.397Y3.784
X4.471Y4.934
X4.546Y6.134
X4.796Y2.609
X4.897Y3.084
X4.947Y4.784
X4.997Y5.309
X5.147Y2.309
X5.171Y3.234
X5.171Y3.309
X5.171Y4.534
X5.197Y4.734
X5.221Y3.234
X5.272Y5.559
X5.372Y5.159
X5.397Y2.384
X5.421Y5.209
X5.447Y2.159
X5.472Y4.509
X5.472Y4.584
X5.472Y5.259
X5.522Y1.934
X5.546Y5.559
X5.572Y2.534
X5.597Y5.134
X5.622Y1.834
X5.622Y2.684
X5.671Y2.384
X5.671Y2.484
X5.671Y4.334
X5.671Y5.409
X5.671Y5.509
X5.697Y4.009
X5.722Y1.934
X5.722Y2.434
X5.747Y4.009
X5.747Y4.784
X5.847Y2.684
X5.847Y4.234
X5.847Y4.784
X5.872Y3.459
X5.972Y1.934
X6.072Y1.834
X6.171Y1.934
X6.247Y2.159
X6.247Y2.584
X6.546Y1.884
X6.546Y2.059
X6.546Y5.359
X6.722Y2.309
X6.947Y5.059
X7.046Y5.059
X7.197Y5.059
X7.247Y4.734
X7.622Y5.309
X7.822Y4.334
X7.872Y3.184
X7.872Y3.284
T2
X6.592Y2.901
X6.592Y3.767
X6.671Y2.901
X6.671Y3.767
X6.750Y2.901
X6.750Y3.767
X6.828Y2.901
X6.828Y3.767
X6.907Y2.901
X6.907Y3.767
X6.986Y2.901
X6.986Y3.767
X7.065Y2.901
X7.065Y3.767
X7.143Y2.901
X7.143Y3.767
X7.222Y2.901
X7.222Y3.767
X7.301Y2.901
X7.301Y3.767
T3
X5.059Y5.397
X5.059Y5.448
X5.059Y5.498
X5.059Y5.548
X5.772Y3.307
X5.822Y3.307
X5.872Y3.307
X5.921Y3.307
X6.634Y5.397
X6.634Y5.448
X6.634Y5.498
X6.634Y5.548
T4
X4.197Y5.734
X4.272Y3.534
X4.272Y3.834
X4.272Y4.434
X4.272Y4.734
X4.296Y2.934
X4.296Y3.234
X4.296Y5.634
X4.296Y5.734
X4.397Y2.934
X4.397Y3.234
X4.397Y5.784
X4.397Y5.884
X4.397Y5.984
X4.497Y2.934
X4.497Y3.234
X4.546Y3.559
X4.596Y2.934
X4.596Y3.234
X4.647Y4.034
X4.647Y4.234
X4.697Y2.934
X4.697Y3.234
X4.697Y4.434
X4.697Y4.634
X4.697Y5.784
X4.697Y5.884
X4.697Y5.984
X4.796Y2.934
X4.796Y3.234
X4.796Y4.434
X4.796Y4.634
X4.822Y5.784
X4.822Y5.884
X4.846Y3.559
X4.846Y3.734
X4.846Y3.934
X4.897Y2.934
X4.897Y3.234
X4.947Y3.534
X4.947Y3.634
X4.947Y3.734
X4.947Y3.834
X4.947Y3.934
X4.947Y4.434
X4.947Y4.634
X4.997Y2.934
X4.997Y3.234
X5.009Y5.709
X5.096Y3.634
X5.096Y3.734
X5.096Y3.834
X5.096Y3.934
X5.096Y4.034
X5.096Y4.134
X5.096Y4.234
X5.096Y4.334
X5.096Y4.434
X5.096Y4.534
X5.096Y4.634
X5.096Y4.734
X5.096Y4.834
X5.096Y4.934
X5.109Y5.709
X5.147Y2.834
X5.147Y2.934
X5.197Y5.409
X5.197Y5.509
X5.197Y5.609
X5.197Y5.709
X5.247Y5.834
X5.247Y5.934
X5.372Y3.059
X5.397Y3.634
X5.397Y3.734
X5.397Y3.834
X5.397Y3.934
X5.397Y4.034
X5.397Y4.134
X5.397Y4.234
X5.397Y4.334
X5.397Y4.434
X5.397Y4.534
X5.397Y4.634
X5.397Y4.734
X5.397Y4.834
X5.397Y4.934
X5.447Y5.784
X5.497Y4.134
X5.497Y4.434
X5.497Y5.409
X5.497Y5.509
X5.497Y5.609
X5.497Y5.709
X5.497Y6.409
X5.572Y3.059
X5.597Y4.234
X5.597Y4.434
X5.597Y4.934
X5.597Y5.234
X5.597Y6.409
X5.697Y4.934
X5.697Y5.234
X5.747Y2.734
X5.747Y2.834
X5.747Y5.784
X5.747Y6.409
X5.796Y3.543
X5.796Y4.934
X5.796Y5.234
X5.796Y5.559
X5.847Y5.784
X5.847Y6.409
X5.897Y3.543
X5.897Y4.934
X5.897Y5.234
X5.897Y5.559
X5.947Y2.734
X5.947Y2.834
X5.947Y6.409
X5.997Y3.259
X5.997Y3.559
X5.997Y4.934
X5.997Y5.234
X6.097Y3.259
X6.097Y3.559
X6.097Y4.934
X6.097Y5.234
X6.122Y3.059
X6.147Y5.784
X6.197Y4.934
X6.197Y5.234
X6.296Y4.934
X6.296Y5.234
X6.322Y3.059
X6.397Y4.934
X6.397Y5.234
X6.497Y4.934
X6.497Y5.234
X6.572Y3.909
X6.597Y4.934
X6.597Y5.234
X6.634Y5.659
X6.634Y5.759
X6.671Y3.184
X6.671Y3.484
X6.671Y3.909
X6.697Y4.934
X6.697Y5.234
X6.722Y4.384
X6.722Y4.684
X6.772Y3.184
X6.772Y3.484
X6.772Y3.909
X6.847Y2.784
X6.872Y3.184
X6.872Y3.484
X6.872Y4.984
X6.872Y5.184
X6.972Y3.034
X6.972Y3.184
X6.972Y3.484
X7.046Y2.784
X7.072Y3.184
X7.072Y3.484
X7.072Y3.909
X7.097Y3.634
X7.097Y4.934
X7.097Y5.234
X7.171Y2.784
X7.171Y3.184
X7.171Y3.484
X7.197Y4.934
X7.197Y5.234
X7.272Y2.684
X7.272Y2.784
X7.272Y3.034
X7.272Y3.184
X7.272Y3.484
X7.296Y3.634
X7.296Y4.934
X7.296Y5.234
X7.397Y4.934
X7.397Y5.234
X7.421Y2.934
X7.421Y3.159
X7.421Y3.534
X7.421Y3.834
X7.421Y4.434
X7.421Y4.734
X7.522Y2.934
X7.522Y3.159
X7.522Y3.259
T5
X3.872Y3.934
X3.872Y4.034
X3.872Y4.234
X3.872Y4.334
X4.272Y3.934
X4.272Y4.034
X4.272Y4.234
X4.272Y4.334
X4.973Y2.806
X5.059Y2.756
X5.146Y2.706
X5.247Y6.084
X5.247Y6.184
X5.247Y6.284
X5.447Y5.884
X5.447Y6.009
X5.447Y6.134
X5.447Y6.259
X6.072Y5.884
X6.072Y6.259
X6.497Y3.084
X6.497Y3.184
X6.497Y3.284
X6.497Y3.384
X6.497Y3.484
X6.497Y3.584
X6.547Y2.706
X6.634Y2.756
X6.721Y2.806
X7.421Y3.934
X7.421Y4.034
X7.421Y4.234
X7.421Y4.334
X7.822Y3.934
X7.822Y4.034
X7.822Y4.234
X7.822Y4.334
T6
X4.546Y3.684
X4.546Y3.934
X4.721Y3.684
X4.721Y3.934
X5.347Y2.759
X5.447Y2.759
X5.497Y2.859
X5.497Y2.959
X5.497Y3.534
X5.497Y3.634
X5.497Y3.734
X5.497Y3.834
X5.546Y2.759
X5.597Y3.534
X5.597Y3.634
X5.597Y3.734
X5.597Y3.834
X5.897Y3.984
X5.897Y4.084
X5.897Y4.184
X5.897Y4.284
X5.897Y4.384
X5.897Y4.484
X5.897Y4.584
X5.897Y4.684
X5.997Y3.984
X5.997Y4.084
X5.997Y4.184
X5.997Y4.284
X5.997Y4.384
X5.997Y4.484
X5.997Y4.584
X5.997Y4.684
X6.097Y3.984
X6.097Y4.084
X6.097Y4.184
X6.097Y4.284
X6.097Y4.384
X6.097Y4.484
X6.097Y4.584
X6.097Y4.684
X6.147Y2.759
X6.197Y2.859
X6.197Y2.959
X6.197Y3.984
X6.197Y4.084
X6.197Y4.184
X6.197Y4.284
X6.197Y4.384
X6.197Y4.484
X6.197Y4.584
X6.197Y4.684
X6.247Y2.759
X6.296Y4.384
X6.296Y4.484
X6.296Y4.584
X6.296Y4.684
X6.304Y3.984
X6.304Y4.084
X6.304Y4.184
X6.304Y4.284
X6.347Y2.759
X6.397Y4.384
X6.397Y4.484
X6.397Y4.584
X6.397Y4.684
X6.404Y3.984
X6.404Y4.084
X6.404Y4.184
X6.404Y4.284
X6.447Y2.759
X6.497Y4.384
X6.497Y4.484
X6.497Y4.584
X6.497Y4.684
X6.597Y4.384
X6.597Y4.484
X6.597Y4.584
X6.597Y4.684
X6.747Y5.884
X6.822Y4.409
X6.822Y4.659
X6.997Y4.409
X6.997Y4.659
X7.147Y5.884
T7
X3.386Y4.134
X4.104Y2.392
X4.104Y5.876
X5.847Y1.673
X5.847Y1.870
X5.847Y2.973
X5.847Y6.595
X7.589Y2.392
X7.589Y5.876
X8.307Y4.134
T8
X4.862Y4.134
X4.862Y6.102
X6.831Y4.134
X6.831Y6.102
T9
X5.847Y2.205
T6
X6.317Y5.894G85X6.377Y5.894
G05
X6.317Y6.134G85X6.377Y6.134
G05
X6.546Y6.074G85X6.546Y6.014
G05
T0
M30
